<svg xmlns="http://www.w3.org/2000/svg" xmlns:xlink="http://www.w3.org/1999/xlink" version="1.1" data-diagram-type="DESCRIPTION" style="width:2983px;height:615px;background:#FFFFFF;" width="2983px" height="615px" viewBox="0 0 2983 615" zoomAndPan="magnify" preserveAspectRatio="none" contentStyleType="text/css"><?plantuml 1.2026.7beta3?><defs/><g><g class="title" data-source-line="8"><text x="1251.1532" y="22.9951" fill="#000000" font-size="14" lengthAdjust="spacing" textLength="474.0176" font-weight="700" font-family="'Plus Jakarta Sans'">Diagram Arsitektur Komponen (Full Laravel Blade Monolith)</text></g><!--cluster Frontend (Sisi Klien / Client Side)--><g class="cluster" data-qualified-name="Frontend .Sisi Klien . Client Side." id="ent0001" data-source-line="10"><polygon points="2020.66,343.4869,2289.5155,343.4869,2296.5155,365.7838,2585.66,365.7838,2585.66,600.6769,2020.66,600.6769,2020.66,343.4869" fill="none" style="stroke:#000000;stroke-width:1.5;stroke-linejoin:miter;stroke-miterlimit:10;"/><line x1="2020.66" y1="365.7838" x2="2296.5155" y2="365.7838" style="stroke:#000000;stroke-width:1.5;"/><text x="2024.66" y="358.482" fill="#000000" font-size="14" lengthAdjust="spacing" textLength="262.8555" font-weight="700" font-family="'Plus Jakarta Sans'">Frontend (Sisi Klien / Client Side)</text></g><!--cluster Backend (Laravel Monolith)--><g class="cluster" data-qualified-name="Backend .Laravel Monolith." id="ent0005" data-source-line="16"><polygon points="161.66,43.2969,384.9471,43.2969,391.9471,65.5938,1760.66,65.5938,1760.66,600.6769,161.66,600.6769,161.66,43.2969" fill="none" style="stroke:#000000;stroke-width:1.5;stroke-linejoin:miter;stroke-miterlimit:10;"/><line x1="161.66" y1="65.5938" x2="391.9471" y2="65.5938" style="stroke:#000000;stroke-width:1.5;"/><text x="165.66" y="58.292" fill="#000000" font-size="14" lengthAdjust="spacing" textLength="217.2871" font-weight="700" font-family="'Plus Jakarta Sans'">Backend (Laravel Monolith)</text></g><!--entity BladeUI--><g class="entity" data-qualified-name="Frontend .Sisi Klien . Client Side..BladeUI" id="ent0002" data-source-line="11"><rect x="2219.36" y="378.4869" width="184.6074" height="62.5938" fill="#F7F4EB" style="stroke:#022C22;stroke-width:0.5;" rx="2.5" ry="2.5"/><rect x="2383.9674" y="383.4869" width="15" height="10" fill="#F7F4EB" style="stroke:#022C22;stroke-width:0.5;"/><rect x="2381.9674" y="385.4869" width="4" height="2" fill="#F7F4EB" style="stroke:#022C22;stroke-width:0.5;"/><rect x="2381.9674" y="389.4869" width="4" height="2" fill="#F7F4EB" style="stroke:#022C22;stroke-width:0.5;"/><text x="2234.36" y="411.482" fill="#022C22" font-size="14" lengthAdjust="spacing" textLength="84.8477" font-family="'Plus Jakarta Sans'">Blade Views</text><text x="2234.36" y="427.7789" fill="#022C22" font-size="14" lengthAdjust="spacing" textLength="144.6074" font-family="'Plus Jakarta Sans'">(HTML/Tailwind CSS)</text></g><!--entity Alpine--><g class="entity" data-qualified-name="Frontend .Sisi Klien . Client Side..Alpine" id="ent0003" data-source-line="12"><rect x="2036.81" y="378.4869" width="147.6934" height="62.5938" fill="#F7F4EB" style="stroke:#022C22;stroke-width:0.5;" rx="2.5" ry="2.5"/><rect x="2164.5034" y="383.4869" width="15" height="10" fill="#F7F4EB" style="stroke:#022C22;stroke-width:0.5;"/><rect x="2162.5034" y="385.4869" width="4" height="2" fill="#F7F4EB" style="stroke:#022C22;stroke-width:0.5;"/><rect x="2162.5034" y="389.4869" width="4" height="2" fill="#F7F4EB" style="stroke:#022C22;stroke-width:0.5;"/><text x="2051.81" y="411.482" fill="#022C22" font-size="14" lengthAdjust="spacing" textLength="59.3633" font-family="'Plus Jakarta Sans'">Alpine.js</text><text x="2051.81" y="427.7789" fill="#022C22" font-size="14" lengthAdjust="spacing" textLength="107.6934" font-family="'Plus Jakarta Sans'">(Reaktivitas UI)</text></g><!--entity HttpClient--><g class="entity" data-qualified-name="Frontend .Sisi Klien . Client Side..HttpClient" id="ent0004" data-source-line="13"><rect x="2199.83" y="522.0869" width="223.668" height="62.5938" fill="#F7F4EB" style="stroke:#022C22;stroke-width:0.5;" rx="2.5" ry="2.5"/><rect x="2403.498" y="527.0869" width="15" height="10" fill="#F7F4EB" style="stroke:#022C22;stroke-width:0.5;"/><rect x="2401.498" y="529.0869" width="4" height="2" fill="#F7F4EB" style="stroke:#022C22;stroke-width:0.5;"/><rect x="2401.498" y="533.0869" width="4" height="2" fill="#F7F4EB" style="stroke:#022C22;stroke-width:0.5;"/><text x="2214.83" y="555.082" fill="#022C22" font-size="14" lengthAdjust="spacing" textLength="183.668" font-family="'Plus Jakarta Sans'">HTTP Client (Axios / Form)</text><text x="2214.83" y="571.3789" fill="#022C22" font-size="14" lengthAdjust="spacing" textLength="122.5" font-family="'Plus Jakarta Sans'">(Request Sender)</text></g><!--entity Router--><g class="entity" data-qualified-name="Backend .Laravel Monolith..Router" id="ent0006" data-source-line="17"><rect x="1481.52" y="78.2969" width="160.2783" height="62.5938" fill="#F7F4EB" style="stroke:#022C22;stroke-width:0.5;" rx="2.5" ry="2.5"/><rect x="1621.7983" y="83.2969" width="15" height="10" fill="#F7F4EB" style="stroke:#022C22;stroke-width:0.5;"/><rect x="1619.7983" y="85.2969" width="4" height="2" fill="#F7F4EB" style="stroke:#022C22;stroke-width:0.5;"/><rect x="1619.7983" y="89.2969" width="4" height="2" fill="#F7F4EB" style="stroke:#022C22;stroke-width:0.5;"/><text x="1496.52" y="111.292" fill="#022C22" font-size="14" lengthAdjust="spacing" textLength="102.9766" font-family="'Plus Jakarta Sans'">Laravel Router</text><text x="1496.52" y="127.5889" fill="#022C22" font-size="14" lengthAdjust="spacing" textLength="120.2783" font-family="'Plus Jakarta Sans'">(routes/web.php)</text></g><!--entity Controllers--><g class="entity" data-qualified-name="Backend .Laravel Monolith..Controllers" id="ent0007" data-source-line="19"><rect x="1169.05" y="217.8969" width="167.2168" height="62.5938" fill="#F7F4EB" style="stroke:#022C22;stroke-width:0.5;" rx="2.5" ry="2.5"/><rect x="1316.2668" y="222.8969" width="15" height="10" fill="#F7F4EB" style="stroke:#022C22;stroke-width:0.5;"/><rect x="1314.2668" y="224.8969" width="4" height="2" fill="#F7F4EB" style="stroke:#022C22;stroke-width:0.5;"/><rect x="1314.2668" y="228.8969" width="4" height="2" fill="#F7F4EB" style="stroke:#022C22;stroke-width:0.5;"/><text x="1184.05" y="250.892" fill="#022C22" font-size="14" lengthAdjust="spacing" textLength="76.4668" font-family="'Plus Jakarta Sans'">Controllers</text><text x="1184.05" y="267.1889" fill="#022C22" font-size="14" lengthAdjust="spacing" textLength="127.2168" font-family="'Plus Jakarta Sans'">(Http/Controllers/)</text></g><!--entity Requests--><g class="entity" data-qualified-name="Backend .Laravel Monolith..Requests" id="ent0008" data-source-line="21"><rect x="1393.89" y="378.4869" width="155.541" height="62.5938" fill="#F7F4EB" style="stroke:#022C22;stroke-width:0.5;" rx="2.5" ry="2.5"/><rect x="1529.431" y="383.4869" width="15" height="10" fill="#F7F4EB" style="stroke:#022C22;stroke-width:0.5;"/><rect x="1527.431" y="385.4869" width="4" height="2" fill="#F7F4EB" style="stroke:#022C22;stroke-width:0.5;"/><rect x="1527.431" y="389.4869" width="4" height="2" fill="#F7F4EB" style="stroke:#022C22;stroke-width:0.5;"/><text x="1408.89" y="411.482" fill="#022C22" font-size="14" lengthAdjust="spacing" textLength="105.2529" font-family="'Plus Jakarta Sans'">Form Requests</text><text x="1408.89" y="427.7789" fill="#022C22" font-size="14" lengthAdjust="spacing" textLength="115.541" font-family="'Plus Jakarta Sans'">(Http/Requests/)</text></g><!--entity Policies--><g class="entity" data-qualified-name="Backend .Laravel Monolith..Policies" id="ent0009" data-source-line="23"><rect x="344.7" y="378.4869" width="107.9219" height="62.5938" fill="#F7F4EB" style="stroke:#022C22;stroke-width:0.5;" rx="2.5" ry="2.5"/><rect x="432.6219" y="383.4869" width="15" height="10" fill="#F7F4EB" style="stroke:#022C22;stroke-width:0.5;"/><rect x="430.6219" y="385.4869" width="4" height="2" fill="#F7F4EB" style="stroke:#022C22;stroke-width:0.5;"/><rect x="430.6219" y="389.4869" width="4" height="2" fill="#F7F4EB" style="stroke:#022C22;stroke-width:0.5;"/><text x="359.7" y="411.482" fill="#022C22" font-size="14" lengthAdjust="spacing" textLength="52.2813" font-family="'Plus Jakarta Sans'">Policies</text><text x="359.7" y="427.7789" fill="#022C22" font-size="14" lengthAdjust="spacing" textLength="67.9219" font-family="'Plus Jakarta Sans'">(Policies/)</text></g><!--entity Services--><g class="entity" data-qualified-name="Backend .Laravel Monolith..Services" id="ent0010" data-source-line="25"><rect x="1130.36" y="378.4869" width="190.5957" height="62.5938" fill="#F7F4EB" style="stroke:#022C22;stroke-width:0.5;" rx="2.5" ry="2.5"/><rect x="1300.9557" y="383.4869" width="15" height="10" fill="#F7F4EB" style="stroke:#022C22;stroke-width:0.5;"/><rect x="1298.9557" y="385.4869" width="4" height="2" fill="#F7F4EB" style="stroke:#022C22;stroke-width:0.5;"/><rect x="1298.9557" y="389.4869" width="4" height="2" fill="#F7F4EB" style="stroke:#022C22;stroke-width:0.5;"/><text x="1145.36" y="411.482" fill="#022C22" font-size="14" lengthAdjust="spacing" textLength="124.0381" font-family="'Plus Jakarta Sans'">Services / Actions</text><text x="1145.36" y="427.7789" fill="#022C22" font-size="14" lengthAdjust="spacing" textLength="150.5957" font-family="'Plus Jakarta Sans'">(Services/ &amp; Actions/)</text></g><!--entity Models--><g class="entity" data-qualified-name="Backend .Laravel Monolith..Models" id="ent0011" data-source-line="27"><rect x="548.75" y="522.0869" width="155.8145" height="62.5938" fill="#F7F4EB" style="stroke:#022C22;stroke-width:0.5;" rx="2.5" ry="2.5"/><rect x="684.5645" y="527.0869" width="15" height="10" fill="#F7F4EB" style="stroke:#022C22;stroke-width:0.5;"/><rect x="682.5645" y="529.0869" width="4" height="2" fill="#F7F4EB" style="stroke:#022C22;stroke-width:0.5;"/><rect x="682.5645" y="533.0869" width="4" height="2" fill="#F7F4EB" style="stroke:#022C22;stroke-width:0.5;"/><text x="563.75" y="555.082" fill="#022C22" font-size="14" lengthAdjust="spacing" textLength="115.8145" font-family="'Plus Jakarta Sans'">Eloquent Models</text><text x="563.75" y="571.3789" fill="#022C22" font-size="14" lengthAdjust="spacing" textLength="64.9688" font-family="'Plus Jakarta Sans'">(Models/)</text></g><!--entity MySQL--><g class="entity" data-qualified-name="MySQL" id="ent0012" data-source-line="30"><path d="M6,397.1369 C6,387.1369 75.6606,387.1369 75.6606,387.1369 C75.6606,387.1369 145.3213,387.1369 145.3213,397.1369 L145.3213,422.4338 C145.3213,432.4338 75.6606,432.4338 75.6606,432.4338 C75.6606,432.4338 6,432.4338 6,422.4338 L6,397.1369" style="stroke:#181818;stroke-width:0.5;" fill="#F1F1F1"/><path d="M6,397.1369 C6,407.1369 75.6606,407.1369 75.6606,407.1369 C75.6606,407.1369 145.3213,407.1369 145.3213,397.1369" style="stroke:#181818;stroke-width:0.5;" fill="none"/><text x="16" y="424.132" fill="#000000" font-size="14" lengthAdjust="spacing" textLength="119.3213" font-family="'Plus Jakarta Sans'">MySQL Database</text></g><!--entity Storage--><g class="entity" data-qualified-name="Storage" id="ent0013" data-source-line="32"><path d="M1778.79,518.0869 L1819.79,518.0869 A3.75,3.75 0 0 1 1822.29,520.5869 L1829.29,539.0869 L1950.5234,539.0869 A2.5,2.5 0 0 1 1953.0234,541.5869 L1953.0234,586.1806 A2.5,2.5 0 0 1 1950.5234,588.6806 L1778.79,588.6806 A2.5,2.5 0 0 1 1776.29,586.1806 L1776.29,520.5869 A2.5,2.5 0 0 1 1778.79,518.0869" style="stroke:#181818;stroke-width:0.5;" fill="#F1F1F1"/><line x1="1776.29" y1="539.0869" x2="1829.29" y2="539.0869" style="stroke:#181818;stroke-width:0.5;"/><text x="1786.29" y="559.082" fill="#000000" font-size="14" lengthAdjust="spacing" textLength="110.7285" font-family="'Plus Jakarta Sans'">Laravel Storage</text><text x="1786.29" y="575.3789" fill="#000000" font-size="14" lengthAdjust="spacing" textLength="146.7334" font-family="'Plus Jakarta Sans'">(storage/app/public/)</text></g><!--link BladeUI to HttpClient--><g class="link" data-entity-1="ent0002" data-entity-2="ent0004" id="lnk14" data-source-line="35" data-link-type="dependency"><path d="M2311.66,441.5069 C2311.66,465.2569 2311.66,492.9769 2311.66,516.7169" style="stroke:#10B981;stroke-width:1;" fill="none" id="BladeUI-to-HttpClient"/><polygon points="2311.66,521.7169,2315.66,512.7169,2311.66,516.7169,2307.66,512.7169,2311.66,521.7169" fill="#10B981" style="stroke:#10B981;stroke-width:1;stroke-linejoin:miter;stroke-miterlimit:10;"/><text x="2312.66" y="484.1538" fill="#000000" font-size="13" lengthAdjust="spacing" textLength="256.8896" font-family="'Plus Jakarta Sans'">1. Mengirim aksi via Form / Tombol Klik</text></g><!--link Alpine to HttpClient--><g class="link" data-entity-1="ent0003" data-entity-2="ent0004" id="lnk15" data-source-line="36" data-link-type="dependency"><path d="M2098.89,441.2769 C2095.04,456.6769 2093.9,474.8569 2103.66,488.0869 C2126.15,518.5769 2158.0686,533.8776 2194.4886,542.6376" style="stroke:#10B981;stroke-width:1;" fill="none" id="Alpine-to-HttpClient"/><polygon points="2199.35,543.8069,2191.535,537.8131,2194.4886,542.6376,2189.6641,545.5912,2199.35,543.8069" fill="#10B981" style="stroke:#10B981;stroke-width:1;stroke-linejoin:miter;stroke-miterlimit:10;"/><text x="2104.66" y="484.1538" fill="#000000" font-size="13" lengthAdjust="spacing" textLength="198.6309" font-family="'Plus Jakarta Sans'">Mengirim AJAX request (Axios)</text></g><!--link HttpClient to Router--><g class="link" data-entity-1="ent0004" data-entity-2="ent0006" id="lnk16" data-source-line="37" data-link-type="dependency"><path d="M2423.64,537.7369 C2486.36,527.2169 2556.19,510.8469 2577.66,488.0869 C2719.5,337.6869 2623.52,330.8769 2606.66,310.4869 C2483.66,161.7269 1869.9756,122.8461 1646.9556,113.5061" style="stroke:#10B981;stroke-width:1;" fill="none" id="HttpClient-to-Router"/><polygon points="1641.96,113.2969,1650.7847,117.67,1646.9556,113.5061,1651.1195,109.677,1641.96,113.2969" fill="#10B981" style="stroke:#10B981;stroke-width:1;stroke-linejoin:miter;stroke-miterlimit:10;"/><text x="2631.66" y="323.5538" fill="#000000" font-size="13" lengthAdjust="spacing" textLength="335.6641" font-family="'Plus Jakarta Sans'">2. Mengirim HTTP Request (GET/POST/PUT/DELETE)</text></g><!--link Router to Controllers--><g class="link" data-entity-1="ent0006" data-entity-2="ent0007" id="lnk17" data-source-line="38" data-link-type="dependency"><path d="M1492.7,141.3069 C1441.74,163.9969 1377.2178,192.7334 1326.2478,215.4234" style="stroke:#10B981;stroke-width:1;" fill="none" id="Router-to-Controllers"/><polygon points="1321.68,217.4569,1331.5289,217.451,1326.2478,215.4234,1328.2754,210.1424,1321.68,217.4569" fill="#10B981" style="stroke:#10B981;stroke-width:1;stroke-linejoin:miter;stroke-miterlimit:10;"/><text x="1426.66" y="183.9638" fill="#000000" font-size="13" lengthAdjust="spacing" textLength="264.2085" font-family="'Plus Jakarta Sans'">3. Memetakan rute ke metode controller</text></g><!--link Controllers to Requests--><g class="link" data-entity-1="ent0007" data-entity-2="ent0008" id="lnk18" data-source-line="40" data-link-type="dependency"><path d="M1242.13,280.8469 C1238.78,296.6769 1238.42,315.1969 1249.66,327.4869 C1263.06,342.1469 1319.67,329.6869 1338.66,335.4869 C1369.92,345.0469 1397.8667,359.9023 1422.7367,375.4023" style="stroke:#10B981;stroke-width:1;" fill="none" id="Controllers-to-Requests"/><polygon points="1426.98,378.0469,1421.4577,369.8919,1422.7367,375.4023,1417.2263,376.6812,1426.98,378.0469" fill="#10B981" style="stroke:#10B981;stroke-width:1;stroke-linejoin:miter;stroke-miterlimit:10;"/><text x="1250.66" y="323.5538" fill="#000000" font-size="13" lengthAdjust="spacing" textLength="216.1885" font-family="'Plus Jakarta Sans'">4. Memvalidasi data input masuk</text></g><!--link Requests to Controllers--><g class="link" data-entity-1="ent0008" data-entity-2="ent0007" id="lnk19" data-source-line="41" data-link-type="dependency"><path d="M1480.58,378.2369 C1484.78,357.1069 1486.14,329.4969 1471.66,310.4869 C1454.93,288.5269 1395.9184,273.4566 1341.4184,263.4866" style="stroke:#10B981;stroke-width:1;" fill="none" id="Requests-to-Controllers"/><polygon points="1336.5,262.5869,1344.6333,268.1411,1341.4184,263.4866,1346.0729,260.2717,1336.5,262.5869" fill="#10B981" style="stroke:#10B981;stroke-width:1;stroke-linejoin:miter;stroke-miterlimit:10;"/><text x="1480.66" y="323.5538" fill="#000000" font-size="13" lengthAdjust="spacing" textLength="232.4321" font-family="'Plus Jakarta Sans'">Validasi lolos / gagal (auto-redirect)</text></g><!--link Controllers to Policies--><g class="link" data-entity-1="ent0007" data-entity-2="ent0009" id="lnk20" data-source-line="43" data-link-type="dependency"><path d="M1168.63,251.9369 C926.5,257.3869 242.42,275.7869 209.66,310.4869 C164.41,358.4369 268.8837,386.3557 339.5137,399.4457" style="stroke:#10B981;stroke-width:1;" fill="none" id="Controllers-to-Policies"/><polygon points="344.43,400.3569,336.3096,394.7838,339.5137,399.4457,334.8518,402.6498,344.43,400.3569" fill="#10B981" style="stroke:#10B981;stroke-width:1;stroke-linejoin:miter;stroke-miterlimit:10;"/><text x="210.66" y="323.5538" fill="#000000" font-size="13" lengthAdjust="spacing" textLength="308.2231" font-family="'Plus Jakarta Sans'">5. Memeriksa otorisasi hak akses (Breeze/Role)</text></g><!--link Policies to Controllers--><g class="link" data-entity-1="ent0009" data-entity-2="ent0007" id="lnk21" data-source-line="44" data-link-type="dependency"><path d="M443.56,378.1569 C482.31,352.3369 535.7,318.3569 559.66,310.4869 C670.66,274.0169 1004.793,258.4007 1163.763,252.8707" style="stroke:#10B981;stroke-width:1;" fill="none" id="Policies-to-Controllers"/><polygon points="1168.76,252.6969,1159.6264,249.0122,1163.763,252.8707,1159.9045,257.0073,1168.76,252.6969" fill="#10B981" style="stroke:#10B981;stroke-width:1;stroke-linejoin:miter;stroke-miterlimit:10;"/><text x="560.66" y="323.5538" fill="#000000" font-size="13" lengthAdjust="spacing" textLength="226.6685" font-family="'Plus Jakarta Sans'">Diizinkan / Ditolak (403 Forbidden)</text></g><!--link Controllers to Services--><g class="link" data-entity-1="ent0007" data-entity-2="ent0010" id="lnk22" data-source-line="46" data-link-type="dependency"><path d="M1168.55,249.8769 C1059.15,251.4769 876.96,261.6469 834.66,310.4869 C829.71,316.1969 829.4,322.0669 834.66,327.4869 C845.07,338.2169 1089.31,331.2769 1103.66,335.4869 C1133.54,344.2569 1159.4608,359.2839 1182.2408,375.1939" style="stroke:#10B981;stroke-width:1;" fill="none" id="Controllers-to-Services"/><polygon points="1186.34,378.0569,1181.2518,369.6242,1182.2408,375.1939,1176.6711,376.1829,1186.34,378.0569" fill="#10B981" style="stroke:#10B981;stroke-width:1;stroke-linejoin:miter;stroke-miterlimit:10;"/><text x="835.66" y="323.5538" fill="#000000" font-size="13" lengthAdjust="spacing" textLength="373.1978" font-family="'Plus Jakarta Sans'">6. Mengeksekusi logika bisnis kompleks (DB Transaction)</text></g><!--link Services to Models--><g class="link" data-entity-1="ent0010" data-entity-2="ent0011" id="lnk23" data-source-line="47" data-link-type="dependency"><path d="M1130.12,434.6469 C1121.18,436.8369 1112.25,439.0169 1103.66,441.0869 C963.32,474.8769 804.2432,511.6679 709.6932,533.3779" style="stroke:#10B981;stroke-width:1;" fill="none" id="Services-to-Models"/><polygon points="704.82,534.4969,714.4869,536.3813,709.6932,533.3779,712.6966,528.5842,704.82,534.4969" fill="#10B981" style="stroke:#10B981;stroke-width:1;stroke-linejoin:miter;stroke-miterlimit:10;"/><text x="973.66" y="484.1538" fill="#000000" font-size="13" lengthAdjust="spacing" textLength="232.394" font-family="'Plus Jakarta Sans'">7. Memanipulasi objek data domain</text></g><!--link Controllers to Models--><g class="link" data-entity-1="ent0007" data-entity-2="ent0011" id="lnk24" data-source-line="48" data-link-type="dependency"><path d="M1168.61,252.6969 C1059.36,257.4969 876.19,271.3069 822.66,310.4869 C752.05,362.1769 797.06,423.8269 737.66,488.0869 C725.49,501.2469 714.2974,509.9311 698.7774,519.1611" style="stroke:#10B981;stroke-width:1;" fill="none" id="Controllers-to-Models"/><polygon points="694.48,521.7169,704.26,520.5545,698.7774,519.1611,700.1708,513.6785,694.48,521.7169" fill="#10B981" style="stroke:#10B981;stroke-width:1;stroke-linejoin:miter;stroke-miterlimit:10;"/><text x="796.66" y="414.3538" fill="#000000" font-size="13" lengthAdjust="spacing" textLength="297.667" font-family="'Plus Jakarta Sans'">Akses ORM langsung (untuk kueri sederhana)</text></g><!--link Models to MySQL--><g class="link" data-entity-1="ent0011" data-entity-2="ent0012" id="lnk25" data-source-line="50" data-link-type="dependency"><path d="M548.44,522.5969 C500.36,505.3069 437.17,484.3869 379.66,471.0869 C284.38,449.0369 256.71,464.1169 161.66,441.0869 C152.28,438.8069 147.2309,437.4554 137.7509,434.3454" style="stroke:#10B981;stroke-width:1;" fill="none" id="Models-to-MySQL"/><polygon points="133,432.7869,140.3047,439.393,137.7509,434.3454,142.7984,431.7916,133,432.7869" fill="#10B981" style="stroke:#10B981;stroke-width:1;stroke-linejoin:miter;stroke-miterlimit:10;"/><text x="442.66" y="484.1538" fill="#000000" font-size="13" lengthAdjust="spacing" textLength="286.1016" font-family="'Plus Jakarta Sans'">8. Sinkronisasi data persistensi (SQL Query)</text></g><!--link MySQL to Models--><g class="link" data-entity-1="ent0012" data-entity-2="ent0011" id="lnk26" data-source-line="51" data-link-type="dependency"><path d="M94.36,432.6669 C111.1,450.6969 137.31,475.2869 165.66,488.0869 C232.31,518.1769 430.1856,537.4625 543.3156,546.4125" style="stroke:#10B981;stroke-width:1;" fill="none" id="MySQL-to-Models"/><polygon points="548.3,546.8069,539.6435,542.1095,543.3156,546.4125,539.0126,550.0846,548.3,546.8069" fill="#10B981" style="stroke:#10B981;stroke-width:1;stroke-linejoin:miter;stroke-miterlimit:10;"/><text x="166.66" y="484.1538" fill="#000000" font-size="13" lengthAdjust="spacing" textLength="204.0264" font-family="'Plus Jakarta Sans'">Mengembalikan baris database</text></g><!--link Services to Storage--><g class="link" data-entity-1="ent0010" data-entity-2="ent0013" id="lnk27" data-source-line="53" data-link-type="dependency"><path d="M1321.11,429.9369 C1339.54,433.6369 1358.7,437.4769 1376.66,441.0869 C1547.33,475.3169 1592.37,473.6369 1760.66,518.0869 C1765.62,519.3969 1765.9006,519.4047 1771.0006,520.8947" style="stroke:#10B981;stroke-width:1;" fill="none" id="Services-to-Storage"/><polygon points="1775.8,522.2969,1768.2829,515.9335,1771.0006,520.8947,1766.0394,523.6125,1775.8,522.2969" fill="#10B981" style="stroke:#10B981;stroke-width:1;stroke-linejoin:miter;stroke-miterlimit:10;"/><text x="1629.66" y="484.1538" fill="#000000" font-size="13" lengthAdjust="spacing" textLength="290.4243" font-family="'Plus Jakarta Sans'">9. Menyimpan / menghapus file gambar fisik</text></g><!--link Controllers to BladeUI--><g class="link" data-entity-1="ent0007" data-entity-2="ent0002" id="lnk28" data-source-line="56" data-link-type="dependency"><path d="M1336.64,251.7769 C1529.19,256.0769 1997.6,270.4269 2149.66,310.4869 C2152.76,311.3069 2198.88,333.9069 2201.66,335.4869 C2224.39,348.4469 2244.5686,361.566 2264.5286,375.276" style="stroke:#10B981;stroke-width:1;" fill="none" id="Controllers-to-BladeUI"/><polygon points="2268.65,378.1069,2263.4962,369.7141,2264.5286,375.276,2258.9667,376.3084,2268.65,378.1069" fill="#10B981" style="stroke:#10B981;stroke-width:1;stroke-linejoin:miter;stroke-miterlimit:10;"/><text x="2184.66" y="323.5538" fill="#000000" font-size="13" lengthAdjust="spacing" textLength="415.0479" font-family="'Plus Jakarta Sans'">10. Merender &amp; Mengembalikan berkas HTML (HTML Response)</text></g><!--link Controllers to Alpine--><g class="link" data-entity-1="ent0007" data-entity-2="ent0003" id="lnk29" data-source-line="57" data-link-type="dependency"><path d="M1336.73,257.2169 C1431.06,265.9669 1588.36,283.1969 1721.66,310.4869 C1748.81,316.0469 1754.87,320.3869 1781.66,327.4869 C1868.82,350.5969 1964.6575,374.0124 2031.4675,390.0124" style="stroke:#10B981;stroke-width:1;" fill="none" id="Controllers-to-Alpine"/><polygon points="2036.33,391.1769,2028.5091,385.1908,2031.4675,390.0124,2026.6459,392.9708,2036.33,391.1769" fill="#10B981" style="stroke:#10B981;stroke-width:1;stroke-linejoin:miter;stroke-miterlimit:10;"/><text x="1782.66" y="323.5538" fill="#000000" font-size="13" lengthAdjust="spacing" textLength="362.7368" font-family="'Plus Jakarta Sans'">Mengembalikan data JSON (JSON Response untuk AJAX)</text></g><?plantuml-src VLNBSjis5DtZA-wuCocvi6ahRXvUT4RFEeuLEwQSwKpR1IJ2548GO01GhfFfl_S281bA8yaB6I3kEJZt2LDmML5DIqZjYs1WhEOhMvU2cEvamfveBUnCIVk9bWnExaLju8OML5iAAPNcf6SzLcMb99DsH5T5hbKjix4IIiClixUpo-behwdI6TEDsVbWC1uCzfav1OUCXbghv-Rmudpq_jq58PPRT6d2QHui3BUiiBM6ZmqZHBDQ2BX5XWqJC18qOp1NKWbkrp4X5Rf0S_Hufl5g9ZE8KcuuV1GSmGcCtNyBASzOV08_2E3VgbKB9u7l2sVFvcyPNI_cjyc2Sl7CaMYSfWYX9bpw-64NEnGLb-pigqC-C5fOlk4MpHy_15WutqLTBnRthQfe-2zN1bNEb2vZJ_EjPWRbeYDC1vfhQwjWJ_xh-UjovzrjGzC5PO-RhSs3gYtJU95s2vCyi-LPjQx2HU7GGtVnOuojLa8mxSE4YfBUfoJWUr_saZWdeV6mesdt3KUxtKjmZ_wjE7FOTjd0skrUMChqXg-OY_DmPRcIZg3zcC2hzcl3rPxivPeAXG9nDLSP4uueB1fisBWyPTJI9JMOgFbB-laM9iq-cBbFX3mfWLd-cPtKAesvHL8JLWcjggIgb-XSAouS4F8hbXUsILimht1bKAHXfAbMEFshwR9_Jd_l5H5SmSKPp9dCkUObq0ARPSEfBq6Cq4ALIoLS-nGa5F0HeevbU3Fy4tIZ9LHrJ7gcMnIXpX0-wEdmRT5w4_qnNIJtTod-F2wIoVHskfZ6fC5jSVLg3WbVEyAIMPnx4ZHQGy40zvWLJ69hIKWVjIsjAJ_aklHS6ofuHZ54Bf-0awosK59J5wGpFQBdIuiMEFLS_UKqfm8YMbjrgbd6DLlP-8YUjgwHwxVWc-Q5eQ2m3BXnp6jQk1oYIJJIZ7rdoOCIB2OTyeYy2UVVkNInId1jbK2kwFByjQk59Syo9ezfwzhg2jw4H3BKKTJUtPmN59RSI6wWmFOHU0RHP0GBZOyHzGqNauvYYpWq4TA-zIvJoQjQE5_LyYihGYOoLL8k3ulhE8O-DdSFSn1KvgQMEKIrj7K1HOt11CEm1TTKKdIr0MqJ-UwzWdTd-8R80X-P47Ulei9xkS5N1pz4pkupShx4983s2_A1AfTO6IxmIufvX7POa0CHQReUqUzzf5zuMVcibKYsfXM-zKyStz6S8h76jS7k_JaYmc20aRlpSCZQkO7puTpTelqRX9DbHp7JXNkLyAa4_s1s5yI7kPj9ikkz3-9DUlS98l_RIGqPSbCb_Xy0?></g></svg>