<svg xmlns="http://www.w3.org/2000/svg" xmlns:xlink="http://www.w3.org/1999/xlink" version="1.1" data-diagram-type="ACTIVITY" style="width:1044px;height:1517px;background:#FFFFFF;" width="1044px" height="1517px" viewBox="0 0 1044 1517" zoomAndPan="magnify" preserveAspectRatio="none" contentStyleType="text/css"><?plantuml 1.2026.7beta3?><defs/><g><g class="title" data-source-line="13"><text x="169.6028" y="32.9951" fill="#000000" font-size="14" lengthAdjust="spacing" textLength="703.1035" font-weight="700" font-family="'Plus Jakarta Sans'">Diagram Aktivitas Sistem Berjalan (Pemesanan Manual via WhatsApp) - Little Joy Jakarta</text></g><rect x="20" y="55.042" width="997.3091" height="20.9531" fill="none" style="stroke:none;stroke-width:1;"/><ellipse cx="213.0723" cy="90.9951" rx="10" ry="10" fill="#222222" style="stroke:#222222;stroke-width:1;"/><rect x="112.0527" y="120.9951" width="202.0391" height="47.9375" fill="#F7F4EB" style="stroke:#022C22;stroke-width:0.5;" rx="12.5" ry="12.5"/><text x="122.0527" y="142.1338" fill="#022C22" font-size="12" lengthAdjust="spacing" textLength="168.6563" font-family="'Plus Jakarta Sans'">Membuka media sosial atau</text><text x="122.0527" y="156.1025" fill="#022C22" font-size="12" lengthAdjust="spacing" textLength="182.0391" font-family="'Plus Jakarta Sans'">menerima info katalog produk</text><rect x="99.8066" y="188.9326" width="226.5313" height="33.9688" fill="#F7F4EB" style="stroke:#022C22;stroke-width:0.5;" rx="12.5" ry="12.5"/><text x="109.8066" y="210.0713" fill="#022C22" font-size="12" lengthAdjust="spacing" textLength="206.5313" font-family="'Plus Jakarta Sans'">Menghubungi florist via WhatsApp</text><rect x="109.9521" y="242.9014" width="206.2402" height="47.9375" fill="#F7F4EB" style="stroke:#022C22;stroke-width:0.5;" rx="12.5" ry="12.5"/><text x="119.9521" y="264.04" fill="#022C22" font-size="12" lengthAdjust="spacing" textLength="186.2402" font-family="'Plus Jakarta Sans'">Menanyakan informasi produk,</text><text x="119.9521" y="278.0088" fill="#022C22" font-size="12" lengthAdjust="spacing" textLength="179.3262" font-family="'Plus Jakarta Sans'">harga, ketersediaan, &amp; ongkir</text><polygon points="144.2712,486.7139,281.8733,486.7139,293.8733,498.7139,281.8733,510.7139,144.2712,510.7139,132.2712,498.7139,144.2712,486.7139" fill="#F7F4EB" style="stroke:#022C22;stroke-width:0.5;stroke-linejoin:miter;stroke-miterlimit:10;"/><text x="144.2712" y="502.522" fill="#022C22" font-size="11" lengthAdjust="spacing" textLength="137.6021" font-family="'Plus Jakarta Sans'">Apakah produk tersedia?</text><text x="118.8113" y="496.1196" fill="#000000" font-size="11" lengthAdjust="spacing" textLength="13.46" font-family="'Plus Jakarta Sans'">Ya</text><text x="293.8733" y="496.1196" fill="#000000" font-size="11" lengthAdjust="spacing" textLength="29.8687" font-family="'Plus Jakarta Sans'">Tidak</text><rect x="26" y="520.7139" width="177.5117" height="47.9375" fill="#F7F4EB" style="stroke:#022C22;stroke-width:0.5;" rx="12.5" ry="12.5"/><text x="36" y="541.8525" fill="#022C22" font-size="12" lengthAdjust="spacing" textLength="157.5117" font-family="'Plus Jakarta Sans'">Memilih produk &amp; sepakat</text><text x="36" y="555.8213" fill="#022C22" font-size="12" lengthAdjust="spacing" textLength="138.627" font-family="'Plus Jakarta Sans'">dengan harga &amp; ongkir</text><rect x="223.5117" y="520.7139" width="175.7539" height="33.9688" fill="#F7F4EB" style="stroke:#022C22;stroke-width:0.5;" rx="12.5" ry="12.5"/><text x="233.5117" y="541.8525" fill="#022C22" font-size="12" lengthAdjust="spacing" textLength="155.7539" font-family="'Plus Jakarta Sans'">Membatalkan pemesanan</text><ellipse cx="311.3887" cy="599.6514" rx="11" ry="11" fill="none" style="stroke:#222222;stroke-width:1;"/><ellipse cx="311.3887" cy="599.6514" rx="6" ry="6" fill="#222222" style="stroke:#222222;stroke-width:1;"/><rect x="93.9297" y="630.6514" width="238.2852" height="47.9375" fill="#F7F4EB" style="stroke:#022C22;stroke-width:0.5;" rx="12.5" ry="12.5"/><text x="103.9297" y="651.79" fill="#022C22" font-size="12" lengthAdjust="spacing" textLength="201.7617" font-family="'Plus Jakarta Sans'">Mengonfirmasi pesanan &amp; rincian</text><text x="103.9297" y="665.7588" fill="#022C22" font-size="12" lengthAdjust="spacing" textLength="218.2852" font-family="'Plus Jakarta Sans'">pengiriman (nama, alamat, tanggal)</text><rect x="88.4453" y="820.4951" width="249.2539" height="33.9688" fill="#F7F4EB" style="stroke:#022C22;stroke-width:0.5;" rx="12.5" ry="12.5"/><text x="98.4453" y="841.6338" fill="#022C22" font-size="12" lengthAdjust="spacing" textLength="229.2539" font-family="'Plus Jakarta Sans'">Melakukan transfer pembayaran bank</text><rect x="64.3428" y="874.4639" width="297.459" height="33.9688" fill="#F7F4EB" style="stroke:#022C22;stroke-width:0.5;" rx="12.5" ry="12.5"/><text x="74.3428" y="895.6025" fill="#022C22" font-size="12" lengthAdjust="spacing" textLength="277.459" font-family="'Plus Jakarta Sans'">Mengirimkan foto bukti transfer via WhatsApp</text><rect x="229.2803" y="1148.3076" width="242.4453" height="33.9688" fill="#F7F4EB" style="stroke:#022C22;stroke-width:0.5;" rx="12.5" ry="12.5"/><text x="239.2803" y="1169.4463" fill="#022C22" font-size="12" lengthAdjust="spacing" textLength="222.4453" font-family="'Plus Jakarta Sans'">Melakukan transfer ulang / klarifikasi</text><ellipse cx="350.5029" cy="1227.2451" rx="11" ry="11" fill="none" style="stroke:#222222;stroke-width:1;"/><ellipse cx="350.5029" cy="1227.2451" rx="6" ry="6" fill="#222222" style="stroke:#222222;stroke-width:1;"/><rect x="120.2881" y="1366.1826" width="185.5684" height="33.9688" fill="#F7F4EB" style="stroke:#022C22;stroke-width:0.5;" rx="12.5" ry="12.5"/><text x="130.2881" y="1387.3213" fill="#022C22" font-size="12" lengthAdjust="spacing" textLength="165.5684" font-family="'Plus Jakarta Sans'">Menerima rangkaian bunga</text><line x1="20" y1="55.042" x2="20" y2="1496.1201" style="stroke:#000000;stroke-width:1.5;"/><rect x="648.1133" y="310.8389" width="185.0996" height="33.9688" fill="#F7F4EB" style="stroke:#022C22;stroke-width:0.5;" rx="12.5" ry="12.5"/><text x="658.1133" y="331.9775" fill="#022C22" font-size="12" lengthAdjust="spacing" textLength="165.0996" font-family="'Plus Jakarta Sans'">Menerima pesan WhatsApp</text><rect x="606.2686" y="364.8076" width="268.7891" height="47.9375" fill="#F7F4EB" style="stroke:#022C22;stroke-width:0.5;" rx="12.5" ry="12.5"/><text x="616.2686" y="385.9463" fill="#022C22" font-size="12" lengthAdjust="spacing" textLength="220.7754" font-family="'Plus Jakarta Sans'">Memeriksa ketersediaan stok &amp; data</text><text x="616.2686" y="399.915" fill="#022C22" font-size="12" lengthAdjust="spacing" textLength="248.7891" font-family="'Plus Jakarta Sans'">harga secara manual (buku/spreadsheet)</text><rect x="604.5195" y="432.7451" width="272.2871" height="33.9688" fill="#F7F4EB" style="stroke:#022C22;stroke-width:0.5;" rx="12.5" ry="12.5"/><text x="614.5195" y="453.8838" fill="#022C22" font-size="12" lengthAdjust="spacing" textLength="252.2871" font-family="'Plus Jakarta Sans'">Membalas chat pelanggan dengan rincian</text><rect x="610.124" y="698.5889" width="261.0781" height="47.9375" fill="#F7F4EB" style="stroke:#022C22;stroke-width:0.5;" rx="12.5" ry="12.5"/><text x="620.124" y="719.7275" fill="#022C22" font-size="12" lengthAdjust="spacing" textLength="241.0781" font-family="'Plus Jakarta Sans'">Mencatat pesanan &amp; rincian pengiriman</text><text x="620.124" y="733.6963" fill="#022C22" font-size="12" lengthAdjust="spacing" textLength="210.1113" font-family="'Plus Jakarta Sans'">secara manual (buku/spreadsheet)</text><rect x="595.001" y="766.5264" width="291.3242" height="33.9688" fill="#F7F4EB" style="stroke:#022C22;stroke-width:0.5;" rx="12.5" ry="12.5"/><text x="605.001" y="787.665" fill="#022C22" font-size="12" lengthAdjust="spacing" textLength="271.3242" font-family="'Plus Jakarta Sans'">Mengirimkan total tagihan &amp; nomor rekening</text><rect x="644.3164" y="928.4326" width="192.6934" height="33.9688" fill="#F7F4EB" style="stroke:#022C22;stroke-width:0.5;" rx="12.5" ry="12.5"/><text x="654.3164" y="949.5713" fill="#022C22" font-size="12" lengthAdjust="spacing" textLength="172.6934" font-family="'Plus Jakarta Sans'">Menerima foto bukti transfer</text><rect x="600.2773" y="982.4014" width="280.7715" height="47.9375" fill="#F7F4EB" style="stroke:#022C22;stroke-width:0.5;" rx="12.5" ry="12.5"/><text x="610.2773" y="1003.54" fill="#022C22" font-size="12" lengthAdjust="spacing" textLength="260.7715" font-family="'Plus Jakarta Sans'">Memeriksa saldo masuk melalui m-banking</text><text x="610.2773" y="1017.5088" fill="#022C22" font-size="12" lengthAdjust="spacing" textLength="88.6289" font-family="'Plus Jakarta Sans'">secara manual</text><polygon points="678.6887,1050.3389,802.6375,1050.3389,814.6375,1062.3389,802.6375,1074.3389,678.6887,1074.3389,666.6887,1062.3389,678.6887,1050.3389" fill="#F7F4EB" style="stroke:#022C22;stroke-width:0.5;stroke-linejoin:miter;stroke-miterlimit:10;"/><text x="678.6887" y="1066.147" fill="#022C22" font-size="11" lengthAdjust="spacing" textLength="123.9487" font-family="'Plus Jakarta Sans'">Apakah transfer valid?</text><text x="653.2288" y="1059.7446" fill="#000000" font-size="11" lengthAdjust="spacing" textLength="13.46" font-family="'Plus Jakarta Sans'">Ya</text><text x="814.6375" y="1059.7446" fill="#000000" font-size="11" lengthAdjust="spacing" textLength="29.8687" font-family="'Plus Jakarta Sans'">Tidak</text><rect x="481.7256" y="1094.3389" width="243.0137" height="33.9688" fill="#F7F4EB" style="stroke:#022C22;stroke-width:0.5;" rx="12.5" ry="12.5"/><text x="491.7256" y="1115.4775" fill="#022C22" font-size="12" lengthAdjust="spacing" textLength="223.0137" font-family="'Plus Jakarta Sans'">Mengonfirmasi pembayaran diterima</text><rect x="492.5537" y="1148.3076" width="221.3574" height="47.9375" fill="#F7F4EB" style="stroke:#022C22;stroke-width:0.5;" rx="12.5" ry="12.5"/><text x="502.5537" y="1169.4463" fill="#022C22" font-size="12" lengthAdjust="spacing" textLength="201.3574" font-family="'Plus Jakarta Sans'">Mempersiapkan rangkaian bunga</text><text x="502.5537" y="1183.415" fill="#022C22" font-size="12" lengthAdjust="spacing" textLength="104.0977" font-family="'Plus Jakarta Sans'">&amp; memesan kurir</text><rect x="744.7393" y="1094.3389" width="266.709" height="33.9688" fill="#F7F4EB" style="stroke:#022C22;stroke-width:0.5;" rx="12.5" ry="12.5"/><text x="754.7393" y="1115.4775" fill="#022C22" font-size="12" lengthAdjust="spacing" textLength="246.709" font-family="'Plus Jakarta Sans'">Mengabarkan transfer tidak masuk/salah</text><rect x="644.1846" y="1258.2451" width="192.957" height="33.9688" fill="#F7F4EB" style="stroke:#022C22;stroke-width:0.5;" rx="12.5" ry="12.5"/><text x="654.1846" y="1279.3838" fill="#022C22" font-size="12" lengthAdjust="spacing" textLength="172.957" font-family="'Plus Jakarta Sans'">Menyerahkan bunga ke kurir</text><rect x="590.8613" y="1312.2139" width="299.6035" height="33.9688" fill="#F7F4EB" style="stroke:#022C22;stroke-width:0.5;" rx="12.5" ry="12.5"/><text x="600.8613" y="1333.3525" fill="#022C22" font-size="12" lengthAdjust="spacing" textLength="279.6035" font-family="'Plus Jakarta Sans'">Mengabarkan pelanggan bahwa bunga dikirim</text><rect x="619.4199" y="1420.1514" width="242.4863" height="33.9688" fill="#F7F4EB" style="stroke:#022C22;stroke-width:0.5;" rx="12.5" ry="12.5"/><text x="629.4199" y="1441.29" fill="#022C22" font-size="12" lengthAdjust="spacing" textLength="222.4863" font-family="'Plus Jakarta Sans'">Mengarsipkan nota transaksi manual</text><ellipse cx="740.6631" cy="1485.1201" rx="11" ry="11" fill="none" style="stroke:#222222;stroke-width:1;"/><ellipse cx="740.6631" cy="1485.1201" rx="6" ry="6" fill="#222222" style="stroke:#222222;stroke-width:1;"/><line x1="475.7256" y1="55.042" x2="475.7256" y2="1496.1201" style="stroke:#000000;stroke-width:1.5;"/><line x1="1015.4482" y1="55.042" x2="1015.4482" y2="1496.1201" style="stroke:#000000;stroke-width:1.5;"/><line x1="213.0723" y1="100.9951" x2="213.0723" y2="120.9951" style="stroke:#10B981;stroke-width:1;"/><polygon points="209.0723,110.9951,217.0723,110.9951,213.0723,120.9951" fill="#10B981" style="stroke:#10B981;stroke-width:1;stroke-linejoin:miter;stroke-miterlimit:10;"/><line x1="213.0723" y1="168.9326" x2="213.0723" y2="188.9326" style="stroke:#10B981;stroke-width:1;"/><polygon points="209.0723,178.9326,217.0723,178.9326,213.0723,188.9326" fill="#10B981" style="stroke:#10B981;stroke-width:1;stroke-linejoin:miter;stroke-miterlimit:10;"/><line x1="213.0723" y1="222.9014" x2="213.0723" y2="242.9014" style="stroke:#10B981;stroke-width:1;"/><polygon points="209.0723,232.9014,217.0723,232.9014,213.0723,242.9014" fill="#10B981" style="stroke:#10B981;stroke-width:1;stroke-linejoin:miter;stroke-miterlimit:10;"/><line x1="311.3887" y1="554.6826" x2="311.3887" y2="588.6514" style="stroke:#10B981;stroke-width:1;"/><polygon points="307.3887,578.6514,315.3887,578.6514,311.3887,588.6514" fill="#10B981" style="stroke:#10B981;stroke-width:1;stroke-linejoin:miter;stroke-miterlimit:10;"/><line x1="132.2712" y1="498.7139" x2="114.7559" y2="498.7139" style="stroke:#10B981;stroke-width:1;"/><line x1="114.7559" y1="498.7139" x2="114.7559" y2="520.7139" style="stroke:#10B981;stroke-width:1;"/><polygon points="110.7559,510.7139,118.7559,510.7139,114.7559,520.7139" fill="#10B981" style="stroke:#10B981;stroke-width:1;stroke-linejoin:miter;stroke-miterlimit:10;"/><line x1="293.8733" y1="498.7139" x2="311.3887" y2="498.7139" style="stroke:#10B981;stroke-width:1;"/><line x1="311.3887" y1="498.7139" x2="311.3887" y2="520.7139" style="stroke:#10B981;stroke-width:1;"/><polygon points="307.3887,510.7139,315.3887,510.7139,311.3887,520.7139" fill="#10B981" style="stroke:#10B981;stroke-width:1;stroke-linejoin:miter;stroke-miterlimit:10;"/><line x1="114.7559" y1="568.6514" x2="114.7559" y2="615.6514" style="stroke:#10B981;stroke-width:1;"/><line x1="114.7559" y1="615.6514" x2="213.0723" y2="615.6514" style="stroke:#10B981;stroke-width:1;"/><line x1="213.0723" y1="615.6514" x2="213.0723" y2="630.6514" style="stroke:#10B981;stroke-width:1;"/><polygon points="209.0723,620.6514,217.0723,620.6514,213.0723,630.6514" fill="#10B981" style="stroke:#10B981;stroke-width:1;stroke-linejoin:miter;stroke-miterlimit:10;"/><line x1="213.0723" y1="854.4639" x2="213.0723" y2="874.4639" style="stroke:#10B981;stroke-width:1;"/><polygon points="209.0723,864.4639,217.0723,864.4639,213.0723,874.4639" fill="#10B981" style="stroke:#10B981;stroke-width:1;stroke-linejoin:miter;stroke-miterlimit:10;"/><line x1="350.5029" y1="1182.2764" x2="350.5029" y2="1216.2451" style="stroke:#10B981;stroke-width:1;"/><polygon points="346.5029,1206.2451,354.5029,1206.2451,350.5029,1216.2451" fill="#10B981" style="stroke:#10B981;stroke-width:1;stroke-linejoin:miter;stroke-miterlimit:10;"/><line x1="740.6631" y1="344.8076" x2="740.6631" y2="364.8076" style="stroke:#10B981;stroke-width:1;"/><polygon points="736.6631,354.8076,744.6631,354.8076,740.6631,364.8076" fill="#10B981" style="stroke:#10B981;stroke-width:1;stroke-linejoin:miter;stroke-miterlimit:10;"/><line x1="740.6631" y1="412.7451" x2="740.6631" y2="432.7451" style="stroke:#10B981;stroke-width:1;"/><polygon points="736.6631,422.7451,744.6631,422.7451,740.6631,432.7451" fill="#10B981" style="stroke:#10B981;stroke-width:1;stroke-linejoin:miter;stroke-miterlimit:10;"/><line x1="740.6631" y1="746.5264" x2="740.6631" y2="766.5264" style="stroke:#10B981;stroke-width:1;"/><polygon points="736.6631,756.5264,744.6631,756.5264,740.6631,766.5264" fill="#10B981" style="stroke:#10B981;stroke-width:1;stroke-linejoin:miter;stroke-miterlimit:10;"/><line x1="740.6631" y1="962.4014" x2="740.6631" y2="982.4014" style="stroke:#10B981;stroke-width:1;"/><polygon points="736.6631,972.4014,744.6631,972.4014,740.6631,982.4014" fill="#10B981" style="stroke:#10B981;stroke-width:1;stroke-linejoin:miter;stroke-miterlimit:10;"/><line x1="603.2324" y1="1128.3076" x2="603.2324" y2="1148.3076" style="stroke:#10B981;stroke-width:1;"/><polygon points="599.2324,1138.3076,607.2324,1138.3076,603.2324,1148.3076" fill="#10B981" style="stroke:#10B981;stroke-width:1;stroke-linejoin:miter;stroke-miterlimit:10;"/><line x1="666.6887" y1="1062.3389" x2="603.2324" y2="1062.3389" style="stroke:#10B981;stroke-width:1;"/><line x1="603.2324" y1="1062.3389" x2="603.2324" y2="1094.3389" style="stroke:#10B981;stroke-width:1;"/><polygon points="599.2324,1084.3389,607.2324,1084.3389,603.2324,1094.3389" fill="#10B981" style="stroke:#10B981;stroke-width:1;stroke-linejoin:miter;stroke-miterlimit:10;"/><line x1="814.6375" y1="1062.3389" x2="878.0938" y2="1062.3389" style="stroke:#10B981;stroke-width:1;"/><line x1="878.0938" y1="1062.3389" x2="878.0938" y2="1094.3389" style="stroke:#10B981;stroke-width:1;"/><polygon points="874.0938,1084.3389,882.0938,1084.3389,878.0938,1094.3389" fill="#10B981" style="stroke:#10B981;stroke-width:1;stroke-linejoin:miter;stroke-miterlimit:10;"/><line x1="603.2324" y1="1196.2451" x2="603.2324" y2="1243.2451" style="stroke:#10B981;stroke-width:1;"/><line x1="603.2324" y1="1243.2451" x2="740.6631" y2="1243.2451" style="stroke:#10B981;stroke-width:1;"/><line x1="740.6631" y1="1243.2451" x2="740.6631" y2="1258.2451" style="stroke:#10B981;stroke-width:1;"/><polygon points="736.6631,1248.2451,744.6631,1248.2451,740.6631,1258.2451" fill="#10B981" style="stroke:#10B981;stroke-width:1;stroke-linejoin:miter;stroke-miterlimit:10;"/><line x1="740.6631" y1="1030.3389" x2="740.6631" y2="1050.3389" style="stroke:#10B981;stroke-width:1;"/><polygon points="736.6631,1040.3389,744.6631,1040.3389,740.6631,1050.3389" fill="#10B981" style="stroke:#10B981;stroke-width:1;stroke-linejoin:miter;stroke-miterlimit:10;"/><line x1="740.6631" y1="1292.2139" x2="740.6631" y2="1312.2139" style="stroke:#10B981;stroke-width:1;"/><polygon points="736.6631,1302.2139,744.6631,1302.2139,740.6631,1312.2139" fill="#10B981" style="stroke:#10B981;stroke-width:1;stroke-linejoin:miter;stroke-miterlimit:10;"/><line x1="740.6631" y1="1454.1201" x2="740.6631" y2="1474.1201" style="stroke:#10B981;stroke-width:1;"/><polygon points="736.6631,1464.1201,744.6631,1464.1201,740.6631,1474.1201" fill="#10B981" style="stroke:#10B981;stroke-width:1;stroke-linejoin:miter;stroke-miterlimit:10;"/><line x1="213.0723" y1="290.8389" x2="213.0723" y2="295.8389" style="stroke:#10B981;stroke-width:1;"/><line x1="213.0723" y1="295.8389" x2="740.6631" y2="295.8389" style="stroke:#10B981;stroke-width:1;"/><line x1="740.6631" y1="295.8389" x2="740.6631" y2="310.8389" style="stroke:#10B981;stroke-width:1;"/><polygon points="736.6631,300.8389,744.6631,300.8389,740.6631,310.8389" fill="#10B981" style="stroke:#10B981;stroke-width:1;stroke-linejoin:miter;stroke-miterlimit:10;"/><line x1="740.6631" y1="466.7139" x2="740.6631" y2="471.7139" style="stroke:#10B981;stroke-width:1;"/><line x1="740.6631" y1="471.7139" x2="213.0723" y2="471.7139" style="stroke:#10B981;stroke-width:1;"/><line x1="213.0723" y1="471.7139" x2="213.0723" y2="486.7139" style="stroke:#10B981;stroke-width:1;"/><polygon points="209.0723,476.7139,217.0723,476.7139,213.0723,486.7139" fill="#10B981" style="stroke:#10B981;stroke-width:1;stroke-linejoin:miter;stroke-miterlimit:10;"/><line x1="213.0723" y1="678.5889" x2="213.0723" y2="683.5889" style="stroke:#10B981;stroke-width:1;"/><line x1="213.0723" y1="683.5889" x2="740.6631" y2="683.5889" style="stroke:#10B981;stroke-width:1;"/><line x1="740.6631" y1="683.5889" x2="740.6631" y2="698.5889" style="stroke:#10B981;stroke-width:1;"/><polygon points="736.6631,688.5889,744.6631,688.5889,740.6631,698.5889" fill="#10B981" style="stroke:#10B981;stroke-width:1;stroke-linejoin:miter;stroke-miterlimit:10;"/><line x1="740.6631" y1="800.4951" x2="740.6631" y2="805.4951" style="stroke:#10B981;stroke-width:1;"/><line x1="740.6631" y1="805.4951" x2="213.0723" y2="805.4951" style="stroke:#10B981;stroke-width:1;"/><line x1="213.0723" y1="805.4951" x2="213.0723" y2="820.4951" style="stroke:#10B981;stroke-width:1;"/><polygon points="209.0723,810.4951,217.0723,810.4951,213.0723,820.4951" fill="#10B981" style="stroke:#10B981;stroke-width:1;stroke-linejoin:miter;stroke-miterlimit:10;"/><line x1="213.0723" y1="908.4326" x2="213.0723" y2="913.4326" style="stroke:#10B981;stroke-width:1;"/><line x1="213.0723" y1="913.4326" x2="740.6631" y2="913.4326" style="stroke:#10B981;stroke-width:1;"/><line x1="740.6631" y1="913.4326" x2="740.6631" y2="928.4326" style="stroke:#10B981;stroke-width:1;"/><polygon points="736.6631,918.4326,744.6631,918.4326,740.6631,928.4326" fill="#10B981" style="stroke:#10B981;stroke-width:1;stroke-linejoin:miter;stroke-miterlimit:10;"/><line x1="878.0938" y1="1128.3076" x2="878.0938" y2="1133.3076" style="stroke:#10B981;stroke-width:1;"/><line x1="878.0938" y1="1133.3076" x2="350.5029" y2="1133.3076" style="stroke:#10B981;stroke-width:1;"/><line x1="350.5029" y1="1133.3076" x2="350.5029" y2="1148.3076" style="stroke:#10B981;stroke-width:1;"/><polygon points="346.5029,1138.3076,354.5029,1138.3076,350.5029,1148.3076" fill="#10B981" style="stroke:#10B981;stroke-width:1;stroke-linejoin:miter;stroke-miterlimit:10;"/><line x1="740.6631" y1="1346.1826" x2="740.6631" y2="1351.1826" style="stroke:#10B981;stroke-width:1;"/><line x1="740.6631" y1="1351.1826" x2="213.0723" y2="1351.1826" style="stroke:#10B981;stroke-width:1;"/><line x1="213.0723" y1="1351.1826" x2="213.0723" y2="1366.1826" style="stroke:#10B981;stroke-width:1;"/><polygon points="209.0723,1356.1826,217.0723,1356.1826,213.0723,1366.1826" fill="#10B981" style="stroke:#10B981;stroke-width:1;stroke-linejoin:miter;stroke-miterlimit:10;"/><line x1="213.0723" y1="1400.1514" x2="213.0723" y2="1405.1514" style="stroke:#10B981;stroke-width:1;"/><line x1="213.0723" y1="1405.1514" x2="740.6631" y2="1405.1514" style="stroke:#10B981;stroke-width:1;"/><line x1="740.6631" y1="1405.1514" x2="740.6631" y2="1420.1514" style="stroke:#10B981;stroke-width:1;"/><polygon points="736.6631,1410.1514,744.6631,1410.1514,740.6631,1420.1514" fill="#10B981" style="stroke:#10B981;stroke-width:1;stroke-linejoin:miter;stroke-miterlimit:10;"/><text x="200.5337" y="71.75" fill="#000000" font-size="18" lengthAdjust="spacing" textLength="94.6582" font-family="'Plus Jakarta Sans'">Pelanggan</text><text x="686.2827" y="71.75" fill="#000000" font-size="18" lengthAdjust="spacing" textLength="118.6084" font-family="'Plus Jakarta Sans'">Admin Florist</text><?plantuml-src ZLHBQzj04BxhLmmf61iIyY3GXm_5JkD3Q4h0XLBmPMojfEbgPyNkAi6G7zzPINuejjFgOkFzTkPxoLuJL-ZGm3oiImK-E5g5sfI9tvvyKndMPPXP3Z_GA3XxAciF3wZH1OGviZ_RGqzMWPufhAUuqhcpDQTtjhGEFim-pcxlfyUGrgNATQYhcvkxcviZgBZ-9COv-z8TNbzDFt-wtZkS1-5vwl1-I-z-TYlFlcn2OpdzjuuDy5qP7UXGHH8eYF5odZTIT2CNFSp91sLWgjmVB95X-AICyiZozH6vnXAU2U5NWS5Fgce45_2TGXprODURT9BazKd9vJn7VaryT2BvygZCijO8HgKom5jFCWi3rWisYfKZWq2SMT3oOsbpg9nDQpsEDpalwcNDEK4c8eHXZqGBGLxBTcvcE8EUkW7d2oxGvNWEMWNbV5oFV0u3i9nhScDXEqaDCSpQsQ_Dk9PG5QNt5navqHvxqwJ0Lil4LAXtwy2hbKG0fZLjADhhIryvXQalb0gZTjXIJFQmaWMogxCCKX4i7uvuHSZZlfsKmN1IYTIY4mWR7bz740ebaVt6KGBon0LKqXOu45BnPbXmjwAbkhD2bLx1y2Ubg7SZbZ6GQ6srgSAuEHFHLQ8ufInfGxASKMTzLvd1HiI2Am5GD5K8CXh9GwGR3ESG6cdbw4GIAraV3YV2Rk22_yli5Xw512kAP6zEHJEIhP5tmocjc3X_OxZSB57NpJqdVpkPSj699Qvb9SCIMRyPdzbWGJW4sjte5_QToXsvtEkTnpArejHBe4QObJM1kOWiXFeR9yRxRTbHmPBIOsNf9xXLc59eg8stZQYaSOHLr2g0N6FC8xwWqlw1i6fg0hfsfpebo2MwdgKX0bfTbw8HYtRTVXBTvOCqweY0Iz0bEif82__3XXvpVAqS5dh3NLxf3USUnTsBkSJY1JjmIZhcVLYMBiStnfp8F4TniZ6IfPEj9DJY_oR0AE4l?></g></svg>