<svg xmlns="http://www.w3.org/2000/svg" xmlns:xlink="http://www.w3.org/1999/xlink" version="1.1" data-diagram-type="DESCRIPTION" style="width:958px;height:875px;background:#FFFFFF;" width="958px" height="875px" viewBox="0 0 958 875" zoomAndPan="magnify" preserveAspectRatio="none" contentStyleType="text/css"><?plantuml 1.2026.7beta3?><defs/><g><g class="title" data-source-line="10"><text x="166.4199" y="22.9951" fill="#000000" font-size="14" lengthAdjust="spacing" textLength="618.1602" font-weight="700" font-family="'Plus Jakarta Sans'">Deployment Diagram - Lingkungan Pengembangan Lokal (Local Development)</text></g><!--cluster ClientDevice--><g class="cluster" data-qualified-name="ClientDevice" id="ent0001" data-source-line="12"><polygon points="136,53.2969,146,43.2969,509,43.2969,509,296.8869,499,306.8869,136,306.8869,136,53.2969" fill="#F7F4EB" style="stroke:#022C22;stroke-width:1;stroke-linejoin:miter;stroke-miterlimit:10;"/><line x1="499" y1="53.2969" x2="509" y2="43.2969" style="stroke:#022C22;stroke-width:1;"/><line x1="136" y1="53.2969" x2="499" y2="53.2969" style="stroke:#022C22;stroke-width:1;"/><line x1="499" y1="53.2969" x2="499" y2="306.8869" style="stroke:#022C22;stroke-width:1;"/><text x="235.7168" y="69.292" fill="#022C22" font-size="14" lengthAdjust="spacing" textLength="165.5664" font-weight="700" font-family="'Plus Jakarta Sans'">Perangkat Pengguna</text><text x="169.8525" y="85.5889" fill="#022C22" font-size="14" lengthAdjust="spacing" textLength="297.2949" font-weight="700" font-family="'Plus Jakarta Sans'">(Customer / Admin / Operator Device)</text></g><!--cluster Browser--><g class="cluster" data-qualified-name="ClientDevice.Browser" id="ent0002" data-source-line="13"><polygon points="244,133.2969,254,123.2969,469,123.2969,469,256.8869,459,266.8869,244,266.8869,244,133.2969" fill="#F7F4EB" style="stroke:#022C22;stroke-width:1;stroke-linejoin:miter;stroke-miterlimit:10;"/><line x1="459" y1="133.2969" x2="469" y2="123.2969" style="stroke:#022C22;stroke-width:1;"/><line x1="244" y1="133.2969" x2="459" y2="133.2969" style="stroke:#022C22;stroke-width:1;"/><line x1="459" y1="133.2969" x2="459" y2="266.8869" style="stroke:#022C22;stroke-width:1;"/><text x="292.5181" y="149.292" fill="#022C22" font-size="14" lengthAdjust="spacing" textLength="119.9639" font-weight="700" font-family="'Plus Jakarta Sans'">Peramban Web</text><text x="293.7554" y="165.5889" fill="#022C22" font-size="14" lengthAdjust="spacing" textLength="117.4893" font-weight="700" font-family="'Plus Jakarta Sans'">(Web Browser)</text></g><!--cluster LocalServer--><g class="cluster" data-qualified-name="LocalServer" id="ent0004" data-source-line="18"><polygon points="16,381.8869,26,371.8869,933,371.8869,933,840.0769,923,850.0769,16,850.0769,16,381.8869" fill="#F7F4EB" style="stroke:#022C22;stroke-width:1;stroke-linejoin:miter;stroke-miterlimit:10;"/><line x1="923" y1="381.8869" x2="933" y2="371.8869" style="stroke:#022C22;stroke-width:1;"/><line x1="16" y1="381.8869" x2="923" y2="381.8869" style="stroke:#022C22;stroke-width:1;"/><line x1="923" y1="381.8869" x2="923" y2="850.0769" style="stroke:#022C22;stroke-width:1;"/><text x="379.5068" y="397.882" fill="#022C22" font-size="14" lengthAdjust="spacing" textLength="181.9863" font-weight="700" font-family="'Plus Jakarta Sans'">Komputer Server Lokal</text><text x="347.4463" y="414.1789" fill="#022C22" font-size="14" lengthAdjust="spacing" textLength="246.1074" font-weight="700" font-family="'Plus Jakarta Sans'">(Local Development Computer)</text></g><!--cluster WebServer--><g class="cluster" data-qualified-name="LocalServer.WebServer" id="ent0005" data-source-line="19"><polygon points="246,461.8869,256,451.8869,525,451.8869,525,585.4869,515,595.4869,246,595.4869,246,461.8869" fill="#F7F4EB" style="stroke:#022C22;stroke-width:1;stroke-linejoin:miter;stroke-miterlimit:10;"/><line x1="515" y1="461.8869" x2="525" y2="451.8869" style="stroke:#022C22;stroke-width:1;"/><line x1="246" y1="461.8869" x2="515" y2="461.8869" style="stroke:#022C22;stroke-width:1;"/><line x1="515" y1="461.8869" x2="515" y2="595.4869" style="stroke:#022C22;stroke-width:1;"/><text x="279.9521" y="477.882" fill="#022C22" font-size="14" lengthAdjust="spacing" textLength="203.0957" font-weight="700" font-family="'Plus Jakarta Sans'">Web &amp; Application Server</text><text x="294.3999" y="494.1789" fill="#022C22" font-size="14" lengthAdjust="spacing" textLength="174.2002" font-weight="700" font-family="'Plus Jakarta Sans'">(PHP Serve / Laragon)</text></g><!--cluster DbServer--><g class="cluster" data-qualified-name="LocalServer.DbServer" id="ent0007" data-source-line="23"><polygon points="391,670.4869,401,660.4869,608,660.4869,608,800.0769,598,810.0769,391,810.0769,391,670.4869" fill="#F7F4EB" style="stroke:#022C22;stroke-width:1;stroke-linejoin:miter;stroke-miterlimit:10;"/><line x1="598" y1="670.4869" x2="608" y2="660.4869" style="stroke:#022C22;stroke-width:1;"/><line x1="391" y1="670.4869" x2="598" y2="670.4869" style="stroke:#022C22;stroke-width:1;"/><line x1="598" y1="670.4869" x2="598" y2="810.0769" style="stroke:#022C22;stroke-width:1;"/><text x="429.8066" y="686.482" fill="#022C22" font-size="14" lengthAdjust="spacing" textLength="131.3867" font-weight="700" font-family="'Plus Jakarta Sans'">Database Server</text><text x="433.6792" y="702.7789" fill="#022C22" font-size="14" lengthAdjust="spacing" textLength="123.6416" font-weight="700" font-family="'Plus Jakarta Sans'">(MySQL Server)</text></g><!--cluster AdminTool--><g class="cluster" data-qualified-name="LocalServer.AdminTool" id="ent0009" data-source-line="27"><polygon points="562,478.0369,572,468.0369,834,468.0369,834,569.3369,824,579.3369,562,579.3369,562,478.0369" fill="#F7F4EB" style="stroke:#022C22;stroke-width:1;stroke-linejoin:miter;stroke-miterlimit:10;"/><line x1="824" y1="478.0369" x2="834" y2="468.0369" style="stroke:#022C22;stroke-width:1;"/><line x1="562" y1="478.0369" x2="824" y2="478.0369" style="stroke:#022C22;stroke-width:1;"/><line x1="824" y1="478.0369" x2="824" y2="579.3369" style="stroke:#022C22;stroke-width:1;"/><text x="595.5796" y="494.032" fill="#022C22" font-size="14" lengthAdjust="spacing" textLength="196.8408" font-weight="700" font-family="'Plus Jakarta Sans'">Database Administration</text><text x="606.6196" y="510.3289" fill="#022C22" font-size="14" lengthAdjust="spacing" textLength="174.7607" font-weight="700" font-family="'Plus Jakarta Sans'">(phpMyAdmin Engine)</text></g><!--cluster FileStorage--><g class="cluster" data-qualified-name="LocalServer.FileStorage" id="ent0011" data-source-line="31"><polygon points="64,674.1269,74,664.1269,297,664.1269,297,796.4269,287,806.4269,64,806.4269,64,674.1269" fill="#F7F4EB" style="stroke:#022C22;stroke-width:1;stroke-linejoin:miter;stroke-miterlimit:10;"/><line x1="287" y1="674.1269" x2="297" y2="664.1269" style="stroke:#022C22;stroke-width:1;"/><line x1="64" y1="674.1269" x2="287" y2="674.1269" style="stroke:#022C22;stroke-width:1;"/><line x1="287" y1="674.1269" x2="287" y2="806.4269" style="stroke:#022C22;stroke-width:1;"/><text x="106.1924" y="690.122" fill="#022C22" font-size="14" lengthAdjust="spacing" textLength="140.6152" font-weight="700" font-family="'Plus Jakarta Sans'">Penyimpanan File</text><text x="99.2266" y="706.4189" fill="#022C22" font-size="14" lengthAdjust="spacing" textLength="154.5469" font-weight="700" font-family="'Plus Jakarta Sans'">(Local File Storage)</text></g><!--entity BladeViews--><g class="entity" data-qualified-name="ClientDevice.Browser.BladeViews" id="ent0003" data-source-line="14"><rect x="286.87" y="187.2969" width="158.2559" height="55.5938" fill="#EFECE2" style="stroke:#022C22;stroke-width:0.5;" rx="2.5" ry="2.5"/><polygon points="428.1259,192.2969,428.1259,206.2969,440.1259,206.2969,440.1259,198.2969,434.1259,192.2969,428.1259,192.2969" fill="#EFECE2" style="stroke:#022C22;stroke-width:0.5;stroke-linejoin:miter;stroke-miterlimit:10;"/><line x1="434.1259" y1="192.2969" x2="434.1259" y2="198.2969" style="stroke:#022C22;stroke-width:0.5;"/><line x1="440.1259" y1="198.2969" x2="434.1259" y2="198.2969" style="stroke:#022C22;stroke-width:0.5;"/><text x="296.87" y="213.292" fill="#000000" font-size="14" lengthAdjust="spacing" textLength="128.2559" font-family="'Plus Jakarta Sans'">Blade HTML Views</text><text x="296.87" y="229.5889" fill="#000000" font-size="14" lengthAdjust="spacing" textLength="117.6533" font-family="'Plus Jakarta Sans'">(CSS &amp; Alpine.js)</text></g><!--entity LaravelApp--><g class="entity" data-qualified-name="LocalServer.WebServer.LaravelApp" id="ent0006" data-source-line="20"><rect x="315.28" y="515.8869" width="185.4424" height="55.5938" fill="#EFECE2" style="stroke:#022C22;stroke-width:0.5;" rx="2.5" ry="2.5"/><polygon points="483.7224,520.8869,483.7224,534.8869,495.7224,534.8869,495.7224,526.8869,489.7224,520.8869,483.7224,520.8869" fill="#EFECE2" style="stroke:#022C22;stroke-width:0.5;stroke-linejoin:miter;stroke-miterlimit:10;"/><line x1="489.7224" y1="520.8869" x2="489.7224" y2="526.8869" style="stroke:#022C22;stroke-width:0.5;"/><line x1="495.7224" y1="526.8869" x2="489.7224" y2="526.8869" style="stroke:#022C22;stroke-width:0.5;"/><text x="325.28" y="541.882" fill="#000000" font-size="14" lengthAdjust="spacing" textLength="134.1758" font-family="'Plus Jakarta Sans'">Laravel Application</text><text x="325.28" y="558.1789" fill="#000000" font-size="14" lengthAdjust="spacing" textLength="155.4424" font-family="'Plus Jakarta Sans'">(PHP Monolith Engine)</text></g><!--entity Database--><g class="entity" data-qualified-name="LocalServer.DbServer.Database" id="ent0008" data-source-line="24"><path d="M414.88,734.4869 C414.88,724.4869 490.0026,724.4869 490.0026,724.4869 C490.0026,724.4869 565.1251,724.4869 565.1251,734.4869 L565.1251,776.0806 C565.1251,786.0806 490.0026,786.0806 490.0026,786.0806 C490.0026,786.0806 414.88,786.0806 414.88,776.0806 L414.88,734.4869" style="stroke:#181818;stroke-width:0.5;" fill="#F1F1F1"/><path d="M414.88,734.4869 C414.88,744.4869 490.0026,744.4869 490.0026,744.4869 C490.0026,744.4869 565.1251,744.4869 565.1251,734.4869" style="stroke:#181818;stroke-width:0.5;" fill="none"/><text x="424.88" y="761.482" fill="#000000" font-size="14" lengthAdjust="spacing" textLength="105.8135" font-family="'Plus Jakarta Sans'">little_joy_florist</text><text x="424.88" y="777.7789" fill="#000000" font-size="14" lengthAdjust="spacing" textLength="130.2451" font-family="'Plus Jakarta Sans'">(MySQL Database)</text></g><!--entity phpMyAdmin--><g class="entity" data-qualified-name="LocalServer.AdminTool.phpMyAdmin" id="ent0010" data-source-line="28"><rect x="583.65" y="524.0369" width="140.7012" height="39.2969" fill="#EFECE2" style="stroke:#022C22;stroke-width:0.5;" rx="2.5" ry="2.5"/><polygon points="707.3512,529.0369,707.3512,543.0369,719.3512,543.0369,719.3512,535.0369,713.3512,529.0369,707.3512,529.0369" fill="#EFECE2" style="stroke:#022C22;stroke-width:0.5;stroke-linejoin:miter;stroke-miterlimit:10;"/><line x1="713.3512" y1="529.0369" x2="713.3512" y2="535.0369" style="stroke:#022C22;stroke-width:0.5;"/><line x1="719.3512" y1="535.0369" x2="713.3512" y2="535.0369" style="stroke:#022C22;stroke-width:0.5;"/><text x="593.65" y="550.032" fill="#000000" font-size="14" lengthAdjust="spacing" textLength="110.7012" font-family="'Plus Jakarta Sans'">phpMyAdmin UI</text></g><!--entity StorageFolder--><g class="entity" data-qualified-name="LocalServer.FileStorage.StorageFolder" id="ent0012" data-source-line="32"><path d="M90.6,728.1269 L131.6,728.1269 A3.75,3.75 0 0 1 134.1,730.6269 L141.1,749.1269 L251.4096,749.1269 A2.5,2.5 0 0 1 253.9096,751.6269 L253.9096,779.9237 A2.5,2.5 0 0 1 251.4096,782.4237 L90.6,782.4237 A2.5,2.5 0 0 1 88.1,779.9237 L88.1,730.6269 A2.5,2.5 0 0 1 90.6,728.1269" style="stroke:#181818;stroke-width:0.5;" fill="#F1F1F1"/><line x1="88.1" y1="749.1269" x2="141.1" y2="749.1269" style="stroke:#181818;stroke-width:0.5;"/><text x="98.1" y="769.122" fill="#000000" font-size="14" lengthAdjust="spacing" textLength="135.8096" font-family="'Plus Jakarta Sans'">storage/app/public/</text></g><!--link ClientDevice to LocalServer--><g class="link" data-entity-1="ent0001" data-entity-2="ent0004" id="lnk13" data-source-line="37" data-link-type="dependency"><path d="M135.8245,223.2251 C135.4611,223.5524 135.0876,223.8901 134.7041,224.2381 C133.9372,224.9341 133.131,225.671 132.2884,226.4475 C125.5481,232.6594 116.4862,241.4019 106.6975,251.9419 C87.12,273.0219 64.635,301.2919 52,330.8869 C47.4125,341.6319 43.53,352.9394 40.2485,364.5083 C39.8383,365.9544 39.4375,367.4046 39.0458,368.8583 C38.85,369.5851 39.926,365.4767 39.7348,366.2052" style="stroke:#10B981;stroke-width:1;" fill="none" id="ClientDevice-to-LocalServer"/><polygon points="38.4653,371.0413,44.6193,363.3519,39.7348,366.2052,36.8815,361.3207,38.4653,371.0413" fill="#10B981" style="stroke:#10B981;stroke-width:1;stroke-linejoin:miter;stroke-miterlimit:10;"/><text x="53" y="343.9538" fill="#000000" font-size="13" lengthAdjust="spacing" textLength="186.5386" font-family="'Plus Jakarta Sans'">HTTP/HTTPS (Port 8000 / 80)</text></g><!--link Browser to WebServer--><g class="link" data-entity-1="ent0002" data-entity-2="ent0005" id="lnk14" data-source-line="38" data-link-type="dependency"><path d="M250.3775,267.3242 C250.367,267.6988 250.3565,268.0744 250.3461,268.4511 C250.3042,269.9578 250.2624,271.4814 250.2208,273.0197 C250.0543,279.1728 249.8907,285.5606 249.7373,292.0406 C249.4306,305.0006 249.165,318.3294 249,330.8869 C248.9,338.4469 248.53,340.3469 249,347.8869 C249.22,351.4669 249.74,352.3169 250,355.8869 C251.4875,376.2694 252.485,397.9331 253.1436,419.013 C253.4729,429.5529 253.7175,439.9468 253.8962,449.9617 C253.9074,450.5876 253.8327,446.2128 253.8434,446.8357" style="stroke:#10B981;stroke-width:1;" fill="none" id="Browser-to-WebServer"/><polygon points="253.9289,451.8349,257.7743,442.7678,253.8434,446.8357,249.7755,442.9047,253.9289,451.8349" fill="#10B981" style="stroke:#10B981;stroke-width:1;stroke-linejoin:miter;stroke-miterlimit:10;"/><text x="250" y="343.9538" fill="#000000" font-size="13" lengthAdjust="spacing" textLength="291.9414" font-family="'Plus Jakarta Sans'">Request halaman, form submit, &amp; aset static</text></g><!--link BladeViews to LaravelApp--><g class="link" data-entity-1="ent0003" data-entity-2="ent0006" id="lnk15" data-source-line="39" data-link-type="dependency"><path d="M445.7192,245.5163 C484.4592,263.8563 523.64,290.1069 546,330.8869 C583.77,399.7769 505.2589,472.8887 452.1989,512.4387" style="stroke:#10B981;stroke-width:1;stroke-dasharray:7,7;" fill="none" id="BladeViews-LaravelApp"/><polygon points="441.2,243.3769,447.623,250.8432,445.7192,245.5163,451.046,243.6125,441.2,243.3769" fill="#10B981" style="stroke:#10B981;stroke-width:1;stroke-linejoin:miter;stroke-miterlimit:10;"/><polygon points="448.19,515.4269,457.7965,513.2553,452.1989,512.4387,453.0154,506.8411,448.19,515.4269" fill="#10B981" style="stroke:#10B981;stroke-width:1;stroke-linejoin:miter;stroke-miterlimit:10;"/><text x="552" y="343.9538" fill="#000000" font-size="13" lengthAdjust="spacing" textLength="277.6782" font-family="'Plus Jakarta Sans'">HTTP Response (HTML &amp; JSON untuk AJAX)</text></g><!--link LaravelApp to DbServer--><g class="link" data-entity-1="ent0006" data-entity-2="ent0007" id="lnk16" data-source-line="40" data-link-type="dependency"><path d="M402.9,571.6869 C400.68,592.5169 401.74,620.3969 419,636.4869 C432.18,648.7769 567.5,632.5369 581,644.4869 C585.5638,648.5244 589.292,653.2306 592.3213,658.3799 C592.7,659.0236 590.6803,655.281 591.0373,655.9381" style="stroke:#10B981;stroke-width:1;" fill="none" id="LaravelApp-to-DbServer"/><polygon points="593.4248,660.3312,592.6419,650.5135,591.0373,655.9381,585.6128,654.3335,593.4248,660.3312" fill="#10B981" style="stroke:#10B981;stroke-width:1;stroke-linejoin:miter;stroke-miterlimit:10;"/><text x="420" y="632.5538" fill="#000000" font-size="13" lengthAdjust="spacing" textLength="202.7124" font-family="'Plus Jakarta Sans'">Query SQL via PDO (Port 3306)</text></g><!--link LaravelApp to FileStorage--><g class="link" data-entity-1="ent0006" data-entity-2="ent0011" id="lnk17" data-source-line="41" data-link-type="dependency"><path d="M378.14,571.9269 C360.1,586.5769 335.85,603.2769 311,611.4869 C298.81,615.5069 88.92,610.2469 80,619.4869 C74.75,624.9169 74.77,631.0269 80,636.4869 C94.62,651.7369 254.13,630.5369 270,644.4869 C274.5788,648.5081 278.3184,653.202 281.3562,658.3422 C282.1157,659.6272 282.8312,660.9402 283.5051,662.2774 C283.6735,662.6118 283.8394,662.9476 284.0027,663.2849 C284.0843,663.4536 282.0222,659.1052 282.1025,659.2746" style="stroke:#10B981;stroke-width:1;" fill="none" id="LaravelApp-to-FileStorage"/><polygon points="284.2457,663.792,284.002,653.9461,282.1025,659.2746,276.7741,657.3751,284.2457,663.792" fill="#10B981" style="stroke:#10B981;stroke-width:1;stroke-linejoin:miter;stroke-miterlimit:10;"/><text x="81" y="632.5538" fill="#000000" font-size="13" lengthAdjust="spacing" textLength="285.689" font-family="'Plus Jakarta Sans'">Akses berkas (Foto produk &amp; Bukti transfer)</text></g><!--link phpMyAdmin to DbServer--><g class="link" data-entity-1="ent0010" data-entity-2="ent0007" id="lnk18" data-source-line="42" data-link-type="dependency"><path d="M649.11,563.6569 C642.57,589.0519 630.57,635.6269 620.07,676.3806 C617.445,686.5691 614.9137,696.3937 612.585,705.4326 C611.4206,709.952 610.3069,714.275 609.2573,718.3489 C608.995,719.3673 608.7366,720.3702 608.4824,721.3567 C608.3554,721.8499 609.4767,717.4972 609.3518,717.9821" style="stroke:#10B981;stroke-width:1;" fill="none" id="phpMyAdmin-to-DbServer"/><polygon points="608.1044,722.824,614.2232,715.1065,609.3518,717.9821,606.4762,713.1107,608.1044,722.824" fill="#10B981" style="stroke:#10B981;stroke-width:1;stroke-linejoin:miter;stroke-miterlimit:10;"/><text x="634" y="632.5538" fill="#000000" font-size="13" lengthAdjust="spacing" textLength="253.4873" font-family="'Plus Jakarta Sans'">Administrasi &amp; inspeksi tabel database</text></g><?plantuml-src XLHhRzem5FsUNt75f0wajgHqshfggWG4r7NGfaltaBQfCc1IDuxj-T4AJVtlkqaC2NriV4YmVUxnkVUU6vCneOWcEIHsnIaOgzdSkfm7PdCIqILnt8wbiESafz2AkJDmHZAYBO642DDgeC_bWWx8F4krT68nb5ngU3L-Dtup6Zn6IRsWsYF2Nc_Owpr255U-TDxNbYt9t3wvQpGU3KVF8lzvNrzhUUyF3yB1-wE38B3COaqYghXSvLHOY1X92_0UJ9X8CoTI8Y2c8gNvZ9IBYSm8X_P4pl4LqJlAfIf2Eq4WC2Ci7jM8p8Wjur8do4_H7ZfZPKurTA6_o9d0zuL2e4KrICBcjDC2Oc386N9LE_0d0FpLh8K4-4Pdo8TF660-Xkegq2zyJF4ZlYhG6d225ATNqmbyPVJU57gI17QWpnKJTF_MU8u2Lo9AaeVWOPtJ9vahPv4-eVeENsKHaEP95M3eaHLZUUvZcjaKyl5wfJYR4ykayCH86P_6rG9BDC76fL9KN1YpnRITOm555KrEJpQLGd9cRs0aKipM2wlWYFQf5i-6m8XOCYE6rhgcg-HoufSLH_HKps8Tri8RqLhNjt9rlKJBCMCt76jkp-9N_z5HkWPPz3erTQEcgyfBpSJAdIif-RDLQWHz-LZYwvtd1Q27LonNHA3rnepJJTEB1NvJ97R8Nrti-8t6vKl9SIYXPQgJBb6ggzmCczGjetp4k8JLldiDfsvMZH-QpmcM4SE2hV7O--7d-DVUoPRJZj7hLt6tU2JGZgMsS1I68HhgAEm4wqdP2g_DTGoVwMz7ZOKRmabEn2wce7CmRfOpkuksnNPO_8vY8-P1FJBmONz3k7_IC9YNWxH6IO6jR9UJk0DdoSKvE65T1lsp_lTEq8ZP4XVLsYuTrIieN7J72CJHXS_ly31y-p91ipF7qCyCDJ2Z6aiAxR6q4fIM2vIn0mENMGReCc6MwFEWOPYN9DNED0mPc32APlWNZOlpk9w8lm00?></g></svg>