<svg xmlns="http://www.w3.org/2000/svg" xmlns:xlink="http://www.w3.org/1999/xlink" version="1.1" data-diagram-type="ACTIVITY" style="width:929px;height:1572px;background:#FFFFFF;" width="929px" height="1572px" viewBox="0 0 929 1572" zoomAndPan="magnify" preserveAspectRatio="none" contentStyleType="text/css"><?plantuml 1.2026.7beta3?><defs/><g><g class="title" data-source-line="13"><text x="247.8577" y="32.9951" fill="#000000" font-size="14" lengthAdjust="spacing" textLength="432.1885" font-weight="700" font-family="'Plus Jakarta Sans'">6. Diagram Aktivitas Detail - Proses Checkout Pesanan</text></g><rect x="20" y="55.042" width="882.9038" height="20.9531" fill="none" style="stroke:none;stroke-width:1;"/><ellipse cx="258.7734" cy="90.9951" rx="10" ry="10" fill="#222222" style="stroke:#222222;stroke-width:1;"/><rect x="82.4287" y="120.9951" width="352.6895" height="33.9688" fill="#F7F4EB" style="stroke:#022C22;stroke-width:0.5;" rx="12.5" ry="12.5"/><text x="92.4287" y="142.1338" fill="#022C22" font-size="12" lengthAdjust="spacing" textLength="332.6895" font-family="'Plus Jakarta Sans'">Menekan tombol "Lanjutkan ke Checkout" di Keranjang</text><rect x="90.6523" y="457.7881" width="336.2422" height="47.9375" fill="#F7F4EB" style="stroke:#022C22;stroke-width:0.5;" rx="12.5" ry="12.5"/><text x="100.6523" y="478.9268" fill="#022C22" font-size="12" lengthAdjust="spacing" textLength="316.2422" font-family="'Plus Jakarta Sans'">Mengisi Nama Penerima, Telepon Penerima, Alamat,</text><text x="100.6523" y="492.8955" fill="#022C22" font-size="12" lengthAdjust="spacing" textLength="231.1816" font-family="'Plus Jakarta Sans'">Tanggal Kirim, Pesan Kartu, &amp; Catatan</text><rect x="131.8379" y="525.7256" width="253.8711" height="33.9688" fill="#F7F4EB" style="stroke:#022C22;stroke-width:0.5;" rx="12.5" ry="12.5"/><text x="141.8379" y="546.8643" fill="#022C22" font-size="12" lengthAdjust="spacing" textLength="233.8711" font-family="'Plus Jakarta Sans'">Menekan tombol "Konfirmasi Pesanan"</text><rect x="123.6289" y="911.9092" width="270.2891" height="33.9688" fill="#F7F4EB" style="stroke:#022C22;stroke-width:0.5;" rx="12.5" ry="12.5"/><text x="133.6289" y="933.0479" fill="#022C22" font-size="12" lengthAdjust="spacing" textLength="250.2891" font-family="'Plus Jakarta Sans'">Kembali ke Keranjang untuk penyesuaian</text><ellipse cx="258.7734" cy="976.8779" rx="11" ry="11" fill="none" style="stroke:#222222;stroke-width:1;"/><ellipse cx="258.7734" cy="976.8779" rx="6" ry="6" fill="#222222" style="stroke:#222222;stroke-width:1;"/><rect x="74.6973" y="1029.8779" width="368.1523" height="33.9688" fill="#F7F4EB" style="stroke:#022C22;stroke-width:0.5;" rx="12.5" ry="12.5"/><text x="84.6973" y="1051.0166" fill="#022C22" font-size="12" lengthAdjust="spacing" textLength="348.1523" font-family="'Plus Jakarta Sans'">Menghitung total biaya (Subtotal + Flat Ongkir Rp25.000)</text><rect x="83.0996" y="1083.8467" width="351.3477" height="33.9688" fill="#F7F4EB" style="stroke:#022C22;stroke-width:0.5;" rx="12.5" ry="12.5"/><text x="93.0996" y="1104.9854" fill="#022C22" font-size="12" lengthAdjust="spacing" textLength="331.3477" font-family="'Plus Jakarta Sans'">Membuat Nomor Pesanan Unik (`LJ-YYYYMMDD-XXXX`)</text><rect x="26" y="1137.8154" width="465.5469" height="33.9688" fill="#F7F4EB" style="stroke:#022C22;stroke-width:0.5;" rx="12.5" ry="12.5"/><text x="36" y="1158.9541" fill="#022C22" font-size="12" lengthAdjust="spacing" textLength="445.5469" font-family="'Plus Jakarta Sans'">Menyimpan pesanan baru ke tabel `orders` (status = 'pending_payment')</text><rect x="97.1328" y="1191.7842" width="323.2813" height="47.9375" fill="#F7F4EB" style="stroke:#022C22;stroke-width:0.5;" rx="12.5" ry="12.5"/><text x="107.1328" y="1212.9229" fill="#022C22" font-size="12" lengthAdjust="spacing" textLength="303.2813" font-family="'Plus Jakarta Sans'">Menyimpan snapshot nama produk, harga satuan,</text><text x="107.1328" y="1226.8916" fill="#022C22" font-size="12" lengthAdjust="spacing" textLength="221.9941" font-family="'Plus Jakarta Sans'">dan kuantitas ke tabel `order_items`</text><rect x="78.9834" y="1259.7217" width="359.5801" height="33.9688" fill="#F7F4EB" style="stroke:#022C22;stroke-width:0.5;" rx="12.5" ry="12.5"/><text x="88.9834" y="1280.8604" fill="#022C22" font-size="12" lengthAdjust="spacing" textLength="339.5801" font-family="'Plus Jakarta Sans'">Menghapus seluruh item di keranjang belanja pengguna</text><rect x="71.9668" y="1313.6904" width="373.6133" height="33.9688" fill="#F7F4EB" style="stroke:#022C22;stroke-width:0.5;" rx="12.5" ry="12.5"/><text x="81.9668" y="1334.8291" fill="#022C22" font-size="12" lengthAdjust="spacing" textLength="353.6133" font-family="'Plus Jakarta Sans'">Menyimpan riwayat status awal di `order_status_histories`</text><rect x="157.6514" y="1367.6592" width="202.2441" height="33.9688" fill="#F7F4EB" style="stroke:#022C22;stroke-width:0.5;" rx="12.5" ry="12.5"/><text x="167.6514" y="1388.7979" fill="#022C22" font-size="12" lengthAdjust="spacing" textLength="182.2441" font-family="'Plus Jakarta Sans'">Komitmen Transaksi database</text><rect x="85.3848" y="1421.6279" width="346.7773" height="33.9688" fill="#F7F4EB" style="stroke:#022C22;stroke-width:0.5;" rx="12.5" ry="12.5"/><text x="95.3848" y="1442.7666" fill="#022C22" font-size="12" lengthAdjust="spacing" textLength="326.7773" font-family="'Plus Jakarta Sans'">Mengarahkan pelanggan ke halaman sukses checkout</text><rect x="104.3867" y="1475.5967" width="308.7734" height="33.9688" fill="#F7F4EB" style="stroke:#022C22;stroke-width:0.5;" rx="12.5" ry="12.5"/><text x="114.3867" y="1496.7354" fill="#022C22" font-size="12" lengthAdjust="spacing" textLength="288.7734" font-family="'Plus Jakarta Sans'">Melihat petunjuk instruksi transfer bank manual</text><ellipse cx="258.7734" cy="1540.5654" rx="11" ry="11" fill="none" style="stroke:#222222;stroke-width:1;"/><ellipse cx="258.7734" cy="1540.5654" rx="6" ry="6" fill="#222222" style="stroke:#222222;stroke-width:1;"/><line x1="20" y1="55.042" x2="20" y2="1551.5654" style="stroke:#000000;stroke-width:1.5;"/><rect x="566.1201" y="174.9639" width="244.5488" height="33.9688" fill="#F7F4EB" style="stroke:#022C22;stroke-width:0.5;" rx="12.5" ry="12.5"/><text x="576.1201" y="196.1025" fill="#022C22" font-size="12" lengthAdjust="spacing" textLength="224.5488" font-family="'Plus Jakarta Sans'">Memeriksa apakah keranjang kosong</text><rect x="545.6592" y="277.335" width="285.4707" height="33.9688" fill="#F7F4EB" style="stroke:#022C22;stroke-width:0.5;" rx="12.5" ry="12.5"/><text x="555.6592" y="298.4736" fill="#022C22" font-size="12" lengthAdjust="spacing" textLength="265.4707" font-family="'Plus Jakarta Sans'">Mengalihkan ke katalog dengan pesan error</text><ellipse cx="688.3945" cy="350.8193" rx="11" ry="11" fill="none" style="stroke:#222222;stroke-width:1;"/><ellipse cx="688.3945" cy="350.8193" rx="6" ry="6" fill="#222222" style="stroke:#222222;stroke-width:1;"/><polygon points="643.3042,228.9326,733.4849,228.9326,745.4849,240.9326,733.4849,252.9326,643.3042,252.9326,631.3042,240.9326,643.3042,228.9326" fill="#F7F4EB" style="stroke:#022C22;stroke-width:0.5;stroke-linejoin:miter;stroke-miterlimit:10;"/><text x="692.3945" y="263.1431" fill="#000000" font-size="11" lengthAdjust="spacing" textLength="13.46" font-family="'Plus Jakarta Sans'">Ya</text><text x="643.3042" y="244.7407" fill="#022C22" font-size="11" lengthAdjust="spacing" textLength="90.1807" font-family="'Plus Jakarta Sans'">Apakah kosong?</text><text x="745.4849" y="238.3384" fill="#000000" font-size="11" lengthAdjust="spacing" textLength="29.8687" font-family="'Plus Jakarta Sans'">Tidak</text><rect x="574.6719" y="403.8193" width="227.4453" height="33.9688" fill="#F7F4EB" style="stroke:#022C22;stroke-width:0.5;" rx="12.5" ry="12.5"/><text x="584.6719" y="424.958" fill="#022C22" font-size="12" lengthAdjust="spacing" textLength="207.4453" font-family="'Plus Jakarta Sans'">Membuka halaman form Checkout</text><rect x="532.4814" y="579.6943" width="311.8262" height="33.9688" fill="#F7F4EB" style="stroke:#022C22;stroke-width:0.5;" rx="12.5" ry="12.5"/><text x="542.4814" y="600.833" fill="#022C22" font-size="12" lengthAdjust="spacing" textLength="291.8262" font-family="'Plus Jakarta Sans'">Memulai Transaksi Database (`DB::transaction`)</text><rect x="532.1445" y="633.6631" width="312.5" height="33.9688" fill="#F7F4EB" style="stroke:#022C22;stroke-width:0.5;" rx="12.5" ry="12.5"/><text x="542.1445" y="654.8018" fill="#022C22" font-size="12" lengthAdjust="spacing" textLength="292.5" font-family="'Plus Jakarta Sans'">Mengunci baris produk terkait (`lockForUpdate`)</text><rect x="501.5469" y="687.6318" width="373.6953" height="33.9688" fill="#F7F4EB" style="stroke:#022C22;stroke-width:0.5;" rx="12.5" ry="12.5"/><text x="511.5469" y="708.7705" fill="#022C22" font-size="12" lengthAdjust="spacing" textLength="353.6953" font-family="'Plus Jakarta Sans'">Memvalidasi tanggal pengiriman (tidak boleh di masa lalu)</text><rect x="534.4561" y="741.6006" width="307.877" height="33.9688" fill="#F7F4EB" style="stroke:#022C22;stroke-width:0.5;" rx="12.5" ry="12.5"/><text x="544.4561" y="762.7393" fill="#022C22" font-size="12" lengthAdjust="spacing" textLength="287.877" font-family="'Plus Jakarta Sans'">Memeriksa ulang ketersediaan stok fisik produk</text><rect x="504.7461" y="843.9717" width="367.2969" height="47.9375" fill="#F7F4EB" style="stroke:#022C22;stroke-width:0.5;" rx="12.5" ry="12.5"/><text x="514.7461" y="865.1104" fill="#022C22" font-size="12" lengthAdjust="spacing" textLength="216.9316" font-family="'Plus Jakarta Sans'">Membatalkan transaksi (*rollback*);</text><text x="514.7461" y="879.0791" fill="#022C22" font-size="12" lengthAdjust="spacing" textLength="347.2969" font-family="'Plus Jakarta Sans'">Mengarahkan ke keranjang dengan pesan kesalahan stok</text><polygon points="633.0696,795.5693,743.7195,795.5693,755.7195,807.5693,743.7195,819.5693,633.0696,819.5693,621.0696,807.5693,633.0696,795.5693" fill="#F7F4EB" style="stroke:#022C22;stroke-width:0.5;stroke-linejoin:miter;stroke-miterlimit:10;"/><text x="692.3945" y="829.7798" fill="#000000" font-size="11" lengthAdjust="spacing" textLength="29.8687" font-family="'Plus Jakarta Sans'">Tidak</text><text x="633.0696" y="811.3774" fill="#022C22" font-size="11" lengthAdjust="spacing" textLength="110.6499" font-family="'Plus Jakarta Sans'">Apakah stok cukup?</text><text x="755.7195" y="804.9751" fill="#000000" font-size="11" lengthAdjust="spacing" textLength="13.46" font-family="'Plus Jakarta Sans'">Ya</text><line x1="495.5469" y1="55.042" x2="495.5469" y2="1551.5654" style="stroke:#000000;stroke-width:1.5;"/><line x1="901.043" y1="55.042" x2="901.043" y2="1551.5654" style="stroke:#000000;stroke-width:1.5;"/><line x1="258.7734" y1="100.9951" x2="258.7734" y2="120.9951" style="stroke:#10B981;stroke-width:1;"/><polygon points="254.7734,110.9951,262.7734,110.9951,258.7734,120.9951" fill="#10B981" style="stroke:#10B981;stroke-width:1;stroke-linejoin:miter;stroke-miterlimit:10;"/><line x1="258.7734" y1="505.7256" x2="258.7734" y2="525.7256" style="stroke:#10B981;stroke-width:1;"/><polygon points="254.7734,515.7256,262.7734,515.7256,258.7734,525.7256" fill="#10B981" style="stroke:#10B981;stroke-width:1;stroke-linejoin:miter;stroke-miterlimit:10;"/><line x1="258.7734" y1="945.8779" x2="258.7734" y2="965.8779" style="stroke:#10B981;stroke-width:1;"/><polygon points="254.7734,955.8779,262.7734,955.8779,258.7734,965.8779" fill="#10B981" style="stroke:#10B981;stroke-width:1;stroke-linejoin:miter;stroke-miterlimit:10;"/><line x1="258.7734" y1="1063.8467" x2="258.7734" y2="1083.8467" style="stroke:#10B981;stroke-width:1;"/><polygon points="254.7734,1073.8467,262.7734,1073.8467,258.7734,1083.8467" fill="#10B981" style="stroke:#10B981;stroke-width:1;stroke-linejoin:miter;stroke-miterlimit:10;"/><line x1="258.7734" y1="1117.8154" x2="258.7734" y2="1137.8154" style="stroke:#10B981;stroke-width:1;"/><polygon points="254.7734,1127.8154,262.7734,1127.8154,258.7734,1137.8154" fill="#10B981" style="stroke:#10B981;stroke-width:1;stroke-linejoin:miter;stroke-miterlimit:10;"/><line x1="258.7734" y1="1171.7842" x2="258.7734" y2="1191.7842" style="stroke:#10B981;stroke-width:1;"/><polygon points="254.7734,1181.7842,262.7734,1181.7842,258.7734,1191.7842" fill="#10B981" style="stroke:#10B981;stroke-width:1;stroke-linejoin:miter;stroke-miterlimit:10;"/><line x1="258.7734" y1="1239.7217" x2="258.7734" y2="1259.7217" style="stroke:#10B981;stroke-width:1;"/><polygon points="254.7734,1249.7217,262.7734,1249.7217,258.7734,1259.7217" fill="#10B981" style="stroke:#10B981;stroke-width:1;stroke-linejoin:miter;stroke-miterlimit:10;"/><line x1="258.7734" y1="1293.6904" x2="258.7734" y2="1313.6904" style="stroke:#10B981;stroke-width:1;"/><polygon points="254.7734,1303.6904,262.7734,1303.6904,258.7734,1313.6904" fill="#10B981" style="stroke:#10B981;stroke-width:1;stroke-linejoin:miter;stroke-miterlimit:10;"/><line x1="258.7734" y1="1347.6592" x2="258.7734" y2="1367.6592" style="stroke:#10B981;stroke-width:1;"/><polygon points="254.7734,1357.6592,262.7734,1357.6592,258.7734,1367.6592" fill="#10B981" style="stroke:#10B981;stroke-width:1;stroke-linejoin:miter;stroke-miterlimit:10;"/><line x1="258.7734" y1="1401.6279" x2="258.7734" y2="1421.6279" style="stroke:#10B981;stroke-width:1;"/><polygon points="254.7734,1411.6279,262.7734,1411.6279,258.7734,1421.6279" fill="#10B981" style="stroke:#10B981;stroke-width:1;stroke-linejoin:miter;stroke-miterlimit:10;"/><line x1="258.7734" y1="1455.5967" x2="258.7734" y2="1475.5967" style="stroke:#10B981;stroke-width:1;"/><polygon points="254.7734,1465.5967,262.7734,1465.5967,258.7734,1475.5967" fill="#10B981" style="stroke:#10B981;stroke-width:1;stroke-linejoin:miter;stroke-miterlimit:10;"/><line x1="258.7734" y1="1509.5654" x2="258.7734" y2="1529.5654" style="stroke:#10B981;stroke-width:1;"/><polygon points="254.7734,1519.5654,262.7734,1519.5654,258.7734,1529.5654" fill="#10B981" style="stroke:#10B981;stroke-width:1;stroke-linejoin:miter;stroke-miterlimit:10;"/><line x1="688.3945" y1="311.3037" x2="688.3945" y2="339.8193" style="stroke:#10B981;stroke-width:1;"/><polygon points="684.3945,329.8193,692.3945,329.8193,688.3945,339.8193" fill="#10B981" style="stroke:#10B981;stroke-width:1;stroke-linejoin:miter;stroke-miterlimit:10;"/><line x1="688.3945" y1="252.9326" x2="688.3945" y2="277.335" style="stroke:#10B981;stroke-width:1;"/><polygon points="684.3945,267.335,692.3945,267.335,688.3945,277.335" fill="#10B981" style="stroke:#10B981;stroke-width:1;stroke-linejoin:miter;stroke-miterlimit:10;"/><line x1="745.4849" y1="240.9326" x2="841.1299" y2="240.9326" style="stroke:#10B981;stroke-width:1;"/><polygon points="837.1299,309.8193,845.1299,309.8193,841.1299,319.8193" fill="#10B981" style="stroke:#10B981;stroke-width:1;stroke-linejoin:miter;stroke-miterlimit:10;"/><line x1="841.1299" y1="240.9326" x2="841.1299" y2="383.8193" style="stroke:#10B981;stroke-width:1;"/><line x1="841.1299" y1="383.8193" x2="688.3945" y2="383.8193" style="stroke:#10B981;stroke-width:1;"/><line x1="688.3945" y1="383.8193" x2="688.3945" y2="403.8193" style="stroke:#10B981;stroke-width:1;"/><polygon points="684.3945,393.8193,692.3945,393.8193,688.3945,403.8193" fill="#10B981" style="stroke:#10B981;stroke-width:1;stroke-linejoin:miter;stroke-miterlimit:10;"/><line x1="688.3945" y1="208.9326" x2="688.3945" y2="228.9326" style="stroke:#10B981;stroke-width:1;"/><polygon points="684.3945,218.9326,692.3945,218.9326,688.3945,228.9326" fill="#10B981" style="stroke:#10B981;stroke-width:1;stroke-linejoin:miter;stroke-miterlimit:10;"/><line x1="688.3945" y1="613.6631" x2="688.3945" y2="633.6631" style="stroke:#10B981;stroke-width:1;"/><polygon points="684.3945,623.6631,692.3945,623.6631,688.3945,633.6631" fill="#10B981" style="stroke:#10B981;stroke-width:1;stroke-linejoin:miter;stroke-miterlimit:10;"/><line x1="688.3945" y1="667.6318" x2="688.3945" y2="687.6318" style="stroke:#10B981;stroke-width:1;"/><polygon points="684.3945,677.6318,692.3945,677.6318,688.3945,687.6318" fill="#10B981" style="stroke:#10B981;stroke-width:1;stroke-linejoin:miter;stroke-miterlimit:10;"/><line x1="688.3945" y1="721.6006" x2="688.3945" y2="741.6006" style="stroke:#10B981;stroke-width:1;"/><polygon points="684.3945,731.6006,692.3945,731.6006,688.3945,741.6006" fill="#10B981" style="stroke:#10B981;stroke-width:1;stroke-linejoin:miter;stroke-miterlimit:10;"/><line x1="688.3945" y1="819.5693" x2="688.3945" y2="843.9717" style="stroke:#10B981;stroke-width:1;"/><polygon points="684.3945,833.9717,692.3945,833.9717,688.3945,843.9717" fill="#10B981" style="stroke:#10B981;stroke-width:1;stroke-linejoin:miter;stroke-miterlimit:10;"/><line x1="755.7195" y1="807.5693" x2="882.043" y2="807.5693" style="stroke:#10B981;stroke-width:1;"/><polygon points="878.043,911.6748,886.043,911.6748,882.043,921.6748" fill="#10B981" style="stroke:#10B981;stroke-width:1;stroke-linejoin:miter;stroke-miterlimit:10;"/><line x1="882.043" y1="807.5693" x2="882.043" y2="1014.8779" style="stroke:#10B981;stroke-width:1;"/><line x1="882.043" y1="1014.8779" x2="258.7734" y2="1014.8779" style="stroke:#10B981;stroke-width:1;"/><line x1="258.7734" y1="1014.8779" x2="258.7734" y2="1029.8779" style="stroke:#10B981;stroke-width:1;"/><polygon points="254.7734,1019.8779,262.7734,1019.8779,258.7734,1029.8779" fill="#10B981" style="stroke:#10B981;stroke-width:1;stroke-linejoin:miter;stroke-miterlimit:10;"/><line x1="688.3945" y1="775.5693" x2="688.3945" y2="795.5693" style="stroke:#10B981;stroke-width:1;"/><polygon points="684.3945,785.5693,692.3945,785.5693,688.3945,795.5693" fill="#10B981" style="stroke:#10B981;stroke-width:1;stroke-linejoin:miter;stroke-miterlimit:10;"/><line x1="258.7734" y1="154.9639" x2="258.7734" y2="159.9639" style="stroke:#10B981;stroke-width:1;"/><line x1="258.7734" y1="159.9639" x2="688.3945" y2="159.9639" style="stroke:#10B981;stroke-width:1;"/><line x1="688.3945" y1="159.9639" x2="688.3945" y2="174.9639" style="stroke:#10B981;stroke-width:1;"/><polygon points="684.3945,164.9639,692.3945,164.9639,688.3945,174.9639" fill="#10B981" style="stroke:#10B981;stroke-width:1;stroke-linejoin:miter;stroke-miterlimit:10;"/><line x1="688.3945" y1="437.7881" x2="688.3945" y2="442.7881" style="stroke:#10B981;stroke-width:1;"/><line x1="688.3945" y1="442.7881" x2="258.7734" y2="442.7881" style="stroke:#10B981;stroke-width:1;"/><line x1="258.7734" y1="442.7881" x2="258.7734" y2="457.7881" style="stroke:#10B981;stroke-width:1;"/><polygon points="254.7734,447.7881,262.7734,447.7881,258.7734,457.7881" fill="#10B981" style="stroke:#10B981;stroke-width:1;stroke-linejoin:miter;stroke-miterlimit:10;"/><line x1="258.7734" y1="559.6943" x2="258.7734" y2="564.6943" style="stroke:#10B981;stroke-width:1;"/><line x1="258.7734" y1="564.6943" x2="688.3945" y2="564.6943" style="stroke:#10B981;stroke-width:1;"/><line x1="688.3945" y1="564.6943" x2="688.3945" y2="579.6943" style="stroke:#10B981;stroke-width:1;"/><polygon points="684.3945,569.6943,692.3945,569.6943,688.3945,579.6943" fill="#10B981" style="stroke:#10B981;stroke-width:1;stroke-linejoin:miter;stroke-miterlimit:10;"/><line x1="688.3945" y1="891.9092" x2="688.3945" y2="896.9092" style="stroke:#10B981;stroke-width:1;"/><line x1="688.3945" y1="896.9092" x2="258.7734" y2="896.9092" style="stroke:#10B981;stroke-width:1;"/><line x1="258.7734" y1="896.9092" x2="258.7734" y2="911.9092" style="stroke:#10B981;stroke-width:1;"/><polygon points="254.7734,901.9092,262.7734,901.9092,258.7734,911.9092" fill="#10B981" style="stroke:#10B981;stroke-width:1;stroke-linejoin:miter;stroke-miterlimit:10;"/><text x="210.4443" y="71.75" fill="#000000" font-size="18" lengthAdjust="spacing" textLength="94.6582" font-family="'Plus Jakarta Sans'">Pelanggan</text><text x="582.9033" y="71.75" fill="#000000" font-size="18" lengthAdjust="spacing" textLength="230.7832" font-family="'Plus Jakarta Sans'">Sistem (Laravel Backend)</text><?plantuml-src XLLjRzis4FwkNt7mWDNkdC8rkdMBCGnvyuSwwO8w1LQWG7ooQ8aXHGhaCO61_FWUQLfrqdRL1plHyNZF6sclfEdGOGjBsce1dfnSKsXruVlAkTXWq3ItXjvZAs1mhOE7TwZG4S8IZHySh3vPaxoNj3t5jQgT3QOwizew-6N-TlxculHxAwshXCkh9jFfsNJwdLLn_0_NE6SVSl7rvFIlFryV59V4E7zKlEZXNSpVy7D8Ms9hJVLp7lk5_qiZB_gMHK6IMFW_NiKbTMAZ4cFqh3oXr704ryvwuU6i4Mjb0y6ry6ZG5CNZjT1ewXhDO-4ZqUBuIXYXq03PjhGQ1fTexWB5DqhqEmoWah0GZclSFkEDbjAJQ65uoN3lXOR8MvXgz1XtR8MJoYDWnwutl55k16MzZVro0yEJN4ol_Xa1DSB0y1EE2k0dugfHooOZKKYeRGrLV6sWYun0i95kbjPxibqXj1Sml94Lgb71QEIcI73Ae10QrDXoqyQwjYSsUwf9cYgz14ukico6YRGuXXkXHMVDmPkJk1cDFvkRrAjX8RamtaaD2vOsZE5NE6FOX6RshSuBQpRIjSZ3iZs3d-iQD4guOJKzAcuyvxrBZ9nNvwV7nvGAV02iMOrs8-jWrX9ATD93vsmL591m2YLnZxPhDRVkOrSXYTpHthFeLKH5cLWN9OcasHsAqWBZ5qrC1AD7qAX3xiss1vsy5Zp9YqeYTx8z2ZQihCemcEj1259v7LJe-Y1a5tCMsZBwd_JhsGzVEgjroGAz7Cq-cnGOXtrW-j0zYOpYJurDXhJBpc42qhn5dATbtAOFFGH3h1whiHK-e8ocFWjUpExNr9cwaHIuaIn3XrBY5c6u3ENk_zzWhf7WNrChwU13D_tzrMGooKAMWKllRSi7FuS3FXhMRhYwV7VqYP-hg_Fpe__usHkzbMst9ydVx7Y8y3aV7A9Lkcly2ePyw8blux_XHHUHclgsmsqh3BrukeytsFd64fXu47QMZVa8kHh1ynPeEFfLr9F_f7JxF9jsApd7VfLZs637OxtGmOK6OYdcvwj7PNJW3bFOEBFu18oJ3wmTGGQF3omVT-SvkxUt3HySwwH88nUsbSIq3ivAbS_AB9kpZqgtzpuIsDyHFgXuWQxxM-BP9S7t4kFf1Fjxnw6GXdy8GvoIqhaHZWqmYi-72QXdHSp85m00?></g></svg>