<svg xmlns="http://www.w3.org/2000/svg" xmlns:xlink="http://www.w3.org/1999/xlink" version="1.1" data-diagram-type="ACTIVITY" style="width:1217px;height:1269px;background:#FFFFFF;" width="1217px" height="1269px" viewBox="0 0 1217 1269" zoomAndPan="magnify" preserveAspectRatio="none" contentStyleType="text/css"><?plantuml 1.2026.7beta3?><defs/><g><g class="title" data-source-line="13"><text x="429.4978" y="32.9951" fill="#000000" font-size="14" lengthAdjust="spacing" textLength="356.3027" font-weight="700" font-family="'Plus Jakarta Sans'">2. Diagram Aktivitas Detail - Login Pengguna</text></g><rect x="20" y="55.042" width="1170.2983" height="20.9531" fill="none" style="stroke:none;stroke-width:1;"/><ellipse cx="438.0059" cy="90.9951" rx="10" ry="10" fill="#222222" style="stroke:#222222;stroke-width:1;"/><rect x="352.2764" y="120.9951" width="171.459" height="33.9688" fill="#F7F4EB" style="stroke:#022C22;stroke-width:0.5;" rx="12.5" ry="12.5"/><text x="362.2764" y="142.1338" fill="#022C22" font-size="12" lengthAdjust="spacing" textLength="151.459" font-family="'Plus Jakarta Sans'">Membuka halaman Login</text><rect x="340.6455" y="174.9639" width="194.7207" height="33.9688" fill="#F7F4EB" style="stroke:#022C22;stroke-width:0.5;" rx="12.5" ry="12.5"/><text x="350.6455" y="196.1025" fill="#022C22" font-size="12" lengthAdjust="spacing" textLength="174.7207" font-family="'Plus Jakarta Sans'">Menginput Email &amp; Password</text><rect x="351.084" y="228.9326" width="173.8438" height="33.9688" fill="#F7F4EB" style="stroke:#022C22;stroke-width:0.5;" rx="12.5" ry="12.5"/><text x="361.084" y="250.0713" fill="#022C22" font-size="12" lengthAdjust="spacing" textLength="153.8438" font-family="'Plus Jakarta Sans'">Menekan tombol "Masuk"</text><rect x="293.7178" y="507.1787" width="288.5762" height="33.9688" fill="#F7F4EB" style="stroke:#022C22;stroke-width:0.5;" rx="12.5" ry="12.5"/><text x="303.7178" y="528.3174" fill="#022C22" font-size="12" lengthAdjust="spacing" textLength="268.5762" font-family="'Plus Jakarta Sans'">Melihat pesan kesalahan &amp; menginput ulang</text><ellipse cx="438.0059" cy="572.1475" rx="11" ry="11" fill="none" style="stroke:#222222;stroke-width:1;"/><ellipse cx="438.0059" cy="572.1475" rx="6" ry="6" fill="#222222" style="stroke:#222222;stroke-width:1;"/><rect x="295.7275" y="625.1475" width="284.5566" height="33.9688" fill="#F7F4EB" style="stroke:#022C22;stroke-width:0.5;" rx="12.5" ry="12.5"/><text x="305.7275" y="646.2861" fill="#022C22" font-size="12" lengthAdjust="spacing" textLength="264.5566" font-family="'Plus Jakarta Sans'">Memeriksa status keaktifan akun (is_active)</text><rect x="300.1719" y="727.5186" width="275.668" height="61.9063" fill="#F7F4EB" style="stroke:#022C22;stroke-width:0.5;" rx="12.5" ry="12.5"/><text x="310.1719" y="748.6572" fill="#022C22" font-size="12" lengthAdjust="spacing" textLength="167.6777" font-family="'Plus Jakarta Sans'">Mengeluarkan sesi (logout);</text><text x="310.1719" y="762.626" fill="#022C22" font-size="12" lengthAdjust="spacing" textLength="255.668" font-family="'Plus Jakarta Sans'">Mengarahkan ke login dengan pesan error</text><text x="310.1719" y="776.5947" fill="#022C22" font-size="12" lengthAdjust="spacing" textLength="127.2012" font-family="'Plus Jakarta Sans'">"Akun dinonaktifkan"</text><rect x="344.5127" y="815.3936" width="186.9863" height="33.9688" fill="#F7F4EB" style="stroke:#022C22;stroke-width:0.5;" rx="12.5" ry="12.5"/><text x="354.5127" y="836.5322" fill="#022C22" font-size="12" lengthAdjust="spacing" textLength="166.9863" font-family="'Plus Jakarta Sans'">Melihat pesan penonaktifan</text><ellipse cx="438.0059" cy="880.3623" rx="11" ry="11" fill="none" style="stroke:#222222;stroke-width:1;"/><ellipse cx="438.0059" cy="880.3623" rx="6" ry="6" fill="#222222" style="stroke:#222222;stroke-width:1;"/><polygon points="364.8113,679.1162,511.2004,679.1162,523.2004,691.1162,511.2004,703.1162,364.8113,703.1162,352.8113,691.1162,364.8113,679.1162" fill="#F7F4EB" style="stroke:#022C22;stroke-width:0.5;stroke-linejoin:miter;stroke-miterlimit:10;"/><text x="442.0059" y="713.3267" fill="#000000" font-size="11" lengthAdjust="spacing" textLength="29.8687" font-family="'Plus Jakarta Sans'">Tidak</text><text x="364.8113" y="694.9243" fill="#022C22" font-size="11" lengthAdjust="spacing" textLength="146.3892" font-family="'Plus Jakarta Sans'">Apakah is_active == true?</text><text x="523.2004" y="688.522" fill="#000000" font-size="11" lengthAdjust="spacing" textLength="13.46" font-family="'Plus Jakarta Sans'">Ya</text><rect x="315.9131" y="933.3623" width="244.1855" height="33.9688" fill="#F7F4EB" style="stroke:#022C22;stroke-width:0.5;" rx="12.5" ry="12.5"/><text x="325.9131" y="954.501" fill="#022C22" font-size="12" lengthAdjust="spacing" textLength="224.1855" font-family="'Plus Jakarta Sans'">Membuat sesi login (*session token*)</text><rect x="319.6426" y="987.3311" width="236.7266" height="33.9688" fill="#F7F4EB" style="stroke:#022C22;stroke-width:0.5;" rx="12.5" ry="12.5"/><text x="329.6426" y="1008.4697" fill="#022C22" font-size="12" lengthAdjust="spacing" textLength="216.7266" font-family="'Plus Jakarta Sans'">Memeriksa peran (*role*) pengguna</text><polygon points="96.7603,1041.2998,186.8979,1041.2998,198.8979,1053.2998,186.8979,1065.2998,96.7603,1065.2998,84.7603,1053.2998,96.7603,1041.2998" fill="#F7F4EB" style="stroke:#022C22;stroke-width:0.5;stroke-linejoin:miter;stroke-miterlimit:10;"/><text x="145.8291" y="1075.5103" fill="#000000" font-size="11" lengthAdjust="spacing" textLength="13.46" font-family="'Plus Jakarta Sans'">Ya</text><text x="96.7603" y="1057.1079" fill="#022C22" font-size="11" lengthAdjust="spacing" textLength="90.1377" font-family="'Plus Jakarta Sans'">Role == 'admin'</text><rect x="26" y="1098.1045" width="231.6582" height="33.9688" fill="#F7F4EB" style="stroke:#022C22;stroke-width:0.5;" rx="12.5" ry="12.5"/><text x="36" y="1119.2432" fill="#022C22" font-size="12" lengthAdjust="spacing" textLength="211.6582" font-family="'Plus Jakarta Sans'">Mengarahkan ke Dashboard Admin</text><polygon points="343.1243,1041.2998,446.1042,1041.2998,458.1042,1053.2998,446.1042,1065.2998,343.1243,1065.2998,331.1243,1053.2998,343.1243,1041.2998" fill="#F7F4EB" style="stroke:#022C22;stroke-width:0.5;stroke-linejoin:miter;stroke-miterlimit:10;"/><text x="398.6143" y="1075.5103" fill="#000000" font-size="11" lengthAdjust="spacing" textLength="13.46" font-family="'Plus Jakarta Sans'">Ya</text><text x="343.1243" y="1057.1079" fill="#022C22" font-size="11" lengthAdjust="spacing" textLength="102.98" font-family="'Plus Jakarta Sans'">Role == 'operator'</text><text x="458.1042" y="1050.7056" fill="#000000" font-size="11" lengthAdjust="spacing" textLength="53.4316" font-family="'Plus Jakarta Sans'">Customer</text><rect x="271.1563" y="1098.1045" width="246.916" height="33.9688" fill="#F7F4EB" style="stroke:#022C22;stroke-width:0.5;" rx="12.5" ry="12.5"/><text x="281.1563" y="1119.2432" fill="#022C22" font-size="12" lengthAdjust="spacing" textLength="226.916" font-family="'Plus Jakarta Sans'">Mengarahkan ke Dashboard Operator</text><rect x="538.0723" y="1094.7021" width="318.4414" height="33.9688" fill="#F7F4EB" style="stroke:#022C22;stroke-width:0.5;" rx="12.5" ry="12.5"/><text x="548.0723" y="1115.8408" fill="#022C22" font-size="12" lengthAdjust="spacing" textLength="298.4414" font-family="'Plus Jakarta Sans'">Mengarahkan ke Beranda / Halaman Sebelumnya</text><rect x="267.6582" y="1172.0732" width="340.6953" height="33.9688" fill="#F7F4EB" style="stroke:#022C22;stroke-width:0.5;" rx="12.5" ry="12.5"/><text x="277.6582" y="1193.2119" fill="#022C22" font-size="12" lengthAdjust="spacing" textLength="320.6953" font-family="'Plus Jakarta Sans'">Menerima tampilan halaman tujuan sesuai hak akses</text><ellipse cx="438.0059" cy="1237.042" rx="11" ry="11" fill="none" style="stroke:#222222;stroke-width:1;"/><ellipse cx="438.0059" cy="1237.042" rx="6" ry="6" fill="#222222" style="stroke:#222222;stroke-width:1;"/><line x1="20" y1="55.042" x2="20" y2="1248.042" style="stroke:#000000;stroke-width:1.5;"/><rect x="913.043" y="282.9014" width="204.2129" height="33.9688" fill="#F7F4EB" style="stroke:#022C22;stroke-width:0.5;" rx="12.5" ry="12.5"/><text x="923.043" y="304.04" fill="#022C22" font-size="12" lengthAdjust="spacing" textLength="184.2129" font-family="'Plus Jakarta Sans'">Menerima Form Request Login</text><rect x="866.5137" y="336.8701" width="297.2715" height="33.9688" fill="#F7F4EB" style="stroke:#022C22;stroke-width:0.5;" rx="12.5" ry="12.5"/><text x="876.5137" y="358.0088" fill="#022C22" font-size="12" lengthAdjust="spacing" textLength="277.2715" font-family="'Plus Jakarta Sans'">Memeriksa kecocokan email &amp; hash password</text><rect x="931.8896" y="439.2412" width="166.5195" height="47.9375" fill="#F7F4EB" style="stroke:#022C22;stroke-width:0.5;" rx="12.5" ry="12.5"/><text x="941.8896" y="460.3799" fill="#022C22" font-size="12" lengthAdjust="spacing" textLength="134.5371" font-family="'Plus Jakarta Sans'">Mengirim respon error</text><text x="941.8896" y="474.3486" fill="#022C22" font-size="12" lengthAdjust="spacing" textLength="146.5195" font-family="'Plus Jakarta Sans'">"Kredensial tidak cocok"</text><polygon points="965.6145,390.8389,1064.6843,390.8389,1076.6843,402.8389,1064.6843,414.8389,965.6145,414.8389,953.6145,402.8389,965.6145,390.8389" fill="#F7F4EB" style="stroke:#022C22;stroke-width:0.5;stroke-linejoin:miter;stroke-miterlimit:10;"/><text x="1019.1494" y="425.0493" fill="#000000" font-size="11" lengthAdjust="spacing" textLength="29.8687" font-family="'Plus Jakarta Sans'">Tidak</text><text x="965.6145" y="406.647" fill="#022C22" font-size="11" lengthAdjust="spacing" textLength="99.0698" font-family="'Plus Jakarta Sans'">Kredensial cocok?</text><text x="1076.6843" y="400.2446" fill="#000000" font-size="11" lengthAdjust="spacing" textLength="13.46" font-family="'Plus Jakarta Sans'">Ya</text><line x1="860.5137" y1="55.042" x2="860.5137" y2="1248.042" style="stroke:#000000;stroke-width:1.5;"/><line x1="1188.4375" y1="55.042" x2="1188.4375" y2="1248.042" style="stroke:#000000;stroke-width:1.5;"/><line x1="438.0059" y1="100.9951" x2="438.0059" y2="120.9951" style="stroke:#10B981;stroke-width:1;"/><polygon points="434.0059,110.9951,442.0059,110.9951,438.0059,120.9951" fill="#10B981" style="stroke:#10B981;stroke-width:1;stroke-linejoin:miter;stroke-miterlimit:10;"/><line x1="438.0059" y1="154.9639" x2="438.0059" y2="174.9639" style="stroke:#10B981;stroke-width:1;"/><polygon points="434.0059,164.9639,442.0059,164.9639,438.0059,174.9639" fill="#10B981" style="stroke:#10B981;stroke-width:1;stroke-linejoin:miter;stroke-miterlimit:10;"/><line x1="438.0059" y1="208.9326" x2="438.0059" y2="228.9326" style="stroke:#10B981;stroke-width:1;"/><polygon points="434.0059,218.9326,442.0059,218.9326,438.0059,228.9326" fill="#10B981" style="stroke:#10B981;stroke-width:1;stroke-linejoin:miter;stroke-miterlimit:10;"/><line x1="438.0059" y1="541.1475" x2="438.0059" y2="561.1475" style="stroke:#10B981;stroke-width:1;"/><polygon points="434.0059,551.1475,442.0059,551.1475,438.0059,561.1475" fill="#10B981" style="stroke:#10B981;stroke-width:1;stroke-linejoin:miter;stroke-miterlimit:10;"/><line x1="438.0059" y1="789.4248" x2="438.0059" y2="815.3936" style="stroke:#10B981;stroke-width:1;"/><polygon points="434.0059,805.3936,442.0059,805.3936,438.0059,815.3936" fill="#10B981" style="stroke:#10B981;stroke-width:1;stroke-linejoin:miter;stroke-miterlimit:10;"/><line x1="438.0059" y1="849.3623" x2="438.0059" y2="869.3623" style="stroke:#10B981;stroke-width:1;"/><polygon points="434.0059,859.3623,442.0059,859.3623,438.0059,869.3623" fill="#10B981" style="stroke:#10B981;stroke-width:1;stroke-linejoin:miter;stroke-miterlimit:10;"/><line x1="438.0059" y1="703.1162" x2="438.0059" y2="727.5186" style="stroke:#10B981;stroke-width:1;"/><polygon points="434.0059,717.5186,442.0059,717.5186,438.0059,727.5186" fill="#10B981" style="stroke:#10B981;stroke-width:1;stroke-linejoin:miter;stroke-miterlimit:10;"/><line x1="523.2004" y1="691.1162" x2="585.8398" y2="691.1162" style="stroke:#10B981;stroke-width:1;"/><polygon points="581.8398,799.4248,589.8398,799.4248,585.8398,809.4248" fill="#10B981" style="stroke:#10B981;stroke-width:1;stroke-linejoin:miter;stroke-miterlimit:10;"/><line x1="585.8398" y1="691.1162" x2="585.8398" y2="913.3623" style="stroke:#10B981;stroke-width:1;"/><line x1="585.8398" y1="913.3623" x2="438.0059" y2="913.3623" style="stroke:#10B981;stroke-width:1;"/><line x1="438.0059" y1="913.3623" x2="438.0059" y2="933.3623" style="stroke:#10B981;stroke-width:1;"/><polygon points="434.0059,923.3623,442.0059,923.3623,438.0059,933.3623" fill="#10B981" style="stroke:#10B981;stroke-width:1;stroke-linejoin:miter;stroke-miterlimit:10;"/><line x1="438.0059" y1="659.1162" x2="438.0059" y2="679.1162" style="stroke:#10B981;stroke-width:1;"/><polygon points="434.0059,669.1162,442.0059,669.1162,438.0059,679.1162" fill="#10B981" style="stroke:#10B981;stroke-width:1;stroke-linejoin:miter;stroke-miterlimit:10;"/><line x1="438.0059" y1="967.3311" x2="438.0059" y2="987.3311" style="stroke:#10B981;stroke-width:1;"/><polygon points="434.0059,977.3311,442.0059,977.3311,438.0059,987.3311" fill="#10B981" style="stroke:#10B981;stroke-width:1;stroke-linejoin:miter;stroke-miterlimit:10;"/><line x1="141.8291" y1="1065.2998" x2="141.8291" y2="1098.1045" style="stroke:#10B981;stroke-width:1;"/><polygon points="137.8291,1088.1045,145.8291,1088.1045,141.8291,1098.1045" fill="#10B981" style="stroke:#10B981;stroke-width:1;stroke-linejoin:miter;stroke-miterlimit:10;"/><line x1="141.8291" y1="1132.0732" x2="141.8291" y2="1152.0732" style="stroke:#10B981;stroke-width:1;"/><polygon points="137.8291,1142.0732,145.8291,1142.0732,141.8291,1152.0732" fill="#10B981" style="stroke:#10B981;stroke-width:1;stroke-linejoin:miter;stroke-miterlimit:10;"/><line x1="394.6143" y1="1065.2998" x2="394.6143" y2="1098.1045" style="stroke:#10B981;stroke-width:1;"/><polygon points="390.6143,1088.1045,398.6143,1088.1045,394.6143,1098.1045" fill="#10B981" style="stroke:#10B981;stroke-width:1;stroke-linejoin:miter;stroke-miterlimit:10;"/><line x1="394.6143" y1="1132.0732" x2="394.6143" y2="1152.0732" style="stroke:#10B981;stroke-width:1;"/><polygon points="390.6143,1142.0732,398.6143,1142.0732,394.6143,1152.0732" fill="#10B981" style="stroke:#10B981;stroke-width:1;stroke-linejoin:miter;stroke-miterlimit:10;"/><line x1="198.8979" y1="1053.2998" x2="331.1243" y2="1053.2998" style="stroke:#10B981;stroke-width:1;"/><polygon points="321.1243,1049.2998,331.1243,1053.2998,321.1243,1057.2998" fill="#10B981" style="stroke:#10B981;stroke-width:1;stroke-linejoin:miter;stroke-miterlimit:10;"/><line x1="438.0059" y1="1021.2998" x2="438.0059" y2="1026.2998" style="stroke:#10B981;stroke-width:1;"/><line x1="438.0059" y1="1026.2998" x2="141.8291" y2="1026.2998" style="stroke:#10B981;stroke-width:1;"/><line x1="141.8291" y1="1026.2998" x2="141.8291" y2="1041.2998" style="stroke:#10B981;stroke-width:1;"/><polygon points="137.8291,1031.2998,145.8291,1031.2998,141.8291,1041.2998" fill="#10B981" style="stroke:#10B981;stroke-width:1;stroke-linejoin:miter;stroke-miterlimit:10;"/><line x1="458.1042" y1="1053.2998" x2="697.293" y2="1053.2998" style="stroke:#10B981;stroke-width:1;"/><line x1="697.293" y1="1053.2998" x2="697.293" y2="1094.7021" style="stroke:#10B981;stroke-width:1;"/><polygon points="693.293,1084.7021,701.293,1084.7021,697.293,1094.7021" fill="#10B981" style="stroke:#10B981;stroke-width:1;stroke-linejoin:miter;stroke-miterlimit:10;"/><line x1="697.293" y1="1128.6709" x2="697.293" y2="1152.0732" style="stroke:#10B981;stroke-width:1;"/><polygon points="693.293,1142.0732,701.293,1142.0732,697.293,1152.0732" fill="#10B981" style="stroke:#10B981;stroke-width:1;stroke-linejoin:miter;stroke-miterlimit:10;"/><line x1="141.8291" y1="1152.0732" x2="697.293" y2="1152.0732" style="stroke:#10B981;stroke-width:1;"/><line x1="438.0059" y1="1152.0732" x2="438.0059" y2="1172.0732" style="stroke:#10B981;stroke-width:1;"/><polygon points="434.0059,1162.0732,442.0059,1162.0732,438.0059,1172.0732" fill="#10B981" style="stroke:#10B981;stroke-width:1;stroke-linejoin:miter;stroke-miterlimit:10;"/><line x1="438.0059" y1="1206.042" x2="438.0059" y2="1226.042" style="stroke:#10B981;stroke-width:1;"/><polygon points="434.0059,1216.042,442.0059,1216.042,438.0059,1226.042" fill="#10B981" style="stroke:#10B981;stroke-width:1;stroke-linejoin:miter;stroke-miterlimit:10;"/><line x1="1015.1494" y1="316.8701" x2="1015.1494" y2="336.8701" style="stroke:#10B981;stroke-width:1;"/><polygon points="1011.1494,326.8701,1019.1494,326.8701,1015.1494,336.8701" fill="#10B981" style="stroke:#10B981;stroke-width:1;stroke-linejoin:miter;stroke-miterlimit:10;"/><line x1="1015.1494" y1="414.8389" x2="1015.1494" y2="439.2412" style="stroke:#10B981;stroke-width:1;"/><polygon points="1011.1494,429.2412,1019.1494,429.2412,1015.1494,439.2412" fill="#10B981" style="stroke:#10B981;stroke-width:1;stroke-linejoin:miter;stroke-miterlimit:10;"/><line x1="1076.6843" y1="402.8389" x2="1169.4375" y2="402.8389" style="stroke:#10B981;stroke-width:1;"/><polygon points="1165.4375,506.9443,1173.4375,506.9443,1169.4375,516.9443" fill="#10B981" style="stroke:#10B981;stroke-width:1;stroke-linejoin:miter;stroke-miterlimit:10;"/><line x1="1169.4375" y1="402.8389" x2="1169.4375" y2="610.1475" style="stroke:#10B981;stroke-width:1;"/><line x1="1169.4375" y1="610.1475" x2="438.0059" y2="610.1475" style="stroke:#10B981;stroke-width:1;"/><line x1="438.0059" y1="610.1475" x2="438.0059" y2="625.1475" style="stroke:#10B981;stroke-width:1;"/><polygon points="434.0059,615.1475,442.0059,615.1475,438.0059,625.1475" fill="#10B981" style="stroke:#10B981;stroke-width:1;stroke-linejoin:miter;stroke-miterlimit:10;"/><line x1="1015.1494" y1="370.8389" x2="1015.1494" y2="390.8389" style="stroke:#10B981;stroke-width:1;"/><polygon points="1011.1494,380.8389,1019.1494,380.8389,1015.1494,390.8389" fill="#10B981" style="stroke:#10B981;stroke-width:1;stroke-linejoin:miter;stroke-miterlimit:10;"/><line x1="438.0059" y1="262.9014" x2="438.0059" y2="267.9014" style="stroke:#10B981;stroke-width:1;"/><line x1="438.0059" y1="267.9014" x2="1015.1494" y2="267.9014" style="stroke:#10B981;stroke-width:1;"/><line x1="1015.1494" y1="267.9014" x2="1015.1494" y2="282.9014" style="stroke:#10B981;stroke-width:1;"/><polygon points="1011.1494,272.9014,1019.1494,272.9014,1015.1494,282.9014" fill="#10B981" style="stroke:#10B981;stroke-width:1;stroke-linejoin:miter;stroke-miterlimit:10;"/><line x1="1015.1494" y1="487.1787" x2="1015.1494" y2="492.1787" style="stroke:#10B981;stroke-width:1;"/><line x1="1015.1494" y1="492.1787" x2="438.0059" y2="492.1787" style="stroke:#10B981;stroke-width:1;"/><line x1="438.0059" y1="492.1787" x2="438.0059" y2="507.1787" style="stroke:#10B981;stroke-width:1;"/><polygon points="434.0059,497.1787,442.0059,497.1787,438.0059,507.1787" fill="#10B981" style="stroke:#10B981;stroke-width:1;stroke-linejoin:miter;stroke-miterlimit:10;"/><text x="395.2393" y="71.75" fill="#000000" font-size="18" lengthAdjust="spacing" textLength="90.0352" font-family="'Plus Jakarta Sans'">Pengguna</text><text x="909.084" y="71.75" fill="#000000" font-size="18" lengthAdjust="spacing" textLength="230.7832" font-family="'Plus Jakarta Sans'">Sistem (Laravel Backend)</text><?plantuml-src bLFRQjj047tNLmmk95AWRMe2lPXGxCIcj4aRuhuK0cLiZQNjtjIz90JoyPsLP5UXITFgGUpkd9avv-oiby8qw533Cjmg0X-SM8UeLUPtaLFQO5HXOKtuZ9fWTA6YXuyeqGM49He_6g2dwo2kHRYTuLfMpaPJdbXb7JnRl5uSpMSF8QqhoVMem_7uP3n-09NQFufnpjxqmLU7ixTlNWs2oy0y7mlET_JcYoF-Xh85QclAftLiWN-LqOF-L9454TZuyOi4gLeribMCdfqFA1GyXpDR2GCNPAeg6iook-toBlD9NlRkdFGgIeGQ5MeqNSOadHjUD370NATQUt21tjymrov8ai71wfLLC3f77-LemlMNmWVIa9yn-MjIa5mWKnPtNP8J6c5XdOPB-Xd9Xq4_pL7f4IIjxTgcyjHthj7NqEpQYmtadnoLPBn01ItwVG6X9WFvLr6YB3BWhzF0BS6HRopNu-jsLsOqI0u9tfLW_YbhO55VH8aQ0pJacPBalyAQLtkWTnP5XQRgqdsmJKRA4-JViCXOkzXaGtdiU-1d80dvkZPS26Lati9_npInL7G2fms_anfsnt1y3C55UbGegOWkkUR92yYLhMmCnUJAf23VHYrR-g3QaIZJeUb5RNsP9YQbCDQqt3ZXdpnfQ9k1vYaJLf7JMeOTZ_o0DrxOD4iyA0V5lL5eo672EAlee4YDMXQTGvTyc5pPnr8Bix_r9JNScJBGVSf3jBBeIfWc_AJZTw-GJVs2TVzHwqkVqfVBJo9hP_eFvysIdXBX9NpedzkILdnnsjoogDwcWTc_tqn0tGYUijqx3V57x2uxek1JoNF4cqcMlFy5?></g></svg>