<svg xmlns="http://www.w3.org/2000/svg" xmlns:xlink="http://www.w3.org/1999/xlink" version="1.1" data-diagram-type="ACTIVITY" style="width:1754px;height:987px;background:#FFFFFF;" width="1754px" height="987px" viewBox="0 0 1754 987" zoomAndPan="magnify" preserveAspectRatio="none" contentStyleType="text/css"><?plantuml 1.2026.7beta3?><defs/><g><g class="title" data-source-line="13"><text x="595.3953" y="32.9951" fill="#000000" font-size="14" lengthAdjust="spacing" textLength="561.9551" font-weight="700" font-family="'Plus Jakarta Sans'">5. Diagram Aktivitas Detail - Memperbarui &amp; Mengosongkan Keranjang</text></g><rect x="20" y="55.042" width="1707.7456" height="20.9531" fill="none" style="stroke:none;stroke-width:1;"/><ellipse cx="435.1406" cy="90.9951" rx="10" ry="10" fill="#222222" style="stroke:#222222;stroke-width:1;"/><rect x="306.8721" y="120.9951" width="256.5371" height="33.9688" fill="#F7F4EB" style="stroke:#022C22;stroke-width:0.5;" rx="12.5" ry="12.5"/><text x="316.8721" y="142.1338" fill="#022C22" font-size="12" lengthAdjust="spacing" textLength="236.5371" font-family="'Plus Jakarta Sans'">Mengakses halaman Keranjang Belanja</text><line x1="146.0566" y1="174.9639" x2="604.168" y2="174.9639" style="stroke:#10B981;stroke-width:1.5;"/><rect x="26" y="194.9639" width="240.1133" height="33.9688" fill="#F7F4EB" style="stroke:#022C22;stroke-width:0.5;" rx="12.5" ry="12.5"/><text x="36" y="216.1025" fill="#022C22" font-size="12" lengthAdjust="spacing" textLength="220.1133" font-family="'Plus Jakarta Sans'">Mengubah jumlah item (stepper +/-)</text><rect x="276.1133" y="890.4873" width="318.0547" height="33.9688" fill="#F7F4EB" style="stroke:#022C22;stroke-width:0.5;" rx="12.5" ry="12.5"/><text x="286.1133" y="911.626" fill="#022C22" font-size="12" lengthAdjust="spacing" textLength="298.0547" font-family="'Plus Jakarta Sans'">Melihat tampilan keranjang yang telah diperbarui</text><ellipse cx="435.1406" cy="955.4561" rx="11" ry="11" fill="none" style="stroke:#222222;stroke-width:1;"/><ellipse cx="435.1406" cy="955.4561" rx="6" ry="6" fill="#222222" style="stroke:#222222;stroke-width:1;"/><line x1="20" y1="55.042" x2="20" y2="966.4561" style="stroke:#000000;stroke-width:1.5;"/><rect x="729.1245" y="248.9326" width="257.252" height="33.9688" fill="#F7F4EB" style="stroke:#022C22;stroke-width:0.5;" rx="12.5" ry="12.5"/><text x="739.1245" y="270.0713" fill="#022C22" font-size="12" lengthAdjust="spacing" textLength="237.252" font-family="'Plus Jakarta Sans'">Memeriksa kepemilikan item keranjang</text><rect x="744.939" y="351.3037" width="225.623" height="33.9688" fill="#F7F4EB" style="stroke:#022C22;stroke-width:0.5;" rx="12.5" ry="12.5"/><text x="754.939" y="372.4424" fill="#022C22" font-size="12" lengthAdjust="spacing" textLength="205.623" font-family="'Plus Jakarta Sans'">Aksi ilegal, aborsi (403 Forbidden)</text><ellipse cx="857.7505" cy="431.2725" rx="11" ry="11" fill="none" style="stroke:#222222;stroke-width:1;"/><ellipse cx="857.7505" cy="431.2725" rx="6" ry="6" fill="#222222" style="stroke:#222222;stroke-width:1;"/><polygon points="765.7651,302.9014,949.7358,302.9014,961.7358,314.9014,949.7358,326.9014,765.7651,326.9014,753.7651,314.9014,765.7651,302.9014" fill="#F7F4EB" style="stroke:#022C22;stroke-width:0.5;stroke-linejoin:miter;stroke-miterlimit:10;"/><text x="861.7505" y="337.1118" fill="#000000" font-size="11" lengthAdjust="spacing" textLength="29.8687" font-family="'Plus Jakarta Sans'">Tidak</text><text x="765.7651" y="318.7095" fill="#022C22" font-size="11" lengthAdjust="spacing" textLength="183.9707" font-family="'Plus Jakarta Sans'">Apakah milik user bersangkutan?</text><text x="961.7358" y="312.3071" fill="#000000" font-size="11" lengthAdjust="spacing" textLength="13.46" font-family="'Plus Jakarta Sans'">Ya</text><rect x="772.7271" y="507.6748" width="170.0469" height="33.9688" fill="#F7F4EB" style="stroke:#022C22;stroke-width:0.5;" rx="12.5" ry="12.5"/><text x="782.7271" y="528.8135" fill="#022C22" font-size="12" lengthAdjust="spacing" textLength="150.0469" font-family="'Plus Jakarta Sans'">Memvalidasi stok produk</text><polygon points="802.4255,576.6436,913.0754,576.6436,925.0754,588.6436,913.0754,600.6436,802.4255,600.6436,790.4255,588.6436,802.4255,576.6436" fill="#F7F4EB" style="stroke:#022C22;stroke-width:0.5;stroke-linejoin:miter;stroke-miterlimit:10;"/><text x="802.4255" y="592.4517" fill="#022C22" font-size="11" lengthAdjust="spacing" textLength="110.6499" font-family="'Plus Jakarta Sans'">Apakah stok cukup?</text><text x="776.9656" y="586.0493" fill="#000000" font-size="11" lengthAdjust="spacing" textLength="13.46" font-family="'Plus Jakarta Sans'">Ya</text><text x="925.0754" y="586.0493" fill="#000000" font-size="11" lengthAdjust="spacing" textLength="29.8687" font-family="'Plus Jakarta Sans'">Tidak</text><rect x="615.168" y="610.6436" width="245.3164" height="33.9688" fill="#F7F4EB" style="stroke:#022C22;stroke-width:0.5;" rx="12.5" ry="12.5"/><text x="625.168" y="631.7822" fill="#022C22" font-size="12" lengthAdjust="spacing" textLength="225.3164" font-family="'Plus Jakarta Sans'">Update kuantitas &amp; kalkulasi subtotal</text><rect x="649.583" y="664.6123" width="176.4863" height="33.9688" fill="#F7F4EB" style="stroke:#022C22;stroke-width:0.5;" rx="12.5" ry="12.5"/><text x="659.583" y="685.751" fill="#022C22" font-size="12" lengthAdjust="spacing" textLength="156.4863" font-family="'Plus Jakarta Sans'">Kirim flash session sukses</text><rect x="880.4844" y="610.6436" width="194.3809" height="33.9688" fill="#F7F4EB" style="stroke:#022C22;stroke-width:0.5;" rx="12.5" ry="12.5"/><text x="890.4844" y="631.7822" fill="#022C22" font-size="12" lengthAdjust="spacing" textLength="174.3809" font-family="'Plus Jakarta Sans'">Kirim flash session error stok</text><polygon points="857.7505,704.5811,869.7505,716.5811,857.7505,728.5811,845.7505,716.5811,857.7505,704.5811" fill="#F7F4EB" style="stroke:#022C22;stroke-width:0.5;stroke-linejoin:miter;stroke-miterlimit:10;"/><rect x="1112.8652" y="333.835" width="330.6348" height="33.9688" fill="#F7F4EB" style="stroke:#022C22;stroke-width:0.5;" rx="12.5" ry="12.5"/><text x="1122.8652" y="354.9736" fill="#022C22" font-size="12" lengthAdjust="spacing" textLength="310.6348" font-family="'Plus Jakarta Sans'">Menekan tombol Hapus Item (ikon tempat sampah)</text><rect x="1181.5313" y="402.8037" width="193.3027" height="33.9688" fill="#F7F4EB" style="stroke:#022C22;stroke-width:0.5;" rx="12.5" ry="12.5"/><text x="1191.5313" y="423.9424" fill="#022C22" font-size="12" lengthAdjust="spacing" textLength="173.3027" font-family="'Plus Jakarta Sans'">Memeriksa kepemilikan item</text><rect x="1148.4609" y="471.7725" width="259.4434" height="33.9688" fill="#F7F4EB" style="stroke:#022C22;stroke-width:0.5;" rx="12.5" ry="12.5"/><text x="1158.4609" y="492.9111" fill="#022C22" font-size="12" lengthAdjust="spacing" textLength="239.4434" font-family="'Plus Jakarta Sans'">Menghapus baris item dari `cart_items`</text><rect x="1189.9395" y="540.7412" width="176.4863" height="33.9688" fill="#F7F4EB" style="stroke:#022C22;stroke-width:0.5;" rx="12.5" ry="12.5"/><text x="1199.9395" y="561.8799" fill="#022C22" font-size="12" lengthAdjust="spacing" textLength="156.4863" font-family="'Plus Jakarta Sans'">Kirim flash session sukses</text><rect x="1454.625" y="368.3193" width="266.1348" height="33.9688" fill="#F7F4EB" style="stroke:#022C22;stroke-width:0.5;" rx="12.5" ry="12.5"/><text x="1464.625" y="389.458" fill="#022C22" font-size="12" lengthAdjust="spacing" textLength="246.1348" font-family="'Plus Jakarta Sans'">Menekan tombol "Kosongkan Keranjang"</text><rect x="1453.5" y="437.2881" width="268.3848" height="33.9688" fill="#F7F4EB" style="stroke:#022C22;stroke-width:0.5;" rx="12.5" ry="12.5"/><text x="1463.5" y="458.4268" fill="#022C22" font-size="12" lengthAdjust="spacing" textLength="248.3848" font-family="'Plus Jakarta Sans'">Menghapus seluruh item terkait `cart_id`</text><rect x="1499.4492" y="506.2568" width="176.4863" height="33.9688" fill="#F7F4EB" style="stroke:#022C22;stroke-width:0.5;" rx="12.5" ry="12.5"/><text x="1509.4492" y="527.3955" fill="#022C22" font-size="12" lengthAdjust="spacing" textLength="156.4863" font-family="'Plus Jakarta Sans'">Kirim flash session sukses</text><line x1="857.7505" y1="748.5811" x2="1587.6924" y2="748.5811" style="stroke:#10B981;stroke-width:1.5;"/><rect x="1038.3398" y="768.5811" width="268.373" height="47.9375" fill="#F7F4EB" style="stroke:#022C22;stroke-width:0.5;" rx="12.5" ry="12.5"/><text x="1048.3398" y="789.7197" fill="#022C22" font-size="12" lengthAdjust="spacing" textLength="248.373" font-family="'Plus Jakarta Sans'">Memuat ulang data keranjang terupdate;</text><text x="1048.3398" y="803.6885" fill="#022C22" font-size="12" lengthAdjust="spacing" textLength="186.0645" font-family="'Plus Jakarta Sans'">Menghitung total tagihan akhir</text><rect x="1054.5762" y="836.5186" width="235.9004" height="33.9688" fill="#F7F4EB" style="stroke:#022C22;stroke-width:0.5;" rx="12.5" ry="12.5"/><text x="1064.5762" y="857.6572" fill="#022C22" font-size="12" lengthAdjust="spacing" textLength="215.9004" font-family="'Plus Jakarta Sans'">Merender ulang halaman Keranjang</text><line x1="609.168" y1="55.042" x2="609.168" y2="966.4561" style="stroke:#000000;stroke-width:1.5;"/><line x1="1725.8848" y1="55.042" x2="1725.8848" y2="966.4561" style="stroke:#000000;stroke-width:1.5;"/><line x1="435.1406" y1="100.9951" x2="435.1406" y2="120.9951" style="stroke:#10B981;stroke-width:1;"/><polygon points="431.1406,110.9951,439.1406,110.9951,435.1406,120.9951" fill="#10B981" style="stroke:#10B981;stroke-width:1;stroke-linejoin:miter;stroke-miterlimit:10;"/><line x1="146.0566" y1="176.4639" x2="146.0566" y2="194.9639" style="stroke:#10B981;stroke-width:1;"/><polygon points="142.0566,184.9639,150.0566,184.9639,146.0566,194.9639" fill="#10B981" style="stroke:#10B981;stroke-width:1;stroke-linejoin:miter;stroke-miterlimit:10;"/><line x1="435.1406" y1="154.9639" x2="435.1406" y2="174.9639" style="stroke:#10B981;stroke-width:1;"/><polygon points="431.1406,164.9639,439.1406,164.9639,435.1406,174.9639" fill="#10B981" style="stroke:#10B981;stroke-width:1;stroke-linejoin:miter;stroke-miterlimit:10;"/><line x1="435.1406" y1="924.4561" x2="435.1406" y2="944.4561" style="stroke:#10B981;stroke-width:1;"/><polygon points="431.1406,934.4561,439.1406,934.4561,435.1406,944.4561" fill="#10B981" style="stroke:#10B981;stroke-width:1;stroke-linejoin:miter;stroke-miterlimit:10;"/><line x1="857.7505" y1="385.2725" x2="857.7505" y2="420.2725" style="stroke:#10B981;stroke-width:1;"/><polygon points="853.7505,410.2725,861.7505,410.2725,857.7505,420.2725" fill="#10B981" style="stroke:#10B981;stroke-width:1;stroke-linejoin:miter;stroke-miterlimit:10;"/><line x1="857.7505" y1="326.9014" x2="857.7505" y2="351.3037" style="stroke:#10B981;stroke-width:1;"/><polygon points="853.7505,341.3037,861.7505,341.3037,857.7505,351.3037" fill="#10B981" style="stroke:#10B981;stroke-width:1;stroke-linejoin:miter;stroke-miterlimit:10;"/><line x1="961.7358" y1="314.9014" x2="980.562" y2="314.9014" style="stroke:#10B981;stroke-width:1;"/><polygon points="976.562,383.7881,984.562,383.7881,980.562,393.7881" fill="#10B981" style="stroke:#10B981;stroke-width:1;stroke-linejoin:miter;stroke-miterlimit:10;"/><line x1="980.562" y1="314.9014" x2="980.562" y2="472.6748" style="stroke:#10B981;stroke-width:1;"/><line x1="980.562" y1="472.6748" x2="857.7505" y2="472.6748" style="stroke:#10B981;stroke-width:1;"/><line x1="857.7505" y1="472.6748" x2="857.7505" y2="507.6748" style="stroke:#10B981;stroke-width:1;"/><polygon points="853.7505,497.6748,861.7505,497.6748,857.7505,507.6748" fill="#10B981" style="stroke:#10B981;stroke-width:1;stroke-linejoin:miter;stroke-miterlimit:10;"/><line x1="857.7505" y1="282.9014" x2="857.7505" y2="302.9014" style="stroke:#10B981;stroke-width:1;"/><polygon points="853.7505,292.9014,861.7505,292.9014,857.7505,302.9014" fill="#10B981" style="stroke:#10B981;stroke-width:1;stroke-linejoin:miter;stroke-miterlimit:10;"/><line x1="737.8262" y1="644.6123" x2="737.8262" y2="664.6123" style="stroke:#10B981;stroke-width:1;"/><polygon points="733.8262,654.6123,741.8262,654.6123,737.8262,664.6123" fill="#10B981" style="stroke:#10B981;stroke-width:1;stroke-linejoin:miter;stroke-miterlimit:10;"/><line x1="790.4255" y1="588.6436" x2="737.8262" y2="588.6436" style="stroke:#10B981;stroke-width:1;"/><line x1="737.8262" y1="588.6436" x2="737.8262" y2="610.6436" style="stroke:#10B981;stroke-width:1;"/><polygon points="733.8262,600.6436,741.8262,600.6436,737.8262,610.6436" fill="#10B981" style="stroke:#10B981;stroke-width:1;stroke-linejoin:miter;stroke-miterlimit:10;"/><line x1="925.0754" y1="588.6436" x2="977.6748" y2="588.6436" style="stroke:#10B981;stroke-width:1;"/><line x1="977.6748" y1="588.6436" x2="977.6748" y2="610.6436" style="stroke:#10B981;stroke-width:1;"/><polygon points="973.6748,600.6436,981.6748,600.6436,977.6748,610.6436" fill="#10B981" style="stroke:#10B981;stroke-width:1;stroke-linejoin:miter;stroke-miterlimit:10;"/><line x1="737.8262" y1="698.5811" x2="737.8262" y2="716.5811" style="stroke:#10B981;stroke-width:1;"/><line x1="737.8262" y1="716.5811" x2="845.7505" y2="716.5811" style="stroke:#10B981;stroke-width:1;"/><polygon points="835.7505,712.5811,845.7505,716.5811,835.7505,720.5811" fill="#10B981" style="stroke:#10B981;stroke-width:1;stroke-linejoin:miter;stroke-miterlimit:10;"/><line x1="977.6748" y1="644.6123" x2="977.6748" y2="716.5811" style="stroke:#10B981;stroke-width:1;"/><line x1="977.6748" y1="716.5811" x2="869.7505" y2="716.5811" style="stroke:#10B981;stroke-width:1;"/><polygon points="879.7505,712.5811,869.7505,716.5811,879.7505,720.5811" fill="#10B981" style="stroke:#10B981;stroke-width:1;stroke-linejoin:miter;stroke-miterlimit:10;"/><line x1="857.7505" y1="541.6436" x2="857.7505" y2="576.6436" style="stroke:#10B981;stroke-width:1;"/><polygon points="853.7505,566.6436,861.7505,566.6436,857.7505,576.6436" fill="#10B981" style="stroke:#10B981;stroke-width:1;stroke-linejoin:miter;stroke-miterlimit:10;"/><line x1="1278.1826" y1="367.8037" x2="1278.1826" y2="402.8037" style="stroke:#10B981;stroke-width:1;"/><polygon points="1274.1826,392.8037,1282.1826,392.8037,1278.1826,402.8037" fill="#10B981" style="stroke:#10B981;stroke-width:1;stroke-linejoin:miter;stroke-miterlimit:10;"/><line x1="1278.1826" y1="436.7725" x2="1278.1826" y2="471.7725" style="stroke:#10B981;stroke-width:1;"/><polygon points="1274.1826,461.7725,1282.1826,461.7725,1278.1826,471.7725" fill="#10B981" style="stroke:#10B981;stroke-width:1;stroke-linejoin:miter;stroke-miterlimit:10;"/><line x1="1278.1826" y1="505.7412" x2="1278.1826" y2="540.7412" style="stroke:#10B981;stroke-width:1;"/><polygon points="1274.1826,530.7412,1282.1826,530.7412,1278.1826,540.7412" fill="#10B981" style="stroke:#10B981;stroke-width:1;stroke-linejoin:miter;stroke-miterlimit:10;"/><line x1="1587.6924" y1="402.2881" x2="1587.6924" y2="437.2881" style="stroke:#10B981;stroke-width:1;"/><polygon points="1583.6924,427.2881,1591.6924,427.2881,1587.6924,437.2881" fill="#10B981" style="stroke:#10B981;stroke-width:1;stroke-linejoin:miter;stroke-miterlimit:10;"/><line x1="1587.6924" y1="471.2568" x2="1587.6924" y2="506.2568" style="stroke:#10B981;stroke-width:1;"/><polygon points="1583.6924,496.2568,1591.6924,496.2568,1587.6924,506.2568" fill="#10B981" style="stroke:#10B981;stroke-width:1;stroke-linejoin:miter;stroke-miterlimit:10;"/><line x1="857.7505" y1="728.5811" x2="857.7505" y2="748.5811" style="stroke:#10B981;stroke-width:1;"/><polygon points="853.7505,738.5811,861.7505,738.5811,857.7505,748.5811" fill="#10B981" style="stroke:#10B981;stroke-width:1;stroke-linejoin:miter;stroke-miterlimit:10;"/><line x1="1278.1826" y1="574.71" x2="1278.1826" y2="748.5811" style="stroke:#10B981;stroke-width:1;"/><polygon points="1274.1826,738.5811,1282.1826,738.5811,1278.1826,748.5811" fill="#10B981" style="stroke:#10B981;stroke-width:1;stroke-linejoin:miter;stroke-miterlimit:10;"/><line x1="1587.6924" y1="540.2256" x2="1587.6924" y2="748.5811" style="stroke:#10B981;stroke-width:1;"/><polygon points="1583.6924,738.5811,1591.6924,738.5811,1587.6924,748.5811" fill="#10B981" style="stroke:#10B981;stroke-width:1;stroke-linejoin:miter;stroke-miterlimit:10;"/><line x1="1172.5264" y1="750.0811" x2="1172.5264" y2="768.5811" style="stroke:#10B981;stroke-width:1;"/><polygon points="1168.5264,758.5811,1176.5264,758.5811,1172.5264,768.5811" fill="#10B981" style="stroke:#10B981;stroke-width:1;stroke-linejoin:miter;stroke-miterlimit:10;"/><line x1="1172.5264" y1="816.5186" x2="1172.5264" y2="836.5186" style="stroke:#10B981;stroke-width:1;"/><polygon points="1168.5264,826.5186,1176.5264,826.5186,1172.5264,836.5186" fill="#10B981" style="stroke:#10B981;stroke-width:1;stroke-linejoin:miter;stroke-miterlimit:10;"/><line x1="146.0566" y1="228.9326" x2="146.0566" y2="233.9326" style="stroke:#10B981;stroke-width:1;"/><line x1="146.0566" y1="233.9326" x2="857.7505" y2="233.9326" style="stroke:#10B981;stroke-width:1;"/><line x1="857.7505" y1="233.9326" x2="857.7505" y2="248.9326" style="stroke:#10B981;stroke-width:1;"/><polygon points="853.7505,238.9326,861.7505,238.9326,857.7505,248.9326" fill="#10B981" style="stroke:#10B981;stroke-width:1;stroke-linejoin:miter;stroke-miterlimit:10;"/><line x1="540.7969" y1="176.4639" x2="540.7969" y2="179.9639" style="stroke:#10B981;stroke-width:1;"/><line x1="540.7969" y1="179.9639" x2="1278.1826" y2="179.9639" style="stroke:#10B981;stroke-width:1;"/><line x1="1278.1826" y1="179.9639" x2="1278.1826" y2="333.835" style="stroke:#10B981;stroke-width:1;"/><polygon points="1274.1826,323.835,1282.1826,323.835,1278.1826,333.835" fill="#10B981" style="stroke:#10B981;stroke-width:1;stroke-linejoin:miter;stroke-miterlimit:10;"/><line x1="604.168" y1="176.4639" x2="604.168" y2="179.9639" style="stroke:#10B981;stroke-width:1;"/><line x1="604.168" y1="179.9639" x2="1587.6924" y2="179.9639" style="stroke:#10B981;stroke-width:1;"/><line x1="1587.6924" y1="179.9639" x2="1587.6924" y2="368.3193" style="stroke:#10B981;stroke-width:1;"/><polygon points="1583.6924,358.3193,1591.6924,358.3193,1587.6924,368.3193" fill="#10B981" style="stroke:#10B981;stroke-width:1;stroke-linejoin:miter;stroke-miterlimit:10;"/><line x1="1172.5264" y1="870.4873" x2="1172.5264" y2="875.4873" style="stroke:#10B981;stroke-width:1;"/><line x1="1172.5264" y1="875.4873" x2="435.1406" y2="875.4873" style="stroke:#10B981;stroke-width:1;"/><line x1="435.1406" y1="875.4873" x2="435.1406" y2="890.4873" style="stroke:#10B981;stroke-width:1;"/><polygon points="431.1406,880.4873,439.1406,880.4873,435.1406,890.4873" fill="#10B981" style="stroke:#10B981;stroke-width:1;stroke-linejoin:miter;stroke-miterlimit:10;"/><text x="267.2549" y="71.75" fill="#000000" font-size="18" lengthAdjust="spacing" textLength="94.6582" font-family="'Plus Jakarta Sans'">Pelanggan</text><text x="1052.1348" y="71.75" fill="#000000" font-size="18" lengthAdjust="spacing" textLength="230.7832" font-family="'Plus Jakarta Sans'">Sistem (Laravel Backend)</text><?plantuml-src fLJRRXCn47tVhnW5gKe4XJOK0Tq7r9H6G05L2ZmW8T59rjcTscklx75HfNuyO-VIG7gJyCkkTuxFd3EUsQ39TkYnXGbV6GM1FSqujgO8wyXxDSTeUEmiVyLMGU_Cn02VKADdX0dQqDj07ysOBeclHZZJjNVHLiVEE0zFng_71oUZsv3ELyelKNl3uV5mU0igfRyJuxtxlGpkxutUljdV24vOTDuLF5dBEnaVoDgqJTWwMptiOmMyryOIjEsYO68f_Ald2L9dDpexnY2LPoG3k_15jPtoK_IHO4TsjdR1sLgZXLFbqLwWhOlY-amPUQdHNXSXkIuE4nHrK04QDDXkuc6Kq1TO5aNe3741ilA1ECK6BgG9v46iMkW7Lfq8WASlTWTb1bvFAEJGPx5tgGoaEYbR3QvNFAtof0E2LfrgoL0IczdqIi62YURGF-gacnh8C8X1CasL3mBHaT6-6m0toaB_6rMe1_bKJdAa0m4PLQDv1ZXrNhRzWxsNC7P-IbMbx59jMe5TbpVA10Nz7xWW4iqqNsk-H2CvX4RG6ZhlggYtPEROBEhOhPMjs3BFzwv2Lg0ZMixtk0CQZOuc4ySfEqPp8-pmb3orC9UmSAiGo5c1fLihDmJ_Q_wsKqe6mMTzvOQvVBs0DP9TNx9Ary6kdJe37x2JWVwOhvEqqCXRXmm1vT7yzuMNDvtLv4pInnGMlL39AvpFf5T_fNquNuBlAyb3TdgdsyFHUwo9bSQWJFHnsV-il4R9kHHQFKQbiC9YhefxigQoHIbrJ8ChrM2y6O-KDkPMAd_Qh8mufi-fVO2nfaOiecx8bud82wLCpe9gQzpBl_yFWZTodeMdxKW-R-IzMYHFur_HwhyZTPS1-WC0?></g></svg>