<svg xmlns="http://www.w3.org/2000/svg" xmlns:xlink="http://www.w3.org/1999/xlink" version="1.1" data-diagram-type="ACTIVITY" style="width:1327px;height:1285px;background:#FFFFFF;" width="1327px" height="1285px" viewBox="0 0 1327 1285" zoomAndPan="magnify" preserveAspectRatio="none" contentStyleType="text/css"><?plantuml 1.2026.7beta3?><defs/><g><g class="title" data-source-line="13"><text x="422.1365" y="32.9951" fill="#000000" font-size="14" lengthAdjust="spacing" textLength="481.6533" font-weight="700" font-family="'Plus Jakarta Sans'">7. Diagram Aktivitas Detail - Mengunggah Bukti Pembayaran</text></g><rect x="20" y="55.042" width="1280.9263" height="20.9531" fill="none" style="stroke:none;stroke-width:1;"/><ellipse cx="467.1729" cy="90.9951" rx="10" ry="10" fill="#222222" style="stroke:#222222;stroke-width:1;"/><rect x="346.4336" y="120.9951" width="241.4785" height="33.9688" fill="#F7F4EB" style="stroke:#022C22;stroke-width:0.5;" rx="12.5" ry="12.5"/><text x="356.4336" y="142.1338" fill="#022C22" font-size="12" lengthAdjust="spacing" textLength="221.4785" font-family="'Plus Jakarta Sans'">Membuka halaman Riwayat Pesanan</text><rect x="264.5254" y="174.9639" width="405.2949" height="33.9688" fill="#F7F4EB" style="stroke:#022C22;stroke-width:0.5;" rx="12.5" ry="12.5"/><text x="274.5254" y="196.1025" fill="#022C22" font-size="12" lengthAdjust="spacing" textLength="385.2949" font-family="'Plus Jakarta Sans'">Memilih pesanan berstatus "Menunggu Pembayaran" / "Ditolak"</text><rect x="321.4434" y="228.9326" width="291.459" height="33.9688" fill="#F7F4EB" style="stroke:#022C22;stroke-width:0.5;" rx="12.5" ry="12.5"/><text x="331.4434" y="250.0713" fill="#022C22" font-size="12" lengthAdjust="spacing" textLength="271.459" font-family="'Plus Jakarta Sans'">Menekan tombol "Upload Bukti Pembayaran"</text><rect x="281.7373" y="282.9014" width="370.8711" height="47.9375" fill="#F7F4EB" style="stroke:#022C22;stroke-width:0.5;" rx="12.5" ry="12.5"/><text x="291.7373" y="304.04" fill="#022C22" font-size="12" lengthAdjust="spacing" textLength="350.8711" font-family="'Plus Jakarta Sans'">Mengisi formulir (Bank Asal, Bank Tujuan, Nama Pengirim,</text><text x="291.7373" y="318.0088" fill="#022C22" font-size="12" lengthAdjust="spacing" textLength="344.9121" font-family="'Plus Jakarta Sans'">Nominal, Tanggal) &amp; mengunggah berkas bukti (gambar)</text><rect x="344.207" y="350.8389" width="245.9316" height="33.9688" fill="#F7F4EB" style="stroke:#022C22;stroke-width:0.5;" rx="12.5" ry="12.5"/><text x="354.207" y="371.9775" fill="#022C22" font-size="12" lengthAdjust="spacing" textLength="225.9316" font-family="'Plus Jakarta Sans'">Menekan tombol "Kirim Pembayaran"</text><rect x="331.3252" y="629.085" width="271.6953" height="33.9688" fill="#F7F4EB" style="stroke:#022C22;stroke-width:0.5;" rx="12.5" ry="12.5"/><text x="341.3252" y="650.2236" fill="#022C22" font-size="12" lengthAdjust="spacing" textLength="251.6953" font-family="'Plus Jakarta Sans'">Memperbaiki form / memilih gambar baru</text><ellipse cx="467.1729" cy="694.0537" rx="11" ry="11" fill="none" style="stroke:#222222;stroke-width:1;"/><ellipse cx="467.1729" cy="694.0537" rx="6" ry="6" fill="#222222" style="stroke:#222222;stroke-width:1;"/><rect x="368.6963" y="747.0537" width="196.9531" height="33.9688" fill="#F7F4EB" style="stroke:#022C22;stroke-width:0.5;" rx="12.5" ry="12.5"/><text x="378.6963" y="768.1924" fill="#022C22" font-size="12" lengthAdjust="spacing" textLength="176.9531" font-family="'Plus Jakarta Sans'">Membuka transaksi database</text><polygon points="305.4976,801.0225,628.8481,801.0225,640.8481,813.0225,628.8481,825.0225,305.4976,825.0225,293.4976,813.0225,305.4976,801.0225" fill="#F7F4EB" style="stroke:#022C22;stroke-width:0.5;stroke-linejoin:miter;stroke-miterlimit:10;"/><text x="305.4976" y="816.8306" fill="#022C22" font-size="11" lengthAdjust="spacing" textLength="323.3506" font-family="'Plus Jakarta Sans'">Apakah sudah ada pembayaran sebelumnya yang ditolak?</text><text x="280.0376" y="810.4282" fill="#000000" font-size="11" lengthAdjust="spacing" textLength="13.46" font-family="'Plus Jakarta Sans'">Ya</text><text x="640.8481" y="810.4282" fill="#000000" font-size="11" lengthAdjust="spacing" textLength="29.8687" font-family="'Plus Jakarta Sans'">Tidak</text><rect x="26" y="835.0225" width="407.4043" height="33.9688" fill="#F7F4EB" style="stroke:#022C22;stroke-width:0.5;" rx="12.5" ry="12.5"/><text x="36" y="856.1611" fill="#022C22" font-size="12" lengthAdjust="spacing" textLength="387.4043" font-family="'Plus Jakarta Sans'">Menghapus berkas bukti transfer lama dari penyimpanan server</text><rect x="85.2793" y="888.9912" width="288.8457" height="33.9688" fill="#F7F4EB" style="stroke:#022C22;stroke-width:0.5;" rx="12.5" ry="12.5"/><text x="95.2793" y="910.1299" fill="#022C22" font-size="12" lengthAdjust="spacing" textLength="268.8457" font-family="'Plus Jakarta Sans'">Memperbarui baris data di tabel `payments`</text><rect x="453.4043" y="835.0225" width="502.4785" height="33.9688" fill="#F7F4EB" style="stroke:#022C22;stroke-width:0.5;" rx="12.5" ry="12.5"/><text x="463.4043" y="856.1611" fill="#022C22" font-size="12" lengthAdjust="spacing" textLength="482.4785" font-family="'Plus Jakarta Sans'">Menyimpan berkas bukti transfer baru ke `storage/app/public/payment_proofs/`</text><rect x="460.6348" y="888.9912" width="488.0176" height="33.9688" fill="#F7F4EB" style="stroke:#022C22;stroke-width:0.5;" rx="12.5" ry="12.5"/><text x="470.6348" y="910.1299" fill="#022C22" font-size="12" lengthAdjust="spacing" textLength="468.0176" font-family="'Plus Jakarta Sans'">Membuat baris data baru di tabel `payments` (status = 'waiting_verification')</text><polygon points="467.1729,928.96,479.1729,940.96,467.1729,952.96,455.1729,940.96,467.1729,928.96" fill="#F7F4EB" style="stroke:#022C22;stroke-width:0.5;stroke-linejoin:miter;stroke-miterlimit:10;"/><rect x="285.2881" y="972.96" width="363.7695" height="33.9688" fill="#F7F4EB" style="stroke:#022C22;stroke-width:0.5;" rx="12.5" ry="12.5"/><text x="295.2881" y="994.0986" fill="#022C22" font-size="12" lengthAdjust="spacing" textLength="343.7695" font-family="'Plus Jakarta Sans'">Mengubah status pesanan menjadi `waiting_verification`</text><rect x="279.2471" y="1026.9287" width="375.8516" height="33.9688" fill="#F7F4EB" style="stroke:#022C22;stroke-width:0.5;" rx="12.5" ry="12.5"/><text x="289.2471" y="1048.0674" fill="#022C22" font-size="12" lengthAdjust="spacing" textLength="355.8516" font-family="'Plus Jakarta Sans'">Mencatat histori status pesanan di `order_status_histories`</text><rect x="395.7754" y="1080.8975" width="142.7949" height="33.9688" fill="#F7F4EB" style="stroke:#022C22;stroke-width:0.5;" rx="12.5" ry="12.5"/><text x="405.7754" y="1102.0361" fill="#022C22" font-size="12" lengthAdjust="spacing" textLength="122.7949" font-family="'Plus Jakarta Sans'">Komitmen Transaksi</text><rect x="268.7705" y="1134.8662" width="396.8047" height="33.9688" fill="#F7F4EB" style="stroke:#022C22;stroke-width:0.5;" rx="12.5" ry="12.5"/><text x="278.7705" y="1156.0049" fill="#022C22" font-size="12" lengthAdjust="spacing" textLength="376.8047" font-family="'Plus Jakarta Sans'">Mengalihkan ke halaman detail pesanan dengan pesan sukses</text><rect x="259.7822" y="1188.835" width="414.7813" height="33.9688" fill="#F7F4EB" style="stroke:#022C22;stroke-width:0.5;" rx="12.5" ry="12.5"/><text x="269.7822" y="1209.9736" fill="#022C22" font-size="12" lengthAdjust="spacing" textLength="394.7813" font-family="'Plus Jakarta Sans'">Melihat status pesanan diperbarui menjadi "Menunggu Verifikasi"</text><ellipse cx="467.1729" cy="1253.8037" rx="11" ry="11" fill="none" style="stroke:#222222;stroke-width:1;"/><ellipse cx="467.1729" cy="1253.8037" rx="6" ry="6" fill="#222222" style="stroke:#222222;stroke-width:1;"/><line x1="20" y1="55.042" x2="20" y2="1264.8037" style="stroke:#000000;stroke-width:1.5;"/><rect x="999.5947" y="404.8076" width="252.8516" height="33.9688" fill="#F7F4EB" style="stroke:#022C22;stroke-width:0.5;" rx="12.5" ry="12.5"/><text x="1009.5947" y="425.9463" fill="#022C22" font-size="12" lengthAdjust="spacing" textLength="232.8516" font-family="'Plus Jakarta Sans'">Menerima Form Request Unggah Bukti</text><rect x="965.8828" y="458.7764" width="320.2754" height="47.9375" fill="#F7F4EB" style="stroke:#022C22;stroke-width:0.5;" rx="12.5" ry="12.5"/><text x="975.8828" y="479.915" fill="#022C22" font-size="12" lengthAdjust="spacing" textLength="232.1309" font-family="'Plus Jakarta Sans'">Memvalidasi data input &amp; berkas bukti</text><text x="975.8828" y="493.8838" fill="#022C22" font-size="12" lengthAdjust="spacing" textLength="300.2754" font-family="'Plus Jakarta Sans'">(ekstensi: JPG/JPEG/PNG/WebP, ukuran max: 2MB)</text><rect x="981.9756" y="575.1162" width="288.0898" height="33.9688" fill="#F7F4EB" style="stroke:#022C22;stroke-width:0.5;" rx="12.5" ry="12.5"/><text x="991.9756" y="596.2549" fill="#022C22" font-size="12" lengthAdjust="spacing" textLength="268.0898" font-family="'Plus Jakarta Sans'">Mengembalikan ke form dengan pesan error</text><polygon points="1087.2573,526.7139,1164.7837,526.7139,1176.7837,538.7139,1164.7837,550.7139,1087.2573,550.7139,1075.2573,538.7139,1087.2573,526.7139" fill="#F7F4EB" style="stroke:#022C22;stroke-width:0.5;stroke-linejoin:miter;stroke-miterlimit:10;"/><text x="1130.0205" y="560.9243" fill="#000000" font-size="11" lengthAdjust="spacing" textLength="29.8687" font-family="'Plus Jakarta Sans'">Tidak</text><text x="1087.2573" y="542.522" fill="#022C22" font-size="11" lengthAdjust="spacing" textLength="77.5264" font-family="'Plus Jakarta Sans'">Validasi lolos?</text><text x="1176.7837" y="536.1196" fill="#000000" font-size="11" lengthAdjust="spacing" textLength="13.46" font-family="'Plus Jakarta Sans'">Ya</text><line x1="959.8828" y1="55.042" x2="959.8828" y2="1264.8037" style="stroke:#000000;stroke-width:1.5;"/><line x1="1299.0654" y1="55.042" x2="1299.0654" y2="1264.8037" style="stroke:#000000;stroke-width:1.5;"/><line x1="467.1729" y1="100.9951" x2="467.1729" y2="120.9951" style="stroke:#10B981;stroke-width:1;"/><polygon points="463.1729,110.9951,471.1729,110.9951,467.1729,120.9951" fill="#10B981" style="stroke:#10B981;stroke-width:1;stroke-linejoin:miter;stroke-miterlimit:10;"/><line x1="467.1729" y1="154.9639" x2="467.1729" y2="174.9639" style="stroke:#10B981;stroke-width:1;"/><polygon points="463.1729,164.9639,471.1729,164.9639,467.1729,174.9639" fill="#10B981" style="stroke:#10B981;stroke-width:1;stroke-linejoin:miter;stroke-miterlimit:10;"/><line x1="467.1729" y1="208.9326" x2="467.1729" y2="228.9326" style="stroke:#10B981;stroke-width:1;"/><polygon points="463.1729,218.9326,471.1729,218.9326,467.1729,228.9326" fill="#10B981" style="stroke:#10B981;stroke-width:1;stroke-linejoin:miter;stroke-miterlimit:10;"/><line x1="467.1729" y1="262.9014" x2="467.1729" y2="282.9014" style="stroke:#10B981;stroke-width:1;"/><polygon points="463.1729,272.9014,471.1729,272.9014,467.1729,282.9014" fill="#10B981" style="stroke:#10B981;stroke-width:1;stroke-linejoin:miter;stroke-miterlimit:10;"/><line x1="467.1729" y1="330.8389" x2="467.1729" y2="350.8389" style="stroke:#10B981;stroke-width:1;"/><polygon points="463.1729,340.8389,471.1729,340.8389,467.1729,350.8389" fill="#10B981" style="stroke:#10B981;stroke-width:1;stroke-linejoin:miter;stroke-miterlimit:10;"/><line x1="467.1729" y1="663.0537" x2="467.1729" y2="683.0537" style="stroke:#10B981;stroke-width:1;"/><polygon points="463.1729,673.0537,471.1729,673.0537,467.1729,683.0537" fill="#10B981" style="stroke:#10B981;stroke-width:1;stroke-linejoin:miter;stroke-miterlimit:10;"/><line x1="229.7021" y1="868.9912" x2="229.7021" y2="888.9912" style="stroke:#10B981;stroke-width:1;"/><polygon points="225.7021,878.9912,233.7021,878.9912,229.7021,888.9912" fill="#10B981" style="stroke:#10B981;stroke-width:1;stroke-linejoin:miter;stroke-miterlimit:10;"/><line x1="704.6436" y1="868.9912" x2="704.6436" y2="888.9912" style="stroke:#10B981;stroke-width:1;"/><polygon points="700.6436,878.9912,708.6436,878.9912,704.6436,888.9912" fill="#10B981" style="stroke:#10B981;stroke-width:1;stroke-linejoin:miter;stroke-miterlimit:10;"/><line x1="293.4976" y1="813.0225" x2="229.7021" y2="813.0225" style="stroke:#10B981;stroke-width:1;"/><line x1="229.7021" y1="813.0225" x2="229.7021" y2="835.0225" style="stroke:#10B981;stroke-width:1;"/><polygon points="225.7021,825.0225,233.7021,825.0225,229.7021,835.0225" fill="#10B981" style="stroke:#10B981;stroke-width:1;stroke-linejoin:miter;stroke-miterlimit:10;"/><line x1="640.8481" y1="813.0225" x2="704.6436" y2="813.0225" style="stroke:#10B981;stroke-width:1;"/><line x1="704.6436" y1="813.0225" x2="704.6436" y2="835.0225" style="stroke:#10B981;stroke-width:1;"/><polygon points="700.6436,825.0225,708.6436,825.0225,704.6436,835.0225" fill="#10B981" style="stroke:#10B981;stroke-width:1;stroke-linejoin:miter;stroke-miterlimit:10;"/><line x1="229.7021" y1="922.96" x2="229.7021" y2="940.96" style="stroke:#10B981;stroke-width:1;"/><line x1="229.7021" y1="940.96" x2="455.1729" y2="940.96" style="stroke:#10B981;stroke-width:1;"/><polygon points="445.1729,936.96,455.1729,940.96,445.1729,944.96" fill="#10B981" style="stroke:#10B981;stroke-width:1;stroke-linejoin:miter;stroke-miterlimit:10;"/><line x1="704.6436" y1="922.96" x2="704.6436" y2="940.96" style="stroke:#10B981;stroke-width:1;"/><line x1="704.6436" y1="940.96" x2="479.1729" y2="940.96" style="stroke:#10B981;stroke-width:1;"/><polygon points="489.1729,936.96,479.1729,940.96,489.1729,944.96" fill="#10B981" style="stroke:#10B981;stroke-width:1;stroke-linejoin:miter;stroke-miterlimit:10;"/><line x1="467.1729" y1="781.0225" x2="467.1729" y2="801.0225" style="stroke:#10B981;stroke-width:1;"/><polygon points="463.1729,791.0225,471.1729,791.0225,467.1729,801.0225" fill="#10B981" style="stroke:#10B981;stroke-width:1;stroke-linejoin:miter;stroke-miterlimit:10;"/><line x1="467.1729" y1="952.96" x2="467.1729" y2="972.96" style="stroke:#10B981;stroke-width:1;"/><polygon points="463.1729,962.96,471.1729,962.96,467.1729,972.96" fill="#10B981" style="stroke:#10B981;stroke-width:1;stroke-linejoin:miter;stroke-miterlimit:10;"/><line x1="467.1729" y1="1006.9287" x2="467.1729" y2="1026.9287" style="stroke:#10B981;stroke-width:1;"/><polygon points="463.1729,1016.9287,471.1729,1016.9287,467.1729,1026.9287" fill="#10B981" style="stroke:#10B981;stroke-width:1;stroke-linejoin:miter;stroke-miterlimit:10;"/><line x1="467.1729" y1="1060.8975" x2="467.1729" y2="1080.8975" style="stroke:#10B981;stroke-width:1;"/><polygon points="463.1729,1070.8975,471.1729,1070.8975,467.1729,1080.8975" fill="#10B981" style="stroke:#10B981;stroke-width:1;stroke-linejoin:miter;stroke-miterlimit:10;"/><line x1="467.1729" y1="1114.8662" x2="467.1729" y2="1134.8662" style="stroke:#10B981;stroke-width:1;"/><polygon points="463.1729,1124.8662,471.1729,1124.8662,467.1729,1134.8662" fill="#10B981" style="stroke:#10B981;stroke-width:1;stroke-linejoin:miter;stroke-miterlimit:10;"/><line x1="467.1729" y1="1168.835" x2="467.1729" y2="1188.835" style="stroke:#10B981;stroke-width:1;"/><polygon points="463.1729,1178.835,471.1729,1178.835,467.1729,1188.835" fill="#10B981" style="stroke:#10B981;stroke-width:1;stroke-linejoin:miter;stroke-miterlimit:10;"/><line x1="467.1729" y1="1222.8037" x2="467.1729" y2="1242.8037" style="stroke:#10B981;stroke-width:1;"/><polygon points="463.1729,1232.8037,471.1729,1232.8037,467.1729,1242.8037" fill="#10B981" style="stroke:#10B981;stroke-width:1;stroke-linejoin:miter;stroke-miterlimit:10;"/><line x1="1126.0205" y1="438.7764" x2="1126.0205" y2="458.7764" style="stroke:#10B981;stroke-width:1;"/><polygon points="1122.0205,448.7764,1130.0205,448.7764,1126.0205,458.7764" fill="#10B981" style="stroke:#10B981;stroke-width:1;stroke-linejoin:miter;stroke-miterlimit:10;"/><line x1="1126.0205" y1="550.7139" x2="1126.0205" y2="575.1162" style="stroke:#10B981;stroke-width:1;"/><polygon points="1122.0205,565.1162,1130.0205,565.1162,1126.0205,575.1162" fill="#10B981" style="stroke:#10B981;stroke-width:1;stroke-linejoin:miter;stroke-miterlimit:10;"/><line x1="1176.7837" y1="538.7139" x2="1280.0654" y2="538.7139" style="stroke:#10B981;stroke-width:1;"/><polygon points="1276.0654,635.835,1284.0654,635.835,1280.0654,645.835" fill="#10B981" style="stroke:#10B981;stroke-width:1;stroke-linejoin:miter;stroke-miterlimit:10;"/><line x1="1280.0654" y1="538.7139" x2="1280.0654" y2="732.0537" style="stroke:#10B981;stroke-width:1;"/><line x1="1280.0654" y1="732.0537" x2="467.1729" y2="732.0537" style="stroke:#10B981;stroke-width:1;"/><line x1="467.1729" y1="732.0537" x2="467.1729" y2="747.0537" style="stroke:#10B981;stroke-width:1;"/><polygon points="463.1729,737.0537,471.1729,737.0537,467.1729,747.0537" fill="#10B981" style="stroke:#10B981;stroke-width:1;stroke-linejoin:miter;stroke-miterlimit:10;"/><line x1="1126.0205" y1="506.7139" x2="1126.0205" y2="526.7139" style="stroke:#10B981;stroke-width:1;"/><polygon points="1122.0205,516.7139,1130.0205,516.7139,1126.0205,526.7139" fill="#10B981" style="stroke:#10B981;stroke-width:1;stroke-linejoin:miter;stroke-miterlimit:10;"/><line x1="467.1729" y1="384.8076" x2="467.1729" y2="389.8076" style="stroke:#10B981;stroke-width:1;"/><line x1="467.1729" y1="389.8076" x2="1126.0205" y2="389.8076" style="stroke:#10B981;stroke-width:1;"/><line x1="1126.0205" y1="389.8076" x2="1126.0205" y2="404.8076" style="stroke:#10B981;stroke-width:1;"/><polygon points="1122.0205,394.8076,1130.0205,394.8076,1126.0205,404.8076" fill="#10B981" style="stroke:#10B981;stroke-width:1;stroke-linejoin:miter;stroke-miterlimit:10;"/><line x1="1126.0205" y1="609.085" x2="1126.0205" y2="614.085" style="stroke:#10B981;stroke-width:1;"/><line x1="1126.0205" y1="614.085" x2="467.1729" y2="614.085" style="stroke:#10B981;stroke-width:1;"/><line x1="467.1729" y1="614.085" x2="467.1729" y2="629.085" style="stroke:#10B981;stroke-width:1;"/><polygon points="463.1729,619.085,471.1729,619.085,467.1729,629.085" fill="#10B981" style="stroke:#10B981;stroke-width:1;stroke-linejoin:miter;stroke-miterlimit:10;"/><text x="442.6123" y="71.75" fill="#000000" font-size="18" lengthAdjust="spacing" textLength="94.6582" font-family="'Plus Jakarta Sans'">Pelanggan</text><text x="1014.0825" y="71.75" fill="#000000" font-size="18" lengthAdjust="spacing" textLength="230.7832" font-family="'Plus Jakarta Sans'">Sistem (Laravel Backend)</text><?plantuml-src XLJzQnD14Ftz_eeXWYPGZGP1RH1fj2bKMuAjYY0qSxdDPRpzEFUZDT0_tjczItArgGOIShVpyTwRD-igqZLQL73XrrA0yvOMFYYPkUt91x748FtKQ7-EIa1l9eE3KwpGUeGBrAxNYJvQUBeclvxWeYgj2RfuRwIny6ZwQlhoUB8lqjX2s3Rg-MZqVZJQ4nNRFnXZhRbf3ryydxnv_Q9pUE4PvqE7nrjunzEN_EdI9bH65__diGdy9uqsw3wBp9DduLyzYo5bObCbnkXOUOyauIcS2Lq6NPQuWadWOvW9bUEQA-iikvq9YV5GtsOkaiqEp_WuL0WhbAXGmsUwuMZFQGurwd6A84ahg9ita0lBkPu7s-DciLVeDEd147eVo1k9LIzbQr5nbZSgDn9wNsffiBY7hGqjoH4iZLL1aeN-17K5Hmxb0QI_b-5dG7q0R2xaP0wtf0v-w7EZICUeoyHE3k0ng9qGZBXYZVBKiryYDxM3FTW-nd9tGMMt5-IyKD3_n6-kXOGuPQ6BmMsJpna8KqOCdyMl89o7Bntr6_ckKLA1pAn0NWEUS_0Ci8lgX-wBYljeHuTmEZiPdiwEJuQpyvFXDv7F3Y1KWV60mj-7C3gRCFYCbj3_kYaisIZktG3yIcZeN_BBQf01VvAeaP2aoBGIILqe-2q_ff62u9smunJUDKYRhcfXSwIgcGjFLxL-Q7G4_eOcsNbJPq8w0VtlECXO95fcEuTvPk2mQcN8qObn8d5Ky_sm0XSA_iK26TLc0E14BcHGUesmPbnGDCRQCerzjZHNMBCfxmmxzLmA2z7StDSILzThKdMoiXFsMhJKjrHje4YAN3EkWgiWeu1vZMisbNVpSSloBvsRiWy0Y7MZ_7DMoM8fXbZNmphaaXR3jl1LROrPkk5y1oWFl8eTCAdA7aJGRrVoBJovGVAaoojcHajQe2UZdx1ZTlFWnSYZuatAPg-vqa_aslDz1URDkl030rfH945_5uYvwMQxQWwksZWH5Jlyo3lgkGTSRdpGhZnRSzLwStC95SrjjYtSTQiBbHDkVFSouq9SXQ7TWxGTwORUxjBwclZnh8WNFPht3m00?></g></svg>