<svg xmlns="http://www.w3.org/2000/svg" xmlns:xlink="http://www.w3.org/1999/xlink" version="1.1" data-diagram-type="ACTIVITY" style="width:1935px;height:922px;background:#FFFFFF;" width="1935px" height="922px" viewBox="0 0 1935 922" zoomAndPan="magnify" preserveAspectRatio="none" contentStyleType="text/css"><?plantuml 1.2026.7beta3?><defs/><g><g class="title" data-source-line="13"><text x="683.2561" y="32.9951" fill="#000000" font-size="14" lengthAdjust="spacing" textLength="567.041" font-weight="700" font-family="'Plus Jakarta Sans'">12. Diagram Aktivitas Detail - Penyaringan &amp; Ekspor Laporan Keuangan</text></g><rect x="20" y="55.042" width="1888.5532" height="20.9531" fill="none" style="stroke:none;stroke-width:1;"/><ellipse cx="541.0752" cy="90.9951" rx="10" ry="10" fill="#222222" style="stroke:#222222;stroke-width:1;"/><rect x="415.0889" y="120.9951" width="251.9727" height="33.9688" fill="#F7F4EB" style="stroke:#022C22;stroke-width:0.5;" rx="12.5" ry="12.5"/><text x="425.0889" y="142.1338" fill="#022C22" font-size="12" lengthAdjust="spacing" textLength="231.9727" font-family="'Plus Jakarta Sans'">Membuka halaman Laporan Keuangan</text><rect x="330.2891" y="296.8701" width="421.5723" height="47.9375" fill="#F7F4EB" style="stroke:#022C22;stroke-width:0.5;" rx="12.5" ry="12.5"/><text x="340.2891" y="318.0088" fill="#022C22" font-size="12" lengthAdjust="spacing" textLength="366.9902" font-family="'Plus Jakarta Sans'">Mengubah saringan laporan (Tanggal Mulai, Tanggal Selesai,</text><text x="340.2891" y="331.9775" fill="#022C22" font-size="12" lengthAdjust="spacing" textLength="401.5723" font-family="'Plus Jakarta Sans'">Status Pesanan, Status Pembayaran) &amp; menekan "Terapkan Filter"</text><line x1="165.4248" y1="580.6826" x2="902.6572" y2="580.6826" style="stroke:#10B981;stroke-width:1.5;"/><rect x="26" y="703.1045" width="278.8496" height="33.9688" fill="#F7F4EB" style="stroke:#022C22;stroke-width:0.5;" rx="12.5" ry="12.5"/><text x="36" y="724.2432" fill="#022C22" font-size="12" lengthAdjust="spacing" textLength="258.8496" font-family="'Plus Jakarta Sans'">Membaca laporan secara langsung di layar</text><rect x="377.4688" y="600.6826" width="204.0254" height="33.9688" fill="#F7F4EB" style="stroke:#022C22;stroke-width:0.5;" rx="12.5" ry="12.5"/><text x="387.4688" y="621.8213" fill="#022C22" font-size="12" lengthAdjust="spacing" textLength="184.0254" font-family="'Plus Jakarta Sans'">Menekan tombol "Ekspor CSV"</text><rect x="314.8496" y="805.5264" width="329.2637" height="33.9688" fill="#F7F4EB" style="stroke:#022C22;stroke-width:0.5;" rx="12.5" ry="12.5"/><text x="324.8496" y="826.665" fill="#022C22" font-size="12" lengthAdjust="spacing" textLength="309.2637" font-family="'Plus Jakarta Sans'">Menerima &amp; membuka berkas spreadsheet laporan</text><rect x="791.2549" y="600.6826" width="222.8047" height="33.9688" fill="#F7F4EB" style="stroke:#022C22;stroke-width:0.5;" rx="12.5" ry="12.5"/><text x="801.2549" y="621.8213" fill="#022C22" font-size="12" lengthAdjust="spacing" textLength="202.8047" font-family="'Plus Jakarta Sans'">Menekan tombol "Cetak Laporan"</text><rect x="730.9736" y="805.5264" width="343.3672" height="33.9688" fill="#F7F4EB" style="stroke:#022C22;stroke-width:0.5;" rx="12.5" ry="12.5"/><text x="740.9736" y="826.665" fill="#022C22" font-size="12" lengthAdjust="spacing" textLength="323.3672" font-family="'Plus Jakarta Sans'">Melakukan pencetakan dokumen kertas / simpan PDF</text><line x1="165.4248" y1="859.4951" x2="902.6572" y2="859.4951" style="stroke:#10B981;stroke-width:1.5;"/><ellipse cx="541.0752" cy="890.4951" rx="11" ry="11" fill="none" style="stroke:#222222;stroke-width:1;"/><ellipse cx="541.0752" cy="890.4951" rx="6" ry="6" fill="#222222" style="stroke:#222222;stroke-width:1;"/><line x1="20" y1="55.042" x2="20" y2="901.4951" style="stroke:#000000;stroke-width:1.5;"/><rect x="1139.3164" y="174.9639" width="401.5508" height="47.9375" fill="#F7F4EB" style="stroke:#022C22;stroke-width:0.5;" rx="12.5" ry="12.5"/><text x="1149.3164" y="196.1025" fill="#022C22" font-size="12" lengthAdjust="spacing" textLength="236.5137" font-family="'Plus Jakarta Sans'">Memuat data default (30 hari terakhir);</text><text x="1149.3164" y="210.0713" fill="#022C22" font-size="12" lengthAdjust="spacing" textLength="381.5508" font-family="'Plus Jakarta Sans'">Menghitung ringkasan pendapatan, transaksi, &amp; produk terlaris</text><rect x="1188.8457" y="242.9014" width="302.4922" height="33.9688" fill="#F7F4EB" style="stroke:#022C22;stroke-width:0.5;" rx="12.5" ry="12.5"/><text x="1198.8457" y="264.04" fill="#022C22" font-size="12" lengthAdjust="spacing" textLength="282.4922" font-family="'Plus Jakarta Sans'">Menampilkan statistik &amp; tabel rincian transaksi</text><rect x="1250.627" y="364.8076" width="178.9297" height="33.9688" fill="#F7F4EB" style="stroke:#022C22;stroke-width:0.5;" rx="12.5" ry="12.5"/><text x="1260.627" y="385.9463" fill="#022C22" font-size="12" lengthAdjust="spacing" textLength="158.9297" font-family="'Plus Jakarta Sans'">Menerima parameter filter</text><rect x="1136.5508" y="418.7764" width="407.082" height="33.9688" fill="#F7F4EB" style="stroke:#022C22;stroke-width:0.5;" rx="12.5" ry="12.5"/><text x="1146.5508" y="439.915" fill="#022C22" font-size="12" lengthAdjust="spacing" textLength="387.082" font-family="'Plus Jakarta Sans'">Membangun query dinamis pada tabel `orders` &amp; `order_items`</text><rect x="1147.7158" y="472.7451" width="384.752" height="33.9688" fill="#F7F4EB" style="stroke:#022C22;stroke-width:0.5;" rx="12.5" ry="12.5"/><text x="1157.7158" y="493.8838" fill="#022C22" font-size="12" lengthAdjust="spacing" textLength="364.752" font-family="'Plus Jakarta Sans'">Kalkulasi ulang metrik keuangan berdasarkan data tersaring</text><rect x="1183.9648" y="526.7139" width="312.2539" height="33.9688" fill="#F7F4EB" style="stroke:#022C22;stroke-width:0.5;" rx="12.5" ry="12.5"/><text x="1193.9648" y="547.8525" fill="#022C22" font-size="12" lengthAdjust="spacing" textLength="292.2539" font-family="'Plus Jakarta Sans'">Memperbarui tampilan visual grafik &amp; data tabel</text><rect x="1084.3408" y="654.6514" width="388.3145" height="61.9063" fill="#F7F4EB" style="stroke:#022C22;stroke-width:0.5;" rx="12.5" ry="12.5"/><text x="1094.3408" y="675.79" fill="#022C22" font-size="12" lengthAdjust="spacing" textLength="219.6738" font-family="'Plus Jakarta Sans'">Mengekstrak data transaksi terfilter;</text><text x="1094.3408" y="689.7588" fill="#022C22" font-size="12" lengthAdjust="spacing" textLength="286.5645" font-family="'Plus Jakarta Sans'">Menulis baris header &amp; data dalam format CSV;</text><text x="1094.3408" y="703.7275" fill="#022C22" font-size="12" lengthAdjust="spacing" textLength="368.3145" font-family="'Plus Jakarta Sans'">Menambahkan UTF-8 BOM agar kompatibel dengan MS Excel</text><rect x="1086.21" y="751.5576" width="384.5762" height="33.9688" fill="#F7F4EB" style="stroke:#022C22;stroke-width:0.5;" rx="12.5" ry="12.5"/><text x="1096.21" y="772.6963" fill="#022C22" font-size="12" lengthAdjust="spacing" textLength="364.5762" font-family="'Plus Jakarta Sans'">Mengalirkan berkas CSV langsung sebagai unduhan browser</text><rect x="1500.6553" y="654.6514" width="402.0371" height="61.9063" fill="#F7F4EB" style="stroke:#022C22;stroke-width:0.5;" rx="12.5" ry="12.5"/><text x="1510.6553" y="675.79" fill="#022C22" font-size="12" lengthAdjust="spacing" textLength="382.0371" font-family="'Plus Jakarta Sans'">Mengaktifkan stylesheet media cetak khusus (`@media print`);</text><text x="1510.6553" y="689.7588" fill="#022C22" font-size="12" lengthAdjust="spacing" textLength="324.9316" font-family="'Plus Jakarta Sans'">Menyembunyikan sidebar, topbar, &amp; tombol saringan;</text><text x="1510.6553" y="703.7275" fill="#022C22" font-size="12" lengthAdjust="spacing" textLength="241.7578" font-family="'Plus Jakarta Sans'">Menata tabel agar pas dalam ukuran A4</text><rect x="1518.6289" y="751.5576" width="366.0898" height="33.9688" fill="#F7F4EB" style="stroke:#022C22;stroke-width:0.5;" rx="12.5" ry="12.5"/><text x="1528.6289" y="772.6963" fill="#022C22" font-size="12" lengthAdjust="spacing" textLength="346.0898" font-family="'Plus Jakarta Sans'">Memicu jendela pratinjau cetak (*print preview*) browser</text><line x1="1078.3408" y1="55.042" x2="1078.3408" y2="901.4951" style="stroke:#000000;stroke-width:1.5;"/><line x1="1906.6924" y1="55.042" x2="1906.6924" y2="901.4951" style="stroke:#000000;stroke-width:1.5;"/><line x1="541.0752" y1="100.9951" x2="541.0752" y2="120.9951" style="stroke:#10B981;stroke-width:1;"/><polygon points="537.0752,110.9951,545.0752,110.9951,541.0752,120.9951" fill="#10B981" style="stroke:#10B981;stroke-width:1;stroke-linejoin:miter;stroke-miterlimit:10;"/><line x1="165.4248" y1="582.1826" x2="165.4248" y2="703.1045" style="stroke:#10B981;stroke-width:1;"/><polygon points="161.4248,693.1045,169.4248,693.1045,165.4248,703.1045" fill="#10B981" style="stroke:#10B981;stroke-width:1;stroke-linejoin:miter;stroke-miterlimit:10;"/><line x1="479.4814" y1="582.1826" x2="479.4814" y2="600.6826" style="stroke:#10B981;stroke-width:1;"/><polygon points="475.4814,590.6826,483.4814,590.6826,479.4814,600.6826" fill="#10B981" style="stroke:#10B981;stroke-width:1;stroke-linejoin:miter;stroke-miterlimit:10;"/><line x1="902.6572" y1="582.1826" x2="902.6572" y2="600.6826" style="stroke:#10B981;stroke-width:1;"/><polygon points="898.6572,590.6826,906.6572,590.6826,902.6572,600.6826" fill="#10B981" style="stroke:#10B981;stroke-width:1;stroke-linejoin:miter;stroke-miterlimit:10;"/><line x1="165.4248" y1="737.0732" x2="165.4248" y2="859.4951" style="stroke:#10B981;stroke-width:1;"/><polygon points="161.4248,849.4951,169.4248,849.4951,165.4248,859.4951" fill="#10B981" style="stroke:#10B981;stroke-width:1;stroke-linejoin:miter;stroke-miterlimit:10;"/><line x1="479.4814" y1="839.4951" x2="479.4814" y2="859.4951" style="stroke:#10B981;stroke-width:1;"/><polygon points="475.4814,849.4951,483.4814,849.4951,479.4814,859.4951" fill="#10B981" style="stroke:#10B981;stroke-width:1;stroke-linejoin:miter;stroke-miterlimit:10;"/><line x1="902.6572" y1="839.4951" x2="902.6572" y2="859.4951" style="stroke:#10B981;stroke-width:1;"/><polygon points="898.6572,849.4951,906.6572,849.4951,902.6572,859.4951" fill="#10B981" style="stroke:#10B981;stroke-width:1;stroke-linejoin:miter;stroke-miterlimit:10;"/><line x1="541.0752" y1="860.9951" x2="541.0752" y2="879.4951" style="stroke:#10B981;stroke-width:1;"/><polygon points="537.0752,869.4951,545.0752,869.4951,541.0752,879.4951" fill="#10B981" style="stroke:#10B981;stroke-width:1;stroke-linejoin:miter;stroke-miterlimit:10;"/><line x1="1340.0918" y1="222.9014" x2="1340.0918" y2="242.9014" style="stroke:#10B981;stroke-width:1;"/><polygon points="1336.0918,232.9014,1344.0918,232.9014,1340.0918,242.9014" fill="#10B981" style="stroke:#10B981;stroke-width:1;stroke-linejoin:miter;stroke-miterlimit:10;"/><line x1="1340.0918" y1="398.7764" x2="1340.0918" y2="418.7764" style="stroke:#10B981;stroke-width:1;"/><polygon points="1336.0918,408.7764,1344.0918,408.7764,1340.0918,418.7764" fill="#10B981" style="stroke:#10B981;stroke-width:1;stroke-linejoin:miter;stroke-miterlimit:10;"/><line x1="1340.0918" y1="452.7451" x2="1340.0918" y2="472.7451" style="stroke:#10B981;stroke-width:1;"/><polygon points="1336.0918,462.7451,1344.0918,462.7451,1340.0918,472.7451" fill="#10B981" style="stroke:#10B981;stroke-width:1;stroke-linejoin:miter;stroke-miterlimit:10;"/><line x1="1340.0918" y1="506.7139" x2="1340.0918" y2="526.7139" style="stroke:#10B981;stroke-width:1;"/><polygon points="1336.0918,516.7139,1344.0918,516.7139,1340.0918,526.7139" fill="#10B981" style="stroke:#10B981;stroke-width:1;stroke-linejoin:miter;stroke-miterlimit:10;"/><line x1="1278.498" y1="716.5576" x2="1278.498" y2="751.5576" style="stroke:#10B981;stroke-width:1;"/><polygon points="1274.498,741.5576,1282.498,741.5576,1278.498,751.5576" fill="#10B981" style="stroke:#10B981;stroke-width:1;stroke-linejoin:miter;stroke-miterlimit:10;"/><line x1="1701.6738" y1="716.5576" x2="1701.6738" y2="751.5576" style="stroke:#10B981;stroke-width:1;"/><polygon points="1697.6738,741.5576,1705.6738,741.5576,1701.6738,751.5576" fill="#10B981" style="stroke:#10B981;stroke-width:1;stroke-linejoin:miter;stroke-miterlimit:10;"/><line x1="541.0752" y1="154.9639" x2="541.0752" y2="159.9639" style="stroke:#10B981;stroke-width:1;"/><line x1="541.0752" y1="159.9639" x2="1340.0918" y2="159.9639" style="stroke:#10B981;stroke-width:1;"/><line x1="1340.0918" y1="159.9639" x2="1340.0918" y2="174.9639" style="stroke:#10B981;stroke-width:1;"/><polygon points="1336.0918,164.9639,1344.0918,164.9639,1340.0918,174.9639" fill="#10B981" style="stroke:#10B981;stroke-width:1;stroke-linejoin:miter;stroke-miterlimit:10;"/><line x1="1340.0918" y1="276.8701" x2="1340.0918" y2="281.8701" style="stroke:#10B981;stroke-width:1;"/><line x1="1340.0918" y1="281.8701" x2="541.0752" y2="281.8701" style="stroke:#10B981;stroke-width:1;"/><line x1="541.0752" y1="281.8701" x2="541.0752" y2="296.8701" style="stroke:#10B981;stroke-width:1;"/><polygon points="537.0752,286.8701,545.0752,286.8701,541.0752,296.8701" fill="#10B981" style="stroke:#10B981;stroke-width:1;stroke-linejoin:miter;stroke-miterlimit:10;"/><line x1="541.0752" y1="344.8076" x2="541.0752" y2="349.8076" style="stroke:#10B981;stroke-width:1;"/><line x1="541.0752" y1="349.8076" x2="1340.0918" y2="349.8076" style="stroke:#10B981;stroke-width:1;"/><line x1="1340.0918" y1="349.8076" x2="1340.0918" y2="364.8076" style="stroke:#10B981;stroke-width:1;"/><polygon points="1336.0918,354.8076,1344.0918,354.8076,1340.0918,364.8076" fill="#10B981" style="stroke:#10B981;stroke-width:1;stroke-linejoin:miter;stroke-miterlimit:10;"/><line x1="479.4814" y1="634.6514" x2="479.4814" y2="639.6514" style="stroke:#10B981;stroke-width:1;"/><line x1="479.4814" y1="639.6514" x2="1278.498" y2="639.6514" style="stroke:#10B981;stroke-width:1;"/><line x1="1278.498" y1="639.6514" x2="1278.498" y2="654.6514" style="stroke:#10B981;stroke-width:1;"/><polygon points="1274.498,644.6514,1282.498,644.6514,1278.498,654.6514" fill="#10B981" style="stroke:#10B981;stroke-width:1;stroke-linejoin:miter;stroke-miterlimit:10;"/><line x1="1278.498" y1="785.5264" x2="1278.498" y2="790.5264" style="stroke:#10B981;stroke-width:1;"/><line x1="1278.498" y1="790.5264" x2="479.4814" y2="790.5264" style="stroke:#10B981;stroke-width:1;"/><line x1="479.4814" y1="790.5264" x2="479.4814" y2="805.5264" style="stroke:#10B981;stroke-width:1;"/><polygon points="475.4814,795.5264,483.4814,795.5264,479.4814,805.5264" fill="#10B981" style="stroke:#10B981;stroke-width:1;stroke-linejoin:miter;stroke-miterlimit:10;"/><line x1="902.6572" y1="634.6514" x2="902.6572" y2="639.6514" style="stroke:#10B981;stroke-width:1;"/><line x1="902.6572" y1="639.6514" x2="1701.6738" y2="639.6514" style="stroke:#10B981;stroke-width:1;"/><line x1="1701.6738" y1="639.6514" x2="1701.6738" y2="654.6514" style="stroke:#10B981;stroke-width:1;"/><polygon points="1697.6738,644.6514,1705.6738,644.6514,1701.6738,654.6514" fill="#10B981" style="stroke:#10B981;stroke-width:1;stroke-linejoin:miter;stroke-miterlimit:10;"/><line x1="1701.6738" y1="785.5264" x2="1701.6738" y2="790.5264" style="stroke:#10B981;stroke-width:1;"/><line x1="1701.6738" y1="790.5264" x2="902.6572" y2="790.5264" style="stroke:#10B981;stroke-width:1;"/><line x1="902.6572" y1="790.5264" x2="902.6572" y2="805.5264" style="stroke:#10B981;stroke-width:1;"/><polygon points="898.6572,795.5264,906.6572,795.5264,902.6572,805.5264" fill="#10B981" style="stroke:#10B981;stroke-width:1;stroke-linejoin:miter;stroke-miterlimit:10;"/><line x1="1340.0918" y1="560.6826" x2="1340.0918" y2="565.6826" style="stroke:#10B981;stroke-width:1;"/><line x1="1340.0918" y1="565.6826" x2="541.0752" y2="565.6826" style="stroke:#10B981;stroke-width:1;"/><line x1="541.0752" y1="565.6826" x2="541.0752" y2="580.6826" style="stroke:#10B981;stroke-width:1;"/><polygon points="537.0752,570.6826,545.0752,570.6826,541.0752,580.6826" fill="#10B981" style="stroke:#10B981;stroke-width:1;stroke-linejoin:miter;stroke-miterlimit:10;"/><text x="520.3291" y="71.75" fill="#000000" font-size="18" lengthAdjust="spacing" textLength="57.6826" font-family="'Plus Jakarta Sans'">Admin</text><text x="1377.125" y="71.75" fill="#000000" font-size="18" lengthAdjust="spacing" textLength="230.7832" font-family="'Plus Jakarta Sans'">Sistem (Laravel Backend)</text><?plantuml-src bLNBRjj65DthAovK8923fBLL0qshJMr7MZHHQq1kLm6gIt94JkP1TXvE1FZZUsQ6L8msSLekA99p7-US-v1NqWxisD0k7BKW7voiGpHwvaydhyM1emwRtePVsGYQt-hewHTMx0BJZgsVFxA-geEyb-5upRLgNHzjSzFhtj4tcnysb-lhprdshX5kj3fVBc-MoyzOfVHVj76k_p0UNfnV__Zguj7XBW3dbmxN9tZhpIMknxGbczusN-Sn6Jv9OpJwDujPa072Noo_JJPjfgCoPVQGFh3Kz99kXJsoaxPbIyzehVo046yPTtnu8oAdazdiuQenqZxCVE8y-sahJ1KLKyUQ3Gp_wR22nqxw80mjtWBclT2K-0hRd3razyY16aQPcz84jFZ-7E6Sf20SgqwwizKxknMsxMI8jgM4KR57aW5HU82lVK41MJqhBry0_U3w9geKG2EGNwL4biqWjO8Re0T0aWgMWIiWGiXQukGKPFM9Q79jOyKT-KaUFP9St85ZovgsKJCIJwyxeON7XtSMdH7GoRTujGdbwTrK3BNPdW634LOaNFCx41xIqqPgO9z_LJmhd3HCkVu27dJ8ZgjI5w29blwAmXsfaU0lFKmR7adlSpVvFH2KnpybClazlD-mLg3a9U4EoH7SGIur5fKguHfKm2MikNP8MjGfgGVXAdOH9SoYm-fU-WXbq7o7h7lnIZWUIUq7BSECS1NyDP-azg86IKfeV6g2Hk8P2gwA4t7BqawkHSxGcwhND1zR-MRt1mHD5azeEWLeXSAUOZNYdDeYyHmbpYqPDIIjKejH9nWIJioQD0vqw9r1ToDpCMTmwXAqt-ysBr_HzM_RXDkHwWswMAQYD28BlDtH-cETn3aXOYsptj0UtP-2VbB3Yoe9G5WXiKisM5O-zK6cEwfx4YVtJ6gxChfZG3yuKF2T465I_J-8UuFreQQf_n_wCXRGeGmZ_XHALYCQoLJdYAgB7eEosFzSlWvehh0VDy4n8RT7cVrb0_8E2w0Vyk-p2TiqhgFsKxyLoGSmBaMAAgO6kxeyQMra7Uaz00kT4gCozZt74TZYUOQ2x-9UYW_FpvuKMxEAgcogx9xcfLSH4uzXScd_VWS6gBwbszURrGn9gKm15cm__0q0?></g></svg>