<svg xmlns="http://www.w3.org/2000/svg" xmlns:xlink="http://www.w3.org/1999/xlink" version="1.1" data-diagram-type="ACTIVITY" style="width:2112px;height:1086px;background:#FFFFFF;" width="2112px" height="1086px" viewBox="0 0 2112 1086" zoomAndPan="magnify" preserveAspectRatio="none" contentStyleType="text/css"><?plantuml 1.2026.7beta3?><defs/><g><g class="title" data-source-line="13"><text x="787.8323" y="32.9951" fill="#000000" font-size="14" lengthAdjust="spacing" textLength="534.96" font-weight="700" font-family="'Plus Jakarta Sans'">8. Diagram Aktivitas Detail - Verifikasi atau Penolakan Pembayaran</text></g><rect x="20" y="55.042" width="2065.6245" height="20.9531" fill="none" style="stroke:none;stroke-width:1;"/><ellipse cx="440.2241" cy="90.9951" rx="10" ry="10" fill="#222222" style="stroke:#222222;stroke-width:1;"/><rect x="283.8628" y="120.9951" width="312.7227" height="33.9688" fill="#F7F4EB" style="stroke:#022C22;stroke-width:0.5;" rx="12.5" ry="12.5"/><text x="293.8628" y="142.1338" fill="#022C22" font-size="12" lengthAdjust="spacing" textLength="292.7227" font-family="'Plus Jakarta Sans'">Membuka halaman Detail Pesanan di Dashboard</text><rect x="202.104" y="174.9639" width="476.2402" height="33.9688" fill="#F7F4EB" style="stroke:#022C22;stroke-width:0.5;" rx="12.5" ry="12.5"/><text x="212.104" y="196.1025" fill="#022C22" font-size="12" lengthAdjust="spacing" textLength="456.2402" font-family="'Plus Jakarta Sans'">Memeriksa kesesuaian gambar bukti transfer dengan mutasi rekening bank</text><polygon points="365.1335,228.9326,515.3147,228.9326,527.3147,240.9326,515.3147,252.9326,365.1335,252.9326,353.1335,240.9326,365.1335,228.9326" fill="#F7F4EB" style="stroke:#022C22;stroke-width:0.5;stroke-linejoin:miter;stroke-miterlimit:10;"/><text x="365.1335" y="244.7407" fill="#022C22" font-size="11" lengthAdjust="spacing" textLength="150.1812" font-family="'Plus Jakarta Sans'">Apakah pembayaran valid?</text><text x="290.5925" y="238.3384" fill="#000000" font-size="11" lengthAdjust="spacing" textLength="62.541" font-family="'Plus Jakarta Sans'">Ya - Setujui</text><text x="527.3147" y="238.3384" fill="#000000" font-size="11" lengthAdjust="spacing" textLength="70.4473" font-family="'Plus Jakarta Sans'">Tidak - Tolak</text><rect x="26" y="272.9326" width="270.0781" height="33.9688" fill="#F7F4EB" style="stroke:#022C22;stroke-width:0.5;" rx="12.5" ry="12.5"/><text x="36" y="294.0713" fill="#022C22" font-size="12" lengthAdjust="spacing" textLength="250.0781" font-family="'Plus Jakarta Sans'">Menekan tombol "Verifikasi Pembayaran"</text><rect x="233.2744" y="615.7451" width="195.4473" height="33.9688" fill="#F7F4EB" style="stroke:#022C22;stroke-width:0.5;" rx="12.5" ry="12.5"/><text x="243.2744" y="636.8838" fill="#022C22" font-size="12" lengthAdjust="spacing" textLength="175.4473" font-family="'Plus Jakarta Sans'">Melihat pesan error verifikasi</text><ellipse cx="330.998" cy="695.7139" rx="11" ry="11" fill="none" style="stroke:#222222;stroke-width:1;"/><ellipse cx="330.998" cy="695.7139" rx="6" ry="6" fill="#222222" style="stroke:#222222;stroke-width:1;"/><rect x="595.8691" y="272.9326" width="247.0801" height="33.9688" fill="#F7F4EB" style="stroke:#022C22;stroke-width:0.5;" rx="12.5" ry="12.5"/><text x="605.8691" y="294.0713" fill="#022C22" font-size="12" lengthAdjust="spacing" textLength="227.0801" font-family="'Plus Jakarta Sans'">Menekan tombol "Tolak Pembayaran"</text><rect x="538.7813" y="326.9014" width="361.2559" height="33.9688" fill="#F7F4EB" style="stroke:#022C22;stroke-width:0.5;" rx="12.5" ry="12.5"/><text x="548.7813" y="348.04" fill="#022C22" font-size="12" lengthAdjust="spacing" textLength="341.2559" font-family="'Plus Jakarta Sans'">Menginputkan alasan penolakan wajib (*rejection_note*)</text><rect x="621.1494" y="380.8701" width="196.5195" height="33.9688" fill="#F7F4EB" style="stroke:#022C22;stroke-width:0.5;" rx="12.5" ry="12.5"/><text x="631.1494" y="402.0088" fill="#022C22" font-size="12" lengthAdjust="spacing" textLength="176.5195" font-family="'Plus Jakarta Sans'">Mengirimkan form penolakan</text><polygon points="440.2241,891.6201,452.2241,903.6201,440.2241,915.6201,428.2241,903.6201,440.2241,891.6201" fill="#F7F4EB" style="stroke:#022C22;stroke-width:0.5;stroke-linejoin:miter;stroke-miterlimit:10;"/><rect x="240.811" y="989.5889" width="398.8262" height="33.9688" fill="#F7F4EB" style="stroke:#022C22;stroke-width:0.5;" rx="12.5" ry="12.5"/><text x="250.811" y="1010.7275" fill="#022C22" font-size="12" lengthAdjust="spacing" textLength="378.8262" font-family="'Plus Jakarta Sans'">Melihat status transaksi terbaru merefleksikan hasil keputusan</text><ellipse cx="440.2241" cy="1054.5576" rx="11" ry="11" fill="none" style="stroke:#222222;stroke-width:1;"/><ellipse cx="440.2241" cy="1054.5576" rx="6" ry="6" fill="#222222" style="stroke:#222222;stroke-width:1;"/><line x1="20" y1="55.042" x2="20" y2="1065.5576" style="stroke:#000000;stroke-width:1.5;"/><rect x="1182.9717" y="326.9014" width="196.9531" height="33.9688" fill="#F7F4EB" style="stroke:#022C22;stroke-width:0.5;" rx="12.5" ry="12.5"/><text x="1192.9717" y="348.04" fill="#022C22" font-size="12" lengthAdjust="spacing" textLength="176.9531" font-family="'Plus Jakarta Sans'">Membuka transaksi database</text><rect x="1125.1982" y="380.8701" width="312.5" height="33.9688" fill="#F7F4EB" style="stroke:#022C22;stroke-width:0.5;" rx="12.5" ry="12.5"/><text x="1135.1982" y="402.0088" fill="#022C22" font-size="12" lengthAdjust="spacing" textLength="292.5" font-family="'Plus Jakarta Sans'">Mengunci baris produk terkait (`lockForUpdate`)</text><rect x="1160.1289" y="434.8389" width="242.6387" height="33.9688" fill="#F7F4EB" style="stroke:#022C22;stroke-width:0.5;" rx="12.5" ry="12.5"/><text x="1170.1289" y="455.9775" fill="#022C22" font-size="12" lengthAdjust="spacing" textLength="222.6387" font-family="'Plus Jakarta Sans'">Memeriksa ketersediaan stok produk</text><polygon points="1234.1558,488.8076,1328.7407,488.8076,1340.7407,500.8076,1328.7407,512.8076,1234.1558,512.8076,1222.1558,500.8076,1234.1558,488.8076" fill="#F7F4EB" style="stroke:#022C22;stroke-width:0.5;stroke-linejoin:miter;stroke-miterlimit:10;"/><text x="1234.1558" y="504.6157" fill="#022C22" font-size="11" lengthAdjust="spacing" textLength="94.585" font-family="'Plus Jakarta Sans'">Stok mencukupi?</text><text x="1208.6958" y="498.2134" fill="#000000" font-size="11" lengthAdjust="spacing" textLength="13.46" font-family="'Plus Jakarta Sans'">Ya</text><text x="1340.7407" y="498.2134" fill="#000000" font-size="11" lengthAdjust="spacing" textLength="29.8687" font-family="'Plus Jakarta Sans'">Tidak</text><rect x="919.4736" y="532.8076" width="384.0313" height="33.9688" fill="#F7F4EB" style="stroke:#022C22;stroke-width:0.5;" rx="12.5" ry="12.5"/><text x="929.4736" y="553.9463" fill="#022C22" font-size="12" lengthAdjust="spacing" textLength="364.0313" font-family="'Plus Jakarta Sans'">Mengurangi stok produk di tabel `products` secara otomatis</text><rect x="910.0371" y="601.7764" width="402.9043" height="33.9688" fill="#F7F4EB" style="stroke:#022C22;stroke-width:0.5;" rx="12.5" ry="12.5"/><text x="920.0371" y="622.915" fill="#022C22" font-size="12" lengthAdjust="spacing" textLength="382.9043" font-family="'Plus Jakarta Sans'">Mencatat log mutasi keluar (`out`) di tabel `stock_movements`</text><rect x="939.2725" y="670.7451" width="344.4336" height="33.9688" fill="#F7F4EB" style="stroke:#022C22;stroke-width:0.5;" rx="12.5" ry="12.5"/><text x="949.2725" y="691.8838" fill="#022C22" font-size="12" lengthAdjust="spacing" textLength="324.4336" font-family="'Plus Jakarta Sans'">Memperbarui status di `payments` menjadi `verified`</text><rect x="959.5898" y="739.7139" width="303.7988" height="33.9688" fill="#F7F4EB" style="stroke:#022C22;stroke-width:0.5;" rx="12.5" ry="12.5"/><text x="969.5898" y="760.8525" fill="#022C22" font-size="12" lengthAdjust="spacing" textLength="283.7988" font-family="'Plus Jakarta Sans'">Memperbarui status di `orders` menjadi `paid`</text><rect x="968.2676" y="793.6826" width="286.4434" height="33.9688" fill="#F7F4EB" style="stroke:#022C22;stroke-width:0.5;" rx="12.5" ry="12.5"/><text x="978.2676" y="814.8213" fill="#022C22" font-size="12" lengthAdjust="spacing" textLength="266.4434" font-family="'Plus Jakarta Sans'">Mencatat transisi di `order_status_histories`</text><rect x="1040.0918" y="847.6514" width="142.7949" height="33.9688" fill="#F7F4EB" style="stroke:#022C22;stroke-width:0.5;" rx="12.5" ry="12.5"/><text x="1050.0918" y="868.79" fill="#022C22" font-size="12" lengthAdjust="spacing" textLength="122.7949" font-family="'Plus Jakarta Sans'">Komitmen Transaksi</text><rect x="1332.9414" y="532.8076" width="236.9316" height="47.9375" fill="#F7F4EB" style="stroke:#022C22;stroke-width:0.5;" rx="12.5" ry="12.5"/><text x="1342.9414" y="553.9463" fill="#022C22" font-size="12" lengthAdjust="spacing" textLength="216.9316" font-family="'Plus Jakarta Sans'">Membatalkan transaksi (*rollback*);</text><text x="1342.9414" y="567.915" fill="#022C22" font-size="12" lengthAdjust="spacing" textLength="211.9805" font-family="'Plus Jakarta Sans'">Mengirim respon error "Stok habis"</text><rect x="1741.3418" y="434.8389" width="196.9531" height="33.9688" fill="#F7F4EB" style="stroke:#022C22;stroke-width:0.5;" rx="12.5" ry="12.5"/><text x="1751.3418" y="455.9775" fill="#022C22" font-size="12" lengthAdjust="spacing" textLength="176.9531" font-family="'Plus Jakarta Sans'">Membuka transaksi database</text><rect x="1599.873" y="488.8076" width="479.8906" height="33.9688" fill="#F7F4EB" style="stroke:#022C22;stroke-width:0.5;" rx="12.5" ry="12.5"/><text x="1609.873" y="509.9463" fill="#022C22" font-size="12" lengthAdjust="spacing" textLength="459.8906" font-family="'Plus Jakarta Sans'">Memperbarui status di `payments` menjadi `rejected` &amp; menyimpan alasan</text><rect x="1604.584" y="557.7764" width="470.4688" height="33.9688" fill="#F7F4EB" style="stroke:#022C22;stroke-width:0.5;" rx="12.5" ry="12.5"/><text x="1614.584" y="578.915" fill="#022C22" font-size="12" lengthAdjust="spacing" textLength="450.4688" font-family="'Plus Jakarta Sans'">Memperbarui status di `orders` menjadi `rejected` (menunggu bukti baru)</text><rect x="1696.5967" y="626.7451" width="286.4434" height="33.9688" fill="#F7F4EB" style="stroke:#022C22;stroke-width:0.5;" rx="12.5" ry="12.5"/><text x="1706.5967" y="647.8838" fill="#022C22" font-size="12" lengthAdjust="spacing" textLength="266.4434" font-family="'Plus Jakarta Sans'">Mencatat transisi di `order_status_histories`</text><rect x="1768.4209" y="695.7139" width="142.7949" height="33.9688" fill="#F7F4EB" style="stroke:#022C22;stroke-width:0.5;" rx="12.5" ry="12.5"/><text x="1778.4209" y="716.8525" fill="#022C22" font-size="12" lengthAdjust="spacing" textLength="122.7949" font-family="'Plus Jakarta Sans'">Komitmen Transaksi</text><rect x="1435.4966" y="935.6201" width="250.2734" height="33.9688" fill="#F7F4EB" style="stroke:#022C22;stroke-width:0.5;" rx="12.5" ry="12.5"/><text x="1445.4966" y="956.7588" fill="#022C22" font-size="12" lengthAdjust="spacing" textLength="230.2734" font-family="'Plus Jakarta Sans'">Menyegarkan halaman detail pesanan</text><line x1="904.0371" y1="55.042" x2="904.0371" y2="1065.5576" style="stroke:#000000;stroke-width:1.5;"/><line x1="2083.7637" y1="55.042" x2="2083.7637" y2="1065.5576" style="stroke:#000000;stroke-width:1.5;"/><line x1="440.2241" y1="100.9951" x2="440.2241" y2="120.9951" style="stroke:#10B981;stroke-width:1;"/><polygon points="436.2241,110.9951,444.2241,110.9951,440.2241,120.9951" fill="#10B981" style="stroke:#10B981;stroke-width:1;stroke-linejoin:miter;stroke-miterlimit:10;"/><line x1="440.2241" y1="154.9639" x2="440.2241" y2="174.9639" style="stroke:#10B981;stroke-width:1;"/><polygon points="436.2241,164.9639,444.2241,164.9639,440.2241,174.9639" fill="#10B981" style="stroke:#10B981;stroke-width:1;stroke-linejoin:miter;stroke-miterlimit:10;"/><line x1="330.998" y1="649.7139" x2="330.998" y2="684.7139" style="stroke:#10B981;stroke-width:1;"/><polygon points="326.998,674.7139,334.998,674.7139,330.998,684.7139" fill="#10B981" style="stroke:#10B981;stroke-width:1;stroke-linejoin:miter;stroke-miterlimit:10;"/><line x1="719.4092" y1="306.9014" x2="719.4092" y2="326.9014" style="stroke:#10B981;stroke-width:1;"/><polygon points="715.4092,316.9014,723.4092,316.9014,719.4092,326.9014" fill="#10B981" style="stroke:#10B981;stroke-width:1;stroke-linejoin:miter;stroke-miterlimit:10;"/><line x1="719.4092" y1="360.8701" x2="719.4092" y2="380.8701" style="stroke:#10B981;stroke-width:1;"/><polygon points="715.4092,370.8701,723.4092,370.8701,719.4092,380.8701" fill="#10B981" style="stroke:#10B981;stroke-width:1;stroke-linejoin:miter;stroke-miterlimit:10;"/><line x1="353.1335" y1="240.9326" x2="161.0391" y2="240.9326" style="stroke:#10B981;stroke-width:1;"/><line x1="161.0391" y1="240.9326" x2="161.0391" y2="272.9326" style="stroke:#10B981;stroke-width:1;"/><polygon points="157.0391,262.9326,165.0391,262.9326,161.0391,272.9326" fill="#10B981" style="stroke:#10B981;stroke-width:1;stroke-linejoin:miter;stroke-miterlimit:10;"/><line x1="527.3147" y1="240.9326" x2="719.4092" y2="240.9326" style="stroke:#10B981;stroke-width:1;"/><line x1="719.4092" y1="240.9326" x2="719.4092" y2="272.9326" style="stroke:#10B981;stroke-width:1;"/><polygon points="715.4092,262.9326,723.4092,262.9326,719.4092,272.9326" fill="#10B981" style="stroke:#10B981;stroke-width:1;stroke-linejoin:miter;stroke-miterlimit:10;"/><line x1="440.2241" y1="208.9326" x2="440.2241" y2="228.9326" style="stroke:#10B981;stroke-width:1;"/><polygon points="436.2241,218.9326,444.2241,218.9326,440.2241,228.9326" fill="#10B981" style="stroke:#10B981;stroke-width:1;stroke-linejoin:miter;stroke-miterlimit:10;"/><line x1="440.2241" y1="1023.5576" x2="440.2241" y2="1043.5576" style="stroke:#10B981;stroke-width:1;"/><polygon points="436.2241,1033.5576,444.2241,1033.5576,440.2241,1043.5576" fill="#10B981" style="stroke:#10B981;stroke-width:1;stroke-linejoin:miter;stroke-miterlimit:10;"/><line x1="1281.4482" y1="360.8701" x2="1281.4482" y2="380.8701" style="stroke:#10B981;stroke-width:1;"/><polygon points="1277.4482,370.8701,1285.4482,370.8701,1281.4482,380.8701" fill="#10B981" style="stroke:#10B981;stroke-width:1;stroke-linejoin:miter;stroke-miterlimit:10;"/><line x1="1281.4482" y1="414.8389" x2="1281.4482" y2="434.8389" style="stroke:#10B981;stroke-width:1;"/><polygon points="1277.4482,424.8389,1285.4482,424.8389,1281.4482,434.8389" fill="#10B981" style="stroke:#10B981;stroke-width:1;stroke-linejoin:miter;stroke-miterlimit:10;"/><line x1="1111.4893" y1="566.7764" x2="1111.4893" y2="601.7764" style="stroke:#10B981;stroke-width:1;"/><polygon points="1107.4893,591.7764,1115.4893,591.7764,1111.4893,601.7764" fill="#10B981" style="stroke:#10B981;stroke-width:1;stroke-linejoin:miter;stroke-miterlimit:10;"/><line x1="1111.4893" y1="635.7451" x2="1111.4893" y2="670.7451" style="stroke:#10B981;stroke-width:1;"/><polygon points="1107.4893,660.7451,1115.4893,660.7451,1111.4893,670.7451" fill="#10B981" style="stroke:#10B981;stroke-width:1;stroke-linejoin:miter;stroke-miterlimit:10;"/><line x1="1111.4893" y1="704.7139" x2="1111.4893" y2="739.7139" style="stroke:#10B981;stroke-width:1;"/><polygon points="1107.4893,729.7139,1115.4893,729.7139,1111.4893,739.7139" fill="#10B981" style="stroke:#10B981;stroke-width:1;stroke-linejoin:miter;stroke-miterlimit:10;"/><line x1="1111.4893" y1="773.6826" x2="1111.4893" y2="793.6826" style="stroke:#10B981;stroke-width:1;"/><polygon points="1107.4893,783.6826,1115.4893,783.6826,1111.4893,793.6826" fill="#10B981" style="stroke:#10B981;stroke-width:1;stroke-linejoin:miter;stroke-miterlimit:10;"/><line x1="1111.4893" y1="827.6514" x2="1111.4893" y2="847.6514" style="stroke:#10B981;stroke-width:1;"/><polygon points="1107.4893,837.6514,1115.4893,837.6514,1111.4893,847.6514" fill="#10B981" style="stroke:#10B981;stroke-width:1;stroke-linejoin:miter;stroke-miterlimit:10;"/><line x1="1222.1558" y1="500.8076" x2="1111.4893" y2="500.8076" style="stroke:#10B981;stroke-width:1;"/><line x1="1111.4893" y1="500.8076" x2="1111.4893" y2="532.8076" style="stroke:#10B981;stroke-width:1;"/><polygon points="1107.4893,522.8076,1115.4893,522.8076,1111.4893,532.8076" fill="#10B981" style="stroke:#10B981;stroke-width:1;stroke-linejoin:miter;stroke-miterlimit:10;"/><line x1="1340.7407" y1="500.8076" x2="1451.4072" y2="500.8076" style="stroke:#10B981;stroke-width:1;"/><line x1="1451.4072" y1="500.8076" x2="1451.4072" y2="532.8076" style="stroke:#10B981;stroke-width:1;"/><polygon points="1447.4072,522.8076,1455.4072,522.8076,1451.4072,532.8076" fill="#10B981" style="stroke:#10B981;stroke-width:1;stroke-linejoin:miter;stroke-miterlimit:10;"/><line x1="1111.4893" y1="881.6201" x2="1111.4893" y2="886.6201" style="stroke:#10B981;stroke-width:1;"/><line x1="1111.4893" y1="886.6201" x2="410.2241" y2="886.6201" style="stroke:#10B981;stroke-width:1;"/><line x1="410.2241" y1="886.6201" x2="410.2241" y2="903.6201" style="stroke:#10B981;stroke-width:1;"/><line x1="410.2241" y1="903.6201" x2="428.2241" y2="903.6201" style="stroke:#10B981;stroke-width:1;"/><polygon points="418.2241,899.6201,428.2241,903.6201,418.2241,907.6201" fill="#10B981" style="stroke:#10B981;stroke-width:1;stroke-linejoin:miter;stroke-miterlimit:10;"/><line x1="1281.4482" y1="468.8076" x2="1281.4482" y2="488.8076" style="stroke:#10B981;stroke-width:1;"/><polygon points="1277.4482,478.8076,1285.4482,478.8076,1281.4482,488.8076" fill="#10B981" style="stroke:#10B981;stroke-width:1;stroke-linejoin:miter;stroke-miterlimit:10;"/><line x1="1839.8184" y1="468.8076" x2="1839.8184" y2="488.8076" style="stroke:#10B981;stroke-width:1;"/><polygon points="1835.8184,478.8076,1843.8184,478.8076,1839.8184,488.8076" fill="#10B981" style="stroke:#10B981;stroke-width:1;stroke-linejoin:miter;stroke-miterlimit:10;"/><line x1="1839.8184" y1="522.7764" x2="1839.8184" y2="557.7764" style="stroke:#10B981;stroke-width:1;"/><polygon points="1835.8184,547.7764,1843.8184,547.7764,1839.8184,557.7764" fill="#10B981" style="stroke:#10B981;stroke-width:1;stroke-linejoin:miter;stroke-miterlimit:10;"/><line x1="1839.8184" y1="591.7451" x2="1839.8184" y2="626.7451" style="stroke:#10B981;stroke-width:1;"/><polygon points="1835.8184,616.7451,1843.8184,616.7451,1839.8184,626.7451" fill="#10B981" style="stroke:#10B981;stroke-width:1;stroke-linejoin:miter;stroke-miterlimit:10;"/><line x1="1839.8184" y1="660.7139" x2="1839.8184" y2="695.7139" style="stroke:#10B981;stroke-width:1;"/><polygon points="1835.8184,685.7139,1843.8184,685.7139,1839.8184,695.7139" fill="#10B981" style="stroke:#10B981;stroke-width:1;stroke-linejoin:miter;stroke-miterlimit:10;"/><line x1="161.0391" y1="306.9014" x2="161.0391" y2="311.9014" style="stroke:#10B981;stroke-width:1;"/><line x1="161.0391" y1="311.9014" x2="1281.4482" y2="311.9014" style="stroke:#10B981;stroke-width:1;"/><line x1="1281.4482" y1="311.9014" x2="1281.4482" y2="326.9014" style="stroke:#10B981;stroke-width:1;"/><polygon points="1277.4482,316.9014,1285.4482,316.9014,1281.4482,326.9014" fill="#10B981" style="stroke:#10B981;stroke-width:1;stroke-linejoin:miter;stroke-miterlimit:10;"/><line x1="1451.4072" y1="580.7451" x2="1451.4072" y2="598.2451" style="stroke:#10B981;stroke-width:1;"/><line x1="1451.4072" y1="598.2451" x2="330.998" y2="598.2451" style="stroke:#10B981;stroke-width:1;"/><line x1="330.998" y1="598.2451" x2="330.998" y2="615.7451" style="stroke:#10B981;stroke-width:1;"/><polygon points="326.998,605.7451,334.998,605.7451,330.998,615.7451" fill="#10B981" style="stroke:#10B981;stroke-width:1;stroke-linejoin:miter;stroke-miterlimit:10;"/><line x1="719.4092" y1="414.8389" x2="719.4092" y2="419.8389" style="stroke:#10B981;stroke-width:1;"/><line x1="719.4092" y1="419.8389" x2="1839.8184" y2="419.8389" style="stroke:#10B981;stroke-width:1;"/><line x1="1839.8184" y1="419.8389" x2="1839.8184" y2="434.8389" style="stroke:#10B981;stroke-width:1;"/><polygon points="1835.8184,424.8389,1843.8184,424.8389,1839.8184,434.8389" fill="#10B981" style="stroke:#10B981;stroke-width:1;stroke-linejoin:miter;stroke-miterlimit:10;"/><line x1="1839.8184" y1="729.6826" x2="1839.8184" y2="903.6201" style="stroke:#10B981;stroke-width:1;"/><line x1="1839.8184" y1="903.6201" x2="452.2241" y2="903.6201" style="stroke:#10B981;stroke-width:1;"/><polygon points="462.2241,899.6201,452.2241,903.6201,462.2241,907.6201" fill="#10B981" style="stroke:#10B981;stroke-width:1;stroke-linejoin:miter;stroke-miterlimit:10;"/><line x1="440.2241" y1="915.6201" x2="440.2241" y2="920.6201" style="stroke:#10B981;stroke-width:1;"/><line x1="440.2241" y1="920.6201" x2="1560.6333" y2="920.6201" style="stroke:#10B981;stroke-width:1;"/><line x1="1560.6333" y1="920.6201" x2="1560.6333" y2="935.6201" style="stroke:#10B981;stroke-width:1;"/><polygon points="1556.6333,925.6201,1564.6333,925.6201,1560.6333,935.6201" fill="#10B981" style="stroke:#10B981;stroke-width:1;stroke-linejoin:miter;stroke-miterlimit:10;"/><line x1="1560.6333" y1="969.5889" x2="1560.6333" y2="974.5889" style="stroke:#10B981;stroke-width:1;"/><line x1="1560.6333" y1="974.5889" x2="440.2241" y2="974.5889" style="stroke:#10B981;stroke-width:1;"/><line x1="440.2241" y1="974.5889" x2="440.2241" y2="989.5889" style="stroke:#10B981;stroke-width:1;"/><polygon points="436.2241,979.5889,444.2241,979.5889,440.2241,989.5889" fill="#10B981" style="stroke:#10B981;stroke-width:1;stroke-linejoin:miter;stroke-miterlimit:10;"/><text x="384.1387" y="71.75" fill="#000000" font-size="18" lengthAdjust="spacing" textLength="155.7598" font-family="'Plus Jakarta Sans'">Operator / Admin</text><text x="1378.5088" y="71.75" fill="#000000" font-size="18" lengthAdjust="spacing" textLength="230.7832" font-family="'Plus Jakarta Sans'">Sistem (Laravel Backend)</text><?plantuml-src hLHTQnjN47tVNp6eK2H3syG4aaOFnKwiXpOV1hc5GC4QxOvMu_krt0y5WNzyvkwkLkjQTbFeFadtdZbppipS2OfjWnuDBEDU4uJekOp9w28CD-zfWqd7XRFn4ng2oRLE0Nv7XJuYBD66oGXzKKRUSTnVOgbgxvAjtZdjFFomUBruTNLv2kbyHRv7lJW_VtT-VWALqp-9yTvzxIzVlhZyzStBqUKoYiwdBgy6ULUBL_ADRJCQPwj_zt40FckZ1prsKKIEKlWtFsT8tRfHhMCCKlc8hE4d-8iyRrXXOC282Qx9EYqDiFBBh74lAMnHt7zko6CKyb_WeZ9ixukGpHTlFmegAOGjQZGIrHDVKq0hVok6znYsQuU-chTeoQS2Wg908I4BfaP9v45e8aEKV6537YgojLoQ5BCsJueisnhMQDMyA7W3quj6T6wX6NJ23ZLNlyqWRid2z0kAloN5T9TuLe1yajzIzXQTMJiDav7xezt9l0NVBpb4CZ3z88Sxqf3xHRQQtH-uEkUjObH2KKa5rnXeFYIhaorPD7iEq7XN9GMHl4AEC5rfLwg5ytys4aUhsH1rB95W0rMCeZX4ftgA3fWhiCo7XcoPL6fuPBopUrGX4ciUS-J6Y5XnjMeFoXXM4AWKg-2aEXWvp1-Gb68kWdRreIMAT9AsJLSknTLiH2XfIdLht4wSME5zm6DaaAGUAQl1AAzTubODxZjeDdE7-MZNTeQgxuXkNySuja7-HrollcqLvquTmcuxdjkjzDfvfWTg_t26ex32pQ75tINfG32zuGhLWqBB04NKxNmDCp4zyqxhjOpEsMp-jytTOCz61ZeqpWB9Vl4mQHkvnJM7oJ7_YKStIgPvAuwQ_Cvwbjqmp4SESTLqcct5csAaNDx6JNxfdOCdSZrwC6t8uxVIJfaif1GpM5P1LjKCg-Ghtl4wbuBkI9QkixVMHJgRZOEbA1cwSTuS8_-tb_YzOzSfbB637_FXdaqp67gUxD4K7gccSfPiNQT-n-NOaVV_EfidvxBhR_5CgNAgFTNeSvaFwxhgrdNJhUlvgKK_p5flzbZbs9L1B7lQQ9AZZZe8eo8PXjHMBS_WDm00?></g></svg>