<svg xmlns="http://www.w3.org/2000/svg" xmlns:xlink="http://www.w3.org/1999/xlink" version="1.1" data-diagram-type="ACTIVITY" style="width:839px;height:1544px;background:#FFFFFF;" width="839px" height="1544px" viewBox="0 0 839 1544" zoomAndPan="magnify" preserveAspectRatio="none" contentStyleType="text/css"><?plantuml 1.2026.7beta3?><defs/><g><g class="title" data-source-line="13"><text x="166.5702" y="32.9951" fill="#000000" font-size="14" lengthAdjust="spacing" textLength="504.6973" font-weight="700" font-family="'Plus Jakarta Sans'">4. Diagram Aktivitas Detail - Memasukkan Produk Ke Keranjang</text></g><rect x="20" y="55.042" width="792.8376" height="20.9531" fill="none" style="stroke:none;stroke-width:1;"/><ellipse cx="304.6587" cy="90.9951" rx="10" ry="10" fill="#222222" style="stroke:#222222;stroke-width:1;"/><rect x="194.7974" y="120.9951" width="219.7227" height="33.9688" fill="#F7F4EB" style="stroke:#022C22;stroke-width:0.5;" rx="12.5" ry="12.5"/><text x="204.7974" y="142.1338" fill="#022C22" font-size="12" lengthAdjust="spacing" textLength="199.7227" font-family="'Plus Jakarta Sans'">Membuka halaman Detail Produk</text><rect x="176.6069" y="174.9639" width="256.1035" height="33.9688" fill="#F7F4EB" style="stroke:#022C22;stroke-width:0.5;" rx="12.5" ry="12.5"/><text x="186.6069" y="196.1025" fill="#022C22" font-size="12" lengthAdjust="spacing" textLength="236.1035" font-family="'Plus Jakarta Sans'">Menentukan jumlah (*quantity*) bunga</text><rect x="164.8149" y="228.9326" width="279.6875" height="33.9688" fill="#F7F4EB" style="stroke:#022C22;stroke-width:0.5;" rx="12.5" ry="12.5"/><text x="174.8149" y="250.0713" fill="#022C22" font-size="12" lengthAdjust="spacing" textLength="259.6875" font-family="'Plus Jakarta Sans'">Menekan tombol "Masukkan Ke Keranjang"</text><rect x="245.6919" y="385.2725" width="117.9336" height="33.9688" fill="#F7F4EB" style="stroke:#022C22;stroke-width:0.5;" rx="12.5" ry="12.5"/><text x="255.6919" y="406.4111" fill="#022C22" font-size="12" lengthAdjust="spacing" textLength="97.9336" font-family="'Plus Jakarta Sans'">Melakukan login</text><ellipse cx="304.6587" cy="450.2412" rx="11" ry="11" fill="none" style="stroke:#222222;stroke-width:1;"/><ellipse cx="304.6587" cy="450.2412" rx="6" ry="6" fill="#222222" style="stroke:#222222;stroke-width:1;"/><rect x="212.8442" y="503.2412" width="183.6289" height="33.9688" fill="#F7F4EB" style="stroke:#022C22;stroke-width:0.5;" rx="12.5" ry="12.5"/><text x="222.8442" y="524.3799" fill="#022C22" font-size="12" lengthAdjust="spacing" textLength="163.6289" font-family="'Plus Jakarta Sans'">Memvalidasi input quantity</text><rect x="144.814" y="557.21" width="319.6895" height="33.9688" fill="#F7F4EB" style="stroke:#022C22;stroke-width:0.5;" rx="12.5" ry="12.5"/><text x="154.814" y="578.3486" fill="#022C22" font-size="12" lengthAdjust="spacing" textLength="299.6895" font-family="'Plus Jakarta Sans'">Mengambil data stok produk aktual dari database</text><rect x="163.2153" y="659.5811" width="282.8867" height="47.9375" fill="#F7F4EB" style="stroke:#022C22;stroke-width:0.5;" rx="12.5" ry="12.5"/><text x="173.2153" y="680.7197" fill="#022C22" font-size="12" lengthAdjust="spacing" textLength="262.8867" font-family="'Plus Jakarta Sans'">Mengembalikan respon dengan pesan error</text><text x="173.2153" y="694.6885" fill="#022C22" font-size="12" lengthAdjust="spacing" textLength="141.627" font-family="'Plus Jakarta Sans'">"Stok tidak mencukupi"</text><rect x="168.7085" y="727.5186" width="271.9004" height="33.9688" fill="#F7F4EB" style="stroke:#022C22;stroke-width:0.5;" rx="12.5" ry="12.5"/><text x="178.7085" y="748.6572" fill="#022C22" font-size="12" lengthAdjust="spacing" textLength="251.9004" font-family="'Plus Jakarta Sans'">Melihat pesan error &amp; mengurangi jumlah</text><ellipse cx="304.6587" cy="792.4873" rx="11" ry="11" fill="none" style="stroke:#222222;stroke-width:1;"/><ellipse cx="304.6587" cy="792.4873" rx="6" ry="6" fill="#222222" style="stroke:#222222;stroke-width:1;"/><polygon points="232.1113,611.1787,377.2061,611.1787,389.2061,623.1787,377.2061,635.1787,232.1113,635.1787,220.1113,623.1787,232.1113,611.1787" fill="#F7F4EB" style="stroke:#022C22;stroke-width:0.5;stroke-linejoin:miter;stroke-miterlimit:10;"/><text x="308.6587" y="645.3892" fill="#000000" font-size="11" lengthAdjust="spacing" textLength="29.8687" font-family="'Plus Jakarta Sans'">Tidak</text><text x="232.1113" y="626.9868" fill="#022C22" font-size="11" lengthAdjust="spacing" textLength="145.0947" font-family="'Plus Jakarta Sans'">Apakah quantity &lt;= stok?</text><text x="389.2061" y="620.5845" fill="#000000" font-size="11" lengthAdjust="spacing" textLength="13.46" font-family="'Plus Jakarta Sans'">Ya</text><rect x="206.1821" y="845.4873" width="196.9531" height="33.9688" fill="#F7F4EB" style="stroke:#022C22;stroke-width:0.5;" rx="12.5" ry="12.5"/><text x="216.1821" y="866.626" fill="#022C22" font-size="12" lengthAdjust="spacing" textLength="176.9531" font-family="'Plus Jakarta Sans'">Membuka transaksi database</text><rect x="175.3765" y="899.4561" width="258.5645" height="33.9688" fill="#F7F4EB" style="stroke:#022C22;stroke-width:0.5;" rx="12.5" ry="12.5"/><text x="185.3765" y="920.5947" fill="#022C22" font-size="12" lengthAdjust="spacing" textLength="238.5645" font-family="'Plus Jakarta Sans'">Mencari keranjang aktif milik pengguna</text><rect x="191.1587" y="1001.8271" width="227" height="33.9688" fill="#F7F4EB" style="stroke:#022C22;stroke-width:0.5;" rx="12.5" ry="12.5"/><text x="201.1587" y="1022.9658" fill="#022C22" font-size="12" lengthAdjust="spacing" textLength="207" font-family="'Plus Jakarta Sans'">Membuat keranjang baru (`carts`)</text><polygon points="221.3369,953.4248,387.9805,953.4248,399.9805,965.4248,387.9805,977.4248,221.3369,977.4248,209.3369,965.4248,221.3369,953.4248" fill="#F7F4EB" style="stroke:#022C22;stroke-width:0.5;stroke-linejoin:miter;stroke-miterlimit:10;"/><text x="308.6587" y="987.6353" fill="#000000" font-size="11" lengthAdjust="spacing" textLength="29.8687" font-family="'Plus Jakarta Sans'">Tidak</text><text x="221.3369" y="969.2329" fill="#022C22" font-size="11" lengthAdjust="spacing" textLength="166.6436" font-family="'Plus Jakarta Sans'">Apakah keranjang sudah ada?</text><text x="399.9805" y="962.8306" fill="#000000" font-size="11" lengthAdjust="spacing" textLength="13.46" font-family="'Plus Jakarta Sans'">Ya</text><polygon points="304.6587,1055.7959,316.6587,1067.7959,304.6587,1079.7959,292.6587,1067.7959,304.6587,1055.7959" fill="#F7F4EB" style="stroke:#022C22;stroke-width:0.5;stroke-linejoin:miter;stroke-miterlimit:10;"/><rect x="142.3296" y="1099.7959" width="324.6582" height="33.9688" fill="#F7F4EB" style="stroke:#022C22;stroke-width:0.5;" rx="12.5" ry="12.5"/><text x="152.3296" y="1120.9346" fill="#022C22" font-size="12" lengthAdjust="spacing" textLength="304.6582" font-family="'Plus Jakarta Sans'">Memeriksa apakah produk sudah ada di keranjang</text><polygon points="236.0618,1153.7646,373.2556,1153.7646,385.2556,1165.7646,373.2556,1177.7646,236.0618,1177.7646,224.0618,1165.7646,236.0618,1153.7646" fill="#F7F4EB" style="stroke:#022C22;stroke-width:0.5;stroke-linejoin:miter;stroke-miterlimit:10;"/><text x="236.0618" y="1169.5728" fill="#022C22" font-size="11" lengthAdjust="spacing" textLength="137.1938" font-family="'Plus Jakarta Sans'">Apakah produk duplikat?</text><text x="210.6018" y="1163.1704" fill="#000000" font-size="11" lengthAdjust="spacing" textLength="13.46" font-family="'Plus Jakarta Sans'">Ya</text><text x="385.2556" y="1163.1704" fill="#000000" font-size="11" lengthAdjust="spacing" textLength="29.8687" font-family="'Plus Jakarta Sans'">Tidak</text><rect x="26" y="1187.7646" width="279.9219" height="47.9375" fill="#F7F4EB" style="stroke:#022C22;stroke-width:0.5;" rx="12.5" ry="12.5"/><text x="36" y="1208.9033" fill="#022C22" font-size="12" lengthAdjust="spacing" textLength="259.9219" font-family="'Plus Jakarta Sans'">Menjumlahkan quantity lama dengan baru;</text><text x="36" y="1222.8721" fill="#022C22" font-size="12" lengthAdjust="spacing" textLength="155.4844" font-family="'Plus Jakarta Sans'">Menghitung subtotal baru</text><rect x="59.8232" y="1255.7021" width="212.2754" height="33.9688" fill="#F7F4EB" style="stroke:#022C22;stroke-width:0.5;" rx="12.5" ry="12.5"/><text x="69.8232" y="1276.8408" fill="#022C22" font-size="12" lengthAdjust="spacing" textLength="192.2754" font-family="'Plus Jakarta Sans'">Memperbarui baris `cart_items`</text><rect x="325.9219" y="1187.7646" width="234.8691" height="33.9688" fill="#F7F4EB" style="stroke:#022C22;stroke-width:0.5;" rx="12.5" ry="12.5"/><text x="335.9219" y="1208.9033" fill="#022C22" font-size="12" lengthAdjust="spacing" textLength="214.8691" font-family="'Plus Jakarta Sans'">Membuat baris baru di `cart_items`</text><polygon points="304.6587,1295.6709,316.6587,1307.6709,304.6587,1319.6709,292.6587,1307.6709,304.6587,1295.6709" fill="#F7F4EB" style="stroke:#022C22;stroke-width:0.5;stroke-linejoin:miter;stroke-miterlimit:10;"/><rect x="233.2612" y="1339.6709" width="142.7949" height="33.9688" fill="#F7F4EB" style="stroke:#022C22;stroke-width:0.5;" rx="12.5" ry="12.5"/><text x="243.2612" y="1360.8096" fill="#022C22" font-size="12" lengthAdjust="spacing" textLength="122.7949" font-family="'Plus Jakarta Sans'">Komitmen Transaksi</text><rect x="150.3892" y="1393.6396" width="308.5391" height="33.9688" fill="#F7F4EB" style="stroke:#022C22;stroke-width:0.5;" rx="12.5" ry="12.5"/><text x="160.3892" y="1414.7783" fill="#022C22" font-size="12" lengthAdjust="spacing" textLength="288.5391" font-family="'Plus Jakarta Sans'">Mengarahkan pelanggan ke halaman Keranjang</text><rect x="166.5405" y="1447.6084" width="276.2363" height="33.9688" fill="#F7F4EB" style="stroke:#022C22;stroke-width:0.5;" rx="12.5" ry="12.5"/><text x="176.5405" y="1468.7471" fill="#022C22" font-size="12" lengthAdjust="spacing" textLength="256.2363" font-family="'Plus Jakarta Sans'">Melihat daftar barang belanjaan terupdate</text><ellipse cx="304.6587" cy="1512.5771" rx="11" ry="11" fill="none" style="stroke:#222222;stroke-width:1;"/><ellipse cx="304.6587" cy="1512.5771" rx="6" ry="6" fill="#222222" style="stroke:#222222;stroke-width:1;"/><line x1="20" y1="55.042" x2="20" y2="1523.5771" style="stroke:#000000;stroke-width:1.5;"/><rect x="574.8284" y="331.3037" width="207.1484" height="33.9688" fill="#F7F4EB" style="stroke:#022C22;stroke-width:0.5;" rx="12.5" ry="12.5"/><text x="584.8284" y="352.4424" fill="#022C22" font-size="12" lengthAdjust="spacing" textLength="187.1484" font-family="'Plus Jakarta Sans'">Mengalihkan ke halaman Login</text><polygon points="591.791,282.9014,765.0142,282.9014,777.0142,294.9014,765.0142,306.9014,591.791,306.9014,579.791,294.9014,591.791,282.9014" fill="#F7F4EB" style="stroke:#022C22;stroke-width:0.5;stroke-linejoin:miter;stroke-miterlimit:10;"/><text x="682.4026" y="317.1118" fill="#000000" font-size="11" lengthAdjust="spacing" textLength="29.8687" font-family="'Plus Jakarta Sans'">Tidak</text><text x="591.791" y="298.7095" fill="#022C22" font-size="11" lengthAdjust="spacing" textLength="173.2231" font-family="'Plus Jakarta Sans'">Apakah pengguna sudah login?</text><text x="777.0142" y="292.3071" fill="#000000" font-size="11" lengthAdjust="spacing" textLength="13.46" font-family="'Plus Jakarta Sans'">Ya</text><line x1="564.791" y1="55.042" x2="564.791" y2="1523.5771" style="stroke:#000000;stroke-width:1.5;"/><line x1="810.9768" y1="55.042" x2="810.9768" y2="1523.5771" style="stroke:#000000;stroke-width:1.5;"/><line x1="304.6587" y1="100.9951" x2="304.6587" y2="120.9951" style="stroke:#10B981;stroke-width:1;"/><polygon points="300.6587,110.9951,308.6587,110.9951,304.6587,120.9951" fill="#10B981" style="stroke:#10B981;stroke-width:1;stroke-linejoin:miter;stroke-miterlimit:10;"/><line x1="304.6587" y1="154.9639" x2="304.6587" y2="174.9639" style="stroke:#10B981;stroke-width:1;"/><polygon points="300.6587,164.9639,308.6587,164.9639,304.6587,174.9639" fill="#10B981" style="stroke:#10B981;stroke-width:1;stroke-linejoin:miter;stroke-miterlimit:10;"/><line x1="304.6587" y1="208.9326" x2="304.6587" y2="228.9326" style="stroke:#10B981;stroke-width:1;"/><polygon points="300.6587,218.9326,308.6587,218.9326,304.6587,228.9326" fill="#10B981" style="stroke:#10B981;stroke-width:1;stroke-linejoin:miter;stroke-miterlimit:10;"/><line x1="304.6587" y1="419.2412" x2="304.6587" y2="439.2412" style="stroke:#10B981;stroke-width:1;"/><polygon points="300.6587,429.2412,308.6587,429.2412,304.6587,439.2412" fill="#10B981" style="stroke:#10B981;stroke-width:1;stroke-linejoin:miter;stroke-miterlimit:10;"/><line x1="304.6587" y1="537.21" x2="304.6587" y2="557.21" style="stroke:#10B981;stroke-width:1;"/><polygon points="300.6587,547.21,308.6587,547.21,304.6587,557.21" fill="#10B981" style="stroke:#10B981;stroke-width:1;stroke-linejoin:miter;stroke-miterlimit:10;"/><line x1="304.6587" y1="707.5186" x2="304.6587" y2="727.5186" style="stroke:#10B981;stroke-width:1;"/><polygon points="300.6587,717.5186,308.6587,717.5186,304.6587,727.5186" fill="#10B981" style="stroke:#10B981;stroke-width:1;stroke-linejoin:miter;stroke-miterlimit:10;"/><line x1="304.6587" y1="761.4873" x2="304.6587" y2="781.4873" style="stroke:#10B981;stroke-width:1;"/><polygon points="300.6587,771.4873,308.6587,771.4873,304.6587,781.4873" fill="#10B981" style="stroke:#10B981;stroke-width:1;stroke-linejoin:miter;stroke-miterlimit:10;"/><line x1="304.6587" y1="635.1787" x2="304.6587" y2="659.5811" style="stroke:#10B981;stroke-width:1;"/><polygon points="300.6587,649.5811,308.6587,649.5811,304.6587,659.5811" fill="#10B981" style="stroke:#10B981;stroke-width:1;stroke-linejoin:miter;stroke-miterlimit:10;"/><line x1="389.2061" y1="623.1787" x2="456.1021" y2="623.1787" style="stroke:#10B981;stroke-width:1;"/><polygon points="452.1021,718.5342,460.1021,718.5342,456.1021,728.5342" fill="#10B981" style="stroke:#10B981;stroke-width:1;stroke-linejoin:miter;stroke-miterlimit:10;"/><line x1="456.1021" y1="623.1787" x2="456.1021" y2="825.4873" style="stroke:#10B981;stroke-width:1;"/><line x1="456.1021" y1="825.4873" x2="304.6587" y2="825.4873" style="stroke:#10B981;stroke-width:1;"/><line x1="304.6587" y1="825.4873" x2="304.6587" y2="845.4873" style="stroke:#10B981;stroke-width:1;"/><polygon points="300.6587,835.4873,308.6587,835.4873,304.6587,845.4873" fill="#10B981" style="stroke:#10B981;stroke-width:1;stroke-linejoin:miter;stroke-miterlimit:10;"/><line x1="304.6587" y1="591.1787" x2="304.6587" y2="611.1787" style="stroke:#10B981;stroke-width:1;"/><polygon points="300.6587,601.1787,308.6587,601.1787,304.6587,611.1787" fill="#10B981" style="stroke:#10B981;stroke-width:1;stroke-linejoin:miter;stroke-miterlimit:10;"/><line x1="304.6587" y1="879.4561" x2="304.6587" y2="899.4561" style="stroke:#10B981;stroke-width:1;"/><polygon points="300.6587,889.4561,308.6587,889.4561,304.6587,899.4561" fill="#10B981" style="stroke:#10B981;stroke-width:1;stroke-linejoin:miter;stroke-miterlimit:10;"/><line x1="304.6587" y1="977.4248" x2="304.6587" y2="1001.8271" style="stroke:#10B981;stroke-width:1;"/><polygon points="300.6587,991.8271,308.6587,991.8271,304.6587,1001.8271" fill="#10B981" style="stroke:#10B981;stroke-width:1;stroke-linejoin:miter;stroke-miterlimit:10;"/><line x1="399.9805" y1="965.4248" x2="428.1587" y2="965.4248" style="stroke:#10B981;stroke-width:1;"/><polygon points="424.1587,1008.8115,432.1587,1008.8115,428.1587,1018.8115" fill="#10B981" style="stroke:#10B981;stroke-width:1;stroke-linejoin:miter;stroke-miterlimit:10;"/><line x1="428.1587" y1="965.4248" x2="428.1587" y2="1067.7959" style="stroke:#10B981;stroke-width:1;"/><line x1="428.1587" y1="1067.7959" x2="316.6587" y2="1067.7959" style="stroke:#10B981;stroke-width:1;"/><polygon points="326.6587,1063.7959,316.6587,1067.7959,326.6587,1071.7959" fill="#10B981" style="stroke:#10B981;stroke-width:1;stroke-linejoin:miter;stroke-miterlimit:10;"/><line x1="304.6587" y1="1035.7959" x2="304.6587" y2="1055.7959" style="stroke:#10B981;stroke-width:1;"/><polygon points="300.6587,1045.7959,308.6587,1045.7959,304.6587,1055.7959" fill="#10B981" style="stroke:#10B981;stroke-width:1;stroke-linejoin:miter;stroke-miterlimit:10;"/><line x1="304.6587" y1="933.4248" x2="304.6587" y2="953.4248" style="stroke:#10B981;stroke-width:1;"/><polygon points="300.6587,943.4248,308.6587,943.4248,304.6587,953.4248" fill="#10B981" style="stroke:#10B981;stroke-width:1;stroke-linejoin:miter;stroke-miterlimit:10;"/><line x1="304.6587" y1="1079.7959" x2="304.6587" y2="1099.7959" style="stroke:#10B981;stroke-width:1;"/><polygon points="300.6587,1089.7959,308.6587,1089.7959,304.6587,1099.7959" fill="#10B981" style="stroke:#10B981;stroke-width:1;stroke-linejoin:miter;stroke-miterlimit:10;"/><line x1="165.9609" y1="1235.7021" x2="165.9609" y2="1255.7021" style="stroke:#10B981;stroke-width:1;"/><polygon points="161.9609,1245.7021,169.9609,1245.7021,165.9609,1255.7021" fill="#10B981" style="stroke:#10B981;stroke-width:1;stroke-linejoin:miter;stroke-miterlimit:10;"/><line x1="224.0618" y1="1165.7646" x2="165.9609" y2="1165.7646" style="stroke:#10B981;stroke-width:1;"/><line x1="165.9609" y1="1165.7646" x2="165.9609" y2="1187.7646" style="stroke:#10B981;stroke-width:1;"/><polygon points="161.9609,1177.7646,169.9609,1177.7646,165.9609,1187.7646" fill="#10B981" style="stroke:#10B981;stroke-width:1;stroke-linejoin:miter;stroke-miterlimit:10;"/><line x1="385.2556" y1="1165.7646" x2="443.3564" y2="1165.7646" style="stroke:#10B981;stroke-width:1;"/><line x1="443.3564" y1="1165.7646" x2="443.3564" y2="1187.7646" style="stroke:#10B981;stroke-width:1;"/><polygon points="439.3564,1177.7646,447.3564,1177.7646,443.3564,1187.7646" fill="#10B981" style="stroke:#10B981;stroke-width:1;stroke-linejoin:miter;stroke-miterlimit:10;"/><line x1="165.9609" y1="1289.6709" x2="165.9609" y2="1307.6709" style="stroke:#10B981;stroke-width:1;"/><line x1="165.9609" y1="1307.6709" x2="292.6587" y2="1307.6709" style="stroke:#10B981;stroke-width:1;"/><polygon points="282.6587,1303.6709,292.6587,1307.6709,282.6587,1311.6709" fill="#10B981" style="stroke:#10B981;stroke-width:1;stroke-linejoin:miter;stroke-miterlimit:10;"/><line x1="443.3564" y1="1221.7334" x2="443.3564" y2="1307.6709" style="stroke:#10B981;stroke-width:1;"/><line x1="443.3564" y1="1307.6709" x2="316.6587" y2="1307.6709" style="stroke:#10B981;stroke-width:1;"/><polygon points="326.6587,1303.6709,316.6587,1307.6709,326.6587,1311.6709" fill="#10B981" style="stroke:#10B981;stroke-width:1;stroke-linejoin:miter;stroke-miterlimit:10;"/><line x1="304.6587" y1="1133.7646" x2="304.6587" y2="1153.7646" style="stroke:#10B981;stroke-width:1;"/><polygon points="300.6587,1143.7646,308.6587,1143.7646,304.6587,1153.7646" fill="#10B981" style="stroke:#10B981;stroke-width:1;stroke-linejoin:miter;stroke-miterlimit:10;"/><line x1="304.6587" y1="1319.6709" x2="304.6587" y2="1339.6709" style="stroke:#10B981;stroke-width:1;"/><polygon points="300.6587,1329.6709,308.6587,1329.6709,304.6587,1339.6709" fill="#10B981" style="stroke:#10B981;stroke-width:1;stroke-linejoin:miter;stroke-miterlimit:10;"/><line x1="304.6587" y1="1373.6396" x2="304.6587" y2="1393.6396" style="stroke:#10B981;stroke-width:1;"/><polygon points="300.6587,1383.6396,308.6587,1383.6396,304.6587,1393.6396" fill="#10B981" style="stroke:#10B981;stroke-width:1;stroke-linejoin:miter;stroke-miterlimit:10;"/><line x1="304.6587" y1="1427.6084" x2="304.6587" y2="1447.6084" style="stroke:#10B981;stroke-width:1;"/><polygon points="300.6587,1437.6084,308.6587,1437.6084,304.6587,1447.6084" fill="#10B981" style="stroke:#10B981;stroke-width:1;stroke-linejoin:miter;stroke-miterlimit:10;"/><line x1="304.6587" y1="1481.5771" x2="304.6587" y2="1501.5771" style="stroke:#10B981;stroke-width:1;"/><polygon points="300.6587,1491.5771,308.6587,1491.5771,304.6587,1501.5771" fill="#10B981" style="stroke:#10B981;stroke-width:1;stroke-linejoin:miter;stroke-miterlimit:10;"/><line x1="678.4026" y1="306.9014" x2="678.4026" y2="331.3037" style="stroke:#10B981;stroke-width:1;"/><polygon points="674.4026,321.3037,682.4026,321.3037,678.4026,331.3037" fill="#10B981" style="stroke:#10B981;stroke-width:1;stroke-linejoin:miter;stroke-miterlimit:10;"/><line x1="777.0142" y1="294.9014" x2="791.9768" y2="294.9014" style="stroke:#10B981;stroke-width:1;"/><polygon points="787.9768,392.0225,795.9768,392.0225,791.9768,402.0225" fill="#10B981" style="stroke:#10B981;stroke-width:1;stroke-linejoin:miter;stroke-miterlimit:10;"/><line x1="791.9768" y1="294.9014" x2="791.9768" y2="488.2412" style="stroke:#10B981;stroke-width:1;"/><line x1="791.9768" y1="488.2412" x2="304.6587" y2="488.2412" style="stroke:#10B981;stroke-width:1;"/><line x1="304.6587" y1="488.2412" x2="304.6587" y2="503.2412" style="stroke:#10B981;stroke-width:1;"/><polygon points="300.6587,493.2412,308.6587,493.2412,304.6587,503.2412" fill="#10B981" style="stroke:#10B981;stroke-width:1;stroke-linejoin:miter;stroke-miterlimit:10;"/><line x1="678.4026" y1="365.2725" x2="678.4026" y2="370.2725" style="stroke:#10B981;stroke-width:1;"/><line x1="678.4026" y1="370.2725" x2="304.6587" y2="370.2725" style="stroke:#10B981;stroke-width:1;"/><line x1="304.6587" y1="370.2725" x2="304.6587" y2="385.2725" style="stroke:#10B981;stroke-width:1;"/><polygon points="300.6587,375.2725,308.6587,375.2725,304.6587,385.2725" fill="#10B981" style="stroke:#10B981;stroke-width:1;stroke-linejoin:miter;stroke-miterlimit:10;"/><line x1="304.6587" y1="262.9014" x2="304.6587" y2="267.9014" style="stroke:#10B981;stroke-width:1;"/><line x1="304.6587" y1="267.9014" x2="678.4026" y2="267.9014" style="stroke:#10B981;stroke-width:1;"/><line x1="678.4026" y1="267.9014" x2="678.4026" y2="282.9014" style="stroke:#10B981;stroke-width:1;"/><polygon points="674.4026,272.9014,682.4026,272.9014,678.4026,282.9014" fill="#10B981" style="stroke:#10B981;stroke-width:1;stroke-linejoin:miter;stroke-miterlimit:10;"/><text x="245.0664" y="71.75" fill="#000000" font-size="18" lengthAdjust="spacing" textLength="94.6582" font-family="'Plus Jakarta Sans'">Pelanggan</text><text x="572.4923" y="71.75" fill="#000000" font-size="18" lengthAdjust="spacing" textLength="230.7832" font-family="'Plus Jakarta Sans'">Sistem (Laravel Backend)</text><?plantuml-src XLJRQjj047tNLmmk53lGafX0sxYb96dyq3GbuBmK0it8kvOskzfLzv8IoCTtHZShhTq8OspjcPbp6IbePMlqMC4gFXe98NgrZgaoMHXEliWD9XENpiRlM4cON9iKu2jgz15XXJPCHkZJTLGFAZwUuLeNtYKhpfrn7bujtosFByvs8PqNqdUem_dyV3xVWUBnUp7Ukz_TuT7XsOVtHwF3LIIU-mul1deNosEwnh8LLiwAbtNqmF_Aw43_giYYYcJyyLk658qQtIZ6GCv7L0RUm9MiC2IjqSArTo9fk9JqyMZlqHPPzdGj3Vqeq3vbWVLc9rII9urGei6AwhfURVc2pwsqCN7BUyeRIvWU_4feYSxZmGpoP0liO8o9higTWSbLpsDCOB8W2YiLegnW-etqFaW3R9oqOlQKgGrCJslQbn9gIIoJHGX9q5_Z2cK_po2MqiBqHWdKimpeuha56bNoA2q75T-uOD50nfgx4eEw4MIsg11TdKaJ94n_u2mZGcgJDUuyK7k1GG55b2BqsblD1LOvkIMGDfnQQAXRsr77X7pVg-Omno0NOu5z6_ZugIdSAuxY8GBCrijGEmk2frfoAD2tf8tsjtQoujcHIw6ITfrqgjLaltvLOXntWDTSLYJAgL1TpY_vqcnDf8g0EenLCkqr2zTzxcm7QQyK2HcYVMR75je6ZWBtE49pYViMdwDFCBsZWJ7SpHQxkKglT430RhdQZ8P984PSdz7ga2BL744SA77xFg7MBGveo9HtiC-9-IrkBKTPgfWQXNbqaRQZEHfqrTBp3SMtLO16qKz5ZqguwrNjSg95DowGZB-g6WTEBbsb8kKBDtrQ_VBwbdZTRyZu4RhSElBilJ7iZy0DlK9uT9C38-wHNm7IfvhMWLQ1j-SF?></g></svg>