<svg xmlns="http://www.w3.org/2000/svg" xmlns:xlink="http://www.w3.org/1999/xlink" version="1.1" data-diagram-type="ACTIVITY" style="width:1477px;height:673px;background:#FFFFFF;" width="1477px" height="673px" viewBox="0 0 1477 673" zoomAndPan="magnify" preserveAspectRatio="none" contentStyleType="text/css"><?plantuml 1.2026.7beta3?><defs/><g><g class="title" data-source-line="13"><text x="492.7458" y="32.9951" fill="#000000" font-size="14" lengthAdjust="spacing" textLength="489.8564" font-weight="700" font-family="'Plus Jakarta Sans'">3. Diagram Aktivitas Detail - Pencarian &amp; Penyaringan Produk</text></g><rect x="20" y="55.042" width="1430.3481" height="20.9531" fill="none" style="stroke:none;stroke-width:1;"/><ellipse cx="447.8174" cy="90.9951" rx="10" ry="10" fill="#222222" style="stroke:#222222;stroke-width:1;"/><rect x="318.1543" y="120.9951" width="259.3262" height="33.9688" fill="#F7F4EB" style="stroke:#022C22;stroke-width:0.5;" rx="12.5" ry="12.5"/><text x="328.1543" y="142.1338" fill="#022C22" font-size="12" lengthAdjust="spacing" textLength="239.3262" font-family="'Plus Jakarta Sans'">Mengakses halaman Katalog ("Koleksi")</text><line x1="167.0771" y1="296.8701" x2="731.4229" y2="296.8701" style="stroke:#10B981;stroke-width:1.5;"/><rect x="26" y="316.8701" width="282.1543" height="33.9688" fill="#F7F4EB" style="stroke:#022C22;stroke-width:0.5;" rx="12.5" ry="12.5"/><text x="36" y="338.0088" fill="#022C22" font-size="12" lengthAdjust="spacing" textLength="262.1543" font-family="'Plus Jakarta Sans'">Mengetikkan kata kunci di kolom pencarian</text><rect x="329.5713" y="316.8701" width="229.0566" height="33.9688" fill="#F7F4EB" style="stroke:#022C22;stroke-width:0.5;" rx="12.5" ry="12.5"/><text x="339.5713" y="338.0088" fill="#022C22" font-size="12" lengthAdjust="spacing" textLength="209.0566" font-family="'Plus Jakarta Sans'">Memilih salah satu Kategori Bunga</text><rect x="586.6279" y="316.8701" width="289.5898" height="33.9688" fill="#F7F4EB" style="stroke:#022C22;stroke-width:0.5;" rx="12.5" ry="12.5"/><text x="596.6279" y="338.0088" fill="#022C22" font-size="12" lengthAdjust="spacing" textLength="269.5898" font-family="'Plus Jakarta Sans'">Mengubah opsi pengurutan (terbaru / harga)</text><line x1="167.0771" y1="370.8389" x2="731.4229" y2="370.8389" style="stroke:#10B981;stroke-width:1.5;"/><rect x="328.3613" y="576.7451" width="238.9121" height="33.9688" fill="#F7F4EB" style="stroke:#022C22;stroke-width:0.5;" rx="12.5" ry="12.5"/><text x="338.3613" y="597.8838" fill="#022C22" font-size="12" lengthAdjust="spacing" textLength="218.9121" font-family="'Plus Jakarta Sans'">Melihat hasil pencarian/penyaringan</text><ellipse cx="447.8174" cy="641.7139" rx="11" ry="11" fill="none" style="stroke:#222222;stroke-width:1;"/><ellipse cx="447.8174" cy="641.7139" rx="6" ry="6" fill="#222222" style="stroke:#222222;stroke-width:1;"/><line x1="20" y1="55.042" x2="20" y2="652.7139" style="stroke:#000000;stroke-width:1.5;"/><rect x="1026.2998" y="174.9639" width="244.1797" height="47.9375" fill="#F7F4EB" style="stroke:#022C22;stroke-width:0.5;" rx="12.5" ry="12.5"/><text x="1036.2998" y="196.1025" fill="#022C22" font-size="12" lengthAdjust="spacing" textLength="224.1797" font-family="'Plus Jakarta Sans'">Melakukan query ke tabel `products`</text><text x="1036.2998" y="210.0713" fill="#022C22" font-size="12" lengthAdjust="spacing" textLength="223.7637" font-family="'Plus Jakarta Sans'">(is_active = true &amp; deleted_at = null)</text><rect x="1001.0664" y="242.9014" width="294.6465" height="33.9688" fill="#F7F4EB" style="stroke:#022C22;stroke-width:0.5;" rx="12.5" ry="12.5"/><text x="1011.0664" y="264.04" fill="#022C22" font-size="12" lengthAdjust="spacing" textLength="274.6465" font-family="'Plus Jakarta Sans'">Menampilkan daftar seluruh rangkaian bunga</text><rect x="1027.3164" y="390.8389" width="242.1465" height="33.9688" fill="#F7F4EB" style="stroke:#022C22;stroke-width:0.5;" rx="12.5" ry="12.5"/><text x="1037.3164" y="411.9775" fill="#022C22" font-size="12" lengthAdjust="spacing" textLength="222.1465" font-family="'Plus Jakarta Sans'">Melakukan filter data secara dinamis</text><polygon points="1072.5847,444.8076,1224.1946,444.8076,1236.1946,456.8076,1224.1946,468.8076,1072.5847,468.8076,1060.5847,456.8076,1072.5847,444.8076" fill="#F7F4EB" style="stroke:#022C22;stroke-width:0.5;stroke-linejoin:miter;stroke-miterlimit:10;"/><text x="1072.5847" y="460.6157" fill="#022C22" font-size="11" lengthAdjust="spacing" textLength="151.6099" font-family="'Plus Jakarta Sans'">Apakah produk ditemukan?</text><text x="1047.1248" y="454.2134" fill="#000000" font-size="11" lengthAdjust="spacing" textLength="13.46" font-family="'Plus Jakarta Sans'">Ya</text><text x="1236.1946" y="454.2134" fill="#000000" font-size="11" lengthAdjust="spacing" textLength="29.8687" font-family="'Plus Jakarta Sans'">Tidak</text><rect x="886.2178" y="478.8076" width="235.209" height="47.9375" fill="#F7F4EB" style="stroke:#022C22;stroke-width:0.5;" rx="12.5" ry="12.5"/><text x="896.2178" y="499.9463" fill="#022C22" font-size="12" lengthAdjust="spacing" textLength="215.209" font-family="'Plus Jakarta Sans'">Menampilkan daftar produk terfilter</text><text x="896.2178" y="513.915" fill="#022C22" font-size="12" lengthAdjust="spacing" textLength="92.6191" font-family="'Plus Jakarta Sans'">pada kartu grid</text><rect x="1141.4268" y="478.8076" width="303.0605" height="47.9375" fill="#F7F4EB" style="stroke:#022C22;stroke-width:0.5;" rx="12.5" ry="12.5"/><text x="1151.4268" y="499.9463" fill="#022C22" font-size="12" lengthAdjust="spacing" textLength="283.0605" font-family="'Plus Jakarta Sans'">Menampilkan halaman kosong (*Empty State*)</text><text x="1151.4268" y="513.915" fill="#022C22" font-size="12" lengthAdjust="spacing" textLength="154.5527" font-family="'Plus Jakarta Sans'">"Produk tidak ditemukan"</text><polygon points="1148.3896,532.7451,1160.3896,544.7451,1148.3896,556.7451,1136.3896,544.7451,1148.3896,532.7451" fill="#F7F4EB" style="stroke:#022C22;stroke-width:0.5;stroke-linejoin:miter;stroke-miterlimit:10;"/><line x1="880.2178" y1="55.042" x2="880.2178" y2="652.7139" style="stroke:#000000;stroke-width:1.5;"/><line x1="1448.4873" y1="55.042" x2="1448.4873" y2="652.7139" style="stroke:#000000;stroke-width:1.5;"/><line x1="447.8174" y1="100.9951" x2="447.8174" y2="120.9951" style="stroke:#10B981;stroke-width:1;"/><polygon points="443.8174,110.9951,451.8174,110.9951,447.8174,120.9951" fill="#10B981" style="stroke:#10B981;stroke-width:1;stroke-linejoin:miter;stroke-miterlimit:10;"/><line x1="167.0771" y1="298.3701" x2="167.0771" y2="316.8701" style="stroke:#10B981;stroke-width:1;"/><polygon points="163.0771,306.8701,171.0771,306.8701,167.0771,316.8701" fill="#10B981" style="stroke:#10B981;stroke-width:1;stroke-linejoin:miter;stroke-miterlimit:10;"/><line x1="444.0996" y1="298.3701" x2="444.0996" y2="316.8701" style="stroke:#10B981;stroke-width:1;"/><polygon points="440.0996,306.8701,448.0996,306.8701,444.0996,316.8701" fill="#10B981" style="stroke:#10B981;stroke-width:1;stroke-linejoin:miter;stroke-miterlimit:10;"/><line x1="731.4229" y1="298.3701" x2="731.4229" y2="316.8701" style="stroke:#10B981;stroke-width:1;"/><polygon points="727.4229,306.8701,735.4229,306.8701,731.4229,316.8701" fill="#10B981" style="stroke:#10B981;stroke-width:1;stroke-linejoin:miter;stroke-miterlimit:10;"/><line x1="167.0771" y1="350.8389" x2="167.0771" y2="370.8389" style="stroke:#10B981;stroke-width:1;"/><polygon points="163.0771,360.8389,171.0771,360.8389,167.0771,370.8389" fill="#10B981" style="stroke:#10B981;stroke-width:1;stroke-linejoin:miter;stroke-miterlimit:10;"/><line x1="444.0996" y1="350.8389" x2="444.0996" y2="370.8389" style="stroke:#10B981;stroke-width:1;"/><polygon points="440.0996,360.8389,448.0996,360.8389,444.0996,370.8389" fill="#10B981" style="stroke:#10B981;stroke-width:1;stroke-linejoin:miter;stroke-miterlimit:10;"/><line x1="731.4229" y1="350.8389" x2="731.4229" y2="370.8389" style="stroke:#10B981;stroke-width:1;"/><polygon points="727.4229,360.8389,735.4229,360.8389,731.4229,370.8389" fill="#10B981" style="stroke:#10B981;stroke-width:1;stroke-linejoin:miter;stroke-miterlimit:10;"/><line x1="447.8174" y1="610.7139" x2="447.8174" y2="630.7139" style="stroke:#10B981;stroke-width:1;"/><polygon points="443.8174,620.7139,451.8174,620.7139,447.8174,630.7139" fill="#10B981" style="stroke:#10B981;stroke-width:1;stroke-linejoin:miter;stroke-miterlimit:10;"/><line x1="1148.3896" y1="222.9014" x2="1148.3896" y2="242.9014" style="stroke:#10B981;stroke-width:1;"/><polygon points="1144.3896,232.9014,1152.3896,232.9014,1148.3896,242.9014" fill="#10B981" style="stroke:#10B981;stroke-width:1;stroke-linejoin:miter;stroke-miterlimit:10;"/><line x1="1060.5847" y1="456.8076" x2="1003.8223" y2="456.8076" style="stroke:#10B981;stroke-width:1;"/><line x1="1003.8223" y1="456.8076" x2="1003.8223" y2="478.8076" style="stroke:#10B981;stroke-width:1;"/><polygon points="999.8223,468.8076,1007.8223,468.8076,1003.8223,478.8076" fill="#10B981" style="stroke:#10B981;stroke-width:1;stroke-linejoin:miter;stroke-miterlimit:10;"/><line x1="1236.1946" y1="456.8076" x2="1292.957" y2="456.8076" style="stroke:#10B981;stroke-width:1;"/><line x1="1292.957" y1="456.8076" x2="1292.957" y2="478.8076" style="stroke:#10B981;stroke-width:1;"/><polygon points="1288.957,468.8076,1296.957,468.8076,1292.957,478.8076" fill="#10B981" style="stroke:#10B981;stroke-width:1;stroke-linejoin:miter;stroke-miterlimit:10;"/><line x1="1003.8223" y1="526.7451" x2="1003.8223" y2="544.7451" style="stroke:#10B981;stroke-width:1;"/><line x1="1003.8223" y1="544.7451" x2="1136.3896" y2="544.7451" style="stroke:#10B981;stroke-width:1;"/><polygon points="1126.3896,540.7451,1136.3896,544.7451,1126.3896,548.7451" fill="#10B981" style="stroke:#10B981;stroke-width:1;stroke-linejoin:miter;stroke-miterlimit:10;"/><line x1="1292.957" y1="526.7451" x2="1292.957" y2="544.7451" style="stroke:#10B981;stroke-width:1;"/><line x1="1292.957" y1="544.7451" x2="1160.3896" y2="544.7451" style="stroke:#10B981;stroke-width:1;"/><polygon points="1170.3896,540.7451,1160.3896,544.7451,1170.3896,548.7451" fill="#10B981" style="stroke:#10B981;stroke-width:1;stroke-linejoin:miter;stroke-miterlimit:10;"/><line x1="1148.3896" y1="424.8076" x2="1148.3896" y2="444.8076" style="stroke:#10B981;stroke-width:1;"/><polygon points="1144.3896,434.8076,1152.3896,434.8076,1148.3896,444.8076" fill="#10B981" style="stroke:#10B981;stroke-width:1;stroke-linejoin:miter;stroke-miterlimit:10;"/><line x1="447.8174" y1="154.9639" x2="447.8174" y2="159.9639" style="stroke:#10B981;stroke-width:1;"/><line x1="447.8174" y1="159.9639" x2="1148.3896" y2="159.9639" style="stroke:#10B981;stroke-width:1;"/><line x1="1148.3896" y1="159.9639" x2="1148.3896" y2="174.9639" style="stroke:#10B981;stroke-width:1;"/><polygon points="1144.3896,164.9639,1152.3896,164.9639,1148.3896,174.9639" fill="#10B981" style="stroke:#10B981;stroke-width:1;stroke-linejoin:miter;stroke-miterlimit:10;"/><line x1="1148.3896" y1="276.8701" x2="1148.3896" y2="281.8701" style="stroke:#10B981;stroke-width:1;"/><line x1="1148.3896" y1="281.8701" x2="447.8174" y2="281.8701" style="stroke:#10B981;stroke-width:1;"/><line x1="447.8174" y1="281.8701" x2="447.8174" y2="296.8701" style="stroke:#10B981;stroke-width:1;"/><polygon points="443.8174,286.8701,451.8174,286.8701,447.8174,296.8701" fill="#10B981" style="stroke:#10B981;stroke-width:1;stroke-linejoin:miter;stroke-miterlimit:10;"/><line x1="447.8174" y1="372.3389" x2="447.8174" y2="375.8389" style="stroke:#10B981;stroke-width:1;"/><line x1="447.8174" y1="375.8389" x2="1148.3896" y2="375.8389" style="stroke:#10B981;stroke-width:1;"/><line x1="1148.3896" y1="375.8389" x2="1148.3896" y2="390.8389" style="stroke:#10B981;stroke-width:1;"/><polygon points="1144.3896,380.8389,1152.3896,380.8389,1148.3896,390.8389" fill="#10B981" style="stroke:#10B981;stroke-width:1;stroke-linejoin:miter;stroke-miterlimit:10;"/><line x1="1148.3896" y1="556.7451" x2="1148.3896" y2="561.7451" style="stroke:#10B981;stroke-width:1;"/><line x1="1148.3896" y1="561.7451" x2="447.8174" y2="561.7451" style="stroke:#10B981;stroke-width:1;"/><line x1="447.8174" y1="561.7451" x2="447.8174" y2="576.7451" style="stroke:#10B981;stroke-width:1;"/><polygon points="443.8174,566.7451,451.8174,566.7451,447.8174,576.7451" fill="#10B981" style="stroke:#10B981;stroke-width:1;stroke-linejoin:miter;stroke-miterlimit:10;"/><text x="402.7798" y="71.75" fill="#000000" font-size="18" lengthAdjust="spacing" textLength="94.6582" font-family="'Plus Jakarta Sans'">Pelanggan</text><text x="1049.0488" y="71.75" fill="#000000" font-size="18" lengthAdjust="spacing" textLength="230.6074" font-family="'Plus Jakarta Sans'">Sistem (Laravel Monolith)</text><?plantuml-src ZLFRQXin47tVhnXSA7QWJU86UZ6bnAdzq2J5uBuK0idOEzuTf9MsqYZ5u8_loBUagTDM3ujMSsRcdADHDEnQ3DZ0L9QM84hWkQJ65d4V-KmBJ5R6tibNR0Ww4viYV463GH2cw6Bd4VfyBdpFiXpYt5J19rTUUEi3l1Y_7P-DXeUGFfGKjgYJVl-Ytp-0oksVnOJWVsw3foV3z-zE7mMdeZoV2uxsz4RZCrsFPJCstfN_rh43_bN65lIdYa9OrFWthpEaMginQyKOrNb1jl0A9kJc61WTlCpxfUvTfN-JuCjaYc8r8OkkqgDL4RFUuiCrAS94Yb2ZnKR1boXeVGNTpgMtP29tUWDDdN8KQg1xfJploSArTzworBrLBcBH9AF9FnA59HW2mPc2xjhSUIxnxiPrETvYlYM2Zo0XaP8ioP9GUOkYPovPgwqo9MnQjhbUYGlb2P5i2gc6eEmDPe6pfBm7JoIrIgW0NMjP96no3QE2m2GtPoWPZDhQGBjpQh390goGtIwtOSirH3KaVoLbJwZoWM6uQNiWnrLffd3VHixLA-Khshmh56OO4XohmQ525KYkX0tL_tLrmLRBg1ag998IHrMY9d4S5Bo0xdchhwo6jTb6GreovttgWTIa7BvZRq_pgRNR9As_wNAZarYgNpeT2Qh0fHAsaQ3xZKiq1-hiviRuw9sEpT6eQMMPtvFGKU_6TIRR3Zd_WLndRGGlVh_2B9fh7OSQeuxq_fgEsuTnLll5jxy0?></g></svg>