<svg xmlns="http://www.w3.org/2000/svg" xmlns:xlink="http://www.w3.org/1999/xlink" version="1.1" data-diagram-type="ACTIVITY" style="width:1391px;height:1502px;background:#FFFFFF;" width="1391px" height="1502px" viewBox="0 0 1391 1502" zoomAndPan="magnify" preserveAspectRatio="none" contentStyleType="text/css"><?plantuml 1.2026.7beta3?><defs/><g><g class="title" data-source-line="13"><text x="396.9338" y="32.9951" fill="#000000" font-size="14" lengthAdjust="spacing" textLength="595.6426" font-weight="700" font-family="'Plus Jakarta Sans'">11. Diagram Aktivitas Detail - Penyesuaian Stok Manual (Koreksi Inventori)</text></g><rect x="20" y="55.042" width="1344.5103" height="20.9531" fill="none" style="stroke:none;stroke-width:1;"/><ellipse cx="374.8779" cy="90.9951" rx="10" ry="10" fill="#222222" style="stroke:#222222;stroke-width:1;"/><rect x="218.1563" y="120.9951" width="313.4434" height="33.9688" fill="#F7F4EB" style="stroke:#022C22;stroke-width:0.5;" rx="12.5" ry="12.5"/><text x="228.1563" y="142.1338" fill="#022C22" font-size="12" lengthAdjust="spacing" textLength="293.4434" font-family="'Plus Jakarta Sans'">Membuka halaman Manajemen / Ringkasan Stok</text><rect x="206.9355" y="174.9639" width="335.8848" height="33.9688" fill="#F7F4EB" style="stroke:#022C22;stroke-width:0.5;" rx="12.5" ry="12.5"/><text x="216.9355" y="196.1025" fill="#022C22" font-size="12" lengthAdjust="spacing" textLength="315.8848" font-family="'Plus Jakarta Sans'">Menekan tombol "Sesuaikan Stok" pada baris bunga</text><rect x="203.8418" y="228.9326" width="342.0723" height="47.9375" fill="#F7F4EB" style="stroke:#022C22;stroke-width:0.5;" rx="12.5" ry="12.5"/><text x="213.8418" y="250.0713" fill="#022C22" font-size="12" lengthAdjust="spacing" textLength="322.0723" font-family="'Plus Jakarta Sans'">Mengisi formulir penyesuaian (Pilih Tambah / Kurang,</text><text x="213.8418" y="264.04" fill="#022C22" font-size="12" lengthAdjust="spacing" textLength="245.959" font-family="'Plus Jakarta Sans'">input jumlah selisih, &amp; tulis alasan wajib)</text><rect x="244.5908" y="296.8701" width="260.5742" height="33.9688" fill="#F7F4EB" style="stroke:#022C22;stroke-width:0.5;" rx="12.5" ry="12.5"/><text x="254.5908" y="318.0088" fill="#022C22" font-size="12" lengthAdjust="spacing" textLength="240.5742" font-family="'Plus Jakarta Sans'">Menekan tombol "Simpan Penyesuaian"</text><rect x="26" y="1009.8779" width="290.1934" height="33.9688" fill="#F7F4EB" style="stroke:#022C22;stroke-width:0.5;" rx="12.5" ry="12.5"/><text x="36" y="1031.0166" fill="#022C22" font-size="12" lengthAdjust="spacing" textLength="270.1934" font-family="'Plus Jakarta Sans'">Melihat pesan error &amp; mereset jumlah selisih</text><ellipse cx="171.0967" cy="1074.8467" rx="11" ry="11" fill="none" style="stroke:#222222;stroke-width:1;"/><ellipse cx="171.0967" cy="1074.8467" rx="6" ry="6" fill="#222222" style="stroke:#222222;stroke-width:1;"/><rect x="406.2109" y="839.5693" width="344.8965" height="33.9688" fill="#F7F4EB" style="stroke:#022C22;stroke-width:0.5;" rx="12.5" ry="12.5"/><text x="416.2109" y="860.708" fill="#022C22" font-size="12" lengthAdjust="spacing" textLength="324.8965" font-family="'Plus Jakarta Sans'">Menghitung stok akhir = stok saat ini + jumlah selisih</text><rect x="221.9824" y="1161.8467" width="305.791" height="33.9688" fill="#F7F4EB" style="stroke:#022C22;stroke-width:0.5;" rx="12.5" ry="12.5"/><text x="231.9824" y="1182.9854" fill="#022C22" font-size="12" lengthAdjust="spacing" textLength="285.791" font-family="'Plus Jakarta Sans'">Memperbarui kolom `stock` di tabel `products`</text><rect x="202.2393" y="1215.8154" width="345.2773" height="61.9063" fill="#F7F4EB" style="stroke:#022C22;stroke-width:0.5;" rx="12.5" ry="12.5"/><text x="212.2393" y="1236.9541" fill="#022C22" font-size="12" lengthAdjust="spacing" textLength="276.1875" font-family="'Plus Jakarta Sans'">Menulis log audit di tabel `stock_movements`</text><text x="212.2393" y="1250.9229" fill="#022C22" font-size="12" lengthAdjust="spacing" textLength="311.666" font-family="'Plus Jakarta Sans'">(product_id, type = 'adjustment', quantity = selisih,</text><text x="212.2393" y="1264.8916" fill="#022C22" font-size="12" lengthAdjust="spacing" textLength="325.2773" font-family="'Plus Jakarta Sans'">stock_before, stock_after, note, created_by = user_id)</text><rect x="273.7559" y="1297.7217" width="202.2441" height="33.9688" fill="#F7F4EB" style="stroke:#022C22;stroke-width:0.5;" rx="12.5" ry="12.5"/><text x="283.7559" y="1318.8604" fill="#022C22" font-size="12" lengthAdjust="spacing" textLength="182.2441" font-family="'Plus Jakarta Sans'">Komitmen Transaksi database</text><rect x="248.2705" y="1351.6904" width="253.2148" height="33.9688" fill="#F7F4EB" style="stroke:#022C22;stroke-width:0.5;" rx="12.5" ry="12.5"/><text x="258.2705" y="1372.8291" fill="#022C22" font-size="12" lengthAdjust="spacing" textLength="233.2148" font-family="'Plus Jakarta Sans'">Mengirim respon sukses ke antarmuka</text><rect x="170.4668" y="1405.6592" width="408.8223" height="33.9688" fill="#F7F4EB" style="stroke:#022C22;stroke-width:0.5;" rx="12.5" ry="12.5"/><text x="180.4668" y="1426.7979" fill="#022C22" font-size="12" lengthAdjust="spacing" textLength="388.8223" font-family="'Plus Jakarta Sans'">Melihat jumlah stok terupdate &amp; baris log baru di riwayat mutasi</text><ellipse cx="374.8779" cy="1470.6279" rx="11" ry="11" fill="none" style="stroke:#222222;stroke-width:1;"/><ellipse cx="374.8779" cy="1470.6279" rx="6" ry="6" fill="#222222" style="stroke:#222222;stroke-width:1;"/><line x1="20" y1="55.042" x2="20" y2="1481.6279" style="stroke:#000000;stroke-width:1.5;"/><rect x="1018.8682" y="350.8389" width="278.2695" height="33.9688" fill="#F7F4EB" style="stroke:#022C22;stroke-width:0.5;" rx="12.5" ry="12.5"/><text x="1028.8682" y="371.9775" fill="#022C22" font-size="12" lengthAdjust="spacing" textLength="258.2695" font-family="'Plus Jakarta Sans'">Menerima Form Request Penyesuaian Stok</text><rect x="957.3564" y="404.8076" width="401.293" height="33.9688" fill="#F7F4EB" style="stroke:#022C22;stroke-width:0.5;" rx="12.5" ry="12.5"/><text x="967.3564" y="425.9463" fill="#022C22" font-size="12" lengthAdjust="spacing" textLength="381.293" font-family="'Plus Jakarta Sans'">Memvalidasi data input (selisih > 0, alasan tidak boleh kosong)</text><rect x="989.2109" y="507.1787" width="337.584" height="33.9688" fill="#F7F4EB" style="stroke:#022C22;stroke-width:0.5;" rx="12.5" ry="12.5"/><text x="999.2109" y="528.3174" fill="#022C22" font-size="12" lengthAdjust="spacing" textLength="317.584" font-family="'Plus Jakarta Sans'">Mengembalikan ke form dengan pesan error validasi</text><ellipse cx="1158.0029" cy="580.6631" rx="11" ry="11" fill="none" style="stroke:#222222;stroke-width:1;"/><ellipse cx="1158.0029" cy="580.6631" rx="6" ry="6" fill="#222222" style="stroke:#222222;stroke-width:1;"/><polygon points="1119.2397,458.7764,1196.7661,458.7764,1208.7661,470.7764,1196.7661,482.7764,1119.2397,482.7764,1107.2397,470.7764,1119.2397,458.7764" fill="#F7F4EB" style="stroke:#022C22;stroke-width:0.5;stroke-linejoin:miter;stroke-miterlimit:10;"/><text x="1162.0029" y="492.9868" fill="#000000" font-size="11" lengthAdjust="spacing" textLength="29.8687" font-family="'Plus Jakarta Sans'">Tidak</text><text x="1119.2397" y="474.5845" fill="#022C22" font-size="11" lengthAdjust="spacing" textLength="77.5264" font-family="'Plus Jakarta Sans'">Validasi lolos?</text><text x="1208.7661" y="468.1821" fill="#000000" font-size="11" lengthAdjust="spacing" textLength="13.46" font-family="'Plus Jakarta Sans'">Ya</text><rect x="1000.2646" y="633.6631" width="315.4766" height="33.9688" fill="#F7F4EB" style="stroke:#022C22;stroke-width:0.5;" rx="12.5" ry="12.5"/><text x="1010.2646" y="654.8018" fill="#022C22" font-size="12" lengthAdjust="spacing" textLength="295.4766" font-family="'Plus Jakarta Sans'">Membuka transaksi database (`DB::transaction`)</text><rect x="969.1689" y="687.6318" width="377.668" height="33.9688" fill="#F7F4EB" style="stroke:#022C22;stroke-width:0.5;" rx="12.5" ry="12.5"/><text x="979.1689" y="708.7705" fill="#022C22" font-size="12" lengthAdjust="spacing" textLength="357.668" font-family="'Plus Jakarta Sans'">Mengunci baris produk yang disesuaikan (`lockForUpdate`)</text><rect x="1057.5752" y="741.6006" width="200.8555" height="33.9688" fill="#F7F4EB" style="stroke:#022C22;stroke-width:0.5;" rx="12.5" ry="12.5"/><text x="1067.5752" y="762.7393" fill="#022C22" font-size="12" lengthAdjust="spacing" textLength="180.8555" font-family="'Plus Jakarta Sans'">Membaca stok produk saat ini</text><polygon points="1073.948,795.5693,1242.0579,795.5693,1254.0579,807.5693,1242.0579,819.5693,1073.948,819.5693,1061.948,807.5693,1073.948,795.5693" fill="#F7F4EB" style="stroke:#022C22;stroke-width:0.5;stroke-linejoin:miter;stroke-miterlimit:10;"/><text x="1073.948" y="811.3774" fill="#022C22" font-size="11" lengthAdjust="spacing" textLength="168.1099" font-family="'Plus Jakarta Sans'">Tipe penyesuaian == 'Kurang'</text><text x="1048.488" y="804.9751" fill="#000000" font-size="11" lengthAdjust="spacing" textLength="13.46" font-family="'Plus Jakarta Sans'">Ya</text><text x="1254.0579" y="804.9751" fill="#000000" font-size="11" lengthAdjust="spacing" textLength="44.8701" font-family="'Plus Jakarta Sans'">Tambah</text><rect x="784.6357" y="839.5693" width="339.1719" height="33.9688" fill="#F7F4EB" style="stroke:#022C22;stroke-width:0.5;" rx="12.5" ry="12.5"/><text x="794.6357" y="860.708" fill="#022C22" font-size="12" lengthAdjust="spacing" textLength="319.1719" font-family="'Plus Jakarta Sans'">Menghitung stok akhir = stok saat ini - jumlah selisih</text><rect x="761.1074" y="941.9404" width="386.2285" height="47.9375" fill="#F7F4EB" style="stroke:#022C22;stroke-width:0.5;" rx="12.5" ry="12.5"/><text x="771.1074" y="963.0791" fill="#022C22" font-size="12" lengthAdjust="spacing" textLength="216.9316" font-family="'Plus Jakarta Sans'">Membatalkan transaksi (*rollback*);</text><text x="771.1074" y="977.0479" fill="#022C22" font-size="12" lengthAdjust="spacing" textLength="366.2285" font-family="'Plus Jakarta Sans'">Mengembalikan respon error "Stok akhir tidak boleh negatif"</text><polygon points="890.1338,893.5381,1018.3096,893.5381,1030.3096,905.5381,1018.3096,917.5381,890.1338,917.5381,878.1338,905.5381,890.1338,893.5381" fill="#F7F4EB" style="stroke:#022C22;stroke-width:0.5;stroke-linejoin:miter;stroke-miterlimit:10;"/><text x="958.2217" y="927.7485" fill="#000000" font-size="11" lengthAdjust="spacing" textLength="13.46" font-family="'Plus Jakarta Sans'">Ya</text><text x="890.1338" y="909.3462" fill="#022C22" font-size="11" lengthAdjust="spacing" textLength="128.1758" font-family="'Plus Jakarta Sans'">Apakah stok akhir &lt; 0?</text><text x="1030.3096" y="902.9438" fill="#000000" font-size="11" lengthAdjust="spacing" textLength="29.8687" font-family="'Plus Jakarta Sans'">Tidak</text><polygon points="1158.0029,1117.8467,1170.0029,1129.8467,1158.0029,1141.8467,1146.0029,1129.8467,1158.0029,1117.8467" fill="#F7F4EB" style="stroke:#022C22;stroke-width:0.5;stroke-linejoin:miter;stroke-miterlimit:10;"/><line x1="755.1074" y1="55.042" x2="755.1074" y2="1481.6279" style="stroke:#000000;stroke-width:1.5;"/><line x1="1362.6494" y1="55.042" x2="1362.6494" y2="1481.6279" style="stroke:#000000;stroke-width:1.5;"/><line x1="374.8779" y1="100.9951" x2="374.8779" y2="120.9951" style="stroke:#10B981;stroke-width:1;"/><polygon points="370.8779,110.9951,378.8779,110.9951,374.8779,120.9951" fill="#10B981" style="stroke:#10B981;stroke-width:1;stroke-linejoin:miter;stroke-miterlimit:10;"/><line x1="374.8779" y1="154.9639" x2="374.8779" y2="174.9639" style="stroke:#10B981;stroke-width:1;"/><polygon points="370.8779,164.9639,378.8779,164.9639,374.8779,174.9639" fill="#10B981" style="stroke:#10B981;stroke-width:1;stroke-linejoin:miter;stroke-miterlimit:10;"/><line x1="374.8779" y1="208.9326" x2="374.8779" y2="228.9326" style="stroke:#10B981;stroke-width:1;"/><polygon points="370.8779,218.9326,378.8779,218.9326,374.8779,228.9326" fill="#10B981" style="stroke:#10B981;stroke-width:1;stroke-linejoin:miter;stroke-miterlimit:10;"/><line x1="374.8779" y1="276.8701" x2="374.8779" y2="296.8701" style="stroke:#10B981;stroke-width:1;"/><polygon points="370.8779,286.8701,378.8779,286.8701,374.8779,296.8701" fill="#10B981" style="stroke:#10B981;stroke-width:1;stroke-linejoin:miter;stroke-miterlimit:10;"/><line x1="171.0967" y1="1043.8467" x2="171.0967" y2="1063.8467" style="stroke:#10B981;stroke-width:1;"/><polygon points="167.0967,1053.8467,175.0967,1053.8467,171.0967,1063.8467" fill="#10B981" style="stroke:#10B981;stroke-width:1;stroke-linejoin:miter;stroke-miterlimit:10;"/><line x1="374.8779" y1="1195.8154" x2="374.8779" y2="1215.8154" style="stroke:#10B981;stroke-width:1;"/><polygon points="370.8779,1205.8154,378.8779,1205.8154,374.8779,1215.8154" fill="#10B981" style="stroke:#10B981;stroke-width:1;stroke-linejoin:miter;stroke-miterlimit:10;"/><line x1="374.8779" y1="1277.7217" x2="374.8779" y2="1297.7217" style="stroke:#10B981;stroke-width:1;"/><polygon points="370.8779,1287.7217,378.8779,1287.7217,374.8779,1297.7217" fill="#10B981" style="stroke:#10B981;stroke-width:1;stroke-linejoin:miter;stroke-miterlimit:10;"/><line x1="374.8779" y1="1331.6904" x2="374.8779" y2="1351.6904" style="stroke:#10B981;stroke-width:1;"/><polygon points="370.8779,1341.6904,378.8779,1341.6904,374.8779,1351.6904" fill="#10B981" style="stroke:#10B981;stroke-width:1;stroke-linejoin:miter;stroke-miterlimit:10;"/><line x1="374.8779" y1="1385.6592" x2="374.8779" y2="1405.6592" style="stroke:#10B981;stroke-width:1;"/><polygon points="370.8779,1395.6592,378.8779,1395.6592,374.8779,1405.6592" fill="#10B981" style="stroke:#10B981;stroke-width:1;stroke-linejoin:miter;stroke-miterlimit:10;"/><line x1="374.8779" y1="1439.6279" x2="374.8779" y2="1459.6279" style="stroke:#10B981;stroke-width:1;"/><polygon points="370.8779,1449.6279,378.8779,1449.6279,374.8779,1459.6279" fill="#10B981" style="stroke:#10B981;stroke-width:1;stroke-linejoin:miter;stroke-miterlimit:10;"/><line x1="1158.0029" y1="384.8076" x2="1158.0029" y2="404.8076" style="stroke:#10B981;stroke-width:1;"/><polygon points="1154.0029,394.8076,1162.0029,394.8076,1158.0029,404.8076" fill="#10B981" style="stroke:#10B981;stroke-width:1;stroke-linejoin:miter;stroke-miterlimit:10;"/><line x1="1158.0029" y1="541.1475" x2="1158.0029" y2="569.6631" style="stroke:#10B981;stroke-width:1;"/><polygon points="1154.0029,559.6631,1162.0029,559.6631,1158.0029,569.6631" fill="#10B981" style="stroke:#10B981;stroke-width:1;stroke-linejoin:miter;stroke-miterlimit:10;"/><line x1="1158.0029" y1="482.7764" x2="1158.0029" y2="507.1787" style="stroke:#10B981;stroke-width:1;"/><polygon points="1154.0029,497.1787,1162.0029,497.1787,1158.0029,507.1787" fill="#10B981" style="stroke:#10B981;stroke-width:1;stroke-linejoin:miter;stroke-miterlimit:10;"/><line x1="1208.7661" y1="470.7764" x2="1336.7949" y2="470.7764" style="stroke:#10B981;stroke-width:1;"/><polygon points="1332.7949,539.6631,1340.7949,539.6631,1336.7949,549.6631" fill="#10B981" style="stroke:#10B981;stroke-width:1;stroke-linejoin:miter;stroke-miterlimit:10;"/><line x1="1336.7949" y1="470.7764" x2="1336.7949" y2="613.6631" style="stroke:#10B981;stroke-width:1;"/><line x1="1336.7949" y1="613.6631" x2="1158.0029" y2="613.6631" style="stroke:#10B981;stroke-width:1;"/><line x1="1158.0029" y1="613.6631" x2="1158.0029" y2="633.6631" style="stroke:#10B981;stroke-width:1;"/><polygon points="1154.0029,623.6631,1162.0029,623.6631,1158.0029,633.6631" fill="#10B981" style="stroke:#10B981;stroke-width:1;stroke-linejoin:miter;stroke-miterlimit:10;"/><line x1="1158.0029" y1="438.7764" x2="1158.0029" y2="458.7764" style="stroke:#10B981;stroke-width:1;"/><polygon points="1154.0029,448.7764,1162.0029,448.7764,1158.0029,458.7764" fill="#10B981" style="stroke:#10B981;stroke-width:1;stroke-linejoin:miter;stroke-miterlimit:10;"/><line x1="1158.0029" y1="667.6318" x2="1158.0029" y2="687.6318" style="stroke:#10B981;stroke-width:1;"/><polygon points="1154.0029,677.6318,1162.0029,677.6318,1158.0029,687.6318" fill="#10B981" style="stroke:#10B981;stroke-width:1;stroke-linejoin:miter;stroke-miterlimit:10;"/><line x1="1158.0029" y1="721.6006" x2="1158.0029" y2="741.6006" style="stroke:#10B981;stroke-width:1;"/><polygon points="1154.0029,731.6006,1162.0029,731.6006,1158.0029,741.6006" fill="#10B981" style="stroke:#10B981;stroke-width:1;stroke-linejoin:miter;stroke-miterlimit:10;"/><line x1="954.2217" y1="917.5381" x2="954.2217" y2="941.9404" style="stroke:#10B981;stroke-width:1;"/><polygon points="950.2217,931.9404,958.2217,931.9404,954.2217,941.9404" fill="#10B981" style="stroke:#10B981;stroke-width:1;stroke-linejoin:miter;stroke-miterlimit:10;"/><line x1="1030.3096" y1="905.5381" x2="1157.3359" y2="905.5381" style="stroke:#10B981;stroke-width:1;"/><polygon points="1153.3359,1000.8936,1161.3359,1000.8936,1157.3359,1010.8936" fill="#10B981" style="stroke:#10B981;stroke-width:1;stroke-linejoin:miter;stroke-miterlimit:10;"/><line x1="1157.3359" y1="905.5381" x2="1157.3359" y2="1107.8467" style="stroke:#10B981;stroke-width:1;"/><line x1="1157.3359" y1="1107.8467" x2="954.2217" y2="1107.8467" style="stroke:#10B981;stroke-width:1;"/><line x1="954.2217" y1="1107.8467" x2="954.2217" y2="1129.8467" style="stroke:#10B981;stroke-width:1;"/><line x1="954.2217" y1="1129.8467" x2="1146.0029" y2="1129.8467" style="stroke:#10B981;stroke-width:1;"/><polygon points="1136.0029,1125.8467,1146.0029,1129.8467,1136.0029,1133.8467" fill="#10B981" style="stroke:#10B981;stroke-width:1;stroke-linejoin:miter;stroke-miterlimit:10;"/><line x1="954.2217" y1="873.5381" x2="954.2217" y2="893.5381" style="stroke:#10B981;stroke-width:1;"/><polygon points="950.2217,883.5381,958.2217,883.5381,954.2217,893.5381" fill="#10B981" style="stroke:#10B981;stroke-width:1;stroke-linejoin:miter;stroke-miterlimit:10;"/><line x1="1061.948" y1="807.5693" x2="954.2217" y2="807.5693" style="stroke:#10B981;stroke-width:1;"/><line x1="954.2217" y1="807.5693" x2="954.2217" y2="839.5693" style="stroke:#10B981;stroke-width:1;"/><polygon points="950.2217,829.5693,958.2217,829.5693,954.2217,839.5693" fill="#10B981" style="stroke:#10B981;stroke-width:1;stroke-linejoin:miter;stroke-miterlimit:10;"/><line x1="1158.0029" y1="775.5693" x2="1158.0029" y2="795.5693" style="stroke:#10B981;stroke-width:1;"/><polygon points="1154.0029,785.5693,1162.0029,785.5693,1158.0029,795.5693" fill="#10B981" style="stroke:#10B981;stroke-width:1;stroke-linejoin:miter;stroke-miterlimit:10;"/><line x1="374.8779" y1="330.8389" x2="374.8779" y2="335.8389" style="stroke:#10B981;stroke-width:1;"/><line x1="374.8779" y1="335.8389" x2="1158.0029" y2="335.8389" style="stroke:#10B981;stroke-width:1;"/><line x1="1158.0029" y1="335.8389" x2="1158.0029" y2="350.8389" style="stroke:#10B981;stroke-width:1;"/><polygon points="1154.0029,340.8389,1162.0029,340.8389,1158.0029,350.8389" fill="#10B981" style="stroke:#10B981;stroke-width:1;stroke-linejoin:miter;stroke-miterlimit:10;"/><line x1="954.2217" y1="989.8779" x2="954.2217" y2="994.8779" style="stroke:#10B981;stroke-width:1;"/><line x1="954.2217" y1="994.8779" x2="171.0967" y2="994.8779" style="stroke:#10B981;stroke-width:1;"/><line x1="171.0967" y1="994.8779" x2="171.0967" y2="1009.8779" style="stroke:#10B981;stroke-width:1;"/><polygon points="167.0967,999.8779,175.0967,999.8779,171.0967,1009.8779" fill="#10B981" style="stroke:#10B981;stroke-width:1;stroke-linejoin:miter;stroke-miterlimit:10;"/><line x1="1254.0579" y1="807.5693" x2="1266.0579" y2="807.5693" style="stroke:#10B981;stroke-width:1;"/><line x1="1266.0579" y1="807.5693" x2="1266.0579" y2="825.5693" style="stroke:#10B981;stroke-width:1;"/><line x1="1266.0579" y1="825.5693" x2="578.6592" y2="825.5693" style="stroke:#10B981;stroke-width:1;"/><line x1="578.6592" y1="825.5693" x2="578.6592" y2="839.5693" style="stroke:#10B981;stroke-width:1;"/><polygon points="574.6592,829.5693,582.6592,829.5693,578.6592,839.5693" fill="#10B981" style="stroke:#10B981;stroke-width:1;stroke-linejoin:miter;stroke-miterlimit:10;"/><line x1="578.6592" y1="873.5381" x2="578.6592" y2="1111.8467" style="stroke:#10B981;stroke-width:1;"/><line x1="578.6592" y1="1111.8467" x2="1188.0029" y2="1111.8467" style="stroke:#10B981;stroke-width:1;"/><line x1="1188.0029" y1="1111.8467" x2="1188.0029" y2="1129.8467" style="stroke:#10B981;stroke-width:1;"/><line x1="1188.0029" y1="1129.8467" x2="1170.0029" y2="1129.8467" style="stroke:#10B981;stroke-width:1;"/><polygon points="1180.0029,1125.8467,1170.0029,1129.8467,1180.0029,1133.8467" fill="#10B981" style="stroke:#10B981;stroke-width:1;stroke-linejoin:miter;stroke-miterlimit:10;"/><line x1="1158.0029" y1="1141.8467" x2="1158.0029" y2="1146.8467" style="stroke:#10B981;stroke-width:1;"/><line x1="1158.0029" y1="1146.8467" x2="374.8779" y2="1146.8467" style="stroke:#10B981;stroke-width:1;"/><line x1="374.8779" y1="1146.8467" x2="374.8779" y2="1161.8467" style="stroke:#10B981;stroke-width:1;"/><polygon points="370.8779,1151.8467,378.8779,1151.8467,374.8779,1161.8467" fill="#10B981" style="stroke:#10B981;stroke-width:1;stroke-linejoin:miter;stroke-miterlimit:10;"/><text x="309.6738" y="71.75" fill="#000000" font-size="18" lengthAdjust="spacing" textLength="155.7598" font-family="'Plus Jakarta Sans'">Operator / Admin</text><text x="943.4868" y="71.75" fill="#000000" font-size="18" lengthAdjust="spacing" textLength="230.7832" font-family="'Plus Jakarta Sans'">Sistem (Laravel Backend)</text><?plantuml-src bLHhRnit4Fn-lsAX0l4fLLlR2D3MgXlOYGMaRb8ZSWiKC62jTDI99e-yy653W7zyXlTGphNIelea7lSnEpDBhwIfsN55yx3LWdnmSXLYfJE_ktahrXnrc5aJFd0bQ7IbewVVMB4BJ7CsVZI8Fbi5UI_3zfnNgdGsckADrTRHDxCVPwykplT5MbS8rqKT7X-_EJxU4vNQVpN6EVlGNHuTdl_yqz7WSXw0yskN5pju5xDN-0t7bbnPK_pt77tWluxH1JsV8WioWFYZe-zJJDcCevgHsOFwm5BJTtGbp5Ruo98D1hAAthE9h2c_j4ueB-cTkHScM2V7MVRuHoqSuq0_q5bHIVEO-KH2Tl9ULCkec3QikK8fLE4xKGc3o8_Ib8fzrs2QWerGE0PRBQscqRm1eBg04TLSC2tPIK_BQ4fkKqe9D6lhggYbetg0Ex-IMcxecgibRz3mCZesvUJ6WACOw0wkmtSlD2fi9lI20afu0jG4we7lv7Ay3vQiQXm738scu60kVH0LvR-3_dkXAUaeJ35-R2iuMJ7D09C-YazH-F2CugPLTSzQ5eoH2eRPMwHvXv5-fSD9ZoyWJ14GYGqfwwqf0JQJQyh_waje2EzVZobiG7X-dHB66U7Ny0Pf49WcKw8Xa0fynR4MgRw0nntrSAPDdW-speJsWlA_UPnXFBdElgWSmAzdrO5VSefRl3q_EMali5ZMB3fAosXMibEpThQ8YhPGXmhfTxBd2srN2gJzMQEWw581UyK9YkeJFNC0LRAR_rhMueaHJa_fe1N_e2SZmTyniP41VcfBijh0HgVjeI-CXNZgbfQErEoinhkq6UR-GeUl_zccQmNeWNLZfXrL-KjdjSPCwkLuUcEUAkE4hsslnMZ-fSbGVIDA3d8zckvQxLd80Gei1SOQglo2Ae5M8kmTSwTy-jEgF_1IQuBkSxDg_ulPRv-r7BWAKy0XKSBWsbQqGEfABU0HWhsmOul60AlW5wsfcltLjYIEXGo3k2RnjhBtwUr1-8t9kzHRMKmeRE4Oc8IBk-X32ZcOqAV81c_bDa7kteWRqnPQ2koBc51xudKGRaB61dnQEG6h5hVBb1UzS6YGV7jfAvagq_Mp9PbctKE6Dw9Nt4U5FKYR2H2CnqtXkTiZwqxEdiL4Bk34PcCWRBjXYPF4PAB4oGVU8gEAeLdi9Erd?></g></svg>