<svg xmlns="http://www.w3.org/2000/svg" xmlns:xlink="http://www.w3.org/1999/xlink" version="1.1" data-diagram-type="ACTIVITY" style="width:1411px;height:1062px;background:#FFFFFF;" width="1411px" height="1062px" viewBox="0 0 1411 1062" zoomAndPan="magnify" preserveAspectRatio="none" contentStyleType="text/css"><?plantuml 1.2026.7beta3?><defs/><g><g class="title" data-source-line="13"><text x="477.4473" y="32.9951" fill="#000000" font-size="14" lengthAdjust="spacing" textLength="454.1523" font-weight="700" font-family="'Plus Jakarta Sans'">9. Diagram Aktivitas Detail - Pengelolaan Status Pesanan</text></g><rect x="20" y="55.042" width="1364.0469" height="20.9531" fill="none" style="stroke:none;stroke-width:1;"/><ellipse cx="191.4785" cy="90.9951" rx="10" ry="10" fill="#222222" style="stroke:#222222;stroke-width:1;"/><rect x="61.874" y="120.9951" width="259.209" height="33.9688" fill="#F7F4EB" style="stroke:#022C22;stroke-width:0.5;" rx="12.5" ry="12.5"/><text x="71.874" y="142.1338" fill="#022C22" font-size="12" lengthAdjust="spacing" textLength="239.209" font-family="'Plus Jakarta Sans'">Membuka halaman Detail Pesanan aktif</text><rect x="26" y="174.9639" width="330.957" height="33.9688" fill="#F7F4EB" style="stroke:#022C22;stroke-width:0.5;" rx="12.5" ry="12.5"/><text x="36" y="196.1025" fill="#022C22" font-size="12" lengthAdjust="spacing" textLength="310.957" font-family="'Plus Jakarta Sans'">Memilih status baru pada dropdown navigasi status</text><rect x="37.9092" y="228.9326" width="307.1387" height="33.9688" fill="#F7F4EB" style="stroke:#022C22;stroke-width:0.5;" rx="12.5" ry="12.5"/><text x="47.9092" y="250.0713" fill="#022C22" font-size="12" lengthAdjust="spacing" textLength="287.1387" font-family="'Plus Jakarta Sans'">Menginput catatan operasional staf (*optional*)</text><rect x="77.5889" y="282.9014" width="227.7793" height="33.9688" fill="#F7F4EB" style="stroke:#022C22;stroke-width:0.5;" rx="12.5" ry="12.5"/><text x="87.5889" y="304.04" fill="#022C22" font-size="12" lengthAdjust="spacing" textLength="207.7793" font-family="'Plus Jakarta Sans'">Menekan tombol "Perbarui Status"</text><rect x="254.0024" y="652.6201" width="302.0293" height="33.9688" fill="#F7F4EB" style="stroke:#022C22;stroke-width:0.5;" rx="12.5" ry="12.5"/><text x="264.0024" y="673.7588" fill="#022C22" font-size="12" lengthAdjust="spacing" textLength="282.0293" font-family="'Plus Jakarta Sans'">Melihat pesan error &amp; memilih alur yang benar</text><ellipse cx="405.0171" cy="732.5889" rx="11" ry="11" fill="none" style="stroke:#222222;stroke-width:1;"/><ellipse cx="405.0171" cy="732.5889" rx="6" ry="6" fill="#222222" style="stroke:#222222;stroke-width:1;"/><rect x="41.627" y="965.2998" width="299.7031" height="33.9688" fill="#F7F4EB" style="stroke:#022C22;stroke-width:0.5;" rx="12.5" ry="12.5"/><text x="51.627" y="986.4385" fill="#022C22" font-size="12" lengthAdjust="spacing" textLength="279.7031" font-family="'Plus Jakarta Sans'">Melihat lini masa (*timeline*) status terupdate</text><ellipse cx="191.4785" cy="1030.2686" rx="11" ry="11" fill="none" style="stroke:#222222;stroke-width:1;"/><ellipse cx="191.4785" cy="1030.2686" rx="6" ry="6" fill="#222222" style="stroke:#222222;stroke-width:1;"/><line x1="20" y1="55.042" x2="20" y2="1041.2686" style="stroke:#000000;stroke-width:1.5;"/><rect x="838.5801" y="336.8701" width="262.4434" height="33.9688" fill="#F7F4EB" style="stroke:#022C22;stroke-width:0.5;" rx="12.5" ry="12.5"/><text x="848.5801" y="358.0088" fill="#022C22" font-size="12" lengthAdjust="spacing" textLength="242.4434" font-family="'Plus Jakarta Sans'">Memvalidasi kewenangan staf (*policy*)</text><rect x="855.0391" y="390.8389" width="229.5254" height="33.9688" fill="#F7F4EB" style="stroke:#022C22;stroke-width:0.5;" rx="12.5" ry="12.5"/><text x="865.0391" y="411.9775" fill="#022C22" font-size="12" lengthAdjust="spacing" textLength="209.5254" font-family="'Plus Jakarta Sans'">Mengambil status pesanan saat ini</text><rect x="818.4854" y="444.8076" width="302.6328" height="89.8438" fill="#F7F4EB" style="stroke:#022C22;stroke-width:0.5;" rx="12.5" ry="12.5"/><text x="828.4854" y="465.9463" fill="#022C22" font-size="12" lengthAdjust="spacing" textLength="239.1855" font-family="'Plus Jakarta Sans'">Memeriksa validitas alur transisi status:</text><ellipse cx="833.9854" cy="475.2451" rx="2.5" ry="2.5" fill="#022C22"/><text x="840.4854" y="479.915" fill="#022C22" font-size="12" lengthAdjust="spacing" textLength="241.9395" font-family="'Plus Jakarta Sans'">`paid` -> `processing` (Mulai dirangkai)</text><ellipse cx="833.9854" cy="489.2139" rx="2.5" ry="2.5" fill="#022C22"/><text x="840.4854" y="493.8838" fill="#022C22" font-size="12" lengthAdjust="spacing" textLength="270.6328" font-family="'Plus Jakarta Sans'">`processing` -> `ready` (Bunga selesai/siap)</text><ellipse cx="833.9854" cy="503.1826" rx="2.5" ry="2.5" fill="#022C22"/><text x="840.4854" y="507.8525" fill="#022C22" font-size="12" lengthAdjust="spacing" textLength="255.9961" font-family="'Plus Jakarta Sans'">`ready` -> `shipped` (Bunga dikirim kurir)</text><ellipse cx="833.9854" cy="517.1514" rx="2.5" ry="2.5" fill="#022C22"/><text x="840.4854" y="521.8213" fill="#022C22" font-size="12" lengthAdjust="spacing" textLength="266.1797" font-family="'Plus Jakarta Sans'">`shipped` -> `completed` (Pesanan selesai)</text><polygon points="890.7097,554.6514,1048.8938,554.6514,1060.8938,566.6514,1048.8938,578.6514,890.7097,578.6514,878.7097,566.6514,890.7097,554.6514" fill="#F7F4EB" style="stroke:#022C22;stroke-width:0.5;stroke-linejoin:miter;stroke-miterlimit:10;"/><text x="890.7097" y="570.4595" fill="#022C22" font-size="11" lengthAdjust="spacing" textLength="158.1841" font-family="'Plus Jakarta Sans'">Apakah transisi status legal?</text><text x="865.2498" y="564.0571" fill="#000000" font-size="11" lengthAdjust="spacing" textLength="13.46" font-family="'Plus Jakarta Sans'">Ya</text><text x="1060.8938" y="564.0571" fill="#000000" font-size="11" lengthAdjust="spacing" textLength="29.8687" font-family="'Plus Jakarta Sans'">Tidak</text><rect x="588.854" y="598.6514" width="334.8184" height="33.9688" fill="#F7F4EB" style="stroke:#022C22;stroke-width:0.5;" rx="12.5" ry="12.5"/><text x="598.854" y="619.79" fill="#022C22" font-size="12" lengthAdjust="spacing" textLength="314.8184" font-family="'Plus Jakarta Sans'">Memperbarui kolom `order_status` di tabel `orders`</text><rect x="566.0317" y="701.0225" width="380.4629" height="33.9688" fill="#F7F4EB" style="stroke:#022C22;stroke-width:0.5;" rx="12.5" ry="12.5"/><text x="576.0317" y="722.1611" fill="#022C22" font-size="12" lengthAdjust="spacing" textLength="360.4629" font-family="'Plus Jakarta Sans'">Mengisi timestamp `completed_at` dengan waktu sekarang</text><polygon points="693.8188,652.6201,818.7075,652.6201,830.7075,664.6201,818.7075,676.6201,693.8188,676.6201,681.8188,664.6201,693.8188,652.6201" fill="#F7F4EB" style="stroke:#022C22;stroke-width:0.5;stroke-linejoin:miter;stroke-miterlimit:10;"/><text x="760.2632" y="686.8306" fill="#000000" font-size="11" lengthAdjust="spacing" textLength="13.46" font-family="'Plus Jakarta Sans'">Ya</text><text x="693.8188" y="668.4282" fill="#022C22" font-size="11" lengthAdjust="spacing" textLength="124.8887" font-family="'Plus Jakarta Sans'">Status == 'completed'</text><text x="830.7075" y="662.0259" fill="#000000" font-size="11" lengthAdjust="spacing" textLength="29.8687" font-family="'Plus Jakarta Sans'">Tidak</text><polygon points="756.2632,759.3936,768.2632,771.3936,756.2632,783.3936,744.2632,771.3936,756.2632,759.3936" fill="#F7F4EB" style="stroke:#022C22;stroke-width:0.5;stroke-linejoin:miter;stroke-miterlimit:10;"/><rect x="577.7827" y="803.3936" width="356.9609" height="33.9688" fill="#F7F4EB" style="stroke:#022C22;stroke-width:0.5;" rx="12.5" ry="12.5"/><text x="587.7827" y="824.5322" fill="#022C22" font-size="12" lengthAdjust="spacing" textLength="336.9609" font-family="'Plus Jakarta Sans'">Mencatat log riwayat transisi di `order_status_histories`</text><rect x="629.6558" y="857.3623" width="253.2148" height="33.9688" fill="#F7F4EB" style="stroke:#022C22;stroke-width:0.5;" rx="12.5" ry="12.5"/><text x="639.6558" y="878.501" fill="#022C22" font-size="12" lengthAdjust="spacing" textLength="233.2148" font-family="'Plus Jakarta Sans'">Mengirim respon sukses ke antarmuka</text><rect x="988.4946" y="598.6514" width="389.6914" height="33.9688" fill="#F7F4EB" style="stroke:#022C22;stroke-width:0.5;" rx="12.5" ry="12.5"/><text x="998.4946" y="619.79" fill="#022C22" font-size="12" lengthAdjust="spacing" textLength="369.6914" font-family="'Plus Jakarta Sans'">Menolak perubahan &amp; mengirim respon error "Transisi Ilegal"</text><rect x="844.665" y="911.3311" width="250.2734" height="33.9688" fill="#F7F4EB" style="stroke:#022C22;stroke-width:0.5;" rx="12.5" ry="12.5"/><text x="854.665" y="932.4697" fill="#022C22" font-size="12" lengthAdjust="spacing" textLength="230.2734" font-family="'Plus Jakarta Sans'">Menyegarkan halaman detail pesanan</text><line x1="560.0317" y1="55.042" x2="560.0317" y2="1041.2686" style="stroke:#000000;stroke-width:1.5;"/><line x1="1382.186" y1="55.042" x2="1382.186" y2="1041.2686" style="stroke:#000000;stroke-width:1.5;"/><line x1="191.4785" y1="100.9951" x2="191.4785" y2="120.9951" style="stroke:#10B981;stroke-width:1;"/><polygon points="187.4785,110.9951,195.4785,110.9951,191.4785,120.9951" fill="#10B981" style="stroke:#10B981;stroke-width:1;stroke-linejoin:miter;stroke-miterlimit:10;"/><line x1="191.4785" y1="154.9639" x2="191.4785" y2="174.9639" style="stroke:#10B981;stroke-width:1;"/><polygon points="187.4785,164.9639,195.4785,164.9639,191.4785,174.9639" fill="#10B981" style="stroke:#10B981;stroke-width:1;stroke-linejoin:miter;stroke-miterlimit:10;"/><line x1="191.4785" y1="208.9326" x2="191.4785" y2="228.9326" style="stroke:#10B981;stroke-width:1;"/><polygon points="187.4785,218.9326,195.4785,218.9326,191.4785,228.9326" fill="#10B981" style="stroke:#10B981;stroke-width:1;stroke-linejoin:miter;stroke-miterlimit:10;"/><line x1="191.4785" y1="262.9014" x2="191.4785" y2="282.9014" style="stroke:#10B981;stroke-width:1;"/><polygon points="187.4785,272.9014,195.4785,272.9014,191.4785,282.9014" fill="#10B981" style="stroke:#10B981;stroke-width:1;stroke-linejoin:miter;stroke-miterlimit:10;"/><line x1="405.0171" y1="686.5889" x2="405.0171" y2="721.5889" style="stroke:#10B981;stroke-width:1;"/><polygon points="401.0171,711.5889,409.0171,711.5889,405.0171,721.5889" fill="#10B981" style="stroke:#10B981;stroke-width:1;stroke-linejoin:miter;stroke-miterlimit:10;"/><line x1="191.4785" y1="999.2686" x2="191.4785" y2="1019.2686" style="stroke:#10B981;stroke-width:1;"/><polygon points="187.4785,1009.2686,195.4785,1009.2686,191.4785,1019.2686" fill="#10B981" style="stroke:#10B981;stroke-width:1;stroke-linejoin:miter;stroke-miterlimit:10;"/><line x1="969.8018" y1="370.8389" x2="969.8018" y2="390.8389" style="stroke:#10B981;stroke-width:1;"/><polygon points="965.8018,380.8389,973.8018,380.8389,969.8018,390.8389" fill="#10B981" style="stroke:#10B981;stroke-width:1;stroke-linejoin:miter;stroke-miterlimit:10;"/><line x1="969.8018" y1="424.8076" x2="969.8018" y2="444.8076" style="stroke:#10B981;stroke-width:1;"/><polygon points="965.8018,434.8076,973.8018,434.8076,969.8018,444.8076" fill="#10B981" style="stroke:#10B981;stroke-width:1;stroke-linejoin:miter;stroke-miterlimit:10;"/><line x1="756.2632" y1="676.6201" x2="756.2632" y2="701.0225" style="stroke:#10B981;stroke-width:1;"/><polygon points="752.2632,691.0225,760.2632,691.0225,756.2632,701.0225" fill="#10B981" style="stroke:#10B981;stroke-width:1;stroke-linejoin:miter;stroke-miterlimit:10;"/><line x1="830.7075" y1="664.6201" x2="956.4946" y2="664.6201" style="stroke:#10B981;stroke-width:1;"/><polygon points="952.4946,708.0068,960.4946,708.0068,956.4946,718.0068" fill="#10B981" style="stroke:#10B981;stroke-width:1;stroke-linejoin:miter;stroke-miterlimit:10;"/><line x1="956.4946" y1="664.6201" x2="956.4946" y2="771.3936" style="stroke:#10B981;stroke-width:1;"/><line x1="956.4946" y1="771.3936" x2="768.2632" y2="771.3936" style="stroke:#10B981;stroke-width:1;"/><polygon points="778.2632,767.3936,768.2632,771.3936,778.2632,775.3936" fill="#10B981" style="stroke:#10B981;stroke-width:1;stroke-linejoin:miter;stroke-miterlimit:10;"/><line x1="756.2632" y1="734.9912" x2="756.2632" y2="759.3936" style="stroke:#10B981;stroke-width:1;"/><polygon points="752.2632,749.3936,760.2632,749.3936,756.2632,759.3936" fill="#10B981" style="stroke:#10B981;stroke-width:1;stroke-linejoin:miter;stroke-miterlimit:10;"/><line x1="756.2632" y1="632.6201" x2="756.2632" y2="652.6201" style="stroke:#10B981;stroke-width:1;"/><polygon points="752.2632,642.6201,760.2632,642.6201,756.2632,652.6201" fill="#10B981" style="stroke:#10B981;stroke-width:1;stroke-linejoin:miter;stroke-miterlimit:10;"/><line x1="756.2632" y1="783.3936" x2="756.2632" y2="803.3936" style="stroke:#10B981;stroke-width:1;"/><polygon points="752.2632,793.3936,760.2632,793.3936,756.2632,803.3936" fill="#10B981" style="stroke:#10B981;stroke-width:1;stroke-linejoin:miter;stroke-miterlimit:10;"/><line x1="756.2632" y1="837.3623" x2="756.2632" y2="857.3623" style="stroke:#10B981;stroke-width:1;"/><polygon points="752.2632,847.3623,760.2632,847.3623,756.2632,857.3623" fill="#10B981" style="stroke:#10B981;stroke-width:1;stroke-linejoin:miter;stroke-miterlimit:10;"/><line x1="878.7097" y1="566.6514" x2="756.2632" y2="566.6514" style="stroke:#10B981;stroke-width:1;"/><line x1="756.2632" y1="566.6514" x2="756.2632" y2="598.6514" style="stroke:#10B981;stroke-width:1;"/><polygon points="752.2632,588.6514,760.2632,588.6514,756.2632,598.6514" fill="#10B981" style="stroke:#10B981;stroke-width:1;stroke-linejoin:miter;stroke-miterlimit:10;"/><line x1="1060.8938" y1="566.6514" x2="1183.3403" y2="566.6514" style="stroke:#10B981;stroke-width:1;"/><line x1="1183.3403" y1="566.6514" x2="1183.3403" y2="598.6514" style="stroke:#10B981;stroke-width:1;"/><polygon points="1179.3403,588.6514,1187.3403,588.6514,1183.3403,598.6514" fill="#10B981" style="stroke:#10B981;stroke-width:1;stroke-linejoin:miter;stroke-miterlimit:10;"/><line x1="756.2632" y1="891.3311" x2="756.2632" y2="896.3311" style="stroke:#10B981;stroke-width:1;"/><line x1="756.2632" y1="896.3311" x2="969.8018" y2="896.3311" style="stroke:#10B981;stroke-width:1;"/><line x1="969.8018" y1="896.3311" x2="969.8018" y2="911.3311" style="stroke:#10B981;stroke-width:1;"/><polygon points="965.8018,901.3311,973.8018,901.3311,969.8018,911.3311" fill="#10B981" style="stroke:#10B981;stroke-width:1;stroke-linejoin:miter;stroke-miterlimit:10;"/><line x1="969.8018" y1="534.6514" x2="969.8018" y2="554.6514" style="stroke:#10B981;stroke-width:1;"/><polygon points="965.8018,544.6514,973.8018,544.6514,969.8018,554.6514" fill="#10B981" style="stroke:#10B981;stroke-width:1;stroke-linejoin:miter;stroke-miterlimit:10;"/><line x1="191.4785" y1="316.8701" x2="191.4785" y2="321.8701" style="stroke:#10B981;stroke-width:1;"/><line x1="191.4785" y1="321.8701" x2="969.8018" y2="321.8701" style="stroke:#10B981;stroke-width:1;"/><line x1="969.8018" y1="321.8701" x2="969.8018" y2="336.8701" style="stroke:#10B981;stroke-width:1;"/><polygon points="965.8018,326.8701,973.8018,326.8701,969.8018,336.8701" fill="#10B981" style="stroke:#10B981;stroke-width:1;stroke-linejoin:miter;stroke-miterlimit:10;"/><line x1="1183.3403" y1="632.6201" x2="1183.3403" y2="637.6201" style="stroke:#10B981;stroke-width:1;"/><line x1="1183.3403" y1="637.6201" x2="405.0171" y2="637.6201" style="stroke:#10B981;stroke-width:1;"/><line x1="405.0171" y1="637.6201" x2="405.0171" y2="652.6201" style="stroke:#10B981;stroke-width:1;"/><polygon points="401.0171,642.6201,409.0171,642.6201,405.0171,652.6201" fill="#10B981" style="stroke:#10B981;stroke-width:1;stroke-linejoin:miter;stroke-miterlimit:10;"/><line x1="969.8018" y1="945.2998" x2="969.8018" y2="950.2998" style="stroke:#10B981;stroke-width:1;"/><line x1="969.8018" y1="950.2998" x2="191.4785" y2="950.2998" style="stroke:#10B981;stroke-width:1;"/><line x1="191.4785" y1="950.2998" x2="191.4785" y2="965.2998" style="stroke:#10B981;stroke-width:1;"/><polygon points="187.4785,955.2998,195.4785,955.2998,191.4785,965.2998" fill="#10B981" style="stroke:#10B981;stroke-width:1;stroke-linejoin:miter;stroke-miterlimit:10;"/><text x="212.136" y="71.75" fill="#000000" font-size="18" lengthAdjust="spacing" textLength="155.7598" font-family="'Plus Jakarta Sans'">Operator / Admin</text><text x="855.7173" y="71.75" fill="#000000" font-size="18" lengthAdjust="spacing" textLength="230.7832" font-family="'Plus Jakarta Sans'">Sistem (Laravel Backend)</text><?plantuml-src XLJRJjj047ttLunIgIIHA1GXjH3HYb2GMfKM2LxwH2Rnn1bvRzfT4qNYupkxjgEKI_6JxJqpSyxCcGqr6uSUDTp6ZI88qVCYDbeLONloZPROg7XbJVo5cc1meve0Fx167n5kqOJ13lfy4Vc1usQAYxhojZ7bXLNMmxkhJrV7bzENaDQNv3lKuT7HnT7H2wXK_bMCztRT7Nuyd9vy_hXpU1k5vsk7brjwbrV7ykpAPjJMb6_hw87_bT61dgie8aTf_Cc71AcocZehnY2TZyWAzk66J4NAAaIJz4Jf_mq5D6YAul6t8uzHKXx0UQdPF1OXIIvEhqdFcnfXXGgrH7RfkaX0gRESP1WhNidiS-8v-WOSbWYbjwwqQmC67xZ2m1qanvXAf3KH5YZ_99jDB09RWoh1bZ0SMnVpztZKHb0jk6Zrt2en4VbKYJizWuaekUKGISFmfxJiWHIatfCfHu-Pv0CgBXEBcjOa0Yh9rbLoLl5YqzUfKCzPzNfS9pSWHc33hMBoN0U4d3Ft6bNZ8NfnCs-5dXPZc3daSWRxN-JDsmM5mAQQmV2wKSXGiaHKDV8eGtS0AS0JbXl1JXlX186KKE63mEWol3jEoB1YvwZSOakksRE6kl7iCtYBIF25rKvHp07zEBlqqeE2fIVdJXPqzLGHAAfGVHr1N961uHyS5I1FweZh1rABFpNCiftlsx2P48A8Svb9-p_C9ZamLUeCUNO6UrjUUqyhT5N4DS8biYP9hDsEadkCKeNoLDTYpKO4oGqZtMqhaGe4mpjnGDrc56FmicTliWr1sGeyht4ZxrlbGlqVCVShiPdrJBs8bbTgjwVWhBIogGC5yHcWaLNIiaIJuXc152OhMOl3V3F7bH1_3_f9AfAhoSFWhYVpFGzWq1P-ONMxnBAF8Y5RjqkHKhTxcfswaSR0NDR0jwb4aIlQbhonHsOZ37nQnVvUADjxeLkKoKitofQIaWq2ZR8wmt4QetpJUDIxAqedN8cH9aKYz1S0?></g></svg>