<svg xmlns="http://www.w3.org/2000/svg" xmlns:xlink="http://www.w3.org/1999/xlink" version="1.1" data-diagram-type="ACTIVITY" style="width:2287px;height:926px;background:#FFFFFF;" width="2287px" height="926px" viewBox="0 0 2287 926" zoomAndPan="magnify" preserveAspectRatio="none" contentStyleType="text/css"><?plantuml 1.2026.7beta3?><defs/><g><g class="title" data-source-line="13"><text x="858.5632" y="32.9951" fill="#000000" font-size="14" lengthAdjust="spacing" textLength="568.7158" font-weight="700" font-family="'Plus Jakarta Sans'">10. Diagram Aktivitas Detail - Pengelolaan Produk Bunga (Admin CRUD)</text></g><rect x="20" y="55.042" width="2240.8423" height="20.9531" fill="none" style="stroke:none;stroke-width:1;"/><ellipse cx="500.7451" cy="90.9951" rx="10" ry="10" fill="#222222" style="stroke:#222222;stroke-width:1;"/><rect x="369.4297" y="120.9951" width="262.6309" height="33.9688" fill="#F7F4EB" style="stroke:#022C22;stroke-width:0.5;" rx="12.5" ry="12.5"/><text x="379.4297" y="142.1338" fill="#022C22" font-size="12" lengthAdjust="spacing" textLength="242.6309" font-family="'Plus Jakarta Sans'">Mengakses halaman Manajemen Produk</text><line x1="192.7148" y1="174.9639" x2="642.0605" y2="174.9639" style="stroke:#10B981;stroke-width:1.5;"/><rect x="84.7783" y="255.8662" width="215.873" height="33.9688" fill="#F7F4EB" style="stroke:#022C22;stroke-width:0.5;" rx="12.5" ry="12.5"/><text x="94.7783" y="277.0049" fill="#022C22" font-size="12" lengthAdjust="spacing" textLength="195.873" font-family="'Plus Jakarta Sans'">Menekan "Tambah Produk Baru"</text><rect x="26" y="316.7686" width="333.4297" height="47.9375" fill="#F7F4EB" style="stroke:#022C22;stroke-width:0.5;" rx="12.5" ry="12.5"/><text x="36" y="337.9072" fill="#022C22" font-size="12" lengthAdjust="spacing" textLength="313.4297" font-family="'Plus Jakarta Sans'">Mengisi form nama, deskripsi, harga, stok, kategori,</text><text x="36" y="351.876" fill="#022C22" font-size="12" lengthAdjust="spacing" textLength="264.0117" font-family="'Plus Jakarta Sans'">status aktif, &amp; mengunggah gambar produk</text><rect x="102.4414" y="399.7061" width="180.5469" height="33.9688" fill="#F7F4EB" style="stroke:#022C22;stroke-width:0.5;" rx="12.5" ry="12.5"/><text x="112.4414" y="420.8447" fill="#022C22" font-size="12" lengthAdjust="spacing" textLength="160.5469" font-family="'Plus Jakarta Sans'">Menekan tombol "Simpan"</text><rect x="397.1094" y="829.4521" width="207.2715" height="33.9688" fill="#F7F4EB" style="stroke:#022C22;stroke-width:0.5;" rx="12.5" ry="12.5"/><text x="407.1094" y="850.5908" fill="#022C22" font-size="12" lengthAdjust="spacing" textLength="187.2715" font-family="'Plus Jakarta Sans'">Melihat tabel produk terupdate</text><ellipse cx="500.7451" cy="894.4209" rx="11" ry="11" fill="none" style="stroke:#222222;stroke-width:1;"/><ellipse cx="500.7451" cy="894.4209" rx="6" ry="6" fill="#222222" style="stroke:#222222;stroke-width:1;"/><line x1="20" y1="55.042" x2="20" y2="905.4209" style="stroke:#000000;stroke-width:1.5;"/><rect x="770.9751" y="468.6748" width="353.5332" height="33.9688" fill="#F7F4EB" style="stroke:#022C22;stroke-width:0.5;" rx="12.5" ry="12.5"/><text x="780.9751" y="489.8135" fill="#022C22" font-size="12" lengthAdjust="spacing" textLength="333.5332" font-family="'Plus Jakarta Sans'">Memvalidasi input (harga &amp; stok >= 0, gambar &lt; 2MB)</text><polygon points="902.979,537.6436,992.5044,537.6436,1004.5044,549.6436,992.5044,561.6436,902.979,561.6436,890.979,549.6436,902.979,537.6436" fill="#F7F4EB" style="stroke:#022C22;stroke-width:0.5;stroke-linejoin:miter;stroke-miterlimit:10;"/><text x="902.979" y="553.4517" fill="#022C22" font-size="11" lengthAdjust="spacing" textLength="89.5254" font-family="'Plus Jakarta Sans'">Validasi sukses?</text><text x="877.519" y="547.0493" fill="#000000" font-size="11" lengthAdjust="spacing" textLength="13.46" font-family="'Plus Jakarta Sans'">Ya</text><text x="1004.5044" y="547.0493" fill="#000000" font-size="11" lengthAdjust="spacing" textLength="29.8687" font-family="'Plus Jakarta Sans'">Tidak</text><rect x="653.0605" y="571.6436" width="299.2109" height="33.9688" fill="#F7F4EB" style="stroke:#022C22;stroke-width:0.5;" rx="12.5" ry="12.5"/><text x="663.0605" y="592.7822" fill="#022C22" font-size="12" lengthAdjust="spacing" textLength="279.2109" font-family="'Plus Jakarta Sans'">Menyimpan gambar ke `public/products/` disk</text><rect x="673.2695" y="640.6123" width="258.793" height="33.9688" fill="#F7F4EB" style="stroke:#022C22;stroke-width:0.5;" rx="12.5" ry="12.5"/><text x="683.2695" y="661.751" fill="#022C22" font-size="12" lengthAdjust="spacing" textLength="238.793" font-family="'Plus Jakarta Sans'">Membuat baris baru di tabel `products`</text><rect x="972.2715" y="571.6436" width="241.0918" height="33.9688" fill="#F7F4EB" style="stroke:#022C22;stroke-width:0.5;" rx="12.5" ry="12.5"/><text x="982.2715" y="592.7822" fill="#022C22" font-size="12" lengthAdjust="spacing" textLength="221.0918" font-family="'Plus Jakarta Sans'">Kembali ke form dengan pesan error</text><ellipse cx="1092.8174" cy="651.6123" rx="11" ry="11" fill="none" style="stroke:#222222;stroke-width:1;"/><ellipse cx="1092.8174" cy="651.6123" rx="6" ry="6" fill="#222222" style="stroke:#222222;stroke-width:1;"/><rect x="1470.8271" y="194.9639" width="238.2031" height="33.9688" fill="#F7F4EB" style="stroke:#022C22;stroke-width:0.5;" rx="12.5" ry="12.5"/><text x="1480.8271" y="216.1025" fill="#022C22" font-size="12" lengthAdjust="spacing" textLength="218.2031" font-family="'Plus Jakarta Sans'">Menekan tombol "Edit" pada produk</text><rect x="1383.8975" y="248.9326" width="412.0625" height="33.9688" fill="#F7F4EB" style="stroke:#022C22;stroke-width:0.5;" rx="12.5" ry="12.5"/><text x="1393.8975" y="270.0713" fill="#022C22" font-size="12" lengthAdjust="spacing" textLength="392.0625" font-family="'Plus Jakarta Sans'">Mengubah data produk &amp; mengunggah gambar baru (*optional*)</text><rect x="1465.4014" y="309.835" width="249.0547" height="33.9688" fill="#F7F4EB" style="stroke:#022C22;stroke-width:0.5;" rx="12.5" ry="12.5"/><text x="1475.4014" y="330.9736" fill="#022C22" font-size="12" lengthAdjust="spacing" textLength="229.0547" font-family="'Plus Jakarta Sans'">Menekan tombol "Simpan Perubahan"</text><rect x="1525.0352" y="378.8037" width="129.7871" height="33.9688" fill="#F7F4EB" style="stroke:#022C22;stroke-width:0.5;" rx="12.5" ry="12.5"/><text x="1535.0352" y="399.9424" fill="#022C22" font-size="12" lengthAdjust="spacing" textLength="109.7871" font-family="'Plus Jakarta Sans'">Memvalidasi input</text><polygon points="1545.166,447.7725,1634.6914,447.7725,1646.6914,459.7725,1634.6914,471.7725,1545.166,471.7725,1533.166,459.7725,1545.166,447.7725" fill="#F7F4EB" style="stroke:#022C22;stroke-width:0.5;stroke-linejoin:miter;stroke-miterlimit:10;"/><text x="1545.166" y="463.5806" fill="#022C22" font-size="11" lengthAdjust="spacing" textLength="89.5254" font-family="'Plus Jakarta Sans'">Validasi sukses?</text><text x="1519.7061" y="457.1782" fill="#000000" font-size="11" lengthAdjust="spacing" textLength="13.46" font-family="'Plus Jakarta Sans'">Ya</text><text x="1646.6914" y="457.1782" fill="#000000" font-size="11" lengthAdjust="spacing" textLength="29.8687" font-family="'Plus Jakarta Sans'">Tidak</text><rect x="1229.2412" y="530.1748" width="372.5527" height="33.9688" fill="#F7F4EB" style="stroke:#022C22;stroke-width:0.5;" rx="12.5" ry="12.5"/><text x="1239.2412" y="551.3135" fill="#022C22" font-size="12" lengthAdjust="spacing" textLength="352.5527" font-family="'Plus Jakarta Sans'">Menghapus berkas gambar lama dari penyimpanan server</text><rect x="1277.5195" y="599.1436" width="275.9961" height="33.9688" fill="#F7F4EB" style="stroke:#022C22;stroke-width:0.5;" rx="12.5" ry="12.5"/><text x="1287.5195" y="620.2822" fill="#022C22" font-size="12" lengthAdjust="spacing" textLength="255.9961" font-family="'Plus Jakarta Sans'">Menyimpan berkas gambar baru ke server</text><polygon points="1348.0432,481.7725,1482.9919,481.7725,1494.9919,493.7725,1482.9919,505.7725,1348.0432,505.7725,1336.0432,493.7725,1348.0432,481.7725" fill="#F7F4EB" style="stroke:#022C22;stroke-width:0.5;stroke-linejoin:miter;stroke-miterlimit:10;"/><text x="1419.5176" y="515.9829" fill="#000000" font-size="11" lengthAdjust="spacing" textLength="13.46" font-family="'Plus Jakarta Sans'">Ya</text><text x="1348.0432" y="497.5806" fill="#022C22" font-size="11" lengthAdjust="spacing" textLength="134.9487" font-family="'Plus Jakarta Sans'">Apakah gambar diganti?</text><text x="1494.9919" y="491.1782" fill="#000000" font-size="11" lengthAdjust="spacing" textLength="29.8687" font-family="'Plus Jakarta Sans'">Tidak</text><polygon points="1415.5176,657.5146,1427.5176,669.5146,1415.5176,681.5146,1403.5176,669.5146,1415.5176,657.5146" fill="#F7F4EB" style="stroke:#022C22;stroke-width:0.5;stroke-linejoin:miter;stroke-miterlimit:10;"/><rect x="1268.3262" y="701.5146" width="294.3828" height="33.9688" fill="#F7F4EB" style="stroke:#022C22;stroke-width:0.5;" rx="12.5" ry="12.5"/><text x="1278.3262" y="722.6533" fill="#022C22" font-size="12" lengthAdjust="spacing" textLength="274.3828" font-family="'Plus Jakarta Sans'">Memperbarui data produk di tabel `products`</text><rect x="1643.7939" y="481.7725" width="241.0918" height="33.9688" fill="#F7F4EB" style="stroke:#022C22;stroke-width:0.5;" rx="12.5" ry="12.5"/><text x="1653.7939" y="502.9111" fill="#022C22" font-size="12" lengthAdjust="spacing" textLength="221.0918" font-family="'Plus Jakarta Sans'">Kembali ke form dengan pesan error</text><ellipse cx="1764.3398" cy="561.7412" rx="11" ry="11" fill="none" style="stroke:#222222;stroke-width:1;"/><ellipse cx="1764.3398" cy="561.7412" rx="6" ry="6" fill="#222222" style="stroke:#222222;stroke-width:1;"/><rect x="1915.8037" y="371.2529" width="318.2598" height="33.9688" fill="#F7F4EB" style="stroke:#022C22;stroke-width:0.5;" rx="12.5" ry="12.5"/><text x="1925.8037" y="392.3916" fill="#022C22" font-size="12" lengthAdjust="spacing" textLength="298.2598" font-family="'Plus Jakarta Sans'">Menekan tombol "Hapus" pada salah satu produk</text><rect x="1894.8857" y="440.2217" width="360.0957" height="33.9688" fill="#F7F4EB" style="stroke:#022C22;stroke-width:0.5;" rx="12.5" ry="12.5"/><text x="1904.8857" y="461.3604" fill="#022C22" font-size="12" lengthAdjust="spacing" textLength="340.0957" font-family="'Plus Jakarta Sans'">Menjalankan fungsi *Soft Delete* (`deleted_at = now()`)</text><rect x="1923.834" y="509.1904" width="302.1992" height="47.9375" fill="#F7F4EB" style="stroke:#022C22;stroke-width:0.5;" rx="12.5" ry="12.5"/><text x="1933.834" y="530.3291" fill="#022C22" font-size="12" lengthAdjust="spacing" textLength="260.291" font-family="'Plus Jakarta Sans'">Produk tidak akan muncul di katalog publik</text><text x="1933.834" y="544.2979" fill="#022C22" font-size="12" lengthAdjust="spacing" textLength="282.1992" font-family="'Plus Jakarta Sans'">namun data historis pesanan lama tetap aman</text><line x1="947.7417" y1="755.4834" x2="2074.9336" y2="755.4834" style="stroke:#10B981;stroke-width:1.5;"/><rect x="1223.3633" y="775.4834" width="437.1934" height="33.9688" fill="#F7F4EB" style="stroke:#022C22;stroke-width:0.5;" rx="12.5" ry="12.5"/><text x="1233.3633" y="796.6221" fill="#022C22" font-size="12" lengthAdjust="spacing" textLength="417.1934" font-family="'Plus Jakarta Sans'">Mengarahkan admin ke halaman daftar produk dengan pesan sukses</text><line x1="647.0605" y1="55.042" x2="647.0605" y2="905.4209" style="stroke:#000000;stroke-width:1.5;"/><line x1="2258.9814" y1="55.042" x2="2258.9814" y2="905.4209" style="stroke:#000000;stroke-width:1.5;"/><line x1="500.7451" y1="100.9951" x2="500.7451" y2="120.9951" style="stroke:#10B981;stroke-width:1;"/><polygon points="496.7451,110.9951,504.7451,110.9951,500.7451,120.9951" fill="#10B981" style="stroke:#10B981;stroke-width:1;stroke-linejoin:miter;stroke-miterlimit:10;"/><line x1="192.7148" y1="289.835" x2="192.7148" y2="316.7686" style="stroke:#10B981;stroke-width:1;"/><polygon points="188.7148,306.7686,196.7148,306.7686,192.7148,316.7686" fill="#10B981" style="stroke:#10B981;stroke-width:1;stroke-linejoin:miter;stroke-miterlimit:10;"/><line x1="192.7148" y1="364.7061" x2="192.7148" y2="399.7061" style="stroke:#10B981;stroke-width:1;"/><polygon points="188.7148,389.7061,196.7148,389.7061,192.7148,399.7061" fill="#10B981" style="stroke:#10B981;stroke-width:1;stroke-linejoin:miter;stroke-miterlimit:10;"/><line x1="192.7148" y1="176.4639" x2="192.7148" y2="255.8662" style="stroke:#10B981;stroke-width:1;"/><polygon points="188.7148,245.8662,196.7148,245.8662,192.7148,255.8662" fill="#10B981" style="stroke:#10B981;stroke-width:1;stroke-linejoin:miter;stroke-miterlimit:10;"/><line x1="500.7451" y1="154.9639" x2="500.7451" y2="174.9639" style="stroke:#10B981;stroke-width:1;"/><polygon points="496.7451,164.9639,504.7451,164.9639,500.7451,174.9639" fill="#10B981" style="stroke:#10B981;stroke-width:1;stroke-linejoin:miter;stroke-miterlimit:10;"/><line x1="500.7451" y1="863.4209" x2="500.7451" y2="883.4209" style="stroke:#10B981;stroke-width:1;"/><polygon points="496.7451,873.4209,504.7451,873.4209,500.7451,883.4209" fill="#10B981" style="stroke:#10B981;stroke-width:1;stroke-linejoin:miter;stroke-miterlimit:10;"/><line x1="802.666" y1="605.6123" x2="802.666" y2="640.6123" style="stroke:#10B981;stroke-width:1;"/><polygon points="798.666,630.6123,806.666,630.6123,802.666,640.6123" fill="#10B981" style="stroke:#10B981;stroke-width:1;stroke-linejoin:miter;stroke-miterlimit:10;"/><line x1="1092.8174" y1="605.6123" x2="1092.8174" y2="640.6123" style="stroke:#10B981;stroke-width:1;"/><polygon points="1088.8174,630.6123,1096.8174,630.6123,1092.8174,640.6123" fill="#10B981" style="stroke:#10B981;stroke-width:1;stroke-linejoin:miter;stroke-miterlimit:10;"/><line x1="890.979" y1="549.6436" x2="802.666" y2="549.6436" style="stroke:#10B981;stroke-width:1;"/><line x1="802.666" y1="549.6436" x2="802.666" y2="571.6436" style="stroke:#10B981;stroke-width:1;"/><polygon points="798.666,561.6436,806.666,561.6436,802.666,571.6436" fill="#10B981" style="stroke:#10B981;stroke-width:1;stroke-linejoin:miter;stroke-miterlimit:10;"/><line x1="1004.5044" y1="549.6436" x2="1092.8174" y2="549.6436" style="stroke:#10B981;stroke-width:1;"/><line x1="1092.8174" y1="549.6436" x2="1092.8174" y2="571.6436" style="stroke:#10B981;stroke-width:1;"/><polygon points="1088.8174,561.6436,1096.8174,561.6436,1092.8174,571.6436" fill="#10B981" style="stroke:#10B981;stroke-width:1;stroke-linejoin:miter;stroke-miterlimit:10;"/><line x1="802.666" y1="674.5811" x2="802.666" y2="680.5811" style="stroke:#10B981;stroke-width:1;"/><line x1="802.666" y1="680.5811" x2="947.7417" y2="680.5811" style="stroke:#10B981;stroke-width:1;"/><line x1="947.7417" y1="680.5811" x2="947.7417" y2="755.4834" style="stroke:#10B981;stroke-width:1;"/><polygon points="943.7417,745.4834,951.7417,745.4834,947.7417,755.4834" fill="#10B981" style="stroke:#10B981;stroke-width:1;stroke-linejoin:miter;stroke-miterlimit:10;"/><line x1="947.7417" y1="502.6436" x2="947.7417" y2="537.6436" style="stroke:#10B981;stroke-width:1;"/><polygon points="943.7417,527.6436,951.7417,527.6436,947.7417,537.6436" fill="#10B981" style="stroke:#10B981;stroke-width:1;stroke-linejoin:miter;stroke-miterlimit:10;"/><line x1="1589.9287" y1="228.9326" x2="1589.9287" y2="248.9326" style="stroke:#10B981;stroke-width:1;"/><polygon points="1585.9287,238.9326,1593.9287,238.9326,1589.9287,248.9326" fill="#10B981" style="stroke:#10B981;stroke-width:1;stroke-linejoin:miter;stroke-miterlimit:10;"/><line x1="1589.9287" y1="282.9014" x2="1589.9287" y2="309.835" style="stroke:#10B981;stroke-width:1;"/><polygon points="1585.9287,299.835,1593.9287,299.835,1589.9287,309.835" fill="#10B981" style="stroke:#10B981;stroke-width:1;stroke-linejoin:miter;stroke-miterlimit:10;"/><line x1="1589.9287" y1="343.8037" x2="1589.9287" y2="378.8037" style="stroke:#10B981;stroke-width:1;"/><polygon points="1585.9287,368.8037,1593.9287,368.8037,1589.9287,378.8037" fill="#10B981" style="stroke:#10B981;stroke-width:1;stroke-linejoin:miter;stroke-miterlimit:10;"/><line x1="1415.5176" y1="564.1436" x2="1415.5176" y2="599.1436" style="stroke:#10B981;stroke-width:1;"/><polygon points="1411.5176,589.1436,1419.5176,589.1436,1415.5176,599.1436" fill="#10B981" style="stroke:#10B981;stroke-width:1;stroke-linejoin:miter;stroke-miterlimit:10;"/><line x1="1415.5176" y1="505.7725" x2="1415.5176" y2="530.1748" style="stroke:#10B981;stroke-width:1;"/><polygon points="1411.5176,520.1748,1419.5176,520.1748,1415.5176,530.1748" fill="#10B981" style="stroke:#10B981;stroke-width:1;stroke-linejoin:miter;stroke-miterlimit:10;"/><line x1="1494.9919" y1="493.7725" x2="1611.7939" y2="493.7725" style="stroke:#10B981;stroke-width:1;"/><polygon points="1607.7939,571.6436,1615.7939,571.6436,1611.7939,581.6436" fill="#10B981" style="stroke:#10B981;stroke-width:1;stroke-linejoin:miter;stroke-miterlimit:10;"/><line x1="1611.7939" y1="493.7725" x2="1611.7939" y2="669.5146" style="stroke:#10B981;stroke-width:1;"/><line x1="1611.7939" y1="669.5146" x2="1427.5176" y2="669.5146" style="stroke:#10B981;stroke-width:1;"/><polygon points="1437.5176,665.5146,1427.5176,669.5146,1437.5176,673.5146" fill="#10B981" style="stroke:#10B981;stroke-width:1;stroke-linejoin:miter;stroke-miterlimit:10;"/><line x1="1415.5176" y1="633.1123" x2="1415.5176" y2="657.5146" style="stroke:#10B981;stroke-width:1;"/><polygon points="1411.5176,647.5146,1419.5176,647.5146,1415.5176,657.5146" fill="#10B981" style="stroke:#10B981;stroke-width:1;stroke-linejoin:miter;stroke-miterlimit:10;"/><line x1="1415.5176" y1="681.5146" x2="1415.5176" y2="701.5146" style="stroke:#10B981;stroke-width:1;"/><polygon points="1411.5176,691.5146,1419.5176,691.5146,1415.5176,701.5146" fill="#10B981" style="stroke:#10B981;stroke-width:1;stroke-linejoin:miter;stroke-miterlimit:10;"/><line x1="1764.3398" y1="515.7412" x2="1764.3398" y2="550.7412" style="stroke:#10B981;stroke-width:1;"/><polygon points="1760.3398,540.7412,1768.3398,540.7412,1764.3398,550.7412" fill="#10B981" style="stroke:#10B981;stroke-width:1;stroke-linejoin:miter;stroke-miterlimit:10;"/><line x1="1533.166" y1="459.7725" x2="1415.5176" y2="459.7725" style="stroke:#10B981;stroke-width:1;"/><line x1="1415.5176" y1="459.7725" x2="1415.5176" y2="481.7725" style="stroke:#10B981;stroke-width:1;"/><polygon points="1411.5176,471.7725,1419.5176,471.7725,1415.5176,481.7725" fill="#10B981" style="stroke:#10B981;stroke-width:1;stroke-linejoin:miter;stroke-miterlimit:10;"/><line x1="1646.6914" y1="459.7725" x2="1764.3398" y2="459.7725" style="stroke:#10B981;stroke-width:1;"/><line x1="1764.3398" y1="459.7725" x2="1764.3398" y2="481.7725" style="stroke:#10B981;stroke-width:1;"/><polygon points="1760.3398,471.7725,1768.3398,471.7725,1764.3398,481.7725" fill="#10B981" style="stroke:#10B981;stroke-width:1;stroke-linejoin:miter;stroke-miterlimit:10;"/><line x1="1415.5176" y1="735.4834" x2="1415.5176" y2="740.4834" style="stroke:#10B981;stroke-width:1;"/><line x1="1415.5176" y1="740.4834" x2="1589.9287" y2="740.4834" style="stroke:#10B981;stroke-width:1;"/><line x1="1589.9287" y1="740.4834" x2="1589.9287" y2="755.4834" style="stroke:#10B981;stroke-width:1;"/><polygon points="1585.9287,745.4834,1593.9287,745.4834,1589.9287,755.4834" fill="#10B981" style="stroke:#10B981;stroke-width:1;stroke-linejoin:miter;stroke-miterlimit:10;"/><line x1="1589.9287" y1="412.7725" x2="1589.9287" y2="447.7725" style="stroke:#10B981;stroke-width:1;"/><polygon points="1585.9287,437.7725,1593.9287,437.7725,1589.9287,447.7725" fill="#10B981" style="stroke:#10B981;stroke-width:1;stroke-linejoin:miter;stroke-miterlimit:10;"/><line x1="2074.9336" y1="405.2217" x2="2074.9336" y2="440.2217" style="stroke:#10B981;stroke-width:1;"/><polygon points="2070.9336,430.2217,2078.9336,430.2217,2074.9336,440.2217" fill="#10B981" style="stroke:#10B981;stroke-width:1;stroke-linejoin:miter;stroke-miterlimit:10;"/><line x1="2074.9336" y1="474.1904" x2="2074.9336" y2="509.1904" style="stroke:#10B981;stroke-width:1;"/><polygon points="2070.9336,499.1904,2078.9336,499.1904,2074.9336,509.1904" fill="#10B981" style="stroke:#10B981;stroke-width:1;stroke-linejoin:miter;stroke-miterlimit:10;"/><line x1="2074.9336" y1="557.1279" x2="2074.9336" y2="755.4834" style="stroke:#10B981;stroke-width:1;"/><polygon points="2070.9336,745.4834,2078.9336,745.4834,2074.9336,755.4834" fill="#10B981" style="stroke:#10B981;stroke-width:1;stroke-linejoin:miter;stroke-miterlimit:10;"/><line x1="1441.96" y1="756.9834" x2="1441.96" y2="775.4834" style="stroke:#10B981;stroke-width:1;"/><polygon points="1437.96,765.4834,1445.96,765.4834,1441.96,775.4834" fill="#10B981" style="stroke:#10B981;stroke-width:1;stroke-linejoin:miter;stroke-miterlimit:10;"/><line x1="192.7148" y1="433.6748" x2="192.7148" y2="451.1748" style="stroke:#10B981;stroke-width:1;"/><line x1="192.7148" y1="451.1748" x2="947.7417" y2="451.1748" style="stroke:#10B981;stroke-width:1;"/><line x1="947.7417" y1="451.1748" x2="947.7417" y2="468.6748" style="stroke:#10B981;stroke-width:1;"/><polygon points="943.7417,458.6748,951.7417,458.6748,947.7417,468.6748" fill="#10B981" style="stroke:#10B981;stroke-width:1;stroke-linejoin:miter;stroke-miterlimit:10;"/><line x1="637.0605" y1="176.4639" x2="637.0605" y2="179.9639" style="stroke:#10B981;stroke-width:1;"/><line x1="637.0605" y1="179.9639" x2="1589.9287" y2="179.9639" style="stroke:#10B981;stroke-width:1;"/><line x1="1589.9287" y1="179.9639" x2="1589.9287" y2="194.9639" style="stroke:#10B981;stroke-width:1;"/><polygon points="1585.9287,184.9639,1593.9287,184.9639,1589.9287,194.9639" fill="#10B981" style="stroke:#10B981;stroke-width:1;stroke-linejoin:miter;stroke-miterlimit:10;"/><line x1="642.0605" y1="176.4639" x2="642.0605" y2="179.9639" style="stroke:#10B981;stroke-width:1;"/><line x1="642.0605" y1="179.9639" x2="2074.9336" y2="179.9639" style="stroke:#10B981;stroke-width:1;"/><line x1="2074.9336" y1="179.9639" x2="2074.9336" y2="371.2529" style="stroke:#10B981;stroke-width:1;"/><polygon points="2070.9336,361.2529,2078.9336,361.2529,2074.9336,371.2529" fill="#10B981" style="stroke:#10B981;stroke-width:1;stroke-linejoin:miter;stroke-miterlimit:10;"/><line x1="1441.96" y1="809.4521" x2="1441.96" y2="814.4521" style="stroke:#10B981;stroke-width:1;"/><line x1="1441.96" y1="814.4521" x2="500.7451" y2="814.4521" style="stroke:#10B981;stroke-width:1;"/><line x1="500.7451" y1="814.4521" x2="500.7451" y2="829.4521" style="stroke:#10B981;stroke-width:1;"/><polygon points="496.7451,819.4521,504.7451,819.4521,500.7451,829.4521" fill="#10B981" style="stroke:#10B981;stroke-width:1;stroke-linejoin:miter;stroke-miterlimit:10;"/><text x="304.689" y="71.75" fill="#000000" font-size="18" lengthAdjust="spacing" textLength="57.6826" font-family="'Plus Jakarta Sans'">Admin</text><text x="1337.6294" y="71.75" fill="#000000" font-size="18" lengthAdjust="spacing" textLength="230.7832" font-family="'Plus Jakarta Sans'">Sistem (Laravel Backend)</text><?plantuml-src pLHPQnin47xVNp6uKDR6RHmJwE6c9Sv1QPiIwhHG2DHZIruhgvKMQPGGo8_lQ0_NJfo4zgdxi7YjERvZD3vNfaI71KpeHalmvDISGg4JlpevaWiCcawieQzOIEYSwU3X4-Re2662ndVMeW_cfAuKtOnndcVE1YCEhROEdfsyEjax7c-Bj4v8rqGDXiF3uN1BL6p_O8npzhevt1sCtxpUNJkS4EDywF1u1U_uP8-VTTeA2sl4qppQm4TfD47tMIIaY8NV7RoCCLb59wyeesVf2PM65t0cJIQrrOW6pfmL8OTnC1b2UY0APU3ms_UZRfBSLb-tYO-SaxUdd8MvbnwMgB7Wt5CqU2aBsLOP9OaljQ84-8dnCkUepZaMCrokEg4BdT4g95DUmSAw0WpNx8EGFdUgzAhFRLp6_tYoUHzo99bPf_eNXl4GpmmoiKKVdWC3o1X-nZsosCf1sS3Pm46sc5aDdOagIZGDXDk9yYGBIB-mi5TIGtH86j6zRPEBAzHA8ADazGD1Mi7YjX4NlD-7GRzj-mw6f-DkNLWj8FtHPleGTVlG1LgoMEbFx5OnBRoR2b5R9PSmBSDCg_bEnMDEVcSAGlc6K8jh5f204vIFxy0HG3XZ2jCsRLedIEqbfESC9L_h-vahCBxOhf9VH7iDbDBpM_8TS7_QCTMoBcM4MjGc0sQep7Q9ZuMY3fGey9uLMOYp893Qewq6LeJIdYr9MOEwrttKInve5yl-kwj_vrcCEoXvPQtm2iNQaTeQlMA-n9B7TYPTpfUnIOmNYTLmYeLlve3vUEckv9h-TmPbiqIb5RjuDschxRM1wsDKIXShg0rF_gDP-XXLQuR9y-9Pyfl2nbmzRRUvv4mJoovuqDZTtiGkY3UYbYHxa4v5zKlyuYkr3yPUfzrfEtFDtgB8cPSEroY2cGSTHUAjXDfcKDtN_CBm3WkcLdB9c6oyd9KAd5LPJRo3IuZRSvGmGgZtPV88WthlEbp6pbZjPvQvNS425xHQU9kwrmCyMgrnBgJLaWdMpZOfn5UdPC1ob4HdVWC0?></g></svg>