<svg xmlns="http://www.w3.org/2000/svg" xmlns:xlink="http://www.w3.org/1999/xlink" version="1.1" data-diagram-type="ACTIVITY" style="width:757px;height:1268px;background:#FFFFFF;" width="757px" height="1268px" viewBox="0 0 757 1268" zoomAndPan="magnify" preserveAspectRatio="none" contentStyleType="text/css"><?plantuml 1.2026.7beta3?><defs/><g><g class="title" data-source-line="13"><text x="179.4358" y="32.9951" fill="#000000" font-size="14" lengthAdjust="spacing" textLength="396.8604" font-weight="700" font-family="'Plus Jakarta Sans'">1. Diagram Aktivitas Detail - Registrasi Pelanggan</text></g><rect x="20" y="55.042" width="710.7319" height="20.9531" fill="none" style="stroke:none;stroke-width:1;"/><ellipse cx="189.0879" cy="90.9951" rx="10" ry="10" fill="#222222" style="stroke:#222222;stroke-width:1;"/><rect x="89.8994" y="120.9951" width="198.377" height="33.9688" fill="#F7F4EB" style="stroke:#022C22;stroke-width:0.5;" rx="12.5" ry="12.5"/><text x="99.8994" y="142.1338" fill="#022C22" font-size="12" lengthAdjust="spacing" textLength="178.377" font-family="'Plus Jakarta Sans'">Membuka halaman Registrasi</text><rect x="52.874" y="174.9639" width="272.4277" height="47.9375" fill="#F7F4EB" style="stroke:#022C22;stroke-width:0.5;" rx="12.5" ry="12.5"/><text x="62.874" y="196.1025" fill="#022C22" font-size="12" lengthAdjust="spacing" textLength="234.2168" font-family="'Plus Jakarta Sans'">Menginput data Nama, Email, Telepon,</text><text x="62.874" y="210.0713" fill="#022C22" font-size="12" lengthAdjust="spacing" textLength="252.4277" font-family="'Plus Jakarta Sans'">Alamat, Password, &amp; Konfirmasi Password</text><rect x="102.5176" y="242.9014" width="173.1406" height="33.9688" fill="#F7F4EB" style="stroke:#022C22;stroke-width:0.5;" rx="12.5" ry="12.5"/><text x="112.5176" y="264.04" fill="#022C22" font-size="12" lengthAdjust="spacing" textLength="153.1406" font-family="'Plus Jakarta Sans'">Menekan tombol "Daftar"</text><rect x="54.8955" y="521.1475" width="268.3848" height="33.9688" fill="#F7F4EB" style="stroke:#022C22;stroke-width:0.5;" rx="12.5" ry="12.5"/><text x="64.8955" y="542.2861" fill="#022C22" font-size="12" lengthAdjust="spacing" textLength="248.3848" font-family="'Plus Jakarta Sans'">Melihat pesan error &amp; memperbaiki input</text><ellipse cx="189.0879" cy="586.1162" rx="11" ry="11" fill="none" style="stroke:#222222;stroke-width:1;"/><ellipse cx="189.0879" cy="586.1162" rx="6" ry="6" fill="#222222" style="stroke:#222222;stroke-width:1;"/><rect x="55.1592" y="639.1162" width="267.8574" height="33.9688" fill="#F7F4EB" style="stroke:#022C22;stroke-width:0.5;" rx="12.5" ry="12.5"/><text x="65.1592" y="660.2549" fill="#022C22" font-size="12" lengthAdjust="spacing" textLength="247.8574" font-family="'Plus Jakarta Sans'">Memeriksa apakah email sudah terdaftar</text><rect x="108.2861" y="741.4873" width="161.6035" height="47.9375" fill="#F7F4EB" style="stroke:#022C22;stroke-width:0.5;" rx="12.5" ry="12.5"/><text x="118.2861" y="762.626" fill="#022C22" font-size="12" lengthAdjust="spacing" textLength="134.5371" font-family="'Plus Jakarta Sans'">Mengirim respon error</text><text x="118.2861" y="776.5947" fill="#022C22" font-size="12" lengthAdjust="spacing" textLength="141.6035" font-family="'Plus Jakarta Sans'">"Email sudah terdaftar"</text><rect x="60.9688" y="809.4248" width="256.2383" height="33.9688" fill="#F7F4EB" style="stroke:#022C22;stroke-width:0.5;" rx="12.5" ry="12.5"/><text x="70.9688" y="830.5635" fill="#022C22" font-size="12" lengthAdjust="spacing" textLength="236.2383" font-family="'Plus Jakarta Sans'">Melihat pesan error &amp; mengganti email</text><ellipse cx="189.0879" cy="874.3936" rx="11" ry="11" fill="none" style="stroke:#222222;stroke-width:1;"/><ellipse cx="189.0879" cy="874.3936" rx="6" ry="6" fill="#222222" style="stroke:#222222;stroke-width:1;"/><polygon points="135.1541,693.085,243.0217,693.085,255.0217,705.085,243.0217,717.085,135.1541,717.085,123.1541,705.085,135.1541,693.085" fill="#F7F4EB" style="stroke:#022C22;stroke-width:0.5;stroke-linejoin:miter;stroke-miterlimit:10;"/><text x="193.0879" y="727.2954" fill="#000000" font-size="11" lengthAdjust="spacing" textLength="29.8687" font-family="'Plus Jakarta Sans'">Tidak</text><text x="135.1541" y="708.8931" fill="#022C22" font-size="11" lengthAdjust="spacing" textLength="107.8677" font-family="'Plus Jakarta Sans'">Apakah email unik?</text><text x="255.0217" y="702.4907" fill="#000000" font-size="11" lengthAdjust="spacing" textLength="13.46" font-family="'Plus Jakarta Sans'">Ya</text><rect x="49.2441" y="927.3936" width="279.6875" height="33.9688" fill="#F7F4EB" style="stroke:#022C22;stroke-width:0.5;" rx="12.5" ry="12.5"/><text x="59.2441" y="948.5322" fill="#022C22" font-size="12" lengthAdjust="spacing" textLength="259.6875" font-family="'Plus Jakarta Sans'">Meng-hash password menggunakan bcrypt</text><rect x="42.0752" y="981.3623" width="294.0254" height="47.9375" fill="#F7F4EB" style="stroke:#022C22;stroke-width:0.5;" rx="12.5" ry="12.5"/><text x="52.0752" y="1002.501" fill="#022C22" font-size="12" lengthAdjust="spacing" textLength="274.0254" font-family="'Plus Jakarta Sans'">Menyimpan data pengguna baru ke database</text><text x="52.0752" y="1016.4697" fill="#022C22" font-size="12" lengthAdjust="spacing" textLength="215.1445" font-family="'Plus Jakarta Sans'">(role = 'customer', is_active = true)</text><rect x="26" y="1049.2998" width="326.1758" height="33.9688" fill="#F7F4EB" style="stroke:#022C22;stroke-width:0.5;" rx="12.5" ry="12.5"/><text x="36" y="1070.4385" fill="#022C22" font-size="12" lengthAdjust="spacing" textLength="306.1758" font-family="'Plus Jakarta Sans'">Membuat sesi login otomatis (*auto-authenticate*)</text><rect x="41.6475" y="1103.2686" width="294.8809" height="47.9375" fill="#F7F4EB" style="stroke:#022C22;stroke-width:0.5;" rx="12.5" ry="12.5"/><text x="51.6475" y="1124.4072" fill="#022C22" font-size="12" lengthAdjust="spacing" textLength="274.8809" font-family="'Plus Jakarta Sans'">Mengarahkan pengguna ke halaman Beranda</text><text x="51.6475" y="1138.376" fill="#022C22" font-size="12" lengthAdjust="spacing" textLength="129.7148" font-family="'Plus Jakarta Sans'">dengan pesan sukses</text><rect x="29.375" y="1171.2061" width="319.4258" height="33.9688" fill="#F7F4EB" style="stroke:#022C22;stroke-width:0.5;" rx="12.5" ry="12.5"/><text x="39.375" y="1192.3447" fill="#022C22" font-size="12" lengthAdjust="spacing" textLength="299.4258" font-family="'Plus Jakarta Sans'">Menerima tampilan Beranda dengan kondisi login</text><ellipse cx="189.0879" cy="1236.1748" rx="11" ry="11" fill="none" style="stroke:#222222;stroke-width:1;"/><ellipse cx="189.0879" cy="1236.1748" rx="6" ry="6" fill="#222222" style="stroke:#222222;stroke-width:1;"/><line x1="20" y1="55.042" x2="20" y2="1247.1748" style="stroke:#000000;stroke-width:1.5;"/><rect x="415.458" y="296.8701" width="231.1309" height="33.9688" fill="#F7F4EB" style="stroke:#022C22;stroke-width:0.5;" rx="12.5" ry="12.5"/><text x="425.458" y="318.0088" fill="#022C22" font-size="12" lengthAdjust="spacing" textLength="211.1309" font-family="'Plus Jakarta Sans'">Menerima Form Request Registrasi</text><rect x="450.708" y="350.8389" width="160.6309" height="33.9688" fill="#F7F4EB" style="stroke:#022C22;stroke-width:0.5;" rx="12.5" ry="12.5"/><text x="460.708" y="371.9775" fill="#022C22" font-size="12" lengthAdjust="spacing" textLength="140.6309" font-family="'Plus Jakarta Sans'">Memvalidasi data input</text><rect x="362.1758" y="453.21" width="337.6953" height="47.9375" fill="#F7F4EB" style="stroke:#022C22;stroke-width:0.5;" rx="12.5" ry="12.5"/><text x="372.1758" y="474.3486" fill="#022C22" font-size="12" lengthAdjust="spacing" textLength="184.0313" font-family="'Plus Jakarta Sans'">Mengirim respon error validasi</text><text x="372.1758" y="488.3174" fill="#022C22" font-size="12" lengthAdjust="spacing" textLength="317.6953" font-family="'Plus Jakarta Sans'">(misal: format email salah, password terlalu pendek)</text><polygon points="464.3547,404.8076,597.6921,404.8076,609.6921,416.8076,597.6921,428.8076,464.3547,428.8076,452.3547,416.8076,464.3547,404.8076" fill="#F7F4EB" style="stroke:#022C22;stroke-width:0.5;stroke-linejoin:miter;stroke-miterlimit:10;"/><text x="535.0234" y="439.0181" fill="#000000" font-size="11" lengthAdjust="spacing" textLength="29.8687" font-family="'Plus Jakarta Sans'">Tidak</text><text x="464.3547" y="420.6157" fill="#022C22" font-size="11" lengthAdjust="spacing" textLength="133.3374" font-family="'Plus Jakarta Sans'">Apakah validasi sukses?</text><text x="609.6921" y="414.2134" fill="#000000" font-size="11" lengthAdjust="spacing" textLength="13.46" font-family="'Plus Jakarta Sans'">Ya</text><line x1="356.1758" y1="55.042" x2="356.1758" y2="1247.1748" style="stroke:#000000;stroke-width:1.5;"/><line x1="728.8711" y1="55.042" x2="728.8711" y2="1247.1748" style="stroke:#000000;stroke-width:1.5;"/><line x1="189.0879" y1="100.9951" x2="189.0879" y2="120.9951" style="stroke:#10B981;stroke-width:1;"/><polygon points="185.0879,110.9951,193.0879,110.9951,189.0879,120.9951" fill="#10B981" style="stroke:#10B981;stroke-width:1;stroke-linejoin:miter;stroke-miterlimit:10;"/><line x1="189.0879" y1="154.9639" x2="189.0879" y2="174.9639" style="stroke:#10B981;stroke-width:1;"/><polygon points="185.0879,164.9639,193.0879,164.9639,189.0879,174.9639" fill="#10B981" style="stroke:#10B981;stroke-width:1;stroke-linejoin:miter;stroke-miterlimit:10;"/><line x1="189.0879" y1="222.9014" x2="189.0879" y2="242.9014" style="stroke:#10B981;stroke-width:1;"/><polygon points="185.0879,232.9014,193.0879,232.9014,189.0879,242.9014" fill="#10B981" style="stroke:#10B981;stroke-width:1;stroke-linejoin:miter;stroke-miterlimit:10;"/><line x1="189.0879" y1="555.1162" x2="189.0879" y2="575.1162" style="stroke:#10B981;stroke-width:1;"/><polygon points="185.0879,565.1162,193.0879,565.1162,189.0879,575.1162" fill="#10B981" style="stroke:#10B981;stroke-width:1;stroke-linejoin:miter;stroke-miterlimit:10;"/><line x1="189.0879" y1="789.4248" x2="189.0879" y2="809.4248" style="stroke:#10B981;stroke-width:1;"/><polygon points="185.0879,799.4248,193.0879,799.4248,189.0879,809.4248" fill="#10B981" style="stroke:#10B981;stroke-width:1;stroke-linejoin:miter;stroke-miterlimit:10;"/><line x1="189.0879" y1="843.3936" x2="189.0879" y2="863.3936" style="stroke:#10B981;stroke-width:1;"/><polygon points="185.0879,853.3936,193.0879,853.3936,189.0879,863.3936" fill="#10B981" style="stroke:#10B981;stroke-width:1;stroke-linejoin:miter;stroke-miterlimit:10;"/><line x1="189.0879" y1="717.085" x2="189.0879" y2="741.4873" style="stroke:#10B981;stroke-width:1;"/><polygon points="185.0879,731.4873,193.0879,731.4873,189.0879,741.4873" fill="#10B981" style="stroke:#10B981;stroke-width:1;stroke-linejoin:miter;stroke-miterlimit:10;"/><line x1="255.0217" y1="705.085" x2="327.207" y2="705.085" style="stroke:#10B981;stroke-width:1;"/><polygon points="323.207,800.4404,331.207,800.4404,327.207,810.4404" fill="#10B981" style="stroke:#10B981;stroke-width:1;stroke-linejoin:miter;stroke-miterlimit:10;"/><line x1="327.207" y1="705.085" x2="327.207" y2="907.3936" style="stroke:#10B981;stroke-width:1;"/><line x1="327.207" y1="907.3936" x2="189.0879" y2="907.3936" style="stroke:#10B981;stroke-width:1;"/><line x1="189.0879" y1="907.3936" x2="189.0879" y2="927.3936" style="stroke:#10B981;stroke-width:1;"/><polygon points="185.0879,917.3936,193.0879,917.3936,189.0879,927.3936" fill="#10B981" style="stroke:#10B981;stroke-width:1;stroke-linejoin:miter;stroke-miterlimit:10;"/><line x1="189.0879" y1="673.085" x2="189.0879" y2="693.085" style="stroke:#10B981;stroke-width:1;"/><polygon points="185.0879,683.085,193.0879,683.085,189.0879,693.085" fill="#10B981" style="stroke:#10B981;stroke-width:1;stroke-linejoin:miter;stroke-miterlimit:10;"/><line x1="189.0879" y1="961.3623" x2="189.0879" y2="981.3623" style="stroke:#10B981;stroke-width:1;"/><polygon points="185.0879,971.3623,193.0879,971.3623,189.0879,981.3623" fill="#10B981" style="stroke:#10B981;stroke-width:1;stroke-linejoin:miter;stroke-miterlimit:10;"/><line x1="189.0879" y1="1029.2998" x2="189.0879" y2="1049.2998" style="stroke:#10B981;stroke-width:1;"/><polygon points="185.0879,1039.2998,193.0879,1039.2998,189.0879,1049.2998" fill="#10B981" style="stroke:#10B981;stroke-width:1;stroke-linejoin:miter;stroke-miterlimit:10;"/><line x1="189.0879" y1="1083.2686" x2="189.0879" y2="1103.2686" style="stroke:#10B981;stroke-width:1;"/><polygon points="185.0879,1093.2686,193.0879,1093.2686,189.0879,1103.2686" fill="#10B981" style="stroke:#10B981;stroke-width:1;stroke-linejoin:miter;stroke-miterlimit:10;"/><line x1="189.0879" y1="1151.2061" x2="189.0879" y2="1171.2061" style="stroke:#10B981;stroke-width:1;"/><polygon points="185.0879,1161.2061,193.0879,1161.2061,189.0879,1171.2061" fill="#10B981" style="stroke:#10B981;stroke-width:1;stroke-linejoin:miter;stroke-miterlimit:10;"/><line x1="189.0879" y1="1205.1748" x2="189.0879" y2="1225.1748" style="stroke:#10B981;stroke-width:1;"/><polygon points="185.0879,1215.1748,193.0879,1215.1748,189.0879,1225.1748" fill="#10B981" style="stroke:#10B981;stroke-width:1;stroke-linejoin:miter;stroke-miterlimit:10;"/><line x1="531.0234" y1="330.8389" x2="531.0234" y2="350.8389" style="stroke:#10B981;stroke-width:1;"/><polygon points="527.0234,340.8389,535.0234,340.8389,531.0234,350.8389" fill="#10B981" style="stroke:#10B981;stroke-width:1;stroke-linejoin:miter;stroke-miterlimit:10;"/><line x1="531.0234" y1="428.8076" x2="531.0234" y2="453.21" style="stroke:#10B981;stroke-width:1;"/><polygon points="527.0234,443.21,535.0234,443.21,531.0234,453.21" fill="#10B981" style="stroke:#10B981;stroke-width:1;stroke-linejoin:miter;stroke-miterlimit:10;"/><line x1="609.6921" y1="416.8076" x2="709.8711" y2="416.8076" style="stroke:#10B981;stroke-width:1;"/><polygon points="705.8711,520.9131,713.8711,520.9131,709.8711,530.9131" fill="#10B981" style="stroke:#10B981;stroke-width:1;stroke-linejoin:miter;stroke-miterlimit:10;"/><line x1="709.8711" y1="416.8076" x2="709.8711" y2="624.1162" style="stroke:#10B981;stroke-width:1;"/><line x1="709.8711" y1="624.1162" x2="189.0879" y2="624.1162" style="stroke:#10B981;stroke-width:1;"/><line x1="189.0879" y1="624.1162" x2="189.0879" y2="639.1162" style="stroke:#10B981;stroke-width:1;"/><polygon points="185.0879,629.1162,193.0879,629.1162,189.0879,639.1162" fill="#10B981" style="stroke:#10B981;stroke-width:1;stroke-linejoin:miter;stroke-miterlimit:10;"/><line x1="531.0234" y1="384.8076" x2="531.0234" y2="404.8076" style="stroke:#10B981;stroke-width:1;"/><polygon points="527.0234,394.8076,535.0234,394.8076,531.0234,404.8076" fill="#10B981" style="stroke:#10B981;stroke-width:1;stroke-linejoin:miter;stroke-miterlimit:10;"/><line x1="189.0879" y1="276.8701" x2="189.0879" y2="281.8701" style="stroke:#10B981;stroke-width:1;"/><line x1="189.0879" y1="281.8701" x2="531.0234" y2="281.8701" style="stroke:#10B981;stroke-width:1;"/><line x1="531.0234" y1="281.8701" x2="531.0234" y2="296.8701" style="stroke:#10B981;stroke-width:1;"/><polygon points="527.0234,286.8701,535.0234,286.8701,531.0234,296.8701" fill="#10B981" style="stroke:#10B981;stroke-width:1;stroke-linejoin:miter;stroke-miterlimit:10;"/><line x1="531.0234" y1="501.1475" x2="531.0234" y2="506.1475" style="stroke:#10B981;stroke-width:1;"/><line x1="531.0234" y1="506.1475" x2="189.0879" y2="506.1475" style="stroke:#10B981;stroke-width:1;"/><line x1="189.0879" y1="506.1475" x2="189.0879" y2="521.1475" style="stroke:#10B981;stroke-width:1;"/><polygon points="185.0879,511.1475,193.0879,511.1475,189.0879,521.1475" fill="#10B981" style="stroke:#10B981;stroke-width:1;stroke-linejoin:miter;stroke-miterlimit:10;"/><text x="140.7588" y="71.75" fill="#000000" font-size="18" lengthAdjust="spacing" textLength="94.6582" font-family="'Plus Jakarta Sans'">Pelanggan</text><text x="427.1318" y="71.75" fill="#000000" font-size="18" lengthAdjust="spacing" textLength="230.7832" font-family="'Plus Jakarta Sans'">Sistem (Laravel Backend)</text><?plantuml-src bLJRQjj047tNLmmk95PGIc82RIDAYHFxeJT2dPU2eOojiRNiJTrBWY4Vtrb9TfmsQLez235pPkQSixFoKfW67MgOXOqYyC69POXQPNwNkQ8LHXMcreIlg0a6rofw-8WINK2OeV63FVJ5CeXR4JPZNCgriz5KbrPP1w-cRwPda_5JIEigSZtgP3Iw78sUGANnpsASitTzylHa_ExjwLvo5fZdSyd9ZjvaUiRFlco1sfhgPHrRu5zbzA0_LMH113R-z7M2h5iribMCdfqFA1GSmpTQ2puQz0AkIQ5Phz5asVtk-pxpIMLs_eNq8ag46XLgD7k5PKgQDVE90Ihaa-F3n08ccaSKS4EA6ckAkRb8bQ60Q_J-ZZKLS02Vh5a9fzlvVRZhHvA71AiNLi7W2bVCOb0oinbF9Gt3pop-bXGa5ybK-NrNvOH6c5gdcU3FI3xyJbJVeX9LcjTIRLcNcLZ1yABXnQjXb_THUl8VSWWr6HZUS5Jc6V3JwULHuCYpDY1U4xUhd9kX5XxLEQoO20QWv0Hm1Ei2cbuc178ALOI6wPFCoxRrllFzA2Lgxj6Gn-sW0z2a6t8B559i9IIq3xR9I7c2uNVCCsuiLbchcesH7W4xZJsXMF4tqwXQUn-vq26Y4VBV3PYRmUIfneF_bDPYWkWul23Ch8zhzFM3gsrvD9ZMPx5qcoPq-xGHkk5GU-XDZu45kWYIskW2FV79ESjtvZqSBYFFPDiE2n3-1wP_HOe75oal--l0t7b312ZBsm-MyHY4X-4Hnc2F-SM-1R74G4TvVqjuQ-j4RKU1fs-lr9WScWhdl0uCDBqltHgMZo_bmwu7r8rG3zNG5ql-9uWjjp9B1lu2?></g></svg>