<svg xmlns="http://www.w3.org/2000/svg" xmlns:xlink="http://www.w3.org/1999/xlink" version="1.1" data-diagram-type="ACTIVITY" style="width:1720px;height:2099px;background:#FFFFFF;" width="1720px" height="2099px" viewBox="0 0 1720 2099" zoomAndPan="magnify" preserveAspectRatio="none" contentStyleType="text/css"><?plantuml 1.2026.7beta3?><defs/><g><g class="title" data-source-line="13"><text x="499.7732" y="32.9951" fill="#000000" font-size="14" lengthAdjust="spacing" textLength="718.7236" font-weight="700" font-family="'Plus Jakarta Sans'">Diagram Aktivitas Sistem yang Diusulkan (Web-Based Ordering System) - Little Joy Jakarta</text></g><rect x="20" y="55.042" width="1673.27" height="20.9531" fill="none" style="stroke:none;stroke-width:1;"/><ellipse cx="218.1123" cy="90.9951" rx="10" ry="10" fill="#222222" style="stroke:#222222;stroke-width:1;"/><rect x="121.5078" y="120.9951" width="193.209" height="33.9688" fill="#F7F4EB" style="stroke:#022C22;stroke-width:0.5;" rx="12.5" ry="12.5"/><text x="131.5078" y="142.1338" fill="#022C22" font-size="12" lengthAdjust="spacing" textLength="173.209" font-family="'Plus Jakarta Sans'">Mengakses website Little Joy</text><rect x="98.7852" y="174.9639" width="238.6543" height="33.9688" fill="#F7F4EB" style="stroke:#022C22;stroke-width:0.5;" rx="12.5" ry="12.5"/><text x="108.7852" y="196.1025" fill="#022C22" font-size="12" lengthAdjust="spacing" textLength="218.6543" font-family="'Plus Jakarta Sans'">Membuka katalog &amp; memilih produk</text><rect x="64.7803" y="228.9326" width="306.6641" height="33.9688" fill="#F7F4EB" style="stroke:#022C22;stroke-width:0.5;" rx="12.5" ry="12.5"/><text x="74.7803" y="250.0713" fill="#022C22" font-size="12" lengthAdjust="spacing" textLength="286.6641" font-family="'Plus Jakarta Sans'">Menentukan jumlah &amp; menambah ke keranjang</text><rect x="108.5967" y="331.3037" width="219.0313" height="33.9688" fill="#F7F4EB" style="stroke:#022C22;stroke-width:0.5;" rx="12.5" ry="12.5"/><text x="118.5967" y="352.4424" fill="#022C22" font-size="12" lengthAdjust="spacing" textLength="199.0313" font-family="'Plus Jakarta Sans'">Melakukan registrasi / login akun</text><polygon points="160.9343,282.9014,275.2903,282.9014,287.2903,294.9014,275.2903,306.9014,160.9343,306.9014,148.9343,294.9014,160.9343,282.9014" fill="#F7F4EB" style="stroke:#022C22;stroke-width:0.5;stroke-linejoin:miter;stroke-miterlimit:10;"/><text x="222.1123" y="317.1118" fill="#000000" font-size="11" lengthAdjust="spacing" textLength="29.8687" font-family="'Plus Jakarta Sans'">Tidak</text><text x="160.9343" y="298.7095" fill="#022C22" font-size="11" lengthAdjust="spacing" textLength="114.356" font-family="'Plus Jakarta Sans'">Apakah sudah login?</text><text x="287.2903" y="292.3071" fill="#000000" font-size="11" lengthAdjust="spacing" textLength="13.46" font-family="'Plus Jakarta Sans'">Ya</text><polygon points="218.1123,385.2725,230.1123,397.2725,218.1123,409.2725,206.1123,397.2725,218.1123,385.2725" fill="#F7F4EB" style="stroke:#022C22;stroke-width:0.5;stroke-linejoin:miter;stroke-miterlimit:10;"/><rect x="120.3916" y="429.2725" width="195.4414" height="33.9688" fill="#F7F4EB" style="stroke:#022C22;stroke-width:0.5;" rx="12.5" ry="12.5"/><text x="130.3916" y="450.4111" fill="#022C22" font-size="12" lengthAdjust="spacing" textLength="175.4414" font-family="'Plus Jakarta Sans'">Membuka halaman Checkout</text><rect x="136.0361" y="667.5186" width="164.1523" height="33.9688" fill="#F7F4EB" style="stroke:#022C22;stroke-width:0.5;" rx="12.5" ry="12.5"/><text x="146.0361" y="688.6572" fill="#022C22" font-size="12" lengthAdjust="spacing" textLength="144.1523" font-family="'Plus Jakarta Sans'">Memperbarui keranjang</text><ellipse cx="218.1123" cy="732.4873" rx="11" ry="11" fill="none" style="stroke:#222222;stroke-width:1;"/><ellipse cx="218.1123" cy="732.4873" rx="6" ry="6" fill="#222222" style="stroke:#222222;stroke-width:1;"/><rect x="95.4541" y="785.4873" width="245.3164" height="47.9375" fill="#F7F4EB" style="stroke:#022C22;stroke-width:0.5;" rx="12.5" ry="12.5"/><text x="105.4541" y="806.626" fill="#022C22" font-size="12" lengthAdjust="spacing" textLength="191.0684" font-family="'Plus Jakarta Sans'">Mengisi data penerima, alamat,</text><text x="105.4541" y="820.5947" fill="#022C22" font-size="12" lengthAdjust="spacing" textLength="225.3164" font-family="'Plus Jakarta Sans'">tanggal kirim, pesan kartu, &amp; catatan</text><rect x="106.8066" y="853.4248" width="222.6113" height="33.9688" fill="#F7F4EB" style="stroke:#022C22;stroke-width:0.5;" rx="12.5" ry="12.5"/><text x="116.8066" y="874.5635" fill="#022C22" font-size="12" lengthAdjust="spacing" textLength="202.6113" font-family="'Plus Jakarta Sans'">Mengonfirmasi checkout pesanan</text><rect x="93.5557" y="1043.2686" width="249.1133" height="33.9688" fill="#F7F4EB" style="stroke:#022C22;stroke-width:0.5;" rx="12.5" ry="12.5"/><text x="103.5557" y="1064.4072" fill="#022C22" font-size="12" lengthAdjust="spacing" textLength="229.1133" font-family="'Plus Jakarta Sans'">Mentransfer dana sesuai total tagihan</text><rect x="26" y="1097.2373" width="384.2246" height="33.9688" fill="#F7F4EB" style="stroke:#022C22;stroke-width:0.5;" rx="12.5" ry="12.5"/><text x="36" y="1118.376" fill="#022C22" font-size="12" lengthAdjust="spacing" textLength="364.2246" font-family="'Plus Jakarta Sans'">Mengakses Riwayat Pesanan &amp; memilih Upload Pembayaran</text><rect x="56.3398" y="1151.2061" width="323.5449" height="47.9375" fill="#F7F4EB" style="stroke:#022C22;stroke-width:0.5;" rx="12.5" ry="12.5"/><text x="66.3398" y="1172.3447" fill="#022C22" font-size="12" lengthAdjust="spacing" textLength="303.5449" font-family="'Plus Jakarta Sans'">Mengisi form (nama pengirim, bank asal, nominal)</text><text x="66.3398" y="1186.3135" fill="#022C22" font-size="12" lengthAdjust="spacing" textLength="205.5293" font-family="'Plus Jakarta Sans'">&amp; mengunggah foto bukti transfer</text><rect x="112.1094" y="1219.1436" width="212.0059" height="33.9688" fill="#F7F4EB" style="stroke:#022C22;stroke-width:0.5;" rx="12.5" ry="12.5"/><text x="122.1094" y="1240.2822" fill="#022C22" font-size="12" lengthAdjust="spacing" textLength="192.0059" font-family="'Plus Jakarta Sans'">Mengirimkan bukti pembayaran</text><rect x="42.1221" y="2002.5498" width="351.9805" height="33.9688" fill="#F7F4EB" style="stroke:#022C22;stroke-width:0.5;" rx="12.5" ry="12.5"/><text x="52.1221" y="2023.6885" fill="#022C22" font-size="12" lengthAdjust="spacing" textLength="331.9805" font-family="'Plus Jakarta Sans'">Menerima pesanan &amp; memantau histori timeline status</text><ellipse cx="218.1123" cy="2067.5186" rx="11" ry="11" fill="none" style="stroke:#222222;stroke-width:1;"/><ellipse cx="218.1123" cy="2067.5186" rx="6" ry="6" fill="#222222" style="stroke:#222222;stroke-width:1;"/><line x1="20" y1="55.042" x2="20" y2="2078.5186" style="stroke:#000000;stroke-width:1.5;"/><rect x="586.8408" y="483.2412" width="224.9199" height="47.9375" fill="#F7F4EB" style="stroke:#022C22;stroke-width:0.5;" rx="12.5" ry="12.5"/><text x="596.8408" y="504.3799" fill="#022C22" font-size="12" lengthAdjust="spacing" textLength="170.918" font-family="'Plus Jakarta Sans'">Melakukan validasi otomatis</text><text x="596.8408" y="518.3486" fill="#022C22" font-size="12" lengthAdjust="spacing" textLength="204.9199" font-family="'Plus Jakarta Sans'">(status produk aktif &amp; stok cukup)</text><rect x="577.4863" y="599.5811" width="243.6289" height="47.9375" fill="#F7F4EB" style="stroke:#022C22;stroke-width:0.5;" rx="12.5" ry="12.5"/><text x="587.4863" y="620.7197" fill="#022C22" font-size="12" lengthAdjust="spacing" textLength="223.6289" font-family="'Plus Jakarta Sans'">Menampilkan pesan stok tidak cukup</text><text x="587.4863" y="634.6885" fill="#022C22" font-size="12" lengthAdjust="spacing" textLength="192.1816" font-family="'Plus Jakarta Sans'">&amp; mengembalikan ke keranjang</text><polygon points="635.6802,551.1787,762.9214,551.1787,774.9214,563.1787,762.9214,575.1787,635.6802,575.1787,623.6802,563.1787,635.6802,551.1787" fill="#F7F4EB" style="stroke:#022C22;stroke-width:0.5;stroke-linejoin:miter;stroke-miterlimit:10;"/><text x="703.3008" y="585.3892" fill="#000000" font-size="11" lengthAdjust="spacing" textLength="32.0439" font-family="'Plus Jakarta Sans'">Gagal</text><text x="635.6802" y="566.9868" fill="#022C22" font-size="11" lengthAdjust="spacing" textLength="127.2412" font-family="'Plus Jakarta Sans'">Validasi Stok &amp; Status?</text><text x="774.9214" y="560.5845" fill="#000000" font-size="11" lengthAdjust="spacing" textLength="38.5537" font-family="'Plus Jakarta Sans'">Sukses</text><rect x="533.623" y="907.3936" width="331.3555" height="61.9063" fill="#F7F4EB" style="stroke:#022C22;stroke-width:0.5;" rx="12.5" ry="12.5"/><text x="543.623" y="928.5322" fill="#022C22" font-size="12" lengthAdjust="spacing" textLength="311.3555" font-family="'Plus Jakarta Sans'">Membuat data pesanan baru (LJ-YYYYMMDD-XXXX);</text><text x="543.623" y="942.501" fill="#022C22" font-size="12" lengthAdjust="spacing" textLength="245.3379" font-family="'Plus Jakarta Sans'">Set status pesanan = pending_payment;</text><text x="543.623" y="956.4697" fill="#022C22" font-size="12" lengthAdjust="spacing" textLength="202.7695" font-family="'Plus Jakarta Sans'">Mengosongkan keranjang belanja</text><rect x="508.1436" y="989.2998" width="382.3145" height="33.9688" fill="#F7F4EB" style="stroke:#022C22;stroke-width:0.5;" rx="12.5" ry="12.5"/><text x="518.1436" y="1010.4385" fill="#022C22" font-size="12" lengthAdjust="spacing" textLength="362.3145" font-family="'Plus Jakarta Sans'">Menampilkan halaman sukses &amp; instruksi pembayaran bank</text><rect x="564.2646" y="1273.1123" width="270.0723" height="47.9375" fill="#F7F4EB" style="stroke:#022C22;stroke-width:0.5;" rx="12.5" ry="12.5"/><text x="574.2646" y="1294.251" fill="#022C22" font-size="12" lengthAdjust="spacing" textLength="190.1602" font-family="'Plus Jakarta Sans'">Menyimpan data bukti transfer;</text><text x="574.2646" y="1308.2197" fill="#022C22" font-size="12" lengthAdjust="spacing" textLength="250.0723" font-family="'Plus Jakarta Sans'">Set status pesanan = waiting_verification</text><rect x="530.8926" y="1341.0498" width="336.8164" height="33.9688" fill="#F7F4EB" style="stroke:#022C22;stroke-width:0.5;" rx="12.5" ry="12.5"/><text x="540.8926" y="1362.1885" fill="#022C22" font-size="12" lengthAdjust="spacing" textLength="316.8164" font-family="'Plus Jakarta Sans'">Memasukkan pesanan ke antrean verifikasi operator</text><rect x="420.2246" y="1600.9248" width="227.252" height="75.875" fill="#F7F4EB" style="stroke:#022C22;stroke-width:0.5;" rx="12.5" ry="12.5"/><text x="430.2246" y="1622.0635" fill="#022C22" font-size="12" lengthAdjust="spacing" textLength="206.9297" font-family="'Plus Jakarta Sans'">Mengurangi stok produk otomatis;</text><text x="430.2246" y="1636.0322" fill="#022C22" font-size="12" lengthAdjust="spacing" textLength="198.8848" font-family="'Plus Jakarta Sans'">Mencatat mutasi di log inventori;</text><text x="430.2246" y="1650.001" fill="#022C22" font-size="12" lengthAdjust="spacing" textLength="207.252" font-family="'Plus Jakarta Sans'">Set status pembayaran = verified;</text><text x="430.2246" y="1663.9697" fill="#022C22" font-size="12" lengthAdjust="spacing" textLength="158.9824" font-family="'Plus Jakarta Sans'">Set status pesanan = paid</text><rect x="691.9248" y="1600.9248" width="345.6523" height="47.9375" fill="#F7F4EB" style="stroke:#022C22;stroke-width:0.5;" rx="12.5" ry="12.5"/><text x="701.9248" y="1622.0635" fill="#022C22" font-size="12" lengthAdjust="spacing" textLength="211.2773" font-family="'Plus Jakarta Sans'">Set status pembayaran = rejected;</text><text x="701.9248" y="1636.0322" fill="#022C22" font-size="12" lengthAdjust="spacing" textLength="325.6523" font-family="'Plus Jakarta Sans'">Set status pesanan = rejected (menunggu bukti baru)</text><line x1="414.2246" y1="55.042" x2="414.2246" y2="2078.5186" style="stroke:#000000;stroke-width:1.5;"/><rect x="1216.1064" y="1395.0186" width="269.9902" height="33.9688" fill="#F7F4EB" style="stroke:#022C22;stroke-width:0.5;" rx="12.5" ry="12.5"/><text x="1226.1064" y="1416.1572" fill="#022C22" font-size="12" lengthAdjust="spacing" textLength="249.9902" font-family="'Plus Jakarta Sans'">Membuka antrean verifikasi di dashboard</text><rect x="1206.3242" y="1448.9873" width="289.5547" height="33.9688" fill="#F7F4EB" style="stroke:#022C22;stroke-width:0.5;" rx="12.5" ry="12.5"/><text x="1216.3242" y="1470.126" fill="#022C22" font-size="12" lengthAdjust="spacing" textLength="269.5547" font-family="'Plus Jakarta Sans'">Memeriksa foto bukti transfer &amp; mutasi bank</text><polygon points="1276.011,1502.9561,1426.1921,1502.9561,1438.1921,1514.9561,1426.1921,1526.9561,1276.011,1526.9561,1264.011,1514.9561,1276.011,1502.9561" fill="#F7F4EB" style="stroke:#022C22;stroke-width:0.5;stroke-linejoin:miter;stroke-miterlimit:10;"/><text x="1276.011" y="1518.7642" fill="#022C22" font-size="11" lengthAdjust="spacing" textLength="150.1812" font-family="'Plus Jakarta Sans'">Apakah pembayaran valid?</text><text x="1236.6506" y="1512.3618" fill="#000000" font-size="11" lengthAdjust="spacing" textLength="27.3604" font-family="'Plus Jakarta Sans'">Valid</text><text x="1438.1921" y="1512.3618" fill="#000000" font-size="11" lengthAdjust="spacing" textLength="60.7256" font-family="'Plus Jakarta Sans'">Tidak Valid</text><rect x="1062.1289" y="1546.9561" width="247.0449" height="33.9688" fill="#F7F4EB" style="stroke:#022C22;stroke-width:0.5;" rx="12.5" ry="12.5"/><text x="1072.1289" y="1568.0947" fill="#022C22" font-size="12" lengthAdjust="spacing" textLength="227.0449" font-family="'Plus Jakarta Sans'">Mengonfirmasi pembayaran di sistem</text><rect x="1049.8887" y="1696.7998" width="271.5254" height="47.9375" fill="#F7F4EB" style="stroke:#022C22;stroke-width:0.5;" rx="12.5" ry="12.5"/><text x="1059.8887" y="1717.9385" fill="#022C22" font-size="12" lengthAdjust="spacing" textLength="251.5254" font-family="'Plus Jakarta Sans'">Memproses pembuatan rangkaian bunga;</text><text x="1059.8887" y="1731.9072" fill="#022C22" font-size="12" lengthAdjust="spacing" textLength="197.9941" font-family="'Plus Jakarta Sans'">Set status pesanan = processing</text><rect x="1076.168" y="1764.7373" width="218.9668" height="47.9375" fill="#F7F4EB" style="stroke:#022C22;stroke-width:0.5;" rx="12.5" ry="12.5"/><text x="1086.168" y="1785.876" fill="#022C22" font-size="12" lengthAdjust="spacing" textLength="198.9668" font-family="'Plus Jakarta Sans'">Menyelesaikan rangkaian bunga;</text><text x="1086.168" y="1799.8447" fill="#022C22" font-size="12" lengthAdjust="spacing" textLength="167.4492" font-family="'Plus Jakarta Sans'">Set status pesanan = ready</text><rect x="1049.8652" y="1832.6748" width="271.5723" height="47.9375" fill="#F7F4EB" style="stroke:#022C22;stroke-width:0.5;" rx="12.5" ry="12.5"/><text x="1059.8652" y="1853.8135" fill="#022C22" font-size="12" lengthAdjust="spacing" textLength="251.5723" font-family="'Plus Jakarta Sans'">Menyerahkan ke kurir &amp; mengirim bunga;</text><text x="1059.8652" y="1867.7822" fill="#022C22" font-size="12" lengthAdjust="spacing" textLength="180.4863" font-family="'Plus Jakarta Sans'">Set status pesanan = shipped</text><rect x="1047.5771" y="1900.6123" width="276.1484" height="47.9375" fill="#F7F4EB" style="stroke:#022C22;stroke-width:0.5;" rx="12.5" ry="12.5"/><text x="1057.5771" y="1921.751" fill="#022C22" font-size="12" lengthAdjust="spacing" textLength="256.1484" font-family="'Plus Jakarta Sans'">Mengonfirmasi bunga diterima pelanggan;</text><text x="1057.5771" y="1935.7197" fill="#022C22" font-size="12" lengthAdjust="spacing" textLength="196.7285" font-family="'Plus Jakarta Sans'">Set status pesanan = completed</text><rect x="1345.6943" y="1546.9561" width="341.7148" height="33.9688" fill="#F7F4EB" style="stroke:#022C22;stroke-width:0.5;" rx="12.5" ry="12.5"/><text x="1355.6943" y="1568.0947" fill="#022C22" font-size="12" lengthAdjust="spacing" textLength="321.7148" font-family="'Plus Jakarta Sans'">Menolak pembayaran &amp; menginput alasan penolakan</text><polygon points="1351.1016,1958.5498,1363.1016,1970.5498,1351.1016,1982.5498,1339.1016,1970.5498,1351.1016,1958.5498" fill="#F7F4EB" style="stroke:#022C22;stroke-width:0.5;stroke-linejoin:miter;stroke-miterlimit:10;"/><line x1="1041.5771" y1="55.042" x2="1041.5771" y2="2078.5186" style="stroke:#000000;stroke-width:1.5;"/><line x1="1691.4092" y1="55.042" x2="1691.4092" y2="2078.5186" style="stroke:#000000;stroke-width:1.5;"/><line x1="218.1123" y1="100.9951" x2="218.1123" y2="120.9951" style="stroke:#10B981;stroke-width:1;"/><polygon points="214.1123,110.9951,222.1123,110.9951,218.1123,120.9951" fill="#10B981" style="stroke:#10B981;stroke-width:1;stroke-linejoin:miter;stroke-miterlimit:10;"/><line x1="218.1123" y1="154.9639" x2="218.1123" y2="174.9639" style="stroke:#10B981;stroke-width:1;"/><polygon points="214.1123,164.9639,222.1123,164.9639,218.1123,174.9639" fill="#10B981" style="stroke:#10B981;stroke-width:1;stroke-linejoin:miter;stroke-miterlimit:10;"/><line x1="218.1123" y1="208.9326" x2="218.1123" y2="228.9326" style="stroke:#10B981;stroke-width:1;"/><polygon points="214.1123,218.9326,222.1123,218.9326,218.1123,228.9326" fill="#10B981" style="stroke:#10B981;stroke-width:1;stroke-linejoin:miter;stroke-miterlimit:10;"/><line x1="218.1123" y1="306.9014" x2="218.1123" y2="331.3037" style="stroke:#10B981;stroke-width:1;"/><polygon points="214.1123,321.3037,222.1123,321.3037,218.1123,331.3037" fill="#10B981" style="stroke:#10B981;stroke-width:1;stroke-linejoin:miter;stroke-miterlimit:10;"/><line x1="287.2903" y1="294.9014" x2="337.6279" y2="294.9014" style="stroke:#10B981;stroke-width:1;"/><polygon points="333.6279,338.2881,341.6279,338.2881,337.6279,348.2881" fill="#10B981" style="stroke:#10B981;stroke-width:1;stroke-linejoin:miter;stroke-miterlimit:10;"/><line x1="337.6279" y1="294.9014" x2="337.6279" y2="397.2725" style="stroke:#10B981;stroke-width:1;"/><line x1="337.6279" y1="397.2725" x2="230.1123" y2="397.2725" style="stroke:#10B981;stroke-width:1;"/><polygon points="240.1123,393.2725,230.1123,397.2725,240.1123,401.2725" fill="#10B981" style="stroke:#10B981;stroke-width:1;stroke-linejoin:miter;stroke-miterlimit:10;"/><line x1="218.1123" y1="365.2725" x2="218.1123" y2="385.2725" style="stroke:#10B981;stroke-width:1;"/><polygon points="214.1123,375.2725,222.1123,375.2725,218.1123,385.2725" fill="#10B981" style="stroke:#10B981;stroke-width:1;stroke-linejoin:miter;stroke-miterlimit:10;"/><line x1="218.1123" y1="262.9014" x2="218.1123" y2="282.9014" style="stroke:#10B981;stroke-width:1;"/><polygon points="214.1123,272.9014,222.1123,272.9014,218.1123,282.9014" fill="#10B981" style="stroke:#10B981;stroke-width:1;stroke-linejoin:miter;stroke-miterlimit:10;"/><line x1="218.1123" y1="409.2725" x2="218.1123" y2="429.2725" style="stroke:#10B981;stroke-width:1;"/><polygon points="214.1123,419.2725,222.1123,419.2725,218.1123,429.2725" fill="#10B981" style="stroke:#10B981;stroke-width:1;stroke-linejoin:miter;stroke-miterlimit:10;"/><line x1="218.1123" y1="701.4873" x2="218.1123" y2="721.4873" style="stroke:#10B981;stroke-width:1;"/><polygon points="214.1123,711.4873,222.1123,711.4873,218.1123,721.4873" fill="#10B981" style="stroke:#10B981;stroke-width:1;stroke-linejoin:miter;stroke-miterlimit:10;"/><line x1="218.1123" y1="833.4248" x2="218.1123" y2="853.4248" style="stroke:#10B981;stroke-width:1;"/><polygon points="214.1123,843.4248,222.1123,843.4248,218.1123,853.4248" fill="#10B981" style="stroke:#10B981;stroke-width:1;stroke-linejoin:miter;stroke-miterlimit:10;"/><line x1="218.1123" y1="1077.2373" x2="218.1123" y2="1097.2373" style="stroke:#10B981;stroke-width:1;"/><polygon points="214.1123,1087.2373,222.1123,1087.2373,218.1123,1097.2373" fill="#10B981" style="stroke:#10B981;stroke-width:1;stroke-linejoin:miter;stroke-miterlimit:10;"/><line x1="218.1123" y1="1131.2061" x2="218.1123" y2="1151.2061" style="stroke:#10B981;stroke-width:1;"/><polygon points="214.1123,1141.2061,222.1123,1141.2061,218.1123,1151.2061" fill="#10B981" style="stroke:#10B981;stroke-width:1;stroke-linejoin:miter;stroke-miterlimit:10;"/><line x1="218.1123" y1="1199.1436" x2="218.1123" y2="1219.1436" style="stroke:#10B981;stroke-width:1;"/><polygon points="214.1123,1209.1436,222.1123,1209.1436,218.1123,1219.1436" fill="#10B981" style="stroke:#10B981;stroke-width:1;stroke-linejoin:miter;stroke-miterlimit:10;"/><line x1="218.1123" y1="2036.5186" x2="218.1123" y2="2056.5186" style="stroke:#10B981;stroke-width:1;"/><polygon points="214.1123,2046.5186,222.1123,2046.5186,218.1123,2056.5186" fill="#10B981" style="stroke:#10B981;stroke-width:1;stroke-linejoin:miter;stroke-miterlimit:10;"/><line x1="699.3008" y1="575.1787" x2="699.3008" y2="599.5811" style="stroke:#10B981;stroke-width:1;"/><polygon points="695.3008,589.5811,703.3008,589.5811,699.3008,599.5811" fill="#10B981" style="stroke:#10B981;stroke-width:1;stroke-linejoin:miter;stroke-miterlimit:10;"/><line x1="774.9214" y1="563.1787" x2="831.1152" y2="563.1787" style="stroke:#10B981;stroke-width:1;"/><polygon points="827.1152,667.2842,835.1152,667.2842,831.1152,677.2842" fill="#10B981" style="stroke:#10B981;stroke-width:1;stroke-linejoin:miter;stroke-miterlimit:10;"/><line x1="831.1152" y1="563.1787" x2="831.1152" y2="770.4873" style="stroke:#10B981;stroke-width:1;"/><line x1="831.1152" y1="770.4873" x2="218.1123" y2="770.4873" style="stroke:#10B981;stroke-width:1;"/><line x1="218.1123" y1="770.4873" x2="218.1123" y2="785.4873" style="stroke:#10B981;stroke-width:1;"/><polygon points="214.1123,775.4873,222.1123,775.4873,218.1123,785.4873" fill="#10B981" style="stroke:#10B981;stroke-width:1;stroke-linejoin:miter;stroke-miterlimit:10;"/><line x1="699.3008" y1="531.1787" x2="699.3008" y2="551.1787" style="stroke:#10B981;stroke-width:1;"/><polygon points="695.3008,541.1787,703.3008,541.1787,699.3008,551.1787" fill="#10B981" style="stroke:#10B981;stroke-width:1;stroke-linejoin:miter;stroke-miterlimit:10;"/><line x1="699.3008" y1="969.2998" x2="699.3008" y2="989.2998" style="stroke:#10B981;stroke-width:1;"/><polygon points="695.3008,979.2998,703.3008,979.2998,699.3008,989.2998" fill="#10B981" style="stroke:#10B981;stroke-width:1;stroke-linejoin:miter;stroke-miterlimit:10;"/><line x1="699.3008" y1="1321.0498" x2="699.3008" y2="1341.0498" style="stroke:#10B981;stroke-width:1;"/><polygon points="695.3008,1331.0498,703.3008,1331.0498,699.3008,1341.0498" fill="#10B981" style="stroke:#10B981;stroke-width:1;stroke-linejoin:miter;stroke-miterlimit:10;"/><line x1="1351.1016" y1="1428.9873" x2="1351.1016" y2="1448.9873" style="stroke:#10B981;stroke-width:1;"/><polygon points="1347.1016,1438.9873,1355.1016,1438.9873,1351.1016,1448.9873" fill="#10B981" style="stroke:#10B981;stroke-width:1;stroke-linejoin:miter;stroke-miterlimit:10;"/><line x1="1185.6514" y1="1744.7373" x2="1185.6514" y2="1764.7373" style="stroke:#10B981;stroke-width:1;"/><polygon points="1181.6514,1754.7373,1189.6514,1754.7373,1185.6514,1764.7373" fill="#10B981" style="stroke:#10B981;stroke-width:1;stroke-linejoin:miter;stroke-miterlimit:10;"/><line x1="1185.6514" y1="1812.6748" x2="1185.6514" y2="1832.6748" style="stroke:#10B981;stroke-width:1;"/><polygon points="1181.6514,1822.6748,1189.6514,1822.6748,1185.6514,1832.6748" fill="#10B981" style="stroke:#10B981;stroke-width:1;stroke-linejoin:miter;stroke-miterlimit:10;"/><line x1="1185.6514" y1="1880.6123" x2="1185.6514" y2="1900.6123" style="stroke:#10B981;stroke-width:1;"/><polygon points="1181.6514,1890.6123,1189.6514,1890.6123,1185.6514,1900.6123" fill="#10B981" style="stroke:#10B981;stroke-width:1;stroke-linejoin:miter;stroke-miterlimit:10;"/><line x1="1264.011" y1="1514.9561" x2="1185.6514" y2="1514.9561" style="stroke:#10B981;stroke-width:1;"/><line x1="1185.6514" y1="1514.9561" x2="1185.6514" y2="1546.9561" style="stroke:#10B981;stroke-width:1;"/><polygon points="1181.6514,1536.9561,1189.6514,1536.9561,1185.6514,1546.9561" fill="#10B981" style="stroke:#10B981;stroke-width:1;stroke-linejoin:miter;stroke-miterlimit:10;"/><line x1="1438.1921" y1="1514.9561" x2="1516.5518" y2="1514.9561" style="stroke:#10B981;stroke-width:1;"/><line x1="1516.5518" y1="1514.9561" x2="1516.5518" y2="1546.9561" style="stroke:#10B981;stroke-width:1;"/><polygon points="1512.5518,1536.9561,1520.5518,1536.9561,1516.5518,1546.9561" fill="#10B981" style="stroke:#10B981;stroke-width:1;stroke-linejoin:miter;stroke-miterlimit:10;"/><line x1="1185.6514" y1="1948.5498" x2="1185.6514" y2="1970.5498" style="stroke:#10B981;stroke-width:1;"/><line x1="1185.6514" y1="1970.5498" x2="1339.1016" y2="1970.5498" style="stroke:#10B981;stroke-width:1;"/><polygon points="1329.1016,1966.5498,1339.1016,1970.5498,1329.1016,1974.5498" fill="#10B981" style="stroke:#10B981;stroke-width:1;stroke-linejoin:miter;stroke-miterlimit:10;"/><line x1="1351.1016" y1="1482.9561" x2="1351.1016" y2="1502.9561" style="stroke:#10B981;stroke-width:1;"/><polygon points="1347.1016,1492.9561,1355.1016,1492.9561,1351.1016,1502.9561" fill="#10B981" style="stroke:#10B981;stroke-width:1;stroke-linejoin:miter;stroke-miterlimit:10;"/><line x1="218.1123" y1="463.2412" x2="218.1123" y2="468.2412" style="stroke:#10B981;stroke-width:1;"/><line x1="218.1123" y1="468.2412" x2="699.3008" y2="468.2412" style="stroke:#10B981;stroke-width:1;"/><line x1="699.3008" y1="468.2412" x2="699.3008" y2="483.2412" style="stroke:#10B981;stroke-width:1;"/><polygon points="695.3008,473.2412,703.3008,473.2412,699.3008,483.2412" fill="#10B981" style="stroke:#10B981;stroke-width:1;stroke-linejoin:miter;stroke-miterlimit:10;"/><line x1="699.3008" y1="647.5186" x2="699.3008" y2="652.5186" style="stroke:#10B981;stroke-width:1;"/><line x1="699.3008" y1="652.5186" x2="218.1123" y2="652.5186" style="stroke:#10B981;stroke-width:1;"/><line x1="218.1123" y1="652.5186" x2="218.1123" y2="667.5186" style="stroke:#10B981;stroke-width:1;"/><polygon points="214.1123,657.5186,222.1123,657.5186,218.1123,667.5186" fill="#10B981" style="stroke:#10B981;stroke-width:1;stroke-linejoin:miter;stroke-miterlimit:10;"/><line x1="218.1123" y1="887.3936" x2="218.1123" y2="892.3936" style="stroke:#10B981;stroke-width:1;"/><line x1="218.1123" y1="892.3936" x2="699.3008" y2="892.3936" style="stroke:#10B981;stroke-width:1;"/><line x1="699.3008" y1="892.3936" x2="699.3008" y2="907.3936" style="stroke:#10B981;stroke-width:1;"/><polygon points="695.3008,897.3936,703.3008,897.3936,699.3008,907.3936" fill="#10B981" style="stroke:#10B981;stroke-width:1;stroke-linejoin:miter;stroke-miterlimit:10;"/><line x1="699.3008" y1="1023.2686" x2="699.3008" y2="1028.2686" style="stroke:#10B981;stroke-width:1;"/><line x1="699.3008" y1="1028.2686" x2="218.1123" y2="1028.2686" style="stroke:#10B981;stroke-width:1;"/><line x1="218.1123" y1="1028.2686" x2="218.1123" y2="1043.2686" style="stroke:#10B981;stroke-width:1;"/><polygon points="214.1123,1033.2686,222.1123,1033.2686,218.1123,1043.2686" fill="#10B981" style="stroke:#10B981;stroke-width:1;stroke-linejoin:miter;stroke-miterlimit:10;"/><line x1="218.1123" y1="1253.1123" x2="218.1123" y2="1258.1123" style="stroke:#10B981;stroke-width:1;"/><line x1="218.1123" y1="1258.1123" x2="699.3008" y2="1258.1123" style="stroke:#10B981;stroke-width:1;"/><line x1="699.3008" y1="1258.1123" x2="699.3008" y2="1273.1123" style="stroke:#10B981;stroke-width:1;"/><polygon points="695.3008,1263.1123,703.3008,1263.1123,699.3008,1273.1123" fill="#10B981" style="stroke:#10B981;stroke-width:1;stroke-linejoin:miter;stroke-miterlimit:10;"/><line x1="699.3008" y1="1375.0186" x2="699.3008" y2="1380.0186" style="stroke:#10B981;stroke-width:1;"/><line x1="699.3008" y1="1380.0186" x2="1351.1016" y2="1380.0186" style="stroke:#10B981;stroke-width:1;"/><line x1="1351.1016" y1="1380.0186" x2="1351.1016" y2="1395.0186" style="stroke:#10B981;stroke-width:1;"/><polygon points="1347.1016,1385.0186,1355.1016,1385.0186,1351.1016,1395.0186" fill="#10B981" style="stroke:#10B981;stroke-width:1;stroke-linejoin:miter;stroke-miterlimit:10;"/><line x1="1185.6514" y1="1580.9248" x2="1185.6514" y2="1585.9248" style="stroke:#10B981;stroke-width:1;"/><line x1="1185.6514" y1="1585.9248" x2="533.8506" y2="1585.9248" style="stroke:#10B981;stroke-width:1;"/><line x1="533.8506" y1="1585.9248" x2="533.8506" y2="1600.9248" style="stroke:#10B981;stroke-width:1;"/><polygon points="529.8506,1590.9248,537.8506,1590.9248,533.8506,1600.9248" fill="#10B981" style="stroke:#10B981;stroke-width:1;stroke-linejoin:miter;stroke-miterlimit:10;"/><line x1="533.8506" y1="1676.7998" x2="533.8506" y2="1681.7998" style="stroke:#10B981;stroke-width:1;"/><line x1="533.8506" y1="1681.7998" x2="1185.6514" y2="1681.7998" style="stroke:#10B981;stroke-width:1;"/><line x1="1185.6514" y1="1681.7998" x2="1185.6514" y2="1696.7998" style="stroke:#10B981;stroke-width:1;"/><polygon points="1181.6514,1686.7998,1189.6514,1686.7998,1185.6514,1696.7998" fill="#10B981" style="stroke:#10B981;stroke-width:1;stroke-linejoin:miter;stroke-miterlimit:10;"/><line x1="1516.5518" y1="1580.9248" x2="1516.5518" y2="1585.9248" style="stroke:#10B981;stroke-width:1;"/><line x1="1516.5518" y1="1585.9248" x2="864.751" y2="1585.9248" style="stroke:#10B981;stroke-width:1;"/><line x1="864.751" y1="1585.9248" x2="864.751" y2="1600.9248" style="stroke:#10B981;stroke-width:1;"/><polygon points="860.751,1590.9248,868.751,1590.9248,864.751,1600.9248" fill="#10B981" style="stroke:#10B981;stroke-width:1;stroke-linejoin:miter;stroke-miterlimit:10;"/><line x1="864.751" y1="1648.8623" x2="864.751" y2="1952.5498" style="stroke:#10B981;stroke-width:1;"/><line x1="864.751" y1="1952.5498" x2="1381.1016" y2="1952.5498" style="stroke:#10B981;stroke-width:1;"/><line x1="1381.1016" y1="1952.5498" x2="1381.1016" y2="1970.5498" style="stroke:#10B981;stroke-width:1;"/><line x1="1381.1016" y1="1970.5498" x2="1363.1016" y2="1970.5498" style="stroke:#10B981;stroke-width:1;"/><polygon points="1373.1016,1966.5498,1363.1016,1970.5498,1373.1016,1974.5498" fill="#10B981" style="stroke:#10B981;stroke-width:1;stroke-linejoin:miter;stroke-miterlimit:10;"/><line x1="1351.1016" y1="1982.5498" x2="1351.1016" y2="1987.5498" style="stroke:#10B981;stroke-width:1;"/><line x1="1351.1016" y1="1987.5498" x2="218.1123" y2="1987.5498" style="stroke:#10B981;stroke-width:1;"/><line x1="218.1123" y1="1987.5498" x2="218.1123" y2="2002.5498" style="stroke:#10B981;stroke-width:1;"/><polygon points="214.1123,1992.5498,222.1123,1992.5498,218.1123,2002.5498" fill="#10B981" style="stroke:#10B981;stroke-width:1;stroke-linejoin:miter;stroke-miterlimit:10;"/><text x="169.7832" y="71.75" fill="#000000" font-size="18" lengthAdjust="spacing" textLength="94.6582" font-family="'Plus Jakarta Sans'">Pelanggan</text><text x="697.1655" y="71.75" fill="#000000" font-size="18" lengthAdjust="spacing" textLength="61.4707" font-family="'Plus Jakarta Sans'">Sistem</text><text x="1326.2085" y="71.75" fill="#000000" font-size="18" lengthAdjust="spacing" textLength="80.5693" font-family="'Plus Jakarta Sans'">Operator</text><?plantuml-src ZLLfQ-D84FskNr7CGh0XOMV2m1vcM2RNGfZCXFLU0u6bRBMbYgHkqKU2mJz-NxSEAuTdLnXZKrMlgbwzAhbATCkM6rhwRQt8UIjh7vewSwFbGcqurFxAQF-P6qLlRklWw9ehjfvfoTgzcNX_N7jv4ByzutLLM1DqVcvgO-cxgn-ktb-UlUPfRAvix_NszFJyzFGLhvZ-e8-rvh4tldjxzjEFxoR6fKUTXuoNOtcNL-_nJDiMRepE_xkFmV6RRVHEBxl8l7WG3tkHMgbIk-neASwhXhQi2rY32tN5ccP_gTN96JkLqvUOJs1TRgFdd4xea_W8TcssmtooR7UhQc0Kh7UPYrnaFzyeNN3bbAD7jNBYrIHm4StDAbHC5NkkJK57rAX6QYcfjIOFLNBHIliGAxg7MhXCJfgR5NvM2X_B-Xvf5rac6vfzR55EIIxa-0Qcw5_cv4k5XdwNdAjvHdW0MtELKAqgqBzb9_Hz5q2mw4McQgTezfNdcTAvRB9zkINNt23ql5JhoWIFrBkEn5qsGNxW6Xc1Qxnfs8kxqpFmug7fhZqaygZv2CjWAbg7AhJpHUhYpo5q6Ir7KLe86plvbGkknqv0HYjfPgro-4veFZRROTxfH5c1wW4R_Pxo5c6ci-jXcrRP5TiWpts1t_RiB4CSxiZG52NDNj12Zk6YCWq9DNnCYJj_VATzygof4XYE-zgZbC8nEbuZ2XwT0WgZDsARICYwvxppZmvFkCU0s0yfamF57cZswVhaAvwRcukBax_np1TtUgay3GFfdJ_4IdDe_P-Mjo3DmoqLu8mkEkfwBcWLUxtdhi9n18CsN686ZOY6kl17W8m1RB6aiIPTBLxo1Hbgjr4M3MWcn0SMyWRBGPuBAKS-kftwJHw1v-csBtw_Fd-qjU4SXY7ZOZ-FZR4DpL1ncahHiHyB8dPS7vCsZMZ8Qv1DY0MM2FE687-FYleo1r0WnDOxOpl9-MGqUYjD2xSqd6T01sRnoEBZB1wWdOr04cAwJY25K8sAxnJDe4_5jKlELLeyI9YziR6IB_tltNwFNud8ervTkJ9iyouJR9NZrzgFV0SVe_fnJkxFPDRf38ohcpPxlxeJPKz2K8LBnFNBER0uHWLu5T9jUdzBXYFJ2JQjpr0UuE9r5Vq0YHahp-aUytxegL3vmUrWoVkYzeIE1yEQACkssy9uMpakZIHjGBG7GQrPA-TaE319BAg6FLsh_uc2KURRAO3bSZXsmOhjNXn9hTy6SgMqhSeNhmqf1O9GdwuPWlhzFOIrDarRAn_HkekPNa8qKS5B7hN16sGwbhvmtUBiuRoufFla5PVifK8E3TUgUxNsXuSxs6c6V77jGw_uU4BnPZfmvGSg9aS8cyM1IXG5kU5TrAXQjEepBhBu1laN?></g></svg>