<svg xmlns="http://www.w3.org/2000/svg" xmlns:xlink="http://www.w3.org/1999/xlink" version="1.1" data-diagram-type="DESCRIPTION" style="width:791px;height:2078px;background:#FFFFFF;" width="791px" height="2078px" viewBox="0 0 791 2078" zoomAndPan="magnify" preserveAspectRatio="none" contentStyleType="text/css"><?plantuml 1.2026.7beta3?><defs/><g><g class="title" data-source-line="12"><text x="102.3679" y="22.9951" fill="#000000" font-size="14" lengthAdjust="spacing" textLength="579.9541" font-weight="700" font-family="'Plus Jakarta Sans'">Diagram Use Case - Sistem Informasi Pemesanan Bunga Little Joy Jakarta</text></g><!--cluster Sistem Informasi Pemesanan Little Joy--><g class="cluster" data-qualified-name="Sistem Informasi Pemesanan Little Joy" id="ent0005" data-source-line="19"><rect x="445.05" y="44.2969" width="332.64" height="2020" fill="none" style="stroke:#181818;stroke-width:1;"/><text x="458.973" y="59.292" fill="#000000" font-size="14" lengthAdjust="spacing" textLength="304.7939" font-weight="700" font-family="'Plus Jakarta Sans'">Sistem Informasi Pemesanan Little Joy</text></g><!--entity UC_Home--><g class="entity" data-qualified-name="Sistem Informasi Pemesanan Little Joy.UC_Home" id="ent0006" data-source-line="21"><ellipse cx="611.3711" cy="1139.3011" rx="73.3711" ry="17.0742" fill="#F7F4EB" style="stroke:#022C22;stroke-width:0.5;"/><text x="553.9937" y="1143.9495" fill="#022C22" font-size="14" lengthAdjust="spacing" textLength="114.7549" font-family="'Plus Jakarta Sans'">Melihat Beranda</text></g><!--entity UC_Catalog--><g class="entity" data-qualified-name="Sistem Informasi Pemesanan Little Joy.UC_Catalog" id="ent0007" data-source-line="22"><ellipse cx="611.3704" cy="1212.301" rx="92.0204" ry="20.8041" fill="#F7F4EB" style="stroke:#022C22;stroke-width:0.5;"/><text x="532.2205" y="1216.9494" fill="#022C22" font-size="14" lengthAdjust="spacing" textLength="158.2998" font-family="'Plus Jakarta Sans'">Melihat Katalog Bunga</text></g><!--entity UC_Search--><g class="entity" data-qualified-name="Sistem Informasi Pemesanan Little Joy.UC_Search" id="ent0008" data-source-line="23"><ellipse cx="611.3703" cy="1292.2969" rx="108.8003" ry="24.1601" fill="#F7F4EB" style="stroke:#022C22;stroke-width:0.5;"/><text x="513.7292" y="1296.9454" fill="#022C22" font-size="14" lengthAdjust="spacing" textLength="195.2822" font-family="'Plus Jakarta Sans'">Mencari &amp; Memfilter Produk</text></g><!--entity UC_Detail--><g class="entity" data-qualified-name="Sistem Informasi Pemesanan Little Joy.UC_Detail" id="ent0009" data-source-line="24"><ellipse cx="611.3719" cy="1371.2992" rx="86.7619" ry="19.7524" fill="#F7F4EB" style="stroke:#022C22;stroke-width:0.5;"/><text x="538.1863" y="1375.9477" fill="#022C22" font-size="14" lengthAdjust="spacing" textLength="146.3711" font-family="'Plus Jakarta Sans'">Melihat Detail Bunga</text></g><!--entity UC_Register--><g class="entity" data-qualified-name="Sistem Informasi Pemesanan Little Joy.UC_Register" id="ent0010" data-source-line="25"><ellipse cx="611.3731" cy="1446.2995" rx="88.1631" ry="20.0326" fill="#F7F4EB" style="stroke:#022C22;stroke-width:0.5;"/><text x="536.5879" y="1450.9479" fill="#022C22" font-size="14" lengthAdjust="spacing" textLength="149.5703" font-family="'Plus Jakarta Sans'">Melakukan Registrasi</text></g><!--entity UC_Login--><g class="entity" data-qualified-name="Sistem Informasi Pemesanan Little Joy.UC_Login" id="ent0011" data-source-line="26"><ellipse cx="611.3686" cy="1070.3006" rx="74.7686" ry="17.3537" fill="#F7F4EB" style="stroke:#022C22;stroke-width:0.5;"/><text x="552.2856" y="1074.949" fill="#022C22" font-size="14" lengthAdjust="spacing" textLength="118.166" font-family="'Plus Jakarta Sans'">Melakukan Login</text></g><!--entity UC_Profile--><g class="entity" data-qualified-name="Sistem Informasi Pemesanan Little Joy.UC_Profile" id="ent0012" data-source-line="29"><ellipse cx="611.3667" cy="2031.3002" rx="72.2167" ry="16.8433" fill="#F7F4EB" style="stroke:#022C22;stroke-width:0.5;"/><text x="555.4111" y="2035.9487" fill="#022C22" font-size="14" lengthAdjust="spacing" textLength="111.9111" font-family="'Plus Jakarta Sans'">Mengelola Profil</text></g><!--entity UC_Cart--><g class="entity" data-qualified-name="Sistem Informasi Pemesanan Little Joy.UC_Cart" id="ent0013" data-source-line="30"><ellipse cx="611.3748" cy="1526.2978" rx="112.9048" ry="24.981" fill="#F7F4EB" style="stroke:#022C22;stroke-width:0.5;"/><text x="509.3006" y="1530.9463" fill="#022C22" font-size="14" lengthAdjust="spacing" textLength="204.1484" font-family="'Plus Jakarta Sans'">Mengelola Keranjang Belanja</text></g><!--entity UC_Checkout--><g class="entity" data-qualified-name="Sistem Informasi Pemesanan Little Joy.UC_Checkout" id="ent0014" data-source-line="31"><ellipse cx="611.3733" cy="1774.2995" rx="86.6633" ry="19.7327" fill="#F7F4EB" style="stroke:#022C22;stroke-width:0.5;"/><text x="538.3006" y="1778.948" fill="#022C22" font-size="14" lengthAdjust="spacing" textLength="146.1455" font-family="'Plus Jakarta Sans'">Melakukan Checkout</text></g><!--entity UC_UploadPayment--><g class="entity" data-qualified-name="Sistem Informasi Pemesanan Little Joy.UC_UploadPayment" id="ent0015" data-source-line="32"><ellipse cx="611.3744" cy="1856.3017" rx="122.4244" ry="26.8849" fill="#F7F4EB" style="stroke:#022C22;stroke-width:0.5;"/><text x="499.1146" y="1860.9502" fill="#022C22" font-size="14" lengthAdjust="spacing" textLength="224.5195" font-family="'Plus Jakarta Sans'">Mengunggah Bukti Pembayaran</text></g><!--entity UC_OrderHistory--><g class="entity" data-qualified-name="Sistem Informasi Pemesanan Little Joy.UC_OrderHistory" id="ent0016" data-source-line="33"><ellipse cx="611.3676" cy="1957.2924" rx="99.7776" ry="22.3555" fill="#F7F4EB" style="stroke:#022C22;stroke-width:0.5;"/><text x="523.5839" y="1961.9408" fill="#022C22" font-size="14" lengthAdjust="spacing" textLength="175.5674" font-family="'Plus Jakarta Sans'">Melihat Riwayat Pesanan</text></g><!--entity UC_OrderDetail--><g class="entity" data-qualified-name="Sistem Informasi Pemesanan Little Joy.UC_OrderDetail" id="ent0017" data-source-line="34"><ellipse cx="611.3743" cy="1614.2977" rx="130.0043" ry="28.4009" fill="#F7F4EB" style="stroke:#022C22;stroke-width:0.5;"/><text x="491.0823" y="1618.9462" fill="#022C22" font-size="14" lengthAdjust="spacing" textLength="240.584" font-family="'Plus Jakarta Sans'">Melihat Detail Pesanan &amp; Timeline</text></g><!--entity UC_CancelOrder--><g class="entity" data-qualified-name="Sistem Informasi Pemesanan Little Joy.UC_CancelOrder" id="ent0018" data-source-line="35"><ellipse cx="611.3697" cy="1698.2948" rx="92.3397" ry="20.8679" fill="#F7F4EB" style="stroke:#022C22;stroke-width:0.5;"/><text x="531.8609" y="1702.9432" fill="#022C22" font-size="14" lengthAdjust="spacing" textLength="159.0176" font-family="'Plus Jakarta Sans'">Membatalkan Pesanan</text></g><!--entity UC_OpDashboard--><g class="entity" data-qualified-name="Sistem Informasi Pemesanan Little Joy.UC_OpDashboard" id="ent0019" data-source-line="38"><ellipse cx="611.3679" cy="915.3005" rx="120.5179" ry="26.5036" fill="#F7F4EB" style="stroke:#022C22;stroke-width:0.5;"/><text x="501.1385" y="919.9489" fill="#022C22" font-size="14" lengthAdjust="spacing" textLength="220.459" font-family="'Plus Jakarta Sans'">Melihat Dashboard Operasional</text></g><!--entity UC_ManageOrderStatus--><g class="entity" data-qualified-name="Sistem Informasi Pemesanan Little Joy.UC_ManageOrderStatus" id="ent0020" data-source-line="39"><ellipse cx="611.373" cy="210.2995" rx="103.963" ry="23.1926" fill="#F7F4EB" style="stroke:#022C22;stroke-width:0.5;"/><text x="518.9955" y="214.9479" fill="#022C22" font-size="14" lengthAdjust="spacing" textLength="184.7549" font-family="'Plus Jakarta Sans'">Mengelola Status Pesanan</text></g><!--entity UC_VerifyPayment--><g class="entity" data-qualified-name="Sistem Informasi Pemesanan Little Joy.UC_VerifyPayment" id="ent0021" data-source-line="40"><ellipse cx="611.3673" cy="107.2923" rx="128.4773" ry="28.0955" fill="#F7F4EB" style="stroke:#022C22;stroke-width:0.5;"/><text x="492.6886" y="111.9408" fill="#022C22" font-size="14" lengthAdjust="spacing" textLength="237.3574" font-family="'Plus Jakarta Sans'">Melakukan Verifikasi Pembayaran</text></g><!--entity UC_RejectPayment--><g class="entity" data-qualified-name="Sistem Informasi Pemesanan Little Joy.UC_RejectPayment" id="ent0022" data-source-line="41"><ellipse cx="611.3662" cy="314.3001" rx="132.2662" ry="28.8532" fill="#F7F4EB" style="stroke:#022C22;stroke-width:0.5;"/><text x="488.6885" y="318.9486" fill="#022C22" font-size="14" lengthAdjust="spacing" textLength="245.3555" font-family="'Plus Jakarta Sans'">Melakukan Penolakan Pembayaran</text></g><!--entity UC_MonitorStock--><g class="entity" data-qualified-name="Sistem Informasi Pemesanan Little Joy.UC_MonitorStock" id="ent0023" data-source-line="42"><ellipse cx="611.3696" cy="997.2968" rx="92.5496" ry="20.9099" fill="#F7F4EB" style="stroke:#022C22;stroke-width:0.5;"/><text x="531.625" y="1001.9452" fill="#022C22" font-size="14" lengthAdjust="spacing" textLength="159.4893" font-family="'Plus Jakarta Sans'">Memantau Stok Bunga</text></g><!--entity UC_ManageCategories--><g class="entity" data-qualified-name="Sistem Informasi Pemesanan Little Joy.UC_ManageCategories" id="ent0024" data-source-line="45"><ellipse cx="611.3723" cy="401.3013" rx="103.9223" ry="23.1845" fill="#F7F4EB" style="stroke:#022C22;stroke-width:0.5;"/><text x="519.0393" y="405.9498" fill="#022C22" font-size="14" lengthAdjust="spacing" textLength="184.666" font-family="'Plus Jakarta Sans'">Mengelola Kategori Bunga</text></g><!--entity UC_ManageProducts--><g class="entity" data-qualified-name="Sistem Informasi Pemesanan Little Joy.UC_ManageProducts" id="ent0025" data-source-line="46"><ellipse cx="611.3699" cy="481.3009" rx="99.2199" ry="22.244" fill="#F7F4EB" style="stroke:#022C22;stroke-width:0.5;"/><text x="524.2014" y="485.9493" fill="#022C22" font-size="14" lengthAdjust="spacing" textLength="174.3369" font-family="'Plus Jakarta Sans'">Mengelola Produk Bunga</text></g><!--entity UC_ManageStock--><g class="entity" data-qualified-name="Sistem Informasi Pemesanan Little Joy.UC_ManageStock" id="ent0026" data-source-line="47"><ellipse cx="611.3681" cy="571.3005" rx="150.3181" ry="32.4636" fill="#F7F4EB" style="stroke:#022C22;stroke-width:0.5;"/><text x="469.7959" y="575.9489" fill="#022C22" font-size="14" lengthAdjust="spacing" textLength="283.1445" font-family="'Plus Jakarta Sans'">Mengelola Inventori &amp; Penyesuaian Stok</text></g><!--entity UC_ManageOperators--><g class="entity" data-qualified-name="Sistem Informasi Pemesanan Little Joy.UC_ManageOperators" id="ent0027" data-source-line="48"><ellipse cx="611.3688" cy="664.2986" rx="115.3088" ry="25.4618" fill="#F7F4EB" style="stroke:#022C22;stroke-width:0.5;"/><text x="506.7106" y="668.9471" fill="#022C22" font-size="14" lengthAdjust="spacing" textLength="209.3164" font-family="'Plus Jakarta Sans'">Mengelola Data Operator Staf</text></g><!--entity UC_ViewReports--><g class="entity" data-qualified-name="Sistem Informasi Pemesanan Little Joy.UC_ViewReports" id="ent0028" data-source-line="49"><ellipse cx="611.3668" cy="748.3002" rx="104.5168" ry="23.3034" fill="#F7F4EB" style="stroke:#022C22;stroke-width:0.5;"/><text x="518.3844" y="752.9487" fill="#022C22" font-size="14" lengthAdjust="spacing" textLength="185.9648" font-family="'Plus Jakarta Sans'">Melihat Laporan Penjualan</text></g><!--entity UC_AdminDashboard--><g class="entity" data-qualified-name="Sistem Informasi Pemesanan Little Joy.UC_AdminDashboard" id="ent0029" data-source-line="50"><ellipse cx="611.3707" cy="830.301" rx="105.8207" ry="23.5641" fill="#F7F4EB" style="stroke:#022C22;stroke-width:0.5;"/><text x="516.9664" y="834.9495" fill="#022C22" font-size="14" lengthAdjust="spacing" textLength="188.8086" font-family="'Plus Jakarta Sans'">Melihat Dashboard Analitik</text></g><!--entity Guest--><g class="entity" data-qualified-name="Guest" id="ent0001" data-source-line="14"><ellipse cx="255.5569" cy="1222.6469" rx="8" ry="8" fill="#F7F4EB" style="stroke:#022C22;stroke-width:0.5;"/><path d="M255.5569,1230.6469 L255.5569,1257.6469 M242.5569,1238.6469 L268.5569,1238.6469 M255.5569,1257.6469 L242.5569,1272.6469 M255.5569,1257.6469 L268.5569,1272.6469" style="stroke:#022C22;stroke-width:0.5;" fill="none"/><text x="207.49" y="1287.142" fill="#022C22" font-size="14" lengthAdjust="spacing" textLength="96.1338" font-family="'Plus Jakarta Sans'">Tamu (Guest)</text></g><!--entity Customer--><g class="entity" data-qualified-name="Customer" id="ent0002" data-source-line="15"><ellipse cx="255.5505" cy="1744.6469" rx="8" ry="8" fill="#F7F4EB" style="stroke:#022C22;stroke-width:0.5;"/><path d="M255.5505,1752.6469 L255.5505,1779.6469 M242.5505,1760.6469 L268.5505,1760.6469 M255.5505,1779.6469 L242.5505,1794.6469 M255.5505,1779.6469 L268.5505,1794.6469" style="stroke:#022C22;stroke-width:0.5;" fill="none"/><text x="177.05" y="1809.142" fill="#022C22" font-size="14" lengthAdjust="spacing" textLength="157.001" font-family="'Plus Jakarta Sans'">Pelanggan (Customer)</text></g><!--entity Operator--><g class="entity" data-qualified-name="Operator" id="ent0003" data-source-line="16"><ellipse cx="61.0259" cy="378.6469" rx="8" ry="8" fill="#F7F4EB" style="stroke:#022C22;stroke-width:0.5;"/><path d="M61.0259,386.6469 L61.0259,413.6469 M48.0259,394.6469 L74.0259,394.6469 M61.0259,413.6469 L48.0259,428.6469 M61.0259,413.6469 L74.0259,428.6469" style="stroke:#022C22;stroke-width:0.5;" fill="none"/><text x="6" y="443.142" fill="#022C22" font-size="14" lengthAdjust="spacing" textLength="110.0518" font-family="'Plus Jakarta Sans'">Operator Florist</text></g><!--entity Admin--><g class="entity" data-qualified-name="Admin" id="ent0004" data-source-line="17"><ellipse cx="255.5513" cy="541.6469" rx="8" ry="8" fill="#F7F4EB" style="stroke:#022C22;stroke-width:0.5;"/><path d="M255.5513,549.6469 L255.5513,576.6469 M242.5513,557.6469 L268.5513,557.6469 M255.5513,576.6469 L242.5513,591.6469 M255.5513,576.6469 L268.5513,591.6469" style="stroke:#022C22;stroke-width:0.5;" fill="none"/><text x="207.71" y="606.142" fill="#022C22" font-size="14" lengthAdjust="spacing" textLength="95.6826" font-family="'Plus Jakarta Sans'">Administrator</text></g><!--link UC_Checkout to UC_Login--><g class="link" data-entity-1="ent0014" data-entity-2="ent0011" id="lnk30" data-source-line="53" data-link-type="dependency"><path d="M524.6,1775.5669 C492.7,1771.3869 459.04,1760.6869 437.05,1736.2969 C337.19,1625.5169 408.13,1551.7069 399.86,1402.7969 C392.43,1269.3069 345.46,1201.6869 437.05,1104.2969 C462.61,1077.1169 497.9681,1068.3215 533.3981,1066.3015" style="stroke:#10B981;stroke-width:1;stroke-dasharray:7,7;" fill="none" id="UC_Checkout-to-UC_Login"/><polygon points="538.39,1066.0169,529.1769,1062.5357,533.3981,1066.3015,529.6323,1070.5227,538.39,1066.0169" fill="#10B981" style="stroke:#10B981;stroke-width:1;stroke-linejoin:miter;stroke-miterlimit:10;"/><text x="365.05" y="1398.8638" fill="#000000" font-size="13" lengthAdjust="spacing" textLength="63.0068" font-family="'Plus Jakarta Sans'">«include»</text></g><!--link UC_UploadPayment to UC_OrderHistory--><g class="link" data-entity-1="ent0015" data-entity-2="ent0016" id="lnk31" data-source-line="54" data-link-type="dependency"><path d="M611.37,1883.5569 C611.37,1899.5469 611.37,1914.5069 611.37,1929.6269" style="stroke:#10B981;stroke-width:1;stroke-dasharray:7,7;" fill="none" id="UC_UploadPayment-to-UC_OrderHistory"/><polygon points="611.37,1934.6269,615.37,1925.6269,611.37,1929.6269,607.37,1925.6269,611.37,1934.6269" fill="#10B981" style="stroke:#10B981;stroke-width:1;stroke-linejoin:miter;stroke-miterlimit:10;"/><text x="568.37" y="1913.6238" fill="#000000" font-size="13" lengthAdjust="spacing" textLength="63.0068" font-family="'Plus Jakarta Sans'">«include»</text></g><!--link UC_VerifyPayment to UC_ManageOrderStatus--><g class="link" data-entity-1="ent0021" data-entity-2="ent0020" id="lnk32" data-source-line="55" data-link-type="dependency"><path d="M611.37,135.5769 C611.37,151.6169 611.37,166.4669 611.37,181.6669" style="stroke:#10B981;stroke-width:1;stroke-dasharray:7,7;" fill="none" id="UC_VerifyPayment-to-UC_ManageOrderStatus"/><polygon points="611.37,186.6669,615.37,177.6669,611.37,181.6669,607.37,177.6669,611.37,186.6669" fill="#10B981" style="stroke:#10B981;stroke-width:1;stroke-linejoin:miter;stroke-miterlimit:10;"/><text x="568.37" y="165.8138" fill="#000000" font-size="13" lengthAdjust="spacing" textLength="63.0068" font-family="'Plus Jakarta Sans'">«include»</text></g><!--link UC_RejectPayment to UC_ManageOrderStatus--><g class="link" data-entity-1="ent0022" data-entity-2="ent0020" id="lnk33" data-source-line="56" data-link-type="dependency"><path d="M611.37,285.0469 C611.37,268.8269 611.37,253.9269 611.37,238.7369" style="stroke:#10B981;stroke-width:1;stroke-dasharray:7,7;" fill="none" id="UC_RejectPayment-to-UC_ManageOrderStatus"/><polygon points="611.37,233.7369,607.37,242.7369,611.37,238.7369,615.37,242.7369,611.37,233.7369" fill="#10B981" style="stroke:#10B981;stroke-width:1;stroke-linejoin:miter;stroke-miterlimit:10;"/><text x="568.37" y="264.0338" fill="#000000" font-size="13" lengthAdjust="spacing" textLength="63.0068" font-family="'Plus Jakarta Sans'">«include»</text></g><!--link Guest to UC_Home--><g class="link" data-entity-1="ent0001" data-entity-2="ent0006" id="lnk34" data-source-line="60" data-link-type="dependency"><path d="M303.78,1228.6469 C339.61,1211.5169 390.47,1188.8869 437.05,1174.2969 C473.38,1162.9169 510.2538,1155.2028 543.6938,1149.3928" style="stroke:#10B981;stroke-width:1;" fill="none" id="Guest-to-UC_Home"/><polygon points="548.62,1148.5369,539.0681,1146.1365,543.6938,1149.3928,540.4376,1154.0185,548.62,1148.5369" fill="#10B981" style="stroke:#10B981;stroke-width:1;stroke-linejoin:miter;stroke-miterlimit:10;"/></g><!--link Guest to UC_Catalog--><g class="link" data-entity-1="ent0001" data-entity-2="ent0007" id="lnk35" data-source-line="61" data-link-type="dependency"><path d="M303.9,1246.9469 C361.24,1240.4569 453.8116,1229.9983 523.4516,1222.1283" style="stroke:#10B981;stroke-width:1;" fill="none" id="Guest-to-UC_Catalog"/><polygon points="528.42,1221.5669,519.0277,1218.6028,523.4516,1222.1283,519.9261,1226.5522,528.42,1221.5669" fill="#10B981" style="stroke:#10B981;stroke-width:1;stroke-linejoin:miter;stroke-miterlimit:10;"/></g><!--link Guest to UC_Search--><g class="link" data-entity-1="ent0001" data-entity-2="ent0008" id="lnk36" data-source-line="62" data-link-type="dependency"><path d="M303.9,1257.6469 C357.29,1263.6869 440.5416,1273.0953 508.6616,1280.7953" style="stroke:#10B981;stroke-width:1;" fill="none" id="Guest-to-UC_Search"/><polygon points="513.63,1281.3569,505.1362,1276.3713,508.6616,1280.7953,504.2377,1284.3207,513.63,1281.3569" fill="#10B981" style="stroke:#10B981;stroke-width:1;stroke-linejoin:miter;stroke-miterlimit:10;"/></g><!--link Guest to UC_Detail--><g class="link" data-entity-1="ent0001" data-entity-2="ent0009" id="lnk37" data-source-line="63" data-link-type="dependency"><path d="M304.06,1277.3069 C339.82,1295.2769 390.47,1318.9469 437.05,1334.2969 C470.22,1345.2269 503.1391,1352.7973 534.9691,1358.8873" style="stroke:#10B981;stroke-width:1;" fill="none" id="Guest-to-UC_Detail"/><polygon points="539.88,1359.8269,531.792,1354.2069,534.9691,1358.8873,530.2887,1362.0643,539.88,1359.8269" fill="#10B981" style="stroke:#10B981;stroke-width:1;stroke-linejoin:miter;stroke-miterlimit:10;"/></g><!--link Guest to UC_Register--><g class="link" data-entity-1="ent0001" data-entity-2="ent0010" id="lnk38" data-source-line="64" data-link-type="dependency"><path d="M271.99,1290.8269 C288.85,1327.5969 319.54,1381.4069 364.05,1409.2969 C411.51,1439.0269 468.9831,1447.9715 519.1431,1449.7315" style="stroke:#10B981;stroke-width:1;" fill="none" id="Guest-to-UC_Register"/><polygon points="524.14,1449.9069,515.2858,1445.5937,519.1431,1449.7315,515.0053,1453.5888,524.14,1449.9069" fill="#10B981" style="stroke:#10B981;stroke-width:1;stroke-linejoin:miter;stroke-miterlimit:10;"/></g><!--link Guest to UC_Login--><g class="link" data-entity-1="ent0001" data-entity-2="ent0011" id="lnk39" data-source-line="65" data-link-type="dependency"><path d="M292.09,1213.7669 C325.97,1179.5169 380.14,1130.8669 437.05,1104.2969 C469.28,1089.2569 502.9406,1081.5661 535.5306,1076.8961" style="stroke:#10B981;stroke-width:1;" fill="none" id="Guest-to-UC_Login"/><polygon points="540.48,1076.1869,531.0036,1073.5039,535.5306,1076.8961,532.1384,1081.423,540.48,1076.1869" fill="#10B981" style="stroke:#10B981;stroke-width:1;stroke-linejoin:miter;stroke-miterlimit:10;"/></g><!--link Customer to UC_Profile--><g class="link" data-entity-1="ent0002" data-entity-2="ent0012" id="lnk40" data-source-line="68" data-link-type="dependency"><path d="M276.42,1812.7669 C304.8,1863.6269 361.96,1952.0769 437.05,1997.2969 C467.79,2015.8069 501.6657,2023.9003 534.7857,2027.8803" style="stroke:#10B981;stroke-width:1;" fill="none" id="Customer-to-UC_Profile"/><polygon points="539.75,2028.4769,531.2915,2023.4317,534.7857,2027.8803,530.337,2031.3745,539.75,2028.4769" fill="#10B981" style="stroke:#10B981;stroke-width:1;stroke-linejoin:miter;stroke-miterlimit:10;"/></g><!--link Customer to UC_Cart--><g class="link" data-entity-1="ent0002" data-entity-2="ent0013" id="lnk41" data-source-line="69" data-link-type="dependency"><path d="M279.5,1735.9969 C309.66,1689.0869 367.09,1610.6669 437.05,1568.2969 C459.96,1554.4269 482.3173,1546.2906 508.3073,1540.0706" style="stroke:#10B981;stroke-width:1;" fill="none" id="Customer-to-UC_Cart"/><polygon points="513.17,1538.9069,503.4862,1537.1115,508.3073,1540.0706,505.3482,1544.8918,513.17,1538.9069" fill="#10B981" style="stroke:#10B981;stroke-width:1;stroke-linejoin:miter;stroke-miterlimit:10;"/></g><!--link Customer to UC_Checkout--><g class="link" data-entity-1="ent0002" data-entity-2="ent0014" id="lnk42" data-source-line="70" data-link-type="dependency"><path d="M334.2,1774.2969 C390.34,1774.2969 461.21,1774.2969 519.22,1774.2969" style="stroke:#10B981;stroke-width:1;" fill="none" id="Customer-to-UC_Checkout"/><polygon points="524.22,1774.2969,515.22,1770.2969,519.22,1774.2969,515.22,1778.2969,524.22,1774.2969" fill="#10B981" style="stroke:#10B981;stroke-width:1;stroke-linejoin:miter;stroke-miterlimit:10;"/></g><!--link Customer to UC_UploadPayment--><g class="link" data-entity-1="ent0002" data-entity-2="ent0015" id="lnk43" data-source-line="71" data-link-type="dependency"><path d="M334.2,1792.2969 C390.85,1805.4269 462.7191,1822.0779 520.9191,1835.5679" style="stroke:#10B981;stroke-width:1;" fill="none" id="Customer-to-UC_UploadPayment"/><polygon points="525.79,1836.6969,517.9256,1830.768,520.9191,1835.5679,516.1192,1838.5614,525.79,1836.6969" fill="#10B981" style="stroke:#10B981;stroke-width:1;stroke-linejoin:miter;stroke-miterlimit:10;"/></g><!--link Customer to UC_OrderHistory--><g class="link" data-entity-1="ent0002" data-entity-2="ent0016" id="lnk44" data-source-line="72" data-link-type="dependency"><path d="M303.55,1812.8569 C338.64,1840.1669 388.68,1876.1169 437.05,1900.2969 C470.91,1917.2269 506.1196,1929.3682 539.1696,1938.9982" style="stroke:#10B981;stroke-width:1;" fill="none" id="Customer-to-UC_OrderHistory"/><polygon points="543.97,1940.3969,536.4483,1934.0389,539.1696,1938.9982,534.2104,1941.7195,543.97,1940.3969" fill="#10B981" style="stroke:#10B981;stroke-width:1;stroke-linejoin:miter;stroke-miterlimit:10;"/></g><!--link Customer to UC_OrderDetail--><g class="link" data-entity-1="ent0002" data-entity-2="ent0017" id="lnk45" data-source-line="73" data-link-type="dependency"><path d="M308.28,1735.6469 C343.15,1711.1369 391.02,1680.3769 437.05,1660.2969 C461.88,1649.4669 485.015,1641.9609 511.125,1635.0809" style="stroke:#10B981;stroke-width:1;" fill="none" id="Customer-to-UC_OrderDetail"/><polygon points="515.96,1633.8069,506.2379,1632.2321,511.125,1635.0809,508.2763,1639.9681,515.96,1633.8069" fill="#10B981" style="stroke:#10B981;stroke-width:1;stroke-linejoin:miter;stroke-miterlimit:10;"/></g><!--link Customer to UC_CancelOrder--><g class="link" data-entity-1="ent0002" data-entity-2="ent0018" id="lnk46" data-source-line="74" data-link-type="dependency"><path d="M334.27,1755.1369 C344.28,1752.7769 354.4,1750.4469 364.05,1748.2969 C423.15,1735.1569 485.6438,1722.5406 534.9738,1712.8506" style="stroke:#10B981;stroke-width:1;" fill="none" id="Customer-to-UC_CancelOrder"/><polygon points="539.88,1711.8869,530.2778,1709.6966,534.9738,1712.8506,531.8198,1717.5466,539.88,1711.8869" fill="#10B981" style="stroke:#10B981;stroke-width:1;stroke-linejoin:miter;stroke-miterlimit:10;"/></g><!--link Operator to UC_OpDashboard--><g class="link" data-entity-1="ent0003" data-entity-2="ent0019" id="lnk47" data-source-line="77" data-link-type="dependency"><path d="M77.45,446.5669 C96.84,492.1369 132.98,569.3669 177.05,627.2969 C273.01,753.4169 298.07,795.1669 437.05,871.2969 C460.33,884.0469 482.5432,891.9587 508.2732,898.4787" style="stroke:#10B981;stroke-width:1;" fill="none" id="Operator-to-UC_OpDashboard"/><polygon points="513.12,899.7069,505.3783,893.6187,508.2732,898.4787,503.4132,901.3736,513.12,899.7069" fill="#10B981" style="stroke:#10B981;stroke-width:1;stroke-linejoin:miter;stroke-miterlimit:10;"/></g><!--link Operator to UC_ManageOrderStatus--><g class="link" data-entity-1="ent0003" data-entity-2="ent0020" id="lnk48" data-source-line="78" data-link-type="dependency"><path d="M116.45,378.0669 C135.33,368.2069 156.83,357.6569 177.05,349.2969 C303.35,297.0569 452.0196,253.2748 538.2696,229.5148" style="stroke:#10B981;stroke-width:1;" fill="none" id="Operator-to-UC_ManageOrderStatus"/><polygon points="543.09,228.1869,533.3509,226.7208,538.2696,229.5148,535.4756,234.4335,543.09,228.1869" fill="#10B981" style="stroke:#10B981;stroke-width:1;stroke-linejoin:miter;stroke-miterlimit:10;"/></g><!--link Operator to UC_VerifyPayment--><g class="link" data-entity-1="ent0003" data-entity-2="ent0021" id="lnk49" data-source-line="79" data-link-type="dependency"><path d="M95.34,369.6969 C116.98,346.1869 146.73,316.6669 177.05,295.2969 C290.33,215.4669 438.1293,160.6353 528.7393,131.5453" style="stroke:#10B981;stroke-width:1;" fill="none" id="Operator-to-UC_VerifyPayment"/><polygon points="533.5,130.0169,523.7081,128.9594,528.7393,131.5453,526.1535,136.5765,533.5,130.0169" fill="#10B981" style="stroke:#10B981;stroke-width:1;stroke-linejoin:miter;stroke-miterlimit:10;"/></g><!--link Operator to UC_RejectPayment--><g class="link" data-entity-1="ent0003" data-entity-2="ent0022" id="lnk50" data-source-line="80" data-link-type="dependency"><path d="M116.36,398.9869 C206.92,383.4569 385.3119,352.8818 501.3819,332.9818" style="stroke:#10B981;stroke-width:1;" fill="none" id="Operator-to-UC_RejectPayment"/><polygon points="506.31,332.1369,496.7635,329.7152,501.3819,332.9818,498.1154,337.6002,506.31,332.1369" fill="#10B981" style="stroke:#10B981;stroke-width:1;stroke-linejoin:miter;stroke-miterlimit:10;"/></g><!--link Operator to UC_MonitorStock--><g class="link" data-entity-1="ent0003" data-entity-2="ent0023" id="lnk51" data-source-line="81" data-link-type="dependency"><path d="M63.38,446.7869 C67.98,524.4169 88.22,701.9569 177.05,814.2969 C264.55,924.9569 426.3547,968.7358 525.5347,986.0758" style="stroke:#10B981;stroke-width:1;" fill="none" id="Operator-to-UC_MonitorStock"/><polygon points="530.46,986.9369,522.2834,981.4466,525.5347,986.0758,520.9056,989.3271,530.46,986.9369" fill="#10B981" style="stroke:#10B981;stroke-width:1;stroke-linejoin:miter;stroke-miterlimit:10;"/></g><!--link Admin to UC_AdminDashboard--><g class="link" data-entity-1="ent0004" data-entity-2="ent0029" id="lnk52" data-source-line="84" data-link-type="dependency"><path d="M277.03,609.9369 C305.72,659.9869 362.8,745.9369 437.05,789.2969 C461.48,803.5669 485.709,811.7824 513.029,817.8524" style="stroke:#10B981;stroke-width:1;" fill="none" id="Admin-to-UC_AdminDashboard"/><polygon points="517.91,818.9369,509.9918,813.0801,513.029,817.8524,508.2567,820.8896,517.91,818.9369" fill="#10B981" style="stroke:#10B981;stroke-width:1;stroke-linejoin:miter;stroke-miterlimit:10;"/></g><!--link Admin to UC_ManageCategories--><g class="link" data-entity-1="ent0004" data-entity-2="ent0024" id="lnk53" data-source-line="85" data-link-type="dependency"><path d="M299.45,532.8069 C334.21,503.5769 385.7,464.5669 437.05,441.2969 C464.2,428.9969 490.6102,421.3308 519.0902,415.2508" style="stroke:#10B981;stroke-width:1;" fill="none" id="Admin-to-UC_ManageCategories"/><polygon points="523.98,414.2069,514.3432,412.174,519.0902,415.2508,516.0134,419.9977,523.98,414.2069" fill="#10B981" style="stroke:#10B981;stroke-width:1;stroke-linejoin:miter;stroke-miterlimit:10;"/></g><!--link Admin to UC_ManageProducts--><g class="link" data-entity-1="ent0004" data-entity-2="ent0025" id="lnk54" data-source-line="86" data-link-type="dependency"><path d="M303.53,557.6769 C339.87,547.2969 391.51,532.8569 437.05,521.2969 C470.58,512.7869 503.0632,505.1701 534.4932,498.0601" style="stroke:#10B981;stroke-width:1;" fill="none" id="Admin-to-UC_ManageProducts"/><polygon points="539.37,496.9569,529.7092,495.0412,534.4932,498.0601,531.4744,502.8441,539.37,496.9569" fill="#10B981" style="stroke:#10B981;stroke-width:1;stroke-linejoin:miter;stroke-miterlimit:10;"/></g><!--link Admin to UC_ManageStock--><g class="link" data-entity-1="ent0004" data-entity-2="ent0026" id="lnk55" data-source-line="87" data-link-type="dependency"><path d="M303.54,571.2969 C343.86,571.2969 399.25,571.2969 455.82,571.2969" style="stroke:#10B981;stroke-width:1;" fill="none" id="Admin-to-UC_ManageStock"/><polygon points="460.82,571.2969,451.82,567.2969,455.82,571.2969,451.82,575.2969,460.82,571.2969" fill="#10B981" style="stroke:#10B981;stroke-width:1;stroke-linejoin:miter;stroke-miterlimit:10;"/></g><!--link Admin to UC_ManageOperators--><g class="link" data-entity-1="ent0004" data-entity-2="ent0027" id="lnk56" data-source-line="88" data-link-type="dependency"><path d="M303.58,584.6969 C339.96,594.9769 391.61,609.3669 437.05,621.2969 C468.09,629.4469 497.5053,636.8303 527.3253,644.1803" style="stroke:#10B981;stroke-width:1;" fill="none" id="Admin-to-UC_ManageOperators"/><polygon points="532.18,645.3769,524.3988,639.3393,527.3253,644.1803,522.4843,647.1068,532.18,645.3769" fill="#10B981" style="stroke:#10B981;stroke-width:1;stroke-linejoin:miter;stroke-miterlimit:10;"/></g><!--link Admin to UC_ViewReports--><g class="link" data-entity-1="ent0004" data-entity-2="ent0028" id="lnk57" data-source-line="89" data-link-type="dependency"><path d="M297.06,609.6869 C331.67,640.4569 384.13,682.4469 437.05,707.2969 C464.06,719.9769 490.4551,727.86 518.9351,734.08" style="stroke:#10B981;stroke-width:1;" fill="none" id="Admin-to-UC_ViewReports"/><polygon points="523.82,735.1469,515.8807,729.3187,518.9351,734.08,514.1738,737.1344,523.82,735.1469" fill="#10B981" style="stroke:#10B981;stroke-width:1;stroke-linejoin:miter;stroke-miterlimit:10;"/></g><!--reverse link Operator to Admin--><g class="link" data-entity-1="ent0003" data-entity-2="ent0004" id="lnk59" data-source-line="92" data-link-type="extension"><path d="M121.3877,458.5577 C151.9677,484.4477 178.34,506.7769 208.92,532.6669" style="stroke:#10B981;stroke-width:1;" fill="none" id="Operator-backto-Admin"/><polygon points="107.65,446.9269,117.5108,463.1369,125.2646,453.9784,107.65,446.9269" fill="none" style="stroke:#10B981;stroke-width:1;stroke-linejoin:miter;stroke-miterlimit:10;"/></g><?plantuml-src ZLPPRzj647xdhnYeGEC0TPiO1NeW4639SPt4gWKhxcinfaRKYkGkiKTSeUr_x-po44-bUkBEV3CxvxVAQ6V1Aj0YsLlO2asn5Kf69XMoG8qvREmn8p1MYzYwF6jfRcY7BhEtIjhVCIUOhJDdu2Ecg2t21gMPjT1FXfPeQ85nccZbv7QfCgNXczkVRdzylnW1AhqbNO7UN5qjhww687_t5EGwjaf__ReITlQo03bxbTRgfLA-VRFuvUUtKMI5vRhT24ogUC4739Um4SPI3X_aJkaSZO0rvMHGeeI5amd2lR3UzACwriMC8lGXmEmpvWukVdDaxEiPe87mMMlNbA5C4dPqiNJ6gfnqYQfFDV2X88t-wvP3vd02g1RMeEjjBYGhWp0WWYIA_8pmFHpYx4mkfoncy7S4_7lLLC60JoG8dQ7OrsMseapiqSA2ev1R31S-BV-yuxZ7WP_GOgQIicWrV5aA-nOoHYtWMrXHlXEP9GrhhROkhSqsX3hUZzzpGnP5rhscb0tmcBgKKt-a9DJDY1fVIhW14nRtAX6o1eT3D2XPqzr1SWbbAaEV4YTNUobFD0N-vCjyO8TSyCn_dIgexLIOopt5gNAsmLRduINEHxhdegKs3CKp7dbJcXIVYapXTet7dAGTB_kZU64RoyPXdchB1x-eTrnCfOzd-rNPSTC_YvnLaZeknZl8SVBy-5HxrovHnfG5os5dciqPZmVD_bcXtfOum_IAJPSUYaOzrQcDHUjCFw0L7n8A0PM0gPxzGLhiH5ejPwyFGNcSwaFbOKsIuoY_-WuUwS1iCE4WHsdHSG8gxQxFIad1zM95d0xBMTBCrDoYfOH9g-SmL6DPwSYSMH7U-Z7Re8djfEK7-OKpL855k217CWu5byGdr_LKPZNXveRdgvaNtzfThw6LoepFqZqMIfSjEJZCMeqKzF98hBJcQrDupUCdh6YY3kK-JM7LZZltx8iaEV4uSrk27-3zNvPaEQQjtOVlvmrfmQ_mxfqe3URp6jbPzWhUNkDngyveLbQ3eHytxGpb_pJzDufUmRLHHlXD2SzJU5lXydBUl4CTIVtKT8JLGzAHLLJJaJKFGaTQCNyha1FfrszuZQtvlIyF_3qGraJTLtI9kA_jaEseiifj64IBBblfD4pPh43jhCM3VTsGwlg8BetrjLsE6dZlS54hrh0NSB6Y5_xlmEUK-Iml7Az4uy8lcKP8bJHKM5x8xq3ov4Z-8vqWKwNsf4cfAJ9sO04Jr73WZXhOylBcO58j2YDUH-LTLKIzXUpe1aGtecseR4HNfZcYE15FHzdc5L-Se3iu_fVwB0n2tZmIXdA7O5dJUWyhLwwu_6VUIFy3?></g></svg>