<svg xmlns="http://www.w3.org/2000/svg" xmlns:xlink="http://www.w3.org/1999/xlink" version="1.1" data-diagram-type="ACTIVITY" style="width:1034px;height:780px;background:#FFFFFF;" width="1034px" height="780px" viewBox="0 0 1034 780" zoomAndPan="magnify" preserveAspectRatio="none" contentStyleType="text/css"><?plantuml 1.2026.7beta3?><defs/><g><g class="title" data-source-line="13"><text x="291.0923" y="32.9951" fill="#000000" font-size="14" lengthAdjust="spacing" textLength="450.249" font-weight="700" font-family="'Plus Jakarta Sans'">3. User Flow - Operator Memverifikasi Bukti Pembayaran</text></g><ellipse cx="606.3977" cy="62.2969" rx="10" ry="10" fill="#222222" style="stroke:#222222;stroke-width:1;"/><rect x="500.5413" y="92.2969" width="211.7129" height="33.9688" fill="#F7F4EB" style="stroke:#022C22;stroke-width:0.5;" rx="12.5" ry="12.5"/><text x="510.5413" y="113.4355" fill="#022C22" font-size="12" lengthAdjust="spacing" textLength="191.7129" font-family="'Plus Jakarta Sans'">Login ke akun Operator / Admin</text><rect x="490.3752" y="146.2656" width="232.0449" height="33.9688" fill="#F7F4EB" style="stroke:#022C22;stroke-width:0.5;" rx="12.5" ry="12.5"/><text x="500.3752" y="167.4043" fill="#022C22" font-size="12" lengthAdjust="spacing" textLength="212.0449" font-family="'Plus Jakarta Sans'">Mengakses Dashboard Operasional</text><rect x="472.8616" y="200.2344" width="267.0723" height="33.9688" fill="#F7F4EB" style="stroke:#022C22;stroke-width:0.5;" rx="12.5" ry="12.5"/><text x="482.8616" y="221.373" fill="#022C22" font-size="12" lengthAdjust="spacing" textLength="247.0723" font-family="'Plus Jakarta Sans'">Membuka antrean "Menunggu Verifikasi"</text><rect x="499.0706" y="254.2031" width="214.6543" height="33.9688" fill="#F7F4EB" style="stroke:#022C22;stroke-width:0.5;" rx="12.5" ry="12.5"/><text x="509.0706" y="275.3418" fill="#022C22" font-size="12" lengthAdjust="spacing" textLength="194.6543" font-family="'Plus Jakarta Sans'">Membuka detail pesanan terkait</text><rect x="423.0452" y="308.1719" width="366.7051" height="33.9688" fill="#F7F4EB" style="stroke:#022C22;stroke-width:0.5;" rx="12.5" ry="12.5"/><text x="433.0452" y="329.3105" fill="#022C22" font-size="12" lengthAdjust="spacing" textLength="346.7051" font-family="'Plus Jakarta Sans'">Memeriksa validitas gambar bukti transfer &amp; mutasi bank</text><polygon points="479.8037,362.1406,732.9917,362.1406,744.9917,374.1406,732.9917,386.1406,479.8037,386.1406,467.8037,374.1406,479.8037,362.1406" fill="#F7F4EB" style="stroke:#022C22;stroke-width:0.5;stroke-linejoin:miter;stroke-miterlimit:10;"/><text x="479.8037" y="377.9487" fill="#022C22" font-size="11" lengthAdjust="spacing" textLength="253.188" font-family="'Plus Jakarta Sans'">Apakah transfer dana valid &amp; nominal sesuai?</text><text x="405.2627" y="371.5464" fill="#000000" font-size="11" lengthAdjust="spacing" textLength="62.541" font-family="'Plus Jakarta Sans'">Ya - Setujui</text><text x="744.9917" y="371.5464" fill="#000000" font-size="11" lengthAdjust="spacing" textLength="70.4473" font-family="'Plus Jakarta Sans'">Tidak - Tolak</text><rect x="225.3325" y="396.1406" width="268.9707" height="33.9688" fill="#F7F4EB" style="stroke:#022C22;stroke-width:0.5;" rx="12.5" ry="12.5"/><text x="235.3325" y="417.2793" fill="#022C22" font-size="12" lengthAdjust="spacing" textLength="248.9707" font-family="'Plus Jakarta Sans'">Mengklik tombol "Verifikasi Pembayaran"</text><polygon points="269.7097,450.1094,449.926,450.1094,461.926,462.1094,449.926,474.1094,269.7097,474.1094,257.7097,462.1094,269.7097,450.1094" fill="#F7F4EB" style="stroke:#022C22;stroke-width:0.5;stroke-linejoin:miter;stroke-miterlimit:10;"/><text x="269.7097" y="465.9175" fill="#022C22" font-size="11" lengthAdjust="spacing" textLength="180.2163" font-family="'Plus Jakarta Sans'">Apakah stok produk mencukupi?</text><text x="244.2498" y="459.5151" fill="#000000" font-size="11" lengthAdjust="spacing" textLength="13.46" font-family="'Plus Jakarta Sans'">Ya</text><text x="461.926" y="459.5151" fill="#000000" font-size="11" lengthAdjust="spacing" textLength="71.6128" font-family="'Plus Jakarta Sans'">Tidak - Habis</text><rect x="79.8115" y="484.1094" width="227.252" height="61.9063" fill="#F7F4EB" style="stroke:#022C22;stroke-width:0.5;" rx="12.5" ry="12.5"/><text x="89.8115" y="505.248" fill="#022C22" font-size="12" lengthAdjust="spacing" textLength="189.1523" font-family="'Plus Jakarta Sans'">Sistem memotong stok produk;</text><text x="89.8115" y="519.2168" fill="#022C22" font-size="12" lengthAdjust="spacing" textLength="207.252" font-family="'Plus Jakarta Sans'">Set status pembayaran = verified;</text><text x="89.8115" y="533.1855" fill="#022C22" font-size="12" lengthAdjust="spacing" textLength="158.9824" font-family="'Plus Jakarta Sans'">Set status pesanan = paid</text><rect x="16" y="581.0156" width="354.875" height="33.9688" fill="#F7F4EB" style="stroke:#022C22;stroke-width:0.5;" rx="12.5" ry="12.5"/><text x="26" y="602.1543" fill="#022C22" font-size="12" lengthAdjust="spacing" textLength="334.875" font-family="'Plus Jakarta Sans'">Melihat status pesanan berubah menjadi "Lunas (Paid)"</text><ellipse cx="193.4375" cy="660.9844" rx="11" ry="11" fill="none" style="stroke:#222222;stroke-width:1;"/><ellipse cx="193.4375" cy="660.9844" rx="6" ry="6" fill="#222222" style="stroke:#222222;stroke-width:1;"/><rect x="390.875" y="484.1094" width="270.6465" height="47.9375" fill="#F7F4EB" style="stroke:#022C22;stroke-width:0.5;" rx="12.5" ry="12.5"/><text x="400.875" y="505.248" fill="#022C22" font-size="12" lengthAdjust="spacing" textLength="196.3301" font-family="'Plus Jakarta Sans'">Sistem menggagalkan verifikasi;</text><text x="400.875" y="519.2168" fill="#022C22" font-size="12" lengthAdjust="spacing" textLength="250.6465" font-family="'Plus Jakarta Sans'">Menampilkan pesan kesalahan stok habis</text><ellipse cx="526.1982" cy="578.0469" rx="11" ry="11" fill="none" style="stroke:#222222;stroke-width:1;"/><ellipse cx="526.1982" cy="578.0469" rx="6" ry="6" fill="#222222" style="stroke:#222222;stroke-width:1;"/><rect x="729.9912" y="396.1406" width="245.9727" height="33.9688" fill="#F7F4EB" style="stroke:#022C22;stroke-width:0.5;" rx="12.5" ry="12.5"/><text x="739.9912" y="417.2793" fill="#022C22" font-size="12" lengthAdjust="spacing" textLength="225.9727" font-family="'Plus Jakarta Sans'">Mengklik tombol "Tolak Pembayaran"</text><rect x="708.0127" y="450.1094" width="289.9297" height="33.9688" fill="#F7F4EB" style="stroke:#022C22;stroke-width:0.5;" rx="12.5" ry="12.5"/><text x="718.0127" y="471.248" fill="#022C22" font-size="12" lengthAdjust="spacing" textLength="269.9297" font-family="'Plus Jakarta Sans'">Menulis alasan penolakan pada kolom dialog</text><rect x="735.2822" y="519.0781" width="235.3906" height="33.9688" fill="#F7F4EB" style="stroke:#022C22;stroke-width:0.5;" rx="12.5" ry="12.5"/><text x="745.2822" y="540.2168" fill="#022C22" font-size="12" lengthAdjust="spacing" textLength="215.3906" font-family="'Plus Jakarta Sans'">Menekan tombol "Konfirmasi Tolak"</text><rect x="728.1572" y="588.0469" width="249.6406" height="61.9063" fill="#F7F4EB" style="stroke:#022C22;stroke-width:0.5;" rx="12.5" ry="12.5"/><text x="738.1572" y="609.1855" fill="#022C22" font-size="12" lengthAdjust="spacing" textLength="229.6406" font-family="'Plus Jakarta Sans'">Sistem menyimpan alasan penolakan;</text><text x="738.1572" y="623.1543" fill="#022C22" font-size="12" lengthAdjust="spacing" textLength="211.2773" font-family="'Plus Jakarta Sans'">Set status pembayaran = rejected;</text><text x="738.1572" y="637.123" fill="#022C22" font-size="12" lengthAdjust="spacing" textLength="182.3965" font-family="'Plus Jakarta Sans'">Set status pesanan = rejected</text><rect x="691.5215" y="684.9531" width="322.9121" height="33.9688" fill="#F7F4EB" style="stroke:#022C22;stroke-width:0.5;" rx="12.5" ry="12.5"/><text x="701.5215" y="706.0918" fill="#022C22" font-size="12" lengthAdjust="spacing" textLength="302.9121" font-family="'Plus Jakarta Sans'">Melihat status pesanan berubah menjadi "Ditolak"</text><ellipse cx="852.9775" cy="749.9219" rx="11" ry="11" fill="none" style="stroke:#222222;stroke-width:1;"/><ellipse cx="852.9775" cy="749.9219" rx="6" ry="6" fill="#222222" style="stroke:#222222;stroke-width:1;"/><line x1="606.3977" y1="72.2969" x2="606.3977" y2="92.2969" style="stroke:#10B981;stroke-width:1;"/><polygon points="602.3977,82.2969,610.3977,82.2969,606.3977,92.2969" fill="#10B981" style="stroke:#10B981;stroke-width:1;stroke-linejoin:miter;stroke-miterlimit:10;"/><line x1="606.3977" y1="126.2656" x2="606.3977" y2="146.2656" style="stroke:#10B981;stroke-width:1;"/><polygon points="602.3977,136.2656,610.3977,136.2656,606.3977,146.2656" fill="#10B981" style="stroke:#10B981;stroke-width:1;stroke-linejoin:miter;stroke-miterlimit:10;"/><line x1="606.3977" y1="180.2344" x2="606.3977" y2="200.2344" style="stroke:#10B981;stroke-width:1;"/><polygon points="602.3977,190.2344,610.3977,190.2344,606.3977,200.2344" fill="#10B981" style="stroke:#10B981;stroke-width:1;stroke-linejoin:miter;stroke-miterlimit:10;"/><line x1="606.3977" y1="234.2031" x2="606.3977" y2="254.2031" style="stroke:#10B981;stroke-width:1;"/><polygon points="602.3977,244.2031,610.3977,244.2031,606.3977,254.2031" fill="#10B981" style="stroke:#10B981;stroke-width:1;stroke-linejoin:miter;stroke-miterlimit:10;"/><line x1="606.3977" y1="288.1719" x2="606.3977" y2="308.1719" style="stroke:#10B981;stroke-width:1;"/><polygon points="602.3977,298.1719,610.3977,298.1719,606.3977,308.1719" fill="#10B981" style="stroke:#10B981;stroke-width:1;stroke-linejoin:miter;stroke-miterlimit:10;"/><line x1="193.4375" y1="546.0156" x2="193.4375" y2="581.0156" style="stroke:#10B981;stroke-width:1;"/><polygon points="189.4375,571.0156,197.4375,571.0156,193.4375,581.0156" fill="#10B981" style="stroke:#10B981;stroke-width:1;stroke-linejoin:miter;stroke-miterlimit:10;"/><line x1="193.4375" y1="614.9844" x2="193.4375" y2="649.9844" style="stroke:#10B981;stroke-width:1;"/><polygon points="189.4375,639.9844,197.4375,639.9844,193.4375,649.9844" fill="#10B981" style="stroke:#10B981;stroke-width:1;stroke-linejoin:miter;stroke-miterlimit:10;"/><line x1="526.1982" y1="532.0469" x2="526.1982" y2="567.0469" style="stroke:#10B981;stroke-width:1;"/><polygon points="522.1982,557.0469,530.1982,557.0469,526.1982,567.0469" fill="#10B981" style="stroke:#10B981;stroke-width:1;stroke-linejoin:miter;stroke-miterlimit:10;"/><line x1="257.7097" y1="462.1094" x2="193.4375" y2="462.1094" style="stroke:#10B981;stroke-width:1;"/><line x1="193.4375" y1="462.1094" x2="193.4375" y2="484.1094" style="stroke:#10B981;stroke-width:1;"/><polygon points="189.4375,474.1094,197.4375,474.1094,193.4375,484.1094" fill="#10B981" style="stroke:#10B981;stroke-width:1;stroke-linejoin:miter;stroke-miterlimit:10;"/><line x1="461.926" y1="462.1094" x2="526.1982" y2="462.1094" style="stroke:#10B981;stroke-width:1;"/><line x1="526.1982" y1="462.1094" x2="526.1982" y2="484.1094" style="stroke:#10B981;stroke-width:1;"/><polygon points="522.1982,474.1094,530.1982,474.1094,526.1982,484.1094" fill="#10B981" style="stroke:#10B981;stroke-width:1;stroke-linejoin:miter;stroke-miterlimit:10;"/><line x1="359.8179" y1="430.1094" x2="359.8179" y2="450.1094" style="stroke:#10B981;stroke-width:1;"/><polygon points="355.8179,440.1094,363.8179,440.1094,359.8179,450.1094" fill="#10B981" style="stroke:#10B981;stroke-width:1;stroke-linejoin:miter;stroke-miterlimit:10;"/><line x1="852.9775" y1="430.1094" x2="852.9775" y2="450.1094" style="stroke:#10B981;stroke-width:1;"/><polygon points="848.9775,440.1094,856.9775,440.1094,852.9775,450.1094" fill="#10B981" style="stroke:#10B981;stroke-width:1;stroke-linejoin:miter;stroke-miterlimit:10;"/><line x1="852.9775" y1="484.0781" x2="852.9775" y2="519.0781" style="stroke:#10B981;stroke-width:1;"/><polygon points="848.9775,509.0781,856.9775,509.0781,852.9775,519.0781" fill="#10B981" style="stroke:#10B981;stroke-width:1;stroke-linejoin:miter;stroke-miterlimit:10;"/><line x1="852.9775" y1="553.0469" x2="852.9775" y2="588.0469" style="stroke:#10B981;stroke-width:1;"/><polygon points="848.9775,578.0469,856.9775,578.0469,852.9775,588.0469" fill="#10B981" style="stroke:#10B981;stroke-width:1;stroke-linejoin:miter;stroke-miterlimit:10;"/><line x1="852.9775" y1="649.9531" x2="852.9775" y2="684.9531" style="stroke:#10B981;stroke-width:1;"/><polygon points="848.9775,674.9531,856.9775,674.9531,852.9775,684.9531" fill="#10B981" style="stroke:#10B981;stroke-width:1;stroke-linejoin:miter;stroke-miterlimit:10;"/><line x1="852.9775" y1="718.9219" x2="852.9775" y2="738.9219" style="stroke:#10B981;stroke-width:1;"/><polygon points="848.9775,728.9219,856.9775,728.9219,852.9775,738.9219" fill="#10B981" style="stroke:#10B981;stroke-width:1;stroke-linejoin:miter;stroke-miterlimit:10;"/><line x1="467.8037" y1="374.1406" x2="359.8179" y2="374.1406" style="stroke:#10B981;stroke-width:1;"/><line x1="359.8179" y1="374.1406" x2="359.8179" y2="396.1406" style="stroke:#10B981;stroke-width:1;"/><polygon points="355.8179,386.1406,363.8179,386.1406,359.8179,396.1406" fill="#10B981" style="stroke:#10B981;stroke-width:1;stroke-linejoin:miter;stroke-miterlimit:10;"/><line x1="744.9917" y1="374.1406" x2="852.9775" y2="374.1406" style="stroke:#10B981;stroke-width:1;"/><line x1="852.9775" y1="374.1406" x2="852.9775" y2="396.1406" style="stroke:#10B981;stroke-width:1;"/><polygon points="848.9775,386.1406,856.9775,386.1406,852.9775,396.1406" fill="#10B981" style="stroke:#10B981;stroke-width:1;stroke-linejoin:miter;stroke-miterlimit:10;"/><line x1="606.3977" y1="342.1406" x2="606.3977" y2="362.1406" style="stroke:#10B981;stroke-width:1;"/><polygon points="602.3977,352.1406,610.3977,352.1406,606.3977,362.1406" fill="#10B981" style="stroke:#10B981;stroke-width:1;stroke-linejoin:miter;stroke-miterlimit:10;"/><?plantuml-src bPFTJjj048Nl_HIZLAh2HLj8aTeIeOe0KTL2YnHQgL9lnjcDC-oVjJiBojipTY1s8Q6ghvpCDtFEcLqdGxx6Y0vclB8Q4aUQStQsI9lAcLvWjZmDdh-Zqp2uiZd1LpGO6M66FWrwzCcSwPPuDS6vgMB8Nfq66oAycdwO7fvFjf4XAXqVgFtHw7Gqsa8ryZkP6CFTG_5WV_Bfuq6lE6FnkQjulh5tFZsKfn-Rq0Ml_ftZ4NmnnWFqF4N1nBBuzs_XPz8HfZRSmHluKUk8BDYbThSwqe8C9e99DanmfLs9AndhYo8rwOgZYr2H1wC1JVPTzpiuKOxyk3YwrBv2atI2CqpBCc1KQonHy6XRmfNP8A3dgD73G5gohweClpO61ZrEQKQoKEk4Nd3MqI3n6f06an1kqP8YnWGLYkK8PUkVnNbQIDZNu38tkKhqPbmKj83XIIqNQzanIgQl1mdkWwH12v8Z8ttU0rvg3yFVA2kRQSutcVOAaAVDQomPuE3AO67GXUZjJ_8qT4ytSJ1Gnw2o0QVzF9jSzuNMurk96INMJYWNEFYgtph-uyME_8CidqgzqODZM9-cLa-HzHQFeKPIuqxaKbjQuZEkr36NObSitg0Y65naBsiUNadttg3h5qzr-qFRf65uJGgDxEeBbfIsHP7pnWgj4OdksebLMIUwcjf2wq7kMaABItbhSo-RYTjqlQ95yRVwTR1eTfrJMtn-H0sOBIKGqTIQy0tOlA52CF9DEL24DbHTWsxgZuE_1R-Ww9eBq6ey3kwohyZLql1KuON3ZFf6ptdtOMxgnNyTvXbnps6xotQFzm00?></g></svg>