<svg xmlns="http://www.w3.org/2000/svg" xmlns:xlink="http://www.w3.org/1999/xlink" version="1.1" data-diagram-type="ACTIVITY" style="width:676px;height:790px;background:#FFFFFF;" width="676px" height="790px" viewBox="0 0 676 790" zoomAndPan="magnify" preserveAspectRatio="none" contentStyleType="text/css"><?plantuml 1.2026.7beta3?><defs/><g><g class="title" data-source-line="13"><text x="140.8784" y="32.9951" fill="#000000" font-size="14" lengthAdjust="spacing" textLength="393.0596" font-weight="700" font-family="'Plus Jakarta Sans'">6. User Flow - Admin Meninjau Laporan Penjualan</text></g><ellipse cx="329.8779" cy="62.2969" rx="10" ry="10" fill="#222222" style="stroke:#222222;stroke-width:1;"/><rect x="235.3096" y="92.2969" width="189.1367" height="33.9688" fill="#F7F4EB" style="stroke:#022C22;stroke-width:0.5;" rx="12.5" ry="12.5"/><text x="245.3096" y="113.4355" fill="#022C22" font-size="12" lengthAdjust="spacing" textLength="169.1367" font-family="'Plus Jakarta Sans'">Login sebagai Administrator</text><rect x="156.7471" y="146.2656" width="346.2617" height="33.9688" fill="#F7F4EB" style="stroke:#022C22;stroke-width:0.5;" rx="12.5" ry="12.5"/><text x="166.7471" y="167.4043" fill="#022C22" font-size="12" lengthAdjust="spacing" textLength="326.2617" font-family="'Plus Jakarta Sans'">Membuka menu "Laporan Keuangan" pada dashboard</text><rect x="148.1338" y="200.2344" width="363.4883" height="33.9688" fill="#F7F4EB" style="stroke:#022C22;stroke-width:0.5;" rx="12.5" ry="12.5"/><text x="158.1338" y="221.373" fill="#022C22" font-size="12" lengthAdjust="spacing" textLength="343.4883" font-family="'Plus Jakarta Sans'">Melihat statistik grafik tren area &amp; tabel rincian transaksi</text><rect x="160.7197" y="302.6055" width="338.3164" height="33.9688" fill="#F7F4EB" style="stroke:#022C22;stroke-width:0.5;" rx="12.5" ry="12.5"/><text x="170.7197" y="323.7441" fill="#022C22" font-size="12" lengthAdjust="spacing" textLength="318.3164" font-family="'Plus Jakarta Sans'">Mengisi tanggal mulai/selesai &amp; filter status pesanan</text><rect x="216.7471" y="356.5742" width="226.2617" height="33.9688" fill="#F7F4EB" style="stroke:#022C22;stroke-width:0.5;" rx="12.5" ry="12.5"/><text x="226.7471" y="377.7129" fill="#022C22" font-size="12" lengthAdjust="spacing" textLength="206.2617" font-family="'Plus Jakarta Sans'">Menekan tombol "Terapkan Filter"</text><rect x="159.8262" y="410.543" width="340.1035" height="33.9688" fill="#F7F4EB" style="stroke:#022C22;stroke-width:0.5;" rx="12.5" ry="12.5"/><text x="169.8262" y="431.6816" fill="#022C22" font-size="12" lengthAdjust="spacing" textLength="320.1035" font-family="'Plus Jakarta Sans'">Sistem memuat ulang grafik &amp; tabel secara real-time</text><polygon points="245.5222,254.2031,414.2336,254.2031,426.2336,266.2031,414.2336,278.2031,245.5222,278.2031,233.5222,266.2031,245.5222,254.2031" fill="#F7F4EB" style="stroke:#022C22;stroke-width:0.5;stroke-linejoin:miter;stroke-miterlimit:10;"/><text x="333.8779" y="288.4136" fill="#000000" font-size="11" lengthAdjust="spacing" textLength="13.46" font-family="'Plus Jakarta Sans'">Ya</text><text x="245.5222" y="270.0112" fill="#022C22" font-size="11" lengthAdjust="spacing" textLength="168.7114" font-family="'Plus Jakarta Sans'">Apakah ingin menyaring data?</text><text x="426.2336" y="263.6089" fill="#000000" font-size="11" lengthAdjust="spacing" textLength="29.8687" font-family="'Plus Jakarta Sans'">Tidak</text><polygon points="329.8779,464.5117,341.8779,476.5117,329.8779,488.5117,317.8779,476.5117,329.8779,464.5117" fill="#F7F4EB" style="stroke:#022C22;stroke-width:0.5;stroke-linejoin:miter;stroke-miterlimit:10;"/><polygon points="240.8708,508.5117,418.885,508.5117,430.885,520.5117,418.885,532.5117,240.8708,532.5117,228.8708,520.5117,240.8708,508.5117" fill="#F7F4EB" style="stroke:#022C22;stroke-width:0.5;stroke-linejoin:miter;stroke-miterlimit:10;"/><text x="240.8708" y="524.3198" fill="#022C22" font-size="11" lengthAdjust="spacing" textLength="178.0142" font-family="'Plus Jakarta Sans'">Apakah ingin mengekspor data?</text><text x="165.9001" y="517.9175" fill="#000000" font-size="11" lengthAdjust="spacing" textLength="62.9707" font-family="'Plus Jakarta Sans'">Ekspor CSV</text><text x="430.885" y="517.9175" fill="#000000" font-size="11" lengthAdjust="spacing" textLength="92.0391" font-family="'Plus Jakarta Sans'">Cetak Fisik / PDF</text><rect x="62.6611" y="542.5117" width="204.0254" height="33.9688" fill="#F7F4EB" style="stroke:#022C22;stroke-width:0.5;" rx="12.5" ry="12.5"/><text x="72.6611" y="563.6504" fill="#022C22" font-size="12" lengthAdjust="spacing" textLength="184.0254" font-family="'Plus Jakarta Sans'">Menekan tombol "Ekspor CSV"</text><rect x="16" y="596.4805" width="297.3477" height="33.9688" fill="#F7F4EB" style="stroke:#022C22;stroke-width:0.5;" rx="12.5" ry="12.5"/><text x="26" y="617.6191" fill="#022C22" font-size="12" lengthAdjust="spacing" textLength="277.3477" font-family="'Plus Jakarta Sans'">Sistem mengunduh berkas `.csv` terkompresi</text><rect x="383.6797" y="542.5117" width="222.8047" height="33.9688" fill="#F7F4EB" style="stroke:#022C22;stroke-width:0.5;" rx="12.5" ry="12.5"/><text x="393.6797" y="563.6504" fill="#022C22" font-size="12" lengthAdjust="spacing" textLength="202.8047" font-family="'Plus Jakarta Sans'">Menekan tombol "Cetak Laporan"</text><rect x="333.3477" y="596.4805" width="323.4688" height="47.9375" fill="#F7F4EB" style="stroke:#022C22;stroke-width:0.5;" rx="12.5" ry="12.5"/><text x="343.3477" y="617.6191" fill="#022C22" font-size="12" lengthAdjust="spacing" textLength="303.4688" font-family="'Plus Jakarta Sans'">Sistem mengaktifkan layout cetak bebas navigasi;</text><text x="343.3477" y="631.5879" fill="#022C22" font-size="12" lengthAdjust="spacing" textLength="244.459" font-family="'Plus Jakarta Sans'">Menampilkan print dialog sistem operasi</text><rect x="369.7227" y="664.418" width="250.7188" height="33.9688" fill="#F7F4EB" style="stroke:#022C22;stroke-width:0.5;" rx="12.5" ry="12.5"/><text x="379.7227" y="685.5566" fill="#022C22" font-size="12" lengthAdjust="spacing" textLength="230.7188" font-family="'Plus Jakarta Sans'">Mencetak kertas / Menyimpan file PDF</text><polygon points="329.8779,704.3867,341.8779,716.3867,329.8779,728.3867,317.8779,716.3867,329.8779,704.3867" fill="#F7F4EB" style="stroke:#022C22;stroke-width:0.5;stroke-linejoin:miter;stroke-miterlimit:10;"/><ellipse cx="329.8779" cy="759.3867" rx="11" ry="11" fill="none" style="stroke:#222222;stroke-width:1;"/><ellipse cx="329.8779" cy="759.3867" rx="6" ry="6" fill="#222222" style="stroke:#222222;stroke-width:1;"/><line x1="329.8779" y1="72.2969" x2="329.8779" y2="92.2969" style="stroke:#10B981;stroke-width:1;"/><polygon points="325.8779,82.2969,333.8779,82.2969,329.8779,92.2969" fill="#10B981" style="stroke:#10B981;stroke-width:1;stroke-linejoin:miter;stroke-miterlimit:10;"/><line x1="329.8779" y1="126.2656" x2="329.8779" y2="146.2656" style="stroke:#10B981;stroke-width:1;"/><polygon points="325.8779,136.2656,333.8779,136.2656,329.8779,146.2656" fill="#10B981" style="stroke:#10B981;stroke-width:1;stroke-linejoin:miter;stroke-miterlimit:10;"/><line x1="329.8779" y1="180.2344" x2="329.8779" y2="200.2344" style="stroke:#10B981;stroke-width:1;"/><polygon points="325.8779,190.2344,333.8779,190.2344,329.8779,200.2344" fill="#10B981" style="stroke:#10B981;stroke-width:1;stroke-linejoin:miter;stroke-miterlimit:10;"/><line x1="329.8779" y1="336.5742" x2="329.8779" y2="356.5742" style="stroke:#10B981;stroke-width:1;"/><polygon points="325.8779,346.5742,333.8779,346.5742,329.8779,356.5742" fill="#10B981" style="stroke:#10B981;stroke-width:1;stroke-linejoin:miter;stroke-miterlimit:10;"/><line x1="329.8779" y1="390.543" x2="329.8779" y2="410.543" style="stroke:#10B981;stroke-width:1;"/><polygon points="325.8779,400.543,333.8779,400.543,329.8779,410.543" fill="#10B981" style="stroke:#10B981;stroke-width:1;stroke-linejoin:miter;stroke-miterlimit:10;"/><line x1="329.8779" y1="278.2031" x2="329.8779" y2="302.6055" style="stroke:#10B981;stroke-width:1;"/><polygon points="325.8779,292.6055,333.8779,292.6055,329.8779,302.6055" fill="#10B981" style="stroke:#10B981;stroke-width:1;stroke-linejoin:miter;stroke-miterlimit:10;"/><line x1="426.2336" y1="266.2031" x2="509.9297" y2="266.2031" style="stroke:#10B981;stroke-width:1;"/><polygon points="505.9297,363.5586,513.9297,363.5586,509.9297,373.5586" fill="#10B981" style="stroke:#10B981;stroke-width:1;stroke-linejoin:miter;stroke-miterlimit:10;"/><line x1="509.9297" y1="266.2031" x2="509.9297" y2="476.5117" style="stroke:#10B981;stroke-width:1;"/><line x1="509.9297" y1="476.5117" x2="341.8779" y2="476.5117" style="stroke:#10B981;stroke-width:1;"/><polygon points="351.8779,472.5117,341.8779,476.5117,351.8779,480.5117" fill="#10B981" style="stroke:#10B981;stroke-width:1;stroke-linejoin:miter;stroke-miterlimit:10;"/><line x1="329.8779" y1="444.5117" x2="329.8779" y2="464.5117" style="stroke:#10B981;stroke-width:1;"/><polygon points="325.8779,454.5117,333.8779,454.5117,329.8779,464.5117" fill="#10B981" style="stroke:#10B981;stroke-width:1;stroke-linejoin:miter;stroke-miterlimit:10;"/><line x1="329.8779" y1="234.2031" x2="329.8779" y2="254.2031" style="stroke:#10B981;stroke-width:1;"/><polygon points="325.8779,244.2031,333.8779,244.2031,329.8779,254.2031" fill="#10B981" style="stroke:#10B981;stroke-width:1;stroke-linejoin:miter;stroke-miterlimit:10;"/><line x1="164.6738" y1="576.4805" x2="164.6738" y2="596.4805" style="stroke:#10B981;stroke-width:1;"/><polygon points="160.6738,586.4805,168.6738,586.4805,164.6738,596.4805" fill="#10B981" style="stroke:#10B981;stroke-width:1;stroke-linejoin:miter;stroke-miterlimit:10;"/><line x1="495.082" y1="576.4805" x2="495.082" y2="596.4805" style="stroke:#10B981;stroke-width:1;"/><polygon points="491.082,586.4805,499.082,586.4805,495.082,596.4805" fill="#10B981" style="stroke:#10B981;stroke-width:1;stroke-linejoin:miter;stroke-miterlimit:10;"/><line x1="495.082" y1="644.418" x2="495.082" y2="664.418" style="stroke:#10B981;stroke-width:1;"/><polygon points="491.082,654.418,499.082,654.418,495.082,664.418" fill="#10B981" style="stroke:#10B981;stroke-width:1;stroke-linejoin:miter;stroke-miterlimit:10;"/><line x1="228.8708" y1="520.5117" x2="164.6738" y2="520.5117" style="stroke:#10B981;stroke-width:1;"/><line x1="164.6738" y1="520.5117" x2="164.6738" y2="542.5117" style="stroke:#10B981;stroke-width:1;"/><polygon points="160.6738,532.5117,168.6738,532.5117,164.6738,542.5117" fill="#10B981" style="stroke:#10B981;stroke-width:1;stroke-linejoin:miter;stroke-miterlimit:10;"/><line x1="430.885" y1="520.5117" x2="495.082" y2="520.5117" style="stroke:#10B981;stroke-width:1;"/><line x1="495.082" y1="520.5117" x2="495.082" y2="542.5117" style="stroke:#10B981;stroke-width:1;"/><polygon points="491.082,532.5117,499.082,532.5117,495.082,542.5117" fill="#10B981" style="stroke:#10B981;stroke-width:1;stroke-linejoin:miter;stroke-miterlimit:10;"/><line x1="164.6738" y1="630.4492" x2="164.6738" y2="716.3867" style="stroke:#10B981;stroke-width:1;"/><line x1="164.6738" y1="716.3867" x2="317.8779" y2="716.3867" style="stroke:#10B981;stroke-width:1;"/><polygon points="307.8779,712.3867,317.8779,716.3867,307.8779,720.3867" fill="#10B981" style="stroke:#10B981;stroke-width:1;stroke-linejoin:miter;stroke-miterlimit:10;"/><line x1="495.082" y1="698.3867" x2="495.082" y2="716.3867" style="stroke:#10B981;stroke-width:1;"/><line x1="495.082" y1="716.3867" x2="341.8779" y2="716.3867" style="stroke:#10B981;stroke-width:1;"/><polygon points="351.8779,712.3867,341.8779,716.3867,351.8779,720.3867" fill="#10B981" style="stroke:#10B981;stroke-width:1;stroke-linejoin:miter;stroke-miterlimit:10;"/><line x1="329.8779" y1="488.5117" x2="329.8779" y2="508.5117" style="stroke:#10B981;stroke-width:1;"/><polygon points="325.8779,498.5117,333.8779,498.5117,329.8779,508.5117" fill="#10B981" style="stroke:#10B981;stroke-width:1;stroke-linejoin:miter;stroke-miterlimit:10;"/><line x1="329.8779" y1="728.3867" x2="329.8779" y2="748.3867" style="stroke:#10B981;stroke-width:1;"/><polygon points="325.8779,738.3867,333.8779,738.3867,329.8779,748.3867" fill="#10B981" style="stroke:#10B981;stroke-width:1;stroke-linejoin:miter;stroke-miterlimit:10;"/><?plantuml-src XLHBJzj04BxxLunI2P43hmZrGGuLXFZGGeKKMgbI3upjYJFiozgT1UNVTqmSIaLezs9fzvllCJDoCkmxZEXW8MjBa2HoBTdP8Zs_ND8IivKoUFc6Zc1qOtE2BsWm2i82VHgzG9_NmWyiwmkiJHj3ziqis13XNVcXF9rVx4A6s50SKCUJoMmosO7gvT_4n1WUXyUJuujF7qzUF2v4VRxrE7-sDozFzRoCpUY2R_wVOmlyPum1z3f58IpQ-FU7y3rHXDA6HpY0yyQnXsloxEynmnLs8QA76_Bt6ItweaXzhEBiAhGAJ5HXYxmfOnqYIeZJukoQN9KDWYEVORHb-KePVOj-11qs20scLHKmDay5bbSekWSeoiC6seXB_KWa3nW9OGy4Ax8GsTUiR2hc4vh4quANi7_UwMAiW7tlItNNgC1MHGG_Zq5MIhF_4yS5w54vXILMHj-sQC5bYtoKo5BID7kmP2lQbDwDhbodjnxzzBcMJAyVN1KiZ6ufOjTVb4z5em6sq1Zar8dBcalvrSoGQPiaKQqp0Wrd3uGTJGkoYM3_bXiquu9ymyjYPxYMJDAU_frklhcRBNwCTplz0tXbqhUwQ7a55KM32UuEw_Hm1nh71DT5wfkyyJOZGQDHa-OuWflByWsj3MwO_0uvDCBBli3YEcI1-WbVwJubyFZ0BQhcBw-qw3gsFRBJWGeqZ3Qqa3PKeTFkz-ws9ZOyXlGNaTIWtgpPTLgj8wNUxtJeQvBG_GO0?></g></svg>