<svg xmlns="http://www.w3.org/2000/svg" xmlns:xlink="http://www.w3.org/1999/xlink" version="1.1" data-diagram-type="ACTIVITY" style="width:505px;height:566px;background:#FFFFFF;" width="505px" height="566px" viewBox="0 0 505 566" zoomAndPan="magnify" preserveAspectRatio="none" contentStyleType="text/css"><?plantuml 1.2026.7beta3?><defs/><g><g class="title" data-source-line="13"><text x="20" y="32.9951" fill="#000000" font-size="14" lengthAdjust="spacing" textLength="463.0869" font-weight="700" font-family="'Plus Jakarta Sans'">4. User Flow - Pengerjaan Rangkaian Bunga Oleh Operator</text></g><ellipse cx="250.5435" cy="62.2969" rx="10" ry="10" fill="#222222" style="stroke:#222222;stroke-width:1;"/><rect x="124.7622" y="92.2969" width="251.5625" height="33.9688" fill="#F7F4EB" style="stroke:#022C22;stroke-width:0.5;" rx="12.5" ry="12.5"/><text x="134.7622" y="113.4355" fill="#022C22" font-size="12" lengthAdjust="spacing" textLength="231.5625" font-family="'Plus Jakarta Sans'">Membuka Dashboard Operasional Staf</text><rect x="74.3218" y="146.2656" width="352.4434" height="33.9688" fill="#F7F4EB" style="stroke:#022C22;stroke-width:0.5;" rx="12.5" ry="12.5"/><text x="84.3218" y="167.4043" fill="#022C22" font-size="12" lengthAdjust="spacing" textLength="332.4434" font-family="'Plus Jakarta Sans'">Memeriksa antrean pengerjaan pesanan "Paid" (Lunas)</text><rect x="55.812" y="200.2344" width="389.4629" height="33.9688" fill="#F7F4EB" style="stroke:#022C22;stroke-width:0.5;" rx="12.5" ry="12.5"/><text x="65.812" y="221.373" fill="#022C22" font-size="12" lengthAdjust="spacing" textLength="369.4629" font-family="'Plus Jakarta Sans'">Mulai merangkai bunga &amp; pilih status "Processing" (Diproses)</text><rect x="64.0181" y="254.2031" width="373.0508" height="33.9688" fill="#F7F4EB" style="stroke:#022C22;stroke-width:0.5;" rx="12.5" ry="12.5"/><text x="74.0181" y="275.3418" fill="#022C22" font-size="12" lengthAdjust="spacing" textLength="353.0508" font-family="'Plus Jakarta Sans'">Bunga selesai dirangkai &amp; pilih status "Ready" (Siap Kirim)</text><rect x="52.7974" y="308.1719" width="395.4922" height="33.9688" fill="#F7F4EB" style="stroke:#022C22;stroke-width:0.5;" rx="12.5" ry="12.5"/><text x="62.7974" y="329.3105" fill="#022C22" font-size="12" lengthAdjust="spacing" textLength="375.4922" font-family="'Plus Jakarta Sans'">Menyerahkan bunga ke kurir &amp; pilih status "Shipped" (Dikirim)</text><rect x="97.5776" y="362.1406" width="305.9316" height="33.9688" fill="#F7F4EB" style="stroke:#022C22;stroke-width:0.5;" rx="12.5" ry="12.5"/><text x="107.5776" y="383.2793" fill="#022C22" font-size="12" lengthAdjust="spacing" textLength="285.9316" font-family="'Plus Jakarta Sans'">Kurir mengonfirmasi bunga diterima pelanggan</text><rect x="47.7407" y="416.1094" width="405.6055" height="33.9688" fill="#F7F4EB" style="stroke:#022C22;stroke-width:0.5;" rx="12.5" ry="12.5"/><text x="57.7407" y="437.248" fill="#022C22" font-size="12" lengthAdjust="spacing" textLength="385.6055" font-family="'Plus Jakarta Sans'">Menekan konfirmasi selesai &amp; pilih status "Completed" (Selesai)</text><rect x="38.3364" y="470.0781" width="424.4141" height="33.9688" fill="#F7F4EB" style="stroke:#022C22;stroke-width:0.5;" rx="12.5" ry="12.5"/><text x="48.3364" y="491.2168" fill="#022C22" font-size="12" lengthAdjust="spacing" textLength="404.4141" font-family="'Plus Jakarta Sans'">Sistem memperbarui data waktu selesai pesanan (`completed_at`)</text><ellipse cx="250.5435" cy="535.0469" rx="11" ry="11" fill="none" style="stroke:#222222;stroke-width:1;"/><ellipse cx="250.5435" cy="535.0469" rx="6" ry="6" fill="#222222" style="stroke:#222222;stroke-width:1;"/><line x1="250.5435" y1="72.2969" x2="250.5435" y2="92.2969" style="stroke:#10B981;stroke-width:1;"/><polygon points="246.5435,82.2969,254.5435,82.2969,250.5435,92.2969" fill="#10B981" style="stroke:#10B981;stroke-width:1;stroke-linejoin:miter;stroke-miterlimit:10;"/><line x1="250.5435" y1="126.2656" x2="250.5435" y2="146.2656" style="stroke:#10B981;stroke-width:1;"/><polygon points="246.5435,136.2656,254.5435,136.2656,250.5435,146.2656" fill="#10B981" style="stroke:#10B981;stroke-width:1;stroke-linejoin:miter;stroke-miterlimit:10;"/><line x1="250.5435" y1="180.2344" x2="250.5435" y2="200.2344" style="stroke:#10B981;stroke-width:1;"/><polygon points="246.5435,190.2344,254.5435,190.2344,250.5435,200.2344" fill="#10B981" style="stroke:#10B981;stroke-width:1;stroke-linejoin:miter;stroke-miterlimit:10;"/><line x1="250.5435" y1="234.2031" x2="250.5435" y2="254.2031" style="stroke:#10B981;stroke-width:1;"/><polygon points="246.5435,244.2031,254.5435,244.2031,250.5435,254.2031" fill="#10B981" style="stroke:#10B981;stroke-width:1;stroke-linejoin:miter;stroke-miterlimit:10;"/><line x1="250.5435" y1="288.1719" x2="250.5435" y2="308.1719" style="stroke:#10B981;stroke-width:1;"/><polygon points="246.5435,298.1719,254.5435,298.1719,250.5435,308.1719" fill="#10B981" style="stroke:#10B981;stroke-width:1;stroke-linejoin:miter;stroke-miterlimit:10;"/><line x1="250.5435" y1="342.1406" x2="250.5435" y2="362.1406" style="stroke:#10B981;stroke-width:1;"/><polygon points="246.5435,352.1406,254.5435,352.1406,250.5435,362.1406" fill="#10B981" style="stroke:#10B981;stroke-width:1;stroke-linejoin:miter;stroke-miterlimit:10;"/><line x1="250.5435" y1="396.1094" x2="250.5435" y2="416.1094" style="stroke:#10B981;stroke-width:1;"/><polygon points="246.5435,406.1094,254.5435,406.1094,250.5435,416.1094" fill="#10B981" style="stroke:#10B981;stroke-width:1;stroke-linejoin:miter;stroke-miterlimit:10;"/><line x1="250.5435" y1="450.0781" x2="250.5435" y2="470.0781" style="stroke:#10B981;stroke-width:1;"/><polygon points="246.5435,460.0781,254.5435,460.0781,250.5435,470.0781" fill="#10B981" style="stroke:#10B981;stroke-width:1;stroke-linejoin:miter;stroke-miterlimit:10;"/><line x1="250.5435" y1="504.0469" x2="250.5435" y2="524.0469" style="stroke:#10B981;stroke-width:1;"/><polygon points="246.5435,514.0469,254.5435,514.0469,250.5435,524.0469" fill="#10B981" style="stroke:#10B981;stroke-width:1;stroke-linejoin:miter;stroke-miterlimit:10;"/><?plantuml-src XLDBRzD04BxdLuo2XCe1r4QHU9t8wq21HhKuqqaySOPzQdQNAl-UiHsdKH-m5wyqttEqJePzH447LJvOWfI5jxauEqgdoO9sM6nU1Pz_e2COhsr9y1KDIaQeqAVn6VhBDlCVpeSPRaqZeVXw7cmGUBLwlvekPyyXWzGaHzJbP3AVJ9v1jVOlOaJ2_N5uTJdx-E7gR5XbpVdIS7cAjrnDzPpNPdJ1r__lCG3_MUC8UjfYb3dhugVlu6SYWPKDz_0MrkGRaj-87cxHDmPPRxFY6uGRItkuYIIOWun6gQqt-lITtAOOX0Mc_IQWr3qaSV1esntiFdSW4ZO90NqMKiduu1CfeTVlU8rSZ-7YM_6OthIiOf51cNqGs7GnNaDaotjzCPZrEOpN4hQK4lj6kGkE4X9rz3vr8glw33KFCey5RWdhWt8hnWZNBEmwS_87TTuRJTOR6m9JXEM9GBNd6AdkxCt0l-wWJci6lsDnkf6ZJirPb-5GYrkDrA3lxQYrCW_e8VbZktbmqLBk3AiUqnfMd38vTNIw_mrAqSwe_yazcbnEOiEoB-wsWymlp7Sga7A8Vm40?></g></svg>