<svg xmlns="http://www.w3.org/2000/svg" xmlns:xlink="http://www.w3.org/1999/xlink" version="1.1" data-diagram-type="ACTIVITY" style="width:728px;height:724px;background:#FFFFFF;" width="728px" height="724px" viewBox="0 0 728 724" zoomAndPan="magnify" preserveAspectRatio="none" contentStyleType="text/css"><?plantuml 1.2026.7beta3?><defs/><g><g class="title" data-source-line="13"><text x="135.9741" y="32.9951" fill="#000000" font-size="14" lengthAdjust="spacing" textLength="454.3779" font-weight="700" font-family="'Plus Jakarta Sans'">2. User Flow - Pelanggan Mengunggah Bukti Pembayaran</text></g><ellipse cx="375.9663" cy="62.2969" rx="10" ry="10" fill="#222222" style="stroke:#222222;stroke-width:1;"/><rect x="290.4771" y="92.2969" width="170.9785" height="33.9688" fill="#F7F4EB" style="stroke:#022C22;stroke-width:0.5;" rx="12.5" ry="12.5"/><text x="300.4771" y="113.4355" fill="#022C22" font-size="12" lengthAdjust="spacing" textLength="150.9785" font-family="'Plus Jakarta Sans'">Login ke akun Pelanggan</text><rect x="245.6089" y="146.2656" width="260.7148" height="33.9688" fill="#F7F4EB" style="stroke:#022C22;stroke-width:0.5;" rx="12.5" ry="12.5"/><text x="255.6089" y="167.4043" fill="#022C22" font-size="12" lengthAdjust="spacing" textLength="240.7148" font-family="'Plus Jakarta Sans'">Mengakses halaman "Riwayat Pesanan"</text><rect x="171.5347" y="200.2344" width="408.8633" height="33.9688" fill="#F7F4EB" style="stroke:#022C22;stroke-width:0.5;" rx="12.5" ry="12.5"/><text x="181.5347" y="221.373" fill="#022C22" font-size="12" lengthAdjust="spacing" textLength="388.8633" font-family="'Plus Jakarta Sans'">Memilih transaksi berstatus "Menunggu Pembayaran" / "Ditolak"</text><rect x="230.7905" y="254.2031" width="290.3516" height="33.9688" fill="#F7F4EB" style="stroke:#022C22;stroke-width:0.5;" rx="12.5" ry="12.5"/><text x="240.7905" y="275.3418" fill="#022C22" font-size="12" lengthAdjust="spacing" textLength="270.3516" font-family="'Plus Jakarta Sans'">Mengklik tombol "Upload Bukti Pembayaran"</text><rect x="185.1665" y="308.1719" width="381.5996" height="33.9688" fill="#F7F4EB" style="stroke:#022C22;stroke-width:0.5;" rx="12.5" ry="12.5"/><text x="195.1665" y="329.3105" fill="#022C22" font-size="12" lengthAdjust="spacing" textLength="361.5996" font-family="'Plus Jakarta Sans'">Mengisi Nama Pengirim, Bank Asal, Bank Tujuan, &amp; Nominal</text><rect x="235.8237" y="362.1406" width="280.2852" height="33.9688" fill="#F7F4EB" style="stroke:#022C22;stroke-width:0.5;" rx="12.5" ry="12.5"/><text x="245.8237" y="383.2793" fill="#022C22" font-size="12" lengthAdjust="spacing" textLength="260.2852" font-family="'Plus Jakarta Sans'">Memilih berkas gambar bukti transfer bank</text><rect x="253.0005" y="416.1094" width="245.9316" height="33.9688" fill="#F7F4EB" style="stroke:#022C22;stroke-width:0.5;" rx="12.5" ry="12.5"/><text x="263.0005" y="437.248" fill="#022C22" font-size="12" lengthAdjust="spacing" textLength="225.9316" font-family="'Plus Jakarta Sans'">Menekan tombol "Kirim Pembayaran"</text><polygon points="237,470.0781,514.9326,470.0781,526.9326,482.0781,514.9326,494.0781,237,494.0781,225,482.0781,237,470.0781" fill="#F7F4EB" style="stroke:#022C22;stroke-width:0.5;stroke-linejoin:miter;stroke-miterlimit:10;"/><text x="237" y="485.8862" fill="#022C22" font-size="11" lengthAdjust="spacing" textLength="277.9326" font-family="'Plus Jakarta Sans'">Apakah format berkas gambar &amp; ukuran &lt;= 2MB?</text><text x="211.54" y="479.4839" fill="#000000" font-size="11" lengthAdjust="spacing" textLength="13.46" font-family="'Plus Jakarta Sans'">Ya</text><text x="526.9326" y="479.4839" fill="#000000" font-size="11" lengthAdjust="spacing" textLength="132.0054" font-family="'Plus Jakarta Sans'">Tidak - File Rusak/Besar</text><rect x="16" y="504.0781" width="363.7695" height="61.9063" fill="#F7F4EB" style="stroke:#022C22;stroke-width:0.5;" rx="12.5" ry="12.5"/><text x="26" y="525.2168" fill="#022C22" font-size="12" lengthAdjust="spacing" textLength="238.8633" font-family="'Plus Jakarta Sans'">Sistem mengunggah gambar ke server;</text><text x="26" y="539.1855" fill="#022C22" font-size="12" lengthAdjust="spacing" textLength="261.5098" font-family="'Plus Jakarta Sans'">Membuat/update baris data di `payments`;</text><text x="26" y="553.1543" fill="#022C22" font-size="12" lengthAdjust="spacing" textLength="343.7695" font-family="'Plus Jakarta Sans'">Mengubah status pesanan menjadi `waiting_verification`</text><rect x="19.5596" y="599.9531" width="356.6504" height="47.9375" fill="#F7F4EB" style="stroke:#022C22;stroke-width:0.5;" rx="12.5" ry="12.5"/><text x="29.5596" y="621.0918" fill="#022C22" font-size="12" lengthAdjust="spacing" textLength="150.8672" font-family="'Plus Jakarta Sans'">Melihat notifikasi sukses;</text><text x="29.5596" y="635.0605" fill="#022C22" font-size="12" lengthAdjust="spacing" textLength="336.6504" font-family="'Plus Jakarta Sans'">Status pesanan berubah menjadi "Menunggu Verifikasi"</text><ellipse cx="197.8848" cy="693.8906" rx="11" ry="11" fill="none" style="stroke:#222222;stroke-width:1;"/><ellipse cx="197.8848" cy="693.8906" rx="6" ry="6" fill="#222222" style="stroke:#222222;stroke-width:1;"/><rect x="418.001" y="504.0781" width="272.0938" height="47.9375" fill="#F7F4EB" style="stroke:#022C22;stroke-width:0.5;" rx="12.5" ry="12.5"/><text x="428.001" y="525.2168" fill="#022C22" font-size="12" lengthAdjust="spacing" textLength="144.7969" font-family="'Plus Jakarta Sans'">Sistem menolak berkas;</text><text x="428.001" y="539.1855" fill="#022C22" font-size="12" lengthAdjust="spacing" textLength="252.0938" font-family="'Plus Jakarta Sans'">Menampilkan pesan validasi error di layar</text><rect x="399.7695" y="585.9844" width="308.5566" height="33.9688" fill="#F7F4EB" style="stroke:#022C22;stroke-width:0.5;" rx="12.5" ry="12.5"/><text x="409.7695" y="607.123" fill="#022C22" font-size="12" lengthAdjust="spacing" textLength="288.5566" font-family="'Plus Jakarta Sans'">Memilih ulang berkas gambar bukti yang sesuai</text><ellipse cx="554.0479" cy="665.9531" rx="11" ry="11" fill="none" style="stroke:#222222;stroke-width:1;"/><ellipse cx="554.0479" cy="665.9531" rx="6" ry="6" fill="#222222" style="stroke:#222222;stroke-width:1;"/><line x1="375.9663" y1="72.2969" x2="375.9663" y2="92.2969" style="stroke:#10B981;stroke-width:1;"/><polygon points="371.9663,82.2969,379.9663,82.2969,375.9663,92.2969" fill="#10B981" style="stroke:#10B981;stroke-width:1;stroke-linejoin:miter;stroke-miterlimit:10;"/><line x1="375.9663" y1="126.2656" x2="375.9663" y2="146.2656" style="stroke:#10B981;stroke-width:1;"/><polygon points="371.9663,136.2656,379.9663,136.2656,375.9663,146.2656" fill="#10B981" style="stroke:#10B981;stroke-width:1;stroke-linejoin:miter;stroke-miterlimit:10;"/><line x1="375.9663" y1="180.2344" x2="375.9663" y2="200.2344" style="stroke:#10B981;stroke-width:1;"/><polygon points="371.9663,190.2344,379.9663,190.2344,375.9663,200.2344" fill="#10B981" style="stroke:#10B981;stroke-width:1;stroke-linejoin:miter;stroke-miterlimit:10;"/><line x1="375.9663" y1="234.2031" x2="375.9663" y2="254.2031" style="stroke:#10B981;stroke-width:1;"/><polygon points="371.9663,244.2031,379.9663,244.2031,375.9663,254.2031" fill="#10B981" style="stroke:#10B981;stroke-width:1;stroke-linejoin:miter;stroke-miterlimit:10;"/><line x1="375.9663" y1="288.1719" x2="375.9663" y2="308.1719" style="stroke:#10B981;stroke-width:1;"/><polygon points="371.9663,298.1719,379.9663,298.1719,375.9663,308.1719" fill="#10B981" style="stroke:#10B981;stroke-width:1;stroke-linejoin:miter;stroke-miterlimit:10;"/><line x1="375.9663" y1="342.1406" x2="375.9663" y2="362.1406" style="stroke:#10B981;stroke-width:1;"/><polygon points="371.9663,352.1406,379.9663,352.1406,375.9663,362.1406" fill="#10B981" style="stroke:#10B981;stroke-width:1;stroke-linejoin:miter;stroke-miterlimit:10;"/><line x1="375.9663" y1="396.1094" x2="375.9663" y2="416.1094" style="stroke:#10B981;stroke-width:1;"/><polygon points="371.9663,406.1094,379.9663,406.1094,375.9663,416.1094" fill="#10B981" style="stroke:#10B981;stroke-width:1;stroke-linejoin:miter;stroke-miterlimit:10;"/><line x1="197.8848" y1="565.9844" x2="197.8848" y2="599.9531" style="stroke:#10B981;stroke-width:1;"/><polygon points="193.8848,589.9531,201.8848,589.9531,197.8848,599.9531" fill="#10B981" style="stroke:#10B981;stroke-width:1;stroke-linejoin:miter;stroke-miterlimit:10;"/><line x1="197.8848" y1="647.8906" x2="197.8848" y2="682.8906" style="stroke:#10B981;stroke-width:1;"/><polygon points="193.8848,672.8906,201.8848,672.8906,197.8848,682.8906" fill="#10B981" style="stroke:#10B981;stroke-width:1;stroke-linejoin:miter;stroke-miterlimit:10;"/><line x1="554.0479" y1="552.0156" x2="554.0479" y2="585.9844" style="stroke:#10B981;stroke-width:1;"/><polygon points="550.0479,575.9844,558.0479,575.9844,554.0479,585.9844" fill="#10B981" style="stroke:#10B981;stroke-width:1;stroke-linejoin:miter;stroke-miterlimit:10;"/><line x1="554.0479" y1="619.9531" x2="554.0479" y2="654.9531" style="stroke:#10B981;stroke-width:1;"/><polygon points="550.0479,644.9531,558.0479,644.9531,554.0479,654.9531" fill="#10B981" style="stroke:#10B981;stroke-width:1;stroke-linejoin:miter;stroke-miterlimit:10;"/><line x1="225" y1="482.0781" x2="197.8848" y2="482.0781" style="stroke:#10B981;stroke-width:1;"/><line x1="197.8848" y1="482.0781" x2="197.8848" y2="504.0781" style="stroke:#10B981;stroke-width:1;"/><polygon points="193.8848,494.0781,201.8848,494.0781,197.8848,504.0781" fill="#10B981" style="stroke:#10B981;stroke-width:1;stroke-linejoin:miter;stroke-miterlimit:10;"/><line x1="526.9326" y1="482.0781" x2="554.0479" y2="482.0781" style="stroke:#10B981;stroke-width:1;"/><line x1="554.0479" y1="482.0781" x2="554.0479" y2="504.0781" style="stroke:#10B981;stroke-width:1;"/><polygon points="550.0479,494.0781,558.0479,494.0781,554.0479,504.0781" fill="#10B981" style="stroke:#10B981;stroke-width:1;stroke-linejoin:miter;stroke-miterlimit:10;"/><line x1="375.9663" y1="450.0781" x2="375.9663" y2="470.0781" style="stroke:#10B981;stroke-width:1;"/><polygon points="371.9663,460.0781,379.9663,460.0781,375.9663,470.0781" fill="#10B981" style="stroke:#10B981;stroke-width:1;stroke-linejoin:miter;stroke-miterlimit:10;"/><?plantuml-src XLFlInj14Fr-VyLm1L6mLKEXhROKJys7jeeOBHGATIwtkOpxwzYTDUI_x-pbeX6rlKyRvisRz-PDeYRNOK0B4ruQ1P43JJbPKyI7ogcQOJ8yzeulq2eeBqsAy0qr1aQOe8lb1lfuodHFlAnmgjlWasjElF41tem_ZD-VLIyXVMXK653xez79QFG2Aez_5HE2Nmp5W_tgqyU3ZUA4HUThnRC7UMVZz_9jsYQqtZN_zx46_jF607hkec1YMVpe7Tn45M1i_0BUmgKowDeM7PmhrwRyd4ELD9EKR8rB8NL54REtul27Ryc1Le0wkSVUe-8mTwEEAi8S3LhXAwze8Uqii8WENTcZB1cQ0mjf53X1hO9mi-HS2aMUdpO6bx07vIcnDwZBOOesf86zhRs1ygOp7fjdWjTOaWboIYWb-H78xaA5JiDnH3CyhzDTGhSBMt3XBJaq6p95dCO8BGflWBeVqakVoG9hwLwDKLhihXLzpsEUIYbe1jl7dTpn76O-MDd9K-OjI3e95Zv_WT5vzNK7UAuSRF_2dGBaEvnGP6N1FaOqT4eK4kQz2aU_dQYk4_9UwXfa9Ve2HP0dGaDms-5IsZdUzaZXgOLbM7stIYZpts46Bv2ONFj7Y6b6KsJoxlPefULSoMh4WlCiDN5145DENeWdJ_d4PJzcpViOyS-UE3UNAzh8lYkKYGgshwb1BQSv9ZdNgoHtibS9ONYsYtmLmoPNfj1sP78OlG2uHoDKea_9tpRaBPYSoOEFLSWf7_6BKIzpGOmbf4sHhg7PNm00?></g></svg>