<svg xmlns="http://www.w3.org/2000/svg" xmlns:xlink="http://www.w3.org/1999/xlink" version="1.1" data-diagram-type="ACTIVITY" style="width:680px;height:695px;background:#FFFFFF;" width="680px" height="695px" viewBox="0 0 680 695" zoomAndPan="magnify" preserveAspectRatio="none" contentStyleType="text/css"><?plantuml 1.2026.7beta3?><defs/><g><g class="title" data-source-line="13"><text x="115.0098" y="32.9951" fill="#000000" font-size="14" lengthAdjust="spacing" textLength="448.5879" font-weight="700" font-family="'Plus Jakarta Sans'">5. User Flow - Admin Menambahkan Produk Baru (CRUD)</text></g><ellipse cx="325.1919" cy="62.2969" rx="10" ry="10" fill="#222222" style="stroke:#222222;stroke-width:1;"/><rect x="230.6235" y="92.2969" width="189.1367" height="33.9688" fill="#F7F4EB" style="stroke:#022C22;stroke-width:0.5;" rx="12.5" ry="12.5"/><text x="240.6235" y="113.4355" fill="#022C22" font-size="12" lengthAdjust="spacing" textLength="169.1367" font-family="'Plus Jakarta Sans'">Login sebagai Administrator</text><rect x="230.0171" y="146.2656" width="190.3496" height="33.9688" fill="#F7F4EB" style="stroke:#022C22;stroke-width:0.5;" rx="12.5" ry="12.5"/><text x="240.0171" y="167.4043" fill="#022C22" font-size="12" lengthAdjust="spacing" textLength="170.3496" font-family="'Plus Jakarta Sans'">Membuka Dashboard Admin</text><rect x="204.4819" y="200.2344" width="241.4199" height="33.9688" fill="#F7F4EB" style="stroke:#022C22;stroke-width:0.5;" rx="12.5" ry="12.5"/><text x="214.4819" y="221.373" fill="#022C22" font-size="12" lengthAdjust="spacing" textLength="221.4199" font-family="'Plus Jakarta Sans'">Mengakses halaman "Daftar Produk"</text><rect x="194.8872" y="254.2031" width="260.6094" height="33.9688" fill="#F7F4EB" style="stroke:#022C22;stroke-width:0.5;" rx="12.5" ry="12.5"/><text x="204.8872" y="275.3418" fill="#022C22" font-size="12" lengthAdjust="spacing" textLength="240.6094" font-family="'Plus Jakarta Sans'">Mengklik tombol "Tambah Produk Baru"</text><rect x="126.3325" y="308.1719" width="397.7188" height="33.9688" fill="#F7F4EB" style="stroke:#022C22;stroke-width:0.5;" rx="12.5" ry="12.5"/><text x="136.3325" y="329.3105" fill="#022C22" font-size="12" lengthAdjust="spacing" textLength="377.7188" font-family="'Plus Jakarta Sans'">Menginput Nama Bunga, Kategori, Harga, &amp; Ketersediaan Stok</text><rect x="207.6812" y="362.1406" width="235.0215" height="33.9688" fill="#F7F4EB" style="stroke:#022C22;stroke-width:0.5;" rx="12.5" ry="12.5"/><text x="217.6812" y="383.2793" fill="#022C22" font-size="12" lengthAdjust="spacing" textLength="215.0215" font-family="'Plus Jakarta Sans'">Memilih berkas gambar foto produk</text><rect x="234.9185" y="416.1094" width="180.5469" height="33.9688" fill="#F7F4EB" style="stroke:#022C22;stroke-width:0.5;" rx="12.5" ry="12.5"/><text x="244.9185" y="437.248" fill="#022C22" font-size="12" lengthAdjust="spacing" textLength="160.5469" font-family="'Plus Jakarta Sans'">Menekan tombol "Simpan"</text><polygon points="194.2983,470.0781,456.0854,470.0781,468.0854,482.0781,456.0854,494.0781,194.2983,494.0781,182.2983,482.0781,194.2983,470.0781" fill="#F7F4EB" style="stroke:#022C22;stroke-width:0.5;stroke-linejoin:miter;stroke-miterlimit:10;"/><text x="194.2983" y="485.8862" fill="#022C22" font-size="11" lengthAdjust="spacing" textLength="261.7871" font-family="'Plus Jakarta Sans'">Apakah input harga/stok >= 0 &amp; gambar valid?</text><text x="168.8384" y="479.4839" fill="#000000" font-size="11" lengthAdjust="spacing" textLength="13.46" font-family="'Plus Jakarta Sans'">Ya</text><text x="468.0854" y="479.4839" fill="#000000" font-size="11" lengthAdjust="spacing" textLength="29.8687" font-family="'Plus Jakarta Sans'">Tidak</text><rect x="16.627" y="504.0781" width="284.8262" height="47.9375" fill="#F7F4EB" style="stroke:#022C22;stroke-width:0.5;" rx="12.5" ry="12.5"/><text x="26.627" y="525.2168" fill="#022C22" font-size="12" lengthAdjust="spacing" textLength="238.8633" font-family="'Plus Jakarta Sans'">Sistem mengunggah gambar ke server;</text><text x="26.627" y="539.1855" fill="#022C22" font-size="12" lengthAdjust="spacing" textLength="264.8262" font-family="'Plus Jakarta Sans'">Menyimpan record baru ke tabel `products`</text><rect x="16" y="572.0156" width="286.0801" height="47.9375" fill="#F7F4EB" style="stroke:#022C22;stroke-width:0.5;" rx="12.5" ry="12.5"/><text x="26" y="593.1543" fill="#022C22" font-size="12" lengthAdjust="spacing" textLength="150.8672" font-family="'Plus Jakarta Sans'">Melihat notifikasi sukses;</text><text x="26" y="607.123" fill="#022C22" font-size="12" lengthAdjust="spacing" textLength="266.0801" font-family="'Plus Jakarta Sans'">Produk baru tersemat di tabel daftar produk</text><ellipse cx="159.04" cy="664.9219" rx="11" ry="11" fill="none" style="stroke:#222222;stroke-width:1;"/><ellipse cx="159.04" cy="664.9219" rx="6" ry="6" fill="#222222" style="stroke:#222222;stroke-width:1;"/><rect x="331.8975" y="504.0781" width="318.8926" height="47.9375" fill="#F7F4EB" style="stroke:#022C22;stroke-width:0.5;" rx="12.5" ry="12.5"/><text x="341.8975" y="525.2168" fill="#022C22" font-size="12" lengthAdjust="spacing" textLength="186.5742" font-family="'Plus Jakarta Sans'">Sistem menolak penyimpanan;</text><text x="341.8975" y="539.1855" fill="#022C22" font-size="12" lengthAdjust="spacing" textLength="298.8926" font-family="'Plus Jakarta Sans'">Menampilkan pesan validasi error di atas formulir</text><rect x="322.0801" y="572.0156" width="338.5273" height="33.9688" fill="#F7F4EB" style="stroke:#022C22;stroke-width:0.5;" rx="12.5" ry="12.5"/><text x="332.0801" y="593.1543" fill="#022C22" font-size="12" lengthAdjust="spacing" textLength="318.5273" font-family="'Plus Jakarta Sans'">Memperbaiki input yang salah &amp; klik simpan kembali</text><ellipse cx="491.3438" cy="650.9531" rx="11" ry="11" fill="none" style="stroke:#222222;stroke-width:1;"/><ellipse cx="491.3438" cy="650.9531" rx="6" ry="6" fill="#222222" style="stroke:#222222;stroke-width:1;"/><line x1="325.1919" y1="72.2969" x2="325.1919" y2="92.2969" style="stroke:#10B981;stroke-width:1;"/><polygon points="321.1919,82.2969,329.1919,82.2969,325.1919,92.2969" fill="#10B981" style="stroke:#10B981;stroke-width:1;stroke-linejoin:miter;stroke-miterlimit:10;"/><line x1="325.1919" y1="126.2656" x2="325.1919" y2="146.2656" style="stroke:#10B981;stroke-width:1;"/><polygon points="321.1919,136.2656,329.1919,136.2656,325.1919,146.2656" fill="#10B981" style="stroke:#10B981;stroke-width:1;stroke-linejoin:miter;stroke-miterlimit:10;"/><line x1="325.1919" y1="180.2344" x2="325.1919" y2="200.2344" style="stroke:#10B981;stroke-width:1;"/><polygon points="321.1919,190.2344,329.1919,190.2344,325.1919,200.2344" fill="#10B981" style="stroke:#10B981;stroke-width:1;stroke-linejoin:miter;stroke-miterlimit:10;"/><line x1="325.1919" y1="234.2031" x2="325.1919" y2="254.2031" style="stroke:#10B981;stroke-width:1;"/><polygon points="321.1919,244.2031,329.1919,244.2031,325.1919,254.2031" fill="#10B981" style="stroke:#10B981;stroke-width:1;stroke-linejoin:miter;stroke-miterlimit:10;"/><line x1="325.1919" y1="288.1719" x2="325.1919" y2="308.1719" style="stroke:#10B981;stroke-width:1;"/><polygon points="321.1919,298.1719,329.1919,298.1719,325.1919,308.1719" fill="#10B981" style="stroke:#10B981;stroke-width:1;stroke-linejoin:miter;stroke-miterlimit:10;"/><line x1="325.1919" y1="342.1406" x2="325.1919" y2="362.1406" style="stroke:#10B981;stroke-width:1;"/><polygon points="321.1919,352.1406,329.1919,352.1406,325.1919,362.1406" fill="#10B981" style="stroke:#10B981;stroke-width:1;stroke-linejoin:miter;stroke-miterlimit:10;"/><line x1="325.1919" y1="396.1094" x2="325.1919" y2="416.1094" style="stroke:#10B981;stroke-width:1;"/><polygon points="321.1919,406.1094,329.1919,406.1094,325.1919,416.1094" fill="#10B981" style="stroke:#10B981;stroke-width:1;stroke-linejoin:miter;stroke-miterlimit:10;"/><line x1="159.04" y1="552.0156" x2="159.04" y2="572.0156" style="stroke:#10B981;stroke-width:1;"/><polygon points="155.04,562.0156,163.04,562.0156,159.04,572.0156" fill="#10B981" style="stroke:#10B981;stroke-width:1;stroke-linejoin:miter;stroke-miterlimit:10;"/><line x1="159.04" y1="619.9531" x2="159.04" y2="653.9219" style="stroke:#10B981;stroke-width:1;"/><polygon points="155.04,643.9219,163.04,643.9219,159.04,653.9219" fill="#10B981" style="stroke:#10B981;stroke-width:1;stroke-linejoin:miter;stroke-miterlimit:10;"/><line x1="491.3438" y1="552.0156" x2="491.3438" y2="572.0156" style="stroke:#10B981;stroke-width:1;"/><polygon points="487.3438,562.0156,495.3438,562.0156,491.3438,572.0156" fill="#10B981" style="stroke:#10B981;stroke-width:1;stroke-linejoin:miter;stroke-miterlimit:10;"/><line x1="491.3438" y1="605.9844" x2="491.3438" y2="639.9531" style="stroke:#10B981;stroke-width:1;"/><polygon points="487.3438,629.9531,495.3438,629.9531,491.3438,639.9531" fill="#10B981" style="stroke:#10B981;stroke-width:1;stroke-linejoin:miter;stroke-miterlimit:10;"/><line x1="182.2983" y1="482.0781" x2="159.04" y2="482.0781" style="stroke:#10B981;stroke-width:1;"/><line x1="159.04" y1="482.0781" x2="159.04" y2="504.0781" style="stroke:#10B981;stroke-width:1;"/><polygon points="155.04,494.0781,163.04,494.0781,159.04,504.0781" fill="#10B981" style="stroke:#10B981;stroke-width:1;stroke-linejoin:miter;stroke-miterlimit:10;"/><line x1="468.0854" y1="482.0781" x2="491.3438" y2="482.0781" style="stroke:#10B981;stroke-width:1;"/><line x1="491.3438" y1="482.0781" x2="491.3438" y2="504.0781" style="stroke:#10B981;stroke-width:1;"/><polygon points="487.3438,494.0781,495.3438,494.0781,491.3438,504.0781" fill="#10B981" style="stroke:#10B981;stroke-width:1;stroke-linejoin:miter;stroke-miterlimit:10;"/><line x1="325.1919" y1="450.0781" x2="325.1919" y2="470.0781" style="stroke:#10B981;stroke-width:1;"/><polygon points="321.1919,460.0781,329.1919,460.0781,325.1919,470.0781" fill="#10B981" style="stroke:#10B981;stroke-width:1;stroke-linejoin:miter;stroke-miterlimit:10;"/><?plantuml-src XLDBRzD04BxxLuo2X5AfG1iL0Qq0DKqZH2cgI7j0uj1nFBP7-x9crwdoxna_KaLg2tlmmVFvU-qu6lOD2ZfOfQqbY4budLfdi_WuML29hKtBuDDFT0IJ6zj6-8u69I6iqCV97lfydNZ3QJl7jQaajBwu23O8l5f-M9vSpfz31Yb8HjJHR7Oncps3wkHVn8Y4Xt5uV3J_zF5uRxXAwlEbuUMZlSlbYPxzs8mk-EB_ENR0VyOOGKzJP8cJ5l_-BTn54bZQy01luBnmxE6QFBeSQuCURYGKhO4vIWlJYrztYuCiYrsqxFH7g1GSASSAUVYKzI8n1JdBJg_9vQr1M62iyu1I38X-uYiqaIBKQD6fo6I1fNAEOfCHOomRIC7bmSBajdUqRsS7qwXj0bqHX7chp8TmXOcg87m8tr2w5w_XYX99f89HvLOfcC4XMwuX9p4OeUeK1CgG0ZIzp210NGqx6ojs3NgLphY4wNcZsrZ3uA3kjDv5vOOld-58HKV63LeklXv0gid3z3SUPA3dTALbaGEd4THsfJmZtkZ_GB8XEVlZLN_RIuBGMcyQykuY594m9mltlT5rYlTd0-arQI9Cu4FYaZKMGsoxhfLhxAvdwDjm2Ynuf2g6AzWbxzWqIvEHZGJJMoxGF34UB1feTXRH3uRHDMoxqXgA-kpZTqP8VnVf135ftMKGrrgMH-Ek8ScH3OzzRj5N47L3QgsotuKuD65qivHptwClkFmB?></g></svg>