<svg xmlns="http://www.w3.org/2000/svg" xmlns:xlink="http://www.w3.org/1999/xlink" version="1.1" data-diagram-type="ACTIVITY" style="width:723px;height:910px;background:#FFFFFF;" width="723px" height="910px" viewBox="0 0 723 910" zoomAndPan="magnify" preserveAspectRatio="none" contentStyleType="text/css"><?plantuml 1.2026.7beta3?><defs/><g><g class="title" data-source-line="13"><text x="74.623" y="32.9951" fill="#000000" font-size="14" lengthAdjust="spacing" textLength="572.7148" font-weight="700" font-family="'Plus Jakarta Sans'">1. User Flow - Tamu ke Checkout Sukses (Guest to Completed Checkout)</text></g><ellipse cx="350.7227" cy="62.2969" rx="10" ry="10" fill="#222222" style="stroke:#222222;stroke-width:1;"/><rect x="257.3672" y="92.2969" width="186.7109" height="33.9688" fill="#F7F4EB" style="stroke:#022C22;stroke-width:0.5;" rx="12.5" ry="12.5"/><text x="267.3672" y="113.4355" fill="#022C22" font-size="12" lengthAdjust="spacing" textLength="166.7109" font-family="'Plus Jakarta Sans'">Masuk ke Beranda Little Joy</text><rect x="214.084" y="146.2656" width="273.2773" height="33.9688" fill="#F7F4EB" style="stroke:#022C22;stroke-width:0.5;" rx="12.5" ry="12.5"/><text x="224.084" y="167.4043" fill="#022C22" font-size="12" lengthAdjust="spacing" textLength="253.2773" font-family="'Plus Jakarta Sans'">Membuka Katalog &amp; Memilih Buket Bunga</text><rect x="182.8037" y="200.2344" width="335.8379" height="33.9688" fill="#F7F4EB" style="stroke:#022C22;stroke-width:0.5;" rx="12.5" ry="12.5"/><text x="192.8037" y="221.373" fill="#022C22" font-size="12" lengthAdjust="spacing" textLength="315.8379" font-family="'Plus Jakarta Sans'">Mengatur Kuantitas &amp; Klik "Masukkan Ke Keranjang"</text><polygon points="269.3962,254.2031,432.0491,254.2031,444.0491,266.2031,432.0491,278.2031,269.3962,278.2031,257.3962,266.2031,269.3962,254.2031" fill="#F7F4EB" style="stroke:#022C22;stroke-width:0.5;stroke-linejoin:miter;stroke-miterlimit:10;"/><text x="269.3962" y="270.0112" fill="#022C22" font-size="11" lengthAdjust="spacing" textLength="162.6528" font-family="'Plus Jakarta Sans'">Apakah Tamu memiliki akun?</text><text x="227.5276" y="263.6089" fill="#000000" font-size="11" lengthAdjust="spacing" textLength="29.8687" font-family="'Plus Jakarta Sans'">Tidak</text><text x="444.0491" y="263.6089" fill="#000000" font-size="11" lengthAdjust="spacing" textLength="13.46" font-family="'Plus Jakarta Sans'">Ya</text><rect x="141.2632" y="288.2031" width="195.8164" height="33.9688" fill="#F7F4EB" style="stroke:#022C22;stroke-width:0.5;" rx="12.5" ry="12.5"/><text x="151.2632" y="309.3418" fill="#022C22" font-size="12" lengthAdjust="spacing" textLength="175.8164" font-family="'Plus Jakarta Sans'">Mengisi Form Registrasi Baru</text><rect x="157.2065" y="342.1719" width="163.9297" height="33.9688" fill="#F7F4EB" style="stroke:#022C22;stroke-width:0.5;" rx="12.5" ry="12.5"/><text x="167.2065" y="363.3105" fill="#022C22" font-size="12" lengthAdjust="spacing" textLength="143.9297" font-family="'Plus Jakarta Sans'">Akun terdaftar otomatis</text><rect x="357.0796" y="288.2031" width="210.3887" height="33.9688" fill="#F7F4EB" style="stroke:#022C22;stroke-width:0.5;" rx="12.5" ry="12.5"/><text x="367.0796" y="309.3418" fill="#022C22" font-size="12" lengthAdjust="spacing" textLength="190.3887" font-family="'Plus Jakarta Sans'">Memasukkan Email &amp; Password</text><rect x="379.2251" y="342.1719" width="166.0977" height="33.9688" fill="#F7F4EB" style="stroke:#022C22;stroke-width:0.5;" rx="12.5" ry="12.5"/><text x="389.2251" y="363.3105" fill="#022C22" font-size="12" lengthAdjust="spacing" textLength="146.0977" font-family="'Plus Jakarta Sans'">Autentikasi sesi berhasil</text><polygon points="350.7227,382.1406,362.7227,394.1406,350.7227,406.1406,338.7227,394.1406,350.7227,382.1406" fill="#F7F4EB" style="stroke:#022C22;stroke-width:0.5;stroke-linejoin:miter;stroke-miterlimit:10;"/><rect x="254.6074" y="426.1406" width="192.2305" height="33.9688" fill="#F7F4EB" style="stroke:#022C22;stroke-width:0.5;" rx="12.5" ry="12.5"/><text x="264.6074" y="447.2793" fill="#022C22" font-size="12" lengthAdjust="spacing" textLength="172.2305" font-family="'Plus Jakarta Sans'">Membuka Keranjang Belanja</text><rect x="228.9697" y="480.1094" width="243.5059" height="33.9688" fill="#F7F4EB" style="stroke:#022C22;stroke-width:0.5;" rx="12.5" ry="12.5"/><text x="238.9697" y="501.248" fill="#022C22" font-size="12" lengthAdjust="spacing" textLength="223.5059" font-family="'Plus Jakarta Sans'">Memeriksa Rincian &amp; Klik "Checkout"</text><rect x="197.168" y="534.0781" width="307.1094" height="47.9375" fill="#F7F4EB" style="stroke:#022C22;stroke-width:0.5;" rx="12.5" ry="12.5"/><text x="207.168" y="555.2168" fill="#022C22" font-size="12" lengthAdjust="spacing" textLength="171.6738" font-family="'Plus Jakarta Sans'">Mengisi Formulir Pengiriman</text><text x="207.168" y="569.1855" fill="#022C22" font-size="12" lengthAdjust="spacing" textLength="287.1094" font-family="'Plus Jakarta Sans'">(Penerima, Alamat, Tanggal Kirim, Pesan Kartu)</text><rect x="222.4746" y="602.0156" width="256.4961" height="33.9688" fill="#F7F4EB" style="stroke:#022C22;stroke-width:0.5;" rx="12.5" ry="12.5"/><text x="232.4746" y="623.1543" fill="#022C22" font-size="12" lengthAdjust="spacing" textLength="236.4961" font-family="'Plus Jakarta Sans'">Menekan Tombol "Konfirmasi Pesanan"</text><polygon points="242.2588,655.9844,459.1865,655.9844,471.1865,667.9844,459.1865,679.9844,242.2588,679.9844,230.2588,667.9844,242.2588,655.9844" fill="#F7F4EB" style="stroke:#022C22;stroke-width:0.5;stroke-linejoin:miter;stroke-miterlimit:10;"/><text x="242.2588" y="671.7925" fill="#022C22" font-size="11" lengthAdjust="spacing" textLength="216.9277" font-family="'Plus Jakarta Sans'">Apakah stok produk masih mencukupi?</text><text x="216.7988" y="665.3901" fill="#000000" font-size="11" lengthAdjust="spacing" textLength="13.46" font-family="'Plus Jakarta Sans'">Ya</text><text x="471.1865" y="665.3901" fill="#000000" font-size="11" lengthAdjust="spacing" textLength="98.0063" font-family="'Plus Jakarta Sans'">Tidak - Kehabisan</text><rect x="16" y="689.9844" width="315.4648" height="61.9063" fill="#F7F4EB" style="stroke:#022C22;stroke-width:0.5;" rx="12.5" ry="12.5"/><text x="26" y="711.123" fill="#022C22" font-size="12" lengthAdjust="spacing" textLength="205.207" font-family="'Plus Jakarta Sans'">Sistem memproses data pesanan;</text><text x="26" y="725.0918" fill="#022C22" font-size="12" lengthAdjust="spacing" textLength="295.4648" font-family="'Plus Jakarta Sans'">Nomor pesanan terbentuk (LJ-YYYYMMDD-XXXX);</text><text x="26" y="739.0605" fill="#022C22" font-size="12" lengthAdjust="spacing" textLength="188.6309" font-family="'Plus Jakarta Sans'">Keranjang belanja dikosongkan</text><rect x="46.4775" y="785.8594" width="254.5098" height="47.9375" fill="#F7F4EB" style="stroke:#022C22;stroke-width:0.5;" rx="12.5" ry="12.5"/><text x="56.4775" y="806.998" fill="#022C22" font-size="12" lengthAdjust="spacing" textLength="212.6777" font-family="'Plus Jakarta Sans'">Melihat halaman Checkout Success</text><text x="56.4775" y="820.9668" fill="#022C22" font-size="12" lengthAdjust="spacing" textLength="234.5098" font-family="'Plus Jakarta Sans'">dengan rincian instruksi rekening bank</text><ellipse cx="173.7324" cy="879.7969" rx="11" ry="11" fill="none" style="stroke:#222222;stroke-width:1;"/><ellipse cx="173.7324" cy="879.7969" rx="6" ry="6" fill="#222222" style="stroke:#222222;stroke-width:1;"/><rect x="351.4648" y="689.9844" width="352.4961" height="47.9375" fill="#F7F4EB" style="stroke:#022C22;stroke-width:0.5;" rx="12.5" ry="12.5"/><text x="361.4648" y="711.123" fill="#022C22" font-size="12" lengthAdjust="spacing" textLength="159.0938" font-family="'Plus Jakarta Sans'">Sistem menolak checkout;</text><text x="361.4648" y="725.0918" fill="#022C22" font-size="12" lengthAdjust="spacing" textLength="332.4961" font-family="'Plus Jakarta Sans'">Kembali ke keranjang belanja dengan pesan kesalahan</text><rect x="390.623" y="771.8906" width="274.1797" height="33.9688" fill="#F7F4EB" style="stroke:#022C22;stroke-width:0.5;" rx="12.5" ry="12.5"/><text x="400.623" y="793.0293" fill="#022C22" font-size="12" lengthAdjust="spacing" textLength="254.1797" font-family="'Plus Jakarta Sans'">Mengubah kuantitas / memilih produk lain</text><ellipse cx="527.7129" cy="851.8594" rx="11" ry="11" fill="none" style="stroke:#222222;stroke-width:1;"/><ellipse cx="527.7129" cy="851.8594" rx="6" ry="6" fill="#222222" style="stroke:#222222;stroke-width:1;"/><line x1="350.7227" y1="72.2969" x2="350.7227" y2="92.2969" style="stroke:#10B981;stroke-width:1;"/><polygon points="346.7227,82.2969,354.7227,82.2969,350.7227,92.2969" fill="#10B981" style="stroke:#10B981;stroke-width:1;stroke-linejoin:miter;stroke-miterlimit:10;"/><line x1="350.7227" y1="126.2656" x2="350.7227" y2="146.2656" style="stroke:#10B981;stroke-width:1;"/><polygon points="346.7227,136.2656,354.7227,136.2656,350.7227,146.2656" fill="#10B981" style="stroke:#10B981;stroke-width:1;stroke-linejoin:miter;stroke-miterlimit:10;"/><line x1="350.7227" y1="180.2344" x2="350.7227" y2="200.2344" style="stroke:#10B981;stroke-width:1;"/><polygon points="346.7227,190.2344,354.7227,190.2344,350.7227,200.2344" fill="#10B981" style="stroke:#10B981;stroke-width:1;stroke-linejoin:miter;stroke-miterlimit:10;"/><line x1="239.1714" y1="322.1719" x2="239.1714" y2="342.1719" style="stroke:#10B981;stroke-width:1;"/><polygon points="235.1714,332.1719,243.1714,332.1719,239.1714,342.1719" fill="#10B981" style="stroke:#10B981;stroke-width:1;stroke-linejoin:miter;stroke-miterlimit:10;"/><line x1="462.2739" y1="322.1719" x2="462.2739" y2="342.1719" style="stroke:#10B981;stroke-width:1;"/><polygon points="458.2739,332.1719,466.2739,332.1719,462.2739,342.1719" fill="#10B981" style="stroke:#10B981;stroke-width:1;stroke-linejoin:miter;stroke-miterlimit:10;"/><line x1="257.3962" y1="266.2031" x2="239.1714" y2="266.2031" style="stroke:#10B981;stroke-width:1;"/><line x1="239.1714" y1="266.2031" x2="239.1714" y2="288.2031" style="stroke:#10B981;stroke-width:1;"/><polygon points="235.1714,278.2031,243.1714,278.2031,239.1714,288.2031" fill="#10B981" style="stroke:#10B981;stroke-width:1;stroke-linejoin:miter;stroke-miterlimit:10;"/><line x1="444.0491" y1="266.2031" x2="462.2739" y2="266.2031" style="stroke:#10B981;stroke-width:1;"/><line x1="462.2739" y1="266.2031" x2="462.2739" y2="288.2031" style="stroke:#10B981;stroke-width:1;"/><polygon points="458.2739,278.2031,466.2739,278.2031,462.2739,288.2031" fill="#10B981" style="stroke:#10B981;stroke-width:1;stroke-linejoin:miter;stroke-miterlimit:10;"/><line x1="239.1714" y1="376.1406" x2="239.1714" y2="394.1406" style="stroke:#10B981;stroke-width:1;"/><line x1="239.1714" y1="394.1406" x2="338.7227" y2="394.1406" style="stroke:#10B981;stroke-width:1;"/><polygon points="328.7227,390.1406,338.7227,394.1406,328.7227,398.1406" fill="#10B981" style="stroke:#10B981;stroke-width:1;stroke-linejoin:miter;stroke-miterlimit:10;"/><line x1="462.2739" y1="376.1406" x2="462.2739" y2="394.1406" style="stroke:#10B981;stroke-width:1;"/><line x1="462.2739" y1="394.1406" x2="362.7227" y2="394.1406" style="stroke:#10B981;stroke-width:1;"/><polygon points="372.7227,390.1406,362.7227,394.1406,372.7227,398.1406" fill="#10B981" style="stroke:#10B981;stroke-width:1;stroke-linejoin:miter;stroke-miterlimit:10;"/><line x1="350.7227" y1="234.2031" x2="350.7227" y2="254.2031" style="stroke:#10B981;stroke-width:1;"/><polygon points="346.7227,244.2031,354.7227,244.2031,350.7227,254.2031" fill="#10B981" style="stroke:#10B981;stroke-width:1;stroke-linejoin:miter;stroke-miterlimit:10;"/><line x1="350.7227" y1="406.1406" x2="350.7227" y2="426.1406" style="stroke:#10B981;stroke-width:1;"/><polygon points="346.7227,416.1406,354.7227,416.1406,350.7227,426.1406" fill="#10B981" style="stroke:#10B981;stroke-width:1;stroke-linejoin:miter;stroke-miterlimit:10;"/><line x1="350.7227" y1="460.1094" x2="350.7227" y2="480.1094" style="stroke:#10B981;stroke-width:1;"/><polygon points="346.7227,470.1094,354.7227,470.1094,350.7227,480.1094" fill="#10B981" style="stroke:#10B981;stroke-width:1;stroke-linejoin:miter;stroke-miterlimit:10;"/><line x1="350.7227" y1="514.0781" x2="350.7227" y2="534.0781" style="stroke:#10B981;stroke-width:1;"/><polygon points="346.7227,524.0781,354.7227,524.0781,350.7227,534.0781" fill="#10B981" style="stroke:#10B981;stroke-width:1;stroke-linejoin:miter;stroke-miterlimit:10;"/><line x1="350.7227" y1="582.0156" x2="350.7227" y2="602.0156" style="stroke:#10B981;stroke-width:1;"/><polygon points="346.7227,592.0156,354.7227,592.0156,350.7227,602.0156" fill="#10B981" style="stroke:#10B981;stroke-width:1;stroke-linejoin:miter;stroke-miterlimit:10;"/><line x1="173.7324" y1="751.8906" x2="173.7324" y2="785.8594" style="stroke:#10B981;stroke-width:1;"/><polygon points="169.7324,775.8594,177.7324,775.8594,173.7324,785.8594" fill="#10B981" style="stroke:#10B981;stroke-width:1;stroke-linejoin:miter;stroke-miterlimit:10;"/><line x1="173.7324" y1="833.7969" x2="173.7324" y2="868.7969" style="stroke:#10B981;stroke-width:1;"/><polygon points="169.7324,858.7969,177.7324,858.7969,173.7324,868.7969" fill="#10B981" style="stroke:#10B981;stroke-width:1;stroke-linejoin:miter;stroke-miterlimit:10;"/><line x1="527.7129" y1="737.9219" x2="527.7129" y2="771.8906" style="stroke:#10B981;stroke-width:1;"/><polygon points="523.7129,761.8906,531.7129,761.8906,527.7129,771.8906" fill="#10B981" style="stroke:#10B981;stroke-width:1;stroke-linejoin:miter;stroke-miterlimit:10;"/><line x1="527.7129" y1="805.8594" x2="527.7129" y2="840.8594" style="stroke:#10B981;stroke-width:1;"/><polygon points="523.7129,830.8594,531.7129,830.8594,527.7129,840.8594" fill="#10B981" style="stroke:#10B981;stroke-width:1;stroke-linejoin:miter;stroke-miterlimit:10;"/><line x1="230.2588" y1="667.9844" x2="173.7324" y2="667.9844" style="stroke:#10B981;stroke-width:1;"/><line x1="173.7324" y1="667.9844" x2="173.7324" y2="689.9844" style="stroke:#10B981;stroke-width:1;"/><polygon points="169.7324,679.9844,177.7324,679.9844,173.7324,689.9844" fill="#10B981" style="stroke:#10B981;stroke-width:1;stroke-linejoin:miter;stroke-miterlimit:10;"/><line x1="471.1865" y1="667.9844" x2="527.7129" y2="667.9844" style="stroke:#10B981;stroke-width:1;"/><line x1="527.7129" y1="667.9844" x2="527.7129" y2="689.9844" style="stroke:#10B981;stroke-width:1;"/><polygon points="523.7129,679.9844,531.7129,679.9844,527.7129,689.9844" fill="#10B981" style="stroke:#10B981;stroke-width:1;stroke-linejoin:miter;stroke-miterlimit:10;"/><line x1="350.7227" y1="635.9844" x2="350.7227" y2="655.9844" style="stroke:#10B981;stroke-width:1;"/><polygon points="346.7227,645.9844,354.7227,645.9844,350.7227,655.9844" fill="#10B981" style="stroke:#10B981;stroke-width:1;stroke-linejoin:miter;stroke-miterlimit:10;"/><?plantuml-src XLFRQjj047tNLmmk51kIDZ61NlnGRCSkn4a8SGeDv6KahQNftinU6lBtcTN55KtIBiRIQixEp3bpraioUtIeOHkUb00V71KXQfNvG-HSx32giBOcNACMCBfHqSC5IdG1OOl6ZmReUH7eDuMd1HQoSZQQSccLTV1k_MbzjbgyXhIk5Av3dKodo-dq5LGg_oR6EVlO1KzF5by-dmw2sy1zlXLS7TfRhSzu3MaJQclA__FeWV-aqO5UiiW21HR-z0FyyCB1Mjb7E8Oxr16aW6Kj2cbZW6sKNdWOVu_21mWMbbRlbGYYF60cMUOJr-ph5Veeq_65S6XAX4iAgSY5VPfnLEWyIeGD1bIsWlV0NqXH3OieHU1_Ks63usU83ZOH3NU9dg4RHH96JG691ZQ2VrpZ5vfgDCje1-FvdfrHjmnqarWIe8pcsmH2BGoCxwX4ESc0LrE4FC7QEWstWj-3GzulqCLP2vdpMGZ2bRXZUc23rHZ8ppAXl83nFHvIwRwjbKPItEqDUl_8S-apnI2OYKm5M4s2NBYQDufpcP9ssK2SdXLhgD9RAvnm93t2BPc2k4wlHp-2KITRpoWgSd2JFZZIQ1xCc3SYlH_1N27pE6AXJ5MXWat2737Q9rrvZd7IPXE9qPtLkLKmsbYp8wSJWmQ9XciETVV1IjWxMx834gpc8PWYohYdmm0EacrPRg7JcFX4ybV9de1zctZsOAwjPgjs-pI3dFNZnEFBY-DxNbTNv-V7FtbD6Fn7ihoL34gIrbjJCO5PFoFs6GQeCR4tGtyNXV3-mPJ9TGPSfp0PDWHxdy09AGobx6XacuwvxZiND9xYYxCHDUR4_VxDq5Z5WAAhrxIhSrIKhebysNdRHSESmvxRhGSaJ1LprbeUBiR7pkfrBxr2CiCcaxsU0G00?></g></svg>